<svg width="445" height="445" viewBox="0 0 445 445" fill="none" xmlns="http://www.w3.org/2000/svg">
<g filter="url(#filter0_i_11_394)">
<circle cx="222.742" cy="222.628" r="157" transform="rotate(-45 222.742 222.628)" fill="url(#paint0_linear_11_394)"/>
</g>
<circle cx="222.742" cy="222.628" r="155" transform="rotate(-45 222.742 222.628)" stroke="url(#paint1_linear_11_394)" stroke-width="4"/>
<g filter="url(#filter1_f_11_394)">
<path d="M295.554 284.255C330.047 245.087 326.258 185.373 287.09 150.88C247.922 116.386 188.208 120.176 153.715 159.343C119.222 198.511 123.011 258.225 162.179 292.718C201.346 327.212 261.06 323.422 295.554 284.255Z" fill="white"/>
</g>
<g filter="url(#filter2_dd_11_394)">
<path d="M222 324C233.598 324 243 333.402 243 345C243 356.598 233.598 366 222 366C210.402 366 201 356.598 201 345C201 333.402 210.402 324 222 324Z" fill="url(#paint2_linear_11_394)"/>
<path d="M222 77C232.493 77 241 85.5066 241 96C241 106.493 232.493 115 222 115C211.507 115 203 106.493 203 96C203 85.5066 211.507 77 222 77Z" stroke="url(#paint3_linear_11_394)" stroke-width="4"/>
<path d="M333.647 151.2C335.905 146.262 335.94 141.996 335.675 140.48C338.077 142.284 339.844 144.567 341.273 148.637C342.701 152.706 341.424 157.345 340.663 159.451C338.679 164.231 334.421 167.587 330.804 169.211C327.188 170.834 323.939 170.881 318.571 168.507C310.195 164.222 309.102 157.571 309 155.81C313.588 159.36 320.115 159.582 322.805 159.25C325.478 158.623 331.389 156.137 333.647 151.2Z" fill="url(#paint4_linear_11_394)"/>
<path d="M112.272 151.2C110.014 146.262 109.979 141.996 110.244 140.48C107.842 142.284 106.075 144.567 104.646 148.637C103.218 152.706 104.495 157.345 105.256 159.451C107.24 164.231 111.498 167.587 115.115 169.211C118.731 170.834 121.98 170.881 127.348 168.507C135.724 164.222 136.817 157.571 136.919 155.81C132.331 159.36 125.804 159.582 123.114 159.25C120.441 158.623 114.53 156.137 112.272 151.2Z" fill="url(#paint5_linear_11_394)"/>
<path d="M333.647 293.683C335.905 298.62 335.94 302.886 335.675 304.402C338.077 302.598 339.844 300.315 341.273 296.246C342.701 292.176 341.424 287.538 340.663 285.432C338.679 280.652 334.421 277.295 330.804 275.672C327.188 274.048 323.939 274.001 318.571 276.376C310.195 280.661 309.102 287.312 309 289.073C313.588 285.522 320.115 285.3 322.805 285.633C325.478 286.259 331.389 288.746 333.647 293.683Z" fill="url(#paint6_linear_11_394)"/>
<path d="M112.272 293.683C110.014 298.62 109.979 302.886 110.244 304.402C107.842 302.598 106.075 300.315 104.646 296.246C103.218 292.176 104.495 287.538 105.256 285.432C107.24 280.652 111.498 277.295 115.115 275.672C118.731 274.048 121.98 274.001 127.348 276.376C135.724 280.661 136.817 287.312 136.919 289.073C132.331 285.522 125.804 285.3 123.114 285.633C120.441 286.259 114.53 288.746 112.272 293.683Z" fill="url(#paint7_linear_11_394)"/>
</g>
<circle cx="223" cy="223" r="88" fill="url(#paint8_linear_11_394)"/>
<g style="mix-blend-mode:overlay">
<g filter="url(#filter3_dd_11_394)">
<path d="M225 312C274.706 312 315 271.706 315 222C315 172.294 274.706 132 225 132C175.294 132 135 172.294 135 222C135 271.706 175.294 312 225 312Z" fill="url(#paint9_linear_11_394)"/>
</g>
<g style="mix-blend-mode:overlay">
<path d="M169.661 283.5C164.861 277.9 153.994 272.167 149.161 270L148.161 270.5C133.361 249.7 133.994 220.5 136.161 208.5C136.161 211.7 141.327 213.667 143.661 214L147.661 223.5C150.661 224.667 155.861 226.1 152.661 222.5C149.461 218.9 151.327 213.667 152.661 211.5C151.494 210 149.161 206.6 149.161 205C149.161 203.4 152.827 200 154.661 198.5C153.994 197.5 155.261 192.8 165.661 182C176.061 171.2 188.661 178.5 193.661 183.5L192.161 178C192.494 173.833 194.161 166 198.161 168C202.161 170 204.161 167.167 204.661 165.5C204.161 164.167 203.861 161.3 206.661 160.5C215.161 166.5 212.661 163.5 226.661 168C237.861 171.6 237.661 167.833 236.161 165.5L229.661 160.5C233.494 160.167 242.261 159.2 246.661 158C267.861 165.2 267.827 155 265.161 149H276.161C299.661 165.5 312.161 195.5 314.161 211.5C315.761 224.3 314.661 236 313.161 240.5L308.161 235.5C305.494 231.833 300.661 224.5 302.661 224.5C304.661 224.5 305.161 215.833 305.161 211.5C304.661 207.167 303.461 197.9 302.661 195.5C301.965 193.411 297.936 189.909 295.255 187.827C296.34 188.927 296.899 190.675 294.161 192.5C290.561 194.9 289.994 197.5 290.161 198.5C287.994 202.333 283.461 207.7 282.661 198.5C281.861 189.3 274.661 187 271.161 187C270.661 185.333 268.161 181.5 262.161 179.5C256.161 177.5 254.994 180.333 255.161 182C255.494 185.5 257.361 193.1 262.161 195.5C266.961 197.9 264.161 201.167 262.161 202.5C259.161 205.667 253.061 210.1 252.661 202.5C252.261 194.9 249.827 194.667 248.661 195.5C248.994 196.667 248.261 198.9 242.661 198.5C237.061 198.1 229.661 194.333 226.661 192.5C230.994 195.167 237.061 201.4 226.661 205C216.261 208.6 222.327 214.167 226.661 216.5C228.327 218.5 230.061 222.9 223.661 224.5C217.261 226.1 218.661 229.167 220.161 230.5C216.494 234.333 210.861 241.7 217.661 240.5C224.461 239.3 231.494 243.333 234.161 245.5L239.661 253C243.161 254.5 249.461 257.5 246.661 257.5C243.861 257.5 244.494 262.5 245.161 265C242.827 268 238.461 274.5 239.661 276.5C240.861 278.5 239.161 283.667 238.161 286H231.661C231.661 284.5 230.661 281.5 226.661 281.5C221.661 281.5 226.161 286 226.661 288C227.061 289.6 220.827 291.667 217.661 292.5L212.661 289.5L204.661 286C206.327 286 209.561 285.1 209.161 281.5C208.761 277.9 201.661 277.333 198.161 277.5C198.494 278.833 198.561 281.5 196.161 281.5C193.761 281.5 195.161 284.5 196.161 286C194.494 285.167 191.561 284.4 193.161 288C194.761 291.6 192.494 290.5 191.161 289.5C185.994 289.833 174.461 289.1 169.661 283.5Z" fill="#D2D1D1" fill-opacity="0.5"/>
</g>
<g style="mix-blend-mode:overlay">
<path d="M292.907 229.458C289.212 233.686 291.817 236.407 293.581 237.24C292.729 238.084 290.392 238.994 289.33 239.343C287.796 239.69 284.302 241.231 282.59 244.618C280.879 248.005 279.99 246.493 279.759 245.313L272.682 246.698L266.709 237.834L265.661 234.647C265.902 233.47 266.956 229.42 269.248 222.641C271.539 215.863 277.056 215.367 279.529 215.967C281.174 217.152 284.96 219.172 286.946 217.766C288.932 216.36 290.838 216.957 291.544 217.432C293.538 219.679 296.602 225.231 292.907 229.458Z" fill="#4E4646"/>
<path d="M270.453 272.144C274.702 270.748 277.162 274.176 277.862 276.065C277.857 277.196 275.96 279.828 275.012 281.002C274.653 282.297 273.653 284.886 272.521 284.881C271.39 284.876 267.799 286.747 266.145 287.683C267.092 286.744 267.853 285.144 263.323 286.257C258.793 287.369 257.668 285.761 257.672 284.819C257.09 283.048 256.351 279.51 258.048 279.517C259.745 279.524 260.649 277.642 260.888 276.7C261.009 276.112 261.532 274.935 262.663 274.94C264.078 274.946 265.143 273.89 270.453 272.144Z" fill="#4E4646"/>
</g>
<g style="mix-blend-mode:overlay">
<path d="M204 142.789L205.511 137.06C216.394 138.455 218.779 135.649 218.611 134.072C220.29 135.068 223.951 136.712 225.16 135.317C226.369 133.922 230.702 133.906 232.718 134.072C231.878 134.653 230.702 136.164 232.718 137.558C243.197 139.352 240.107 141.792 237.252 142.789C236.244 143.121 234.834 144.632 237.252 148.019C239.67 151.406 236.244 151.589 234.229 151.257C233.053 150.426 230.601 148.965 230.198 149.762C229.795 150.559 224.321 152.253 221.634 153C222.977 152.585 223.85 151.655 216.595 151.257C209.34 150.858 205.176 145.445 204 142.789Z" fill="#2E2D2D"/>
</g>
</g>
<ellipse cx="190.71" cy="165.028" rx="6.30168" ry="5.77654" fill="url(#paint10_radial_11_394)"/>
<ellipse cx="234.296" cy="158.201" rx="4.72626" ry="4.20112" fill="url(#paint11_radial_11_394)"/>
<circle cx="180.732" cy="198.637" r="3.67598" fill="url(#paint12_radial_11_394)"/>
<circle cx="241.123" cy="209.665" r="7.35196" fill="url(#paint13_radial_11_394)"/>
<ellipse cx="251.626" cy="173.43" rx="3.15084" ry="2.6257" fill="url(#paint14_radial_11_394)"/>
<circle cx="214.341" cy="223.844" r="3.67598" fill="url(#paint15_radial_11_394)"/>
<ellipse cx="212.24" cy="185.508" rx="1.57542" ry="2.10056" fill="url(#paint16_radial_11_394)"/>
<ellipse cx="193.86" cy="218.592" rx="3.15084" ry="1.57542" fill="url(#paint17_radial_11_394)"/>
<ellipse cx="253.201" cy="198.637" rx="1.57542" ry="3.67598" fill="url(#paint18_radial_11_394)"/>
<circle cx="276.832" cy="248.525" r="3.15084" fill="url(#paint19_radial_11_394)"/>
<ellipse cx="292.061" cy="220.693" rx="2.6257" ry="3.67598" fill="url(#paint20_radial_11_394)"/>
<circle cx="279.458" cy="189.184" r="5.77654" fill="url(#paint21_radial_11_394)"/>
<ellipse cx="158.151" cy="231.196" rx="3.15084" ry="3.67598" fill="url(#paint22_radial_11_394)"/>
<circle cx="178.631" cy="225.944" r="1.57542" fill="url(#paint23_radial_11_394)"/>
<ellipse cx="182.307" cy="250.101" rx="2.10056" ry="1.57542" fill="url(#paint24_radial_11_394)"/>
<ellipse cx="200.687" cy="279.508" rx="9.97765" ry="11.0279" fill="url(#paint25_radial_11_394)"/>
<ellipse cx="240.073" cy="266.905" rx="11.5531" ry="9.97765" fill="url(#paint26_radial_11_394)"/>
<ellipse cx="242.173" cy="233.296" rx="3.15084" ry="1.57542" fill="url(#paint27_radial_11_394)"/>
<ellipse cx="265.804" cy="272.682" rx="3.67598" ry="4.20112" fill="url(#paint28_radial_11_394)"/>
<circle cx="208.039" cy="248" r="2.6257" fill="url(#paint29_radial_11_394)"/>
<ellipse cx="231.145" cy="287.385" rx="2.6257" ry="3.15084" fill="url(#paint30_radial_11_394)"/>
<g filter="url(#filter4_dd_11_394)">
<path d="M346.26 223.5C345.768 221.874 346.055 220.383 346.26 219.84C346.328 220.993 346.833 223.419 347.488 223.907C347.693 224.11 348.102 224.11 348.307 223.907C348.512 223.704 349.331 222.687 349.74 219.84C349.945 220.383 350.232 221.874 349.74 223.5C349.249 225.127 349.809 230.007 350.15 232.244C350.491 233.938 351.624 237.734 353.426 239.36C355.678 241.394 356.906 241.19 358.34 240.58C358.995 240.255 359.022 239.903 358.954 239.767C358.954 239.564 358.749 239.279 357.93 239.767C357.111 240.255 356.36 240.106 356.087 239.97C355.678 239.903 354.695 239.076 354.04 236.31C353.385 233.545 354.859 230.661 355.678 230.414C357.248 229.939 360.755 228.177 362.23 224.924L362.434 223.907C362.503 223.704 362.557 223.216 362.23 222.89C361.82 222.484 361.001 222.28 360.182 221.264C361.001 221.264 362.885 220.857 363.868 219.23C364.85 217.604 365.233 216.79 365.301 216.587C365.642 215.57 366.611 213.171 367.758 211.707C368.904 210.243 369.054 208.928 368.986 208.454C368.918 207.708 368.167 206.176 365.71 206.014C363.253 205.851 360.319 207.166 359.158 207.844L355.883 209.877C353.972 211.3 349.904 214.513 348.921 215.977C348.717 215.57 348.717 215.367 348.102 215.164H347.898C347.283 215.367 347.283 215.57 347.079 215.977C346.096 214.513 342.028 211.3 340.117 209.877L336.842 207.844C335.681 207.166 332.747 205.851 330.29 206.014C327.833 206.176 327.082 207.708 327.014 208.454C326.946 208.928 327.096 210.243 328.242 211.707C329.389 213.171 330.358 215.57 330.699 216.587C330.767 216.79 331.15 217.604 332.132 219.23C333.115 220.857 334.999 221.264 335.818 221.264C334.999 222.28 334.18 222.484 333.77 222.89C333.443 223.216 333.497 223.704 333.566 223.907L333.77 224.924C335.245 228.177 338.752 229.939 340.322 230.414C341.141 230.661 342.615 233.545 341.96 236.31C341.305 239.076 340.322 239.903 339.913 239.97C339.64 240.106 338.889 240.255 338.07 239.767C337.251 239.279 337.046 239.564 337.046 239.767C336.978 239.903 337.005 240.255 337.66 240.58C339.094 241.19 340.322 241.394 342.574 239.36C344.376 237.734 345.509 233.938 345.85 232.244C346.191 230.007 346.751 225.127 346.26 223.5Z" fill="url(#paint31_linear_11_394)"/>
</g>
<g filter="url(#filter5_dd_11_394)">
<path d="M98.2597 223.5C97.7683 221.874 98.0549 220.383 98.2597 219.84C98.3279 220.993 98.833 223.419 99.4881 223.907C99.6929 224.11 100.102 224.11 100.307 223.907C100.512 223.704 101.331 222.687 101.74 219.84C101.945 220.383 102.232 221.874 101.74 223.5C101.249 225.127 101.809 230.007 102.15 232.244C102.491 233.938 103.624 237.734 105.426 239.36C107.678 241.394 108.906 241.19 110.34 240.58C110.995 240.255 111.022 239.903 110.954 239.767C110.954 239.564 110.749 239.279 109.93 239.767C109.111 240.255 108.36 240.106 108.087 239.97C107.678 239.903 106.695 239.076 106.04 236.31C105.385 233.545 106.859 230.661 107.678 230.414C109.248 229.939 112.755 228.177 114.23 224.924L114.434 223.907C114.503 223.704 114.557 223.216 114.23 222.89C113.82 222.484 113.001 222.28 112.182 221.264C113.001 221.264 114.885 220.857 115.868 219.23C116.85 217.604 117.233 216.79 117.301 216.587C117.642 215.57 118.611 213.171 119.758 211.707C120.904 210.243 121.054 208.928 120.986 208.454C120.918 207.708 120.167 206.176 117.71 206.014C115.253 205.851 112.319 207.166 111.158 207.844L107.883 209.877C105.972 211.3 101.904 214.513 100.921 215.977C100.717 215.57 100.717 215.367 100.102 215.164H99.8976C99.2834 215.367 99.2834 215.57 99.0787 215.977C98.0959 214.513 94.0283 211.3 92.1174 209.877L88.8415 207.844C87.6813 207.166 84.7466 205.851 82.2897 206.014C79.8328 206.176 79.0821 207.708 79.0138 208.454C78.9456 208.928 79.0957 210.243 80.2423 211.707C81.3889 213.171 82.358 215.57 82.6992 216.587C82.7675 216.79 83.1497 217.604 84.1324 219.23C85.1152 220.857 86.9988 221.264 87.8178 221.264C86.9988 222.28 86.1798 222.484 85.7704 222.89C85.4428 223.216 85.4974 223.704 85.5656 223.907L85.7704 224.924C87.2445 228.177 90.7524 229.939 92.3221 230.414C93.1411 230.661 94.6153 233.545 93.9601 236.31C93.3049 239.076 92.3221 239.903 91.9127 239.97C91.6397 240.106 90.8889 240.255 90.07 239.767C89.251 239.279 89.0462 239.564 89.0462 239.767C88.978 239.903 89.0053 240.255 89.6605 240.58C91.0937 241.19 92.3221 241.394 94.5743 239.36C96.376 237.734 97.509 233.938 97.8502 232.244C98.1914 230.007 98.7511 225.127 98.2597 223.5Z" fill="url(#paint32_linear_11_394)"/>
</g>
<g filter="url(#filter6_d_11_394)">
<path d="M272.338 101.193C272.628 101.063 273.947 98.6903 274.091 98.3905C274.324 99.4028 275.064 101.78 276.157 103.191C277.25 104.602 280.365 108.031 281.786 109.57L289.131 115.072L301.417 122.234C303.846 122.367 309.278 122.341 311.567 121.173C310.574 122.762 309.744 124.712 308.751 125.261C307.759 125.81 305.691 127.246 302.549 126.451C300.933 126.376 294.487 123.965 291.466 122.77L287.238 121.426L273.505 108.68L272.851 107.232C270.796 105.531 271.03 103.494 271.404 102.688C271.595 102.244 272.049 101.324 272.338 101.193Z" fill="url(#paint33_linear_11_394)"/>
<g filter="url(#filter7_dd_11_394)">
<path d="M275.644 102.35C275.56 100.323 277.505 97.7099 278.354 96.7679C281.764 99.6278 283.138 104.914 283.398 107.199L292.016 115.447C293.741 115.875 298.08 116.639 301.64 116.266C305.2 115.893 309.236 116.727 310.809 117.19C310.31 118.265 309.054 120.538 308.016 121.033C305.517 122.329 303.519 123.029 301.405 122.877C299.291 122.724 296.418 123.787 292.108 123.821C288.66 123.848 287.269 123.178 287.004 122.839L284.295 121.145C283.894 121.371 282.765 120.89 281.457 117.161C280.15 113.433 279.457 111.839 279.274 111.508C276.262 107.805 275.748 104.885 275.644 102.35Z" fill="url(#paint34_linear_11_394)"/>
</g>
<g filter="url(#filter8_d_11_394)">
<path d="M291.434 108.065C291.023 103.234 290.392 99.9627 290.127 98.9309C287.128 100.07 284.602 101.671 283.714 102.328C283.154 102.671 281.791 104.115 280.828 107.152C279.865 110.188 281.835 114.755 282.941 116.659L284.412 119.918L282.858 120.117C282.551 119.708 281.917 118.878 281.842 118.832C281.768 118.785 280.823 117.068 280.36 116.215C277.666 114.704 271.582 111.299 268.798 109.766C266.014 108.233 263.363 107.927 262.386 107.966C262.376 108.48 263.067 110.687 263.413 111.727C263.833 112.509 264.543 113.993 267.383 115.769C270.224 117.545 273.052 117.927 274.111 117.896L281.339 122.546L284.318 122.979L287.202 126.471L292.411 128.948C293.01 129.93 295.047 132.546 298.401 135.163C302.594 138.434 306.203 136.403 307.324 136.064C306.12 133.336 303.841 131.244 302.852 130.539L288.767 124.591L284.843 122.138L293.23 121.403C295.2 121.162 299.637 120.134 301.628 117.948C303.619 115.762 304.07 112.241 304.047 110.754C303.966 110.053 303.697 108.404 303.277 107.413C301.175 107.45 296.561 109.148 294.517 109.993C293.501 109.747 291.461 109.018 291.434 108.065Z" fill="url(#paint35_linear_11_394)"/>
</g>
<g filter="url(#filter9_d_11_394)">
<path d="M282.227 124.66L284.026 123.446C282.215 126.342 283.335 129.122 284.421 130.711C286.626 134.168 290.035 133.787 291.464 133.165C292.098 132.912 293.475 132.317 293.905 131.962C290.203 129.777 289.829 128.504 288.942 127.429C293.604 131.28 297.526 132.407 298.904 132.489C300.317 132.723 301.719 132.559 303.868 131.824C305.937 131.116 308.809 128.286 309.802 126.698C308.693 127.433 305.562 127.036 304.546 126.79C303.734 126.594 301.249 125.205 300.108 124.535C298.972 123.998 296.231 122.838 294.362 122.502C292.494 122.165 289.27 122.61 287.892 122.874L292.868 120.527C294.044 119.963 296.641 118.234 297.622 115.833C298.604 113.432 297.993 110.044 297.565 108.65L295.978 104.538C294.117 104.674 289.792 105.245 287.381 106.441C284.367 107.935 283.467 110.621 282.977 112.653C282.584 114.279 282.851 118.119 283.034 119.836C282.652 118.298 281.561 114.835 280.243 113.283C278.926 111.732 277.242 110.324 276.565 109.814C276.117 109.491 274.815 108.538 273.19 107.314C271.158 105.783 270.983 105.024 270.598 104.393C270.289 103.889 270.041 102.789 269.956 102.302C269.772 102.665 269.159 103.909 268.168 105.993C266.929 108.597 268.447 112.405 269.638 114.449C270.591 116.085 273.398 117.927 274.683 118.643C275.636 119.196 277.806 120.466 278.852 121.12C275.825 120.475 272.826 118.912 271.704 118.211C271.611 118.499 271.447 119.245 271.541 119.928C271.708 121.488 272.762 123.031 273.268 123.607C273.545 123.996 274.604 124.962 276.632 125.71C278.659 126.458 281.207 125.322 282.227 124.66Z" fill="url(#paint36_linear_11_394)"/>
</g>
</g>
<g filter="url(#filter10_d_11_394)">
<path d="M172.906 101.193C172.616 101.063 171.298 98.6903 171.154 98.3905C170.92 99.4028 170.18 101.78 169.087 103.191C167.994 104.602 164.88 108.031 163.459 109.57L156.113 115.072L143.828 122.234C141.398 122.367 135.967 122.341 133.678 121.173C134.671 122.762 135.5 124.712 136.493 125.261C137.486 125.81 139.554 127.246 142.695 126.451C144.312 126.376 150.758 123.965 153.779 122.77L158.007 121.426L171.74 108.68L172.393 107.232C174.449 105.531 174.215 103.494 173.841 102.688C173.65 102.244 173.196 101.324 172.906 101.193Z" fill="url(#paint37_linear_11_394)"/>
<g filter="url(#filter11_dd_11_394)">
<path d="M169.601 102.35C169.685 100.323 167.739 97.7099 166.89 96.7679C163.48 99.6278 162.107 104.914 161.847 107.199L153.228 115.447C151.504 115.875 147.165 116.639 143.604 116.266C140.044 115.893 136.009 116.727 134.436 117.19C134.935 118.265 136.191 120.538 137.228 121.033C139.728 122.329 141.725 123.029 143.839 122.877C145.953 122.724 148.827 123.787 153.137 123.821C156.585 123.848 157.976 123.178 158.241 122.839L160.95 121.145C161.351 121.371 162.48 120.89 163.787 117.161C165.095 113.433 165.787 111.839 165.97 111.508C168.983 107.805 169.496 104.885 169.601 102.35Z" fill="url(#paint38_linear_11_394)"/>
</g>
<g filter="url(#filter12_d_11_394)">
<path d="M153.811 108.065C154.221 103.234 154.853 99.9627 155.117 98.9309C158.117 100.07 160.642 101.671 161.53 102.328C162.091 102.671 163.453 104.115 164.416 107.152C165.379 110.188 163.409 114.755 162.304 116.659L160.833 119.918L162.386 120.117C162.694 119.708 163.327 118.878 163.402 118.832C163.477 118.785 164.422 117.068 164.885 116.215C167.579 114.704 173.663 111.299 176.447 109.766C179.231 108.233 181.881 107.927 182.859 107.966C182.868 108.48 182.178 110.687 181.832 111.727C181.411 112.509 180.701 113.993 177.861 115.769C175.021 117.545 172.193 117.927 171.134 117.896L163.905 122.546L160.927 122.979L158.043 126.471L152.834 128.948C152.235 129.93 150.197 132.546 146.843 135.163C142.651 138.434 139.042 136.403 137.92 136.064C139.125 133.336 141.404 131.244 142.393 130.539L156.477 124.591L160.401 122.138L152.015 121.403C150.045 121.162 145.607 120.134 143.616 117.948C141.626 115.762 141.174 112.241 141.197 110.754C141.279 110.053 141.547 108.404 141.968 107.413C144.07 107.45 148.684 109.148 150.728 109.993C151.744 109.747 153.783 109.018 153.811 108.065Z" fill="url(#paint39_linear_11_394)"/>
</g>
<g filter="url(#filter13_d_11_394)">
<path d="M163.018 124.66L161.219 123.446C163.03 126.342 161.909 129.122 160.823 130.711C158.619 134.168 155.21 133.787 153.781 133.165C153.146 132.912 151.769 132.317 151.34 131.962C155.042 129.777 155.415 128.504 156.303 127.429C151.641 131.28 147.719 132.407 146.341 132.489C144.927 132.723 143.526 132.559 141.377 131.824C139.307 131.116 136.435 128.286 135.442 126.698C136.552 127.433 139.682 127.036 140.698 126.79C141.511 126.594 143.996 125.205 145.136 124.535C146.273 123.998 149.013 122.838 150.882 122.502C152.751 122.165 155.975 122.61 157.353 122.874L152.377 120.527C151.201 119.963 148.604 118.234 147.622 115.833C146.641 113.432 147.251 110.044 147.679 108.65L149.267 104.538C151.128 104.674 155.453 105.245 157.864 106.441C160.877 107.935 161.777 110.621 162.268 112.653C162.661 114.279 162.394 118.119 162.211 119.836C162.592 118.298 163.684 114.835 165.001 113.283C166.318 111.732 168.002 110.324 168.68 109.814C169.127 109.491 170.429 108.538 172.055 107.314C174.087 105.783 174.262 105.024 174.647 104.393C174.955 103.889 175.204 102.789 175.289 102.302C175.472 102.665 176.086 103.909 177.077 105.993C178.315 108.597 176.798 112.405 175.607 114.449C174.654 116.085 171.847 117.927 170.562 118.643C169.608 119.196 167.439 120.466 166.393 121.12C169.42 120.475 172.419 118.912 173.54 118.211C173.634 118.499 173.797 119.245 173.704 119.928C173.536 121.488 172.482 123.031 171.976 123.607C171.7 123.996 170.64 124.962 168.613 125.71C166.585 126.458 164.038 125.322 163.018 124.66Z" fill="url(#paint40_linear_11_394)"/>
</g>
</g>
<g filter="url(#filter14_d_11_394)">
<path d="M272.338 341.807C272.628 341.937 273.947 344.31 274.091 344.609C274.324 343.597 275.064 341.22 276.157 339.809C277.25 338.398 280.365 334.969 281.786 333.43L289.131 327.928L301.417 320.766C303.846 320.633 309.278 320.659 311.567 321.827C310.574 320.238 309.744 318.288 308.751 317.739C307.759 317.19 305.691 315.754 302.549 316.549C300.933 316.624 294.487 319.035 291.466 320.23L287.238 321.574L273.505 334.32L272.851 335.768C270.796 337.469 271.03 339.506 271.404 340.312C271.595 340.756 272.049 341.676 272.338 341.807Z" fill="url(#paint41_linear_11_394)"/>
<g filter="url(#filter15_dd_11_394)">
<path d="M275.644 340.65C275.56 342.677 277.505 345.29 278.354 346.232C281.764 343.372 283.138 338.086 283.398 335.801L292.016 327.553C293.741 327.125 298.08 326.361 301.64 326.734C305.2 327.107 309.236 326.273 310.809 325.81C310.31 324.735 309.054 322.462 308.016 321.967C305.517 320.671 303.519 319.971 301.405 320.123C299.291 320.276 296.418 319.213 292.108 319.179C288.66 319.152 287.269 319.822 287.004 320.161L284.295 321.855C283.894 321.629 282.765 322.11 281.457 325.839C280.15 329.567 279.457 331.161 279.274 331.492C276.262 335.195 275.748 338.115 275.644 340.65Z" fill="url(#paint42_linear_11_394)"/>
</g>
<g filter="url(#filter16_d_11_394)">
<path d="M291.434 334.935C291.023 339.766 290.392 343.037 290.127 344.069C287.128 342.93 284.602 341.329 283.714 340.672C283.154 340.329 281.791 338.885 280.828 335.848C279.865 332.812 281.835 328.245 282.941 326.341L284.412 323.082L282.858 322.883C282.551 323.292 281.917 324.122 281.842 324.168C281.768 324.215 280.823 325.932 280.36 326.785C277.666 328.296 271.582 331.701 268.798 333.234C266.014 334.767 263.363 335.073 262.386 335.034C262.376 334.52 263.067 332.313 263.413 331.273C263.833 330.491 264.543 329.007 267.383 327.231C270.224 325.455 273.052 325.073 274.111 325.104L281.339 320.454L284.318 320.021L287.202 316.529L292.411 314.052C293.01 313.07 295.047 310.454 298.401 307.837C302.594 304.566 306.203 306.597 307.324 306.936C306.12 309.664 303.841 311.756 302.852 312.461L288.767 318.409L284.843 320.862L293.23 321.597C295.2 321.838 299.637 322.866 301.628 325.052C303.619 327.238 304.07 330.759 304.047 332.246C303.966 332.947 303.697 334.596 303.277 335.587C301.175 335.55 296.561 333.852 294.517 333.007C293.501 333.253 291.461 333.982 291.434 334.935Z" fill="url(#paint43_linear_11_394)"/>
</g>
<g filter="url(#filter17_d_11_394)">
<path d="M282.227 318.34L284.026 319.554C282.215 316.658 283.335 313.878 284.421 312.289C286.626 308.832 290.035 309.213 291.464 309.835C292.098 310.088 293.475 310.683 293.905 311.038C290.203 313.223 289.829 314.496 288.942 315.571C293.604 311.72 297.526 310.593 298.904 310.511C300.317 310.277 301.719 310.441 303.868 311.176C305.937 311.884 308.809 314.714 309.802 316.302C308.693 315.567 305.562 315.964 304.546 316.21C303.734 316.406 301.249 317.795 300.108 318.465C298.972 319.002 296.231 320.162 294.362 320.498C292.494 320.835 289.27 320.39 287.892 320.126L292.868 322.473C294.044 323.037 296.641 324.766 297.622 327.167C298.604 329.568 297.993 332.956 297.565 334.35L295.978 338.462C294.117 338.326 289.792 337.755 287.381 336.559C284.367 335.065 283.467 332.379 282.977 330.347C282.584 328.721 282.851 324.881 283.034 323.164C282.652 324.702 281.561 328.165 280.243 329.717C278.926 331.268 277.242 332.676 276.565 333.186C276.117 333.509 274.815 334.462 273.19 335.686C271.158 337.217 270.983 337.976 270.598 338.607C270.289 339.111 270.041 340.211 269.956 340.698C269.772 340.335 269.159 339.091 268.168 337.007C266.929 334.403 268.447 330.595 269.638 328.551C270.591 326.915 273.398 325.073 274.683 324.357C275.636 323.804 277.806 322.534 278.852 321.88C275.825 322.525 272.826 324.088 271.704 324.789C271.611 324.501 271.447 323.755 271.541 323.072C271.708 321.512 272.762 319.969 273.268 319.393C273.545 319.004 274.604 318.038 276.632 317.29C278.659 316.542 281.207 317.678 282.227 318.34Z" fill="url(#paint44_linear_11_394)"/>
</g>
</g>
<g filter="url(#filter18_d_11_394)">
<path d="M172.906 341.807C172.616 341.937 171.298 344.31 171.154 344.609C170.92 343.597 170.18 341.22 169.087 339.809C167.994 338.398 164.88 334.969 163.459 333.43L156.113 327.928L143.828 320.766C141.398 320.633 135.967 320.659 133.678 321.827C134.671 320.238 135.5 318.288 136.493 317.739C137.486 317.19 139.554 315.754 142.695 316.549C144.312 316.624 150.758 319.035 153.779 320.23L158.007 321.574L171.74 334.32L172.393 335.768C174.449 337.469 174.215 339.506 173.841 340.312C173.65 340.756 173.196 341.676 172.906 341.807Z" fill="url(#paint45_linear_11_394)"/>
<g filter="url(#filter19_dd_11_394)">
<path d="M169.601 340.65C169.685 342.677 167.739 345.29 166.89 346.232C163.48 343.372 162.107 338.086 161.847 335.801L153.228 327.553C151.504 327.125 147.165 326.361 143.604 326.734C140.044 327.107 136.009 326.273 134.436 325.81C134.935 324.735 136.191 322.462 137.228 321.967C139.728 320.671 141.725 319.971 143.839 320.123C145.953 320.276 148.827 319.213 153.137 319.179C156.585 319.152 157.976 319.822 158.241 320.161L160.95 321.855C161.351 321.629 162.48 322.11 163.787 325.839C165.095 329.567 165.787 331.161 165.97 331.492C168.983 335.195 169.496 338.115 169.601 340.65Z" fill="url(#paint46_linear_11_394)"/>
</g>
<g filter="url(#filter20_d_11_394)">
<path d="M153.811 334.935C154.221 339.766 154.853 343.037 155.117 344.069C158.117 342.93 160.642 341.329 161.53 340.672C162.091 340.329 163.453 338.885 164.416 335.848C165.379 332.812 163.409 328.245 162.304 326.341L160.833 323.082L162.386 322.883C162.694 323.292 163.327 324.122 163.402 324.168C163.477 324.215 164.422 325.932 164.885 326.785C167.579 328.296 173.663 331.701 176.447 333.234C179.231 334.767 181.881 335.073 182.859 335.034C182.868 334.52 182.178 332.313 181.832 331.273C181.411 330.491 180.701 329.007 177.861 327.231C175.021 325.455 172.193 325.073 171.134 325.104L163.905 320.454L160.927 320.021L158.043 316.529L152.834 314.052C152.235 313.07 150.197 310.454 146.843 307.837C142.651 304.566 139.042 306.597 137.92 306.936C139.125 309.664 141.404 311.756 142.393 312.461L156.477 318.409L160.401 320.862L152.015 321.597C150.045 321.838 145.607 322.866 143.616 325.052C141.626 327.238 141.174 330.759 141.197 332.246C141.279 332.947 141.547 334.596 141.968 335.587C144.07 335.55 148.684 333.852 150.728 333.007C151.744 333.253 153.783 333.982 153.811 334.935Z" fill="url(#paint47_linear_11_394)"/>
</g>
<g filter="url(#filter21_d_11_394)">
<path d="M163.018 318.34L161.219 319.554C163.03 316.658 161.909 313.878 160.823 312.289C158.619 308.832 155.21 309.213 153.781 309.835C153.146 310.088 151.769 310.683 151.34 311.038C155.042 313.223 155.415 314.496 156.303 315.571C151.641 311.72 147.719 310.593 146.341 310.511C144.927 310.277 143.526 310.441 141.377 311.176C139.307 311.884 136.435 314.714 135.442 316.302C136.552 315.567 139.682 315.964 140.698 316.21C141.511 316.406 143.996 317.795 145.136 318.465C146.273 319.002 149.013 320.162 150.882 320.498C152.751 320.835 155.975 320.39 157.353 320.126L152.377 322.473C151.201 323.037 148.604 324.766 147.622 327.167C146.641 329.568 147.251 332.956 147.679 334.35L149.267 338.462C151.128 338.326 155.453 337.755 157.864 336.559C160.877 335.065 161.777 332.379 162.268 330.347C162.661 328.721 162.394 324.881 162.211 323.164C162.592 324.702 163.684 328.165 165.001 329.717C166.318 331.268 168.002 332.676 168.68 333.186C169.127 333.509 170.429 334.462 172.055 335.686C174.087 337.217 174.262 337.976 174.647 338.607C174.955 339.111 175.204 340.211 175.289 340.698C175.472 340.335 176.086 339.091 177.077 337.007C178.315 334.403 176.798 330.595 175.607 328.551C174.654 326.915 171.847 325.073 170.562 324.357C169.608 323.804 167.439 322.534 166.393 321.88C169.42 322.525 172.419 324.088 173.54 324.789C173.634 324.501 173.797 323.755 173.704 323.072C173.536 321.512 172.482 319.969 171.976 319.393C171.7 319.004 170.64 318.038 168.613 317.29C166.585 316.542 164.038 317.678 163.018 318.34Z" fill="url(#paint48_linear_11_394)"/>
</g>
</g>
<defs>
<filter id="filter0_i_11_394" x="65.7421" y="65.6276" width="314" height="318" filterUnits="userSpaceOnUse" color-interpolation-filters="sRGB">
<feFlood flood-opacity="0" result="BackgroundImageFix"/>
<feBlend mode="normal" in="SourceGraphic" in2="BackgroundImageFix" result="shape"/>
<feColorMatrix in="SourceAlpha" type="matrix" values="0 0 0 0 0 0 0 0 0 0 0 0 0 0 0 0 0 0 127 0" result="hardAlpha"/>
<feOffset dy="4"/>
<feGaussianBlur stdDeviation="2"/>
<feComposite in2="hardAlpha" operator="arithmetic" k2="-1" k3="1"/>
<feColorMatrix type="matrix" values="0 0 0 0 0 0 0 0 0 0 0 0 0 0 0 0 0 0 0.25 0"/>
<feBlend mode="normal" in2="shape" result="effect1_innerShadow_11_394"/>
</filter>
<filter id="filter1_f_11_394" x="126.133" y="123.298" width="197.002" height="197.002" filterUnits="userSpaceOnUse" color-interpolation-filters="sRGB">
<feFlood flood-opacity="0" result="BackgroundImageFix"/>
<feBlend mode="normal" in="SourceGraphic" in2="BackgroundImageFix" result="shape"/>
<feGaussianBlur stdDeviation="2" result="effect1_foregroundBlur_11_394"/>
</filter>
<filter id="filter2_dd_11_394" x="100" y="75" width="245.919" height="299" filterUnits="userSpaceOnUse" color-interpolation-filters="sRGB">
<feFlood flood-opacity="0" result="BackgroundImageFix"/>
<feColorMatrix in="SourceAlpha" type="matrix" values="0 0 0 0 0 0 0 0 0 0 0 0 0 0 0 0 0 0 127 0" result="hardAlpha"/>
<feOffset dy="4"/>
<feGaussianBlur stdDeviation="2"/>
<feComposite in2="hardAlpha" operator="out"/>
<feColorMatrix type="matrix" values="0 0 0 0 0 0 0 0 0 0 0 0 0 0 0 0 0 0 0.25 0"/>
<feBlend mode="normal" in2="BackgroundImageFix" result="effect1_dropShadow_11_394"/>
<feColorMatrix in="SourceAlpha" type="matrix" values="0 0 0 0 0 0 0 0 0 0 0 0 0 0 0 0 0 0 127 0" result="hardAlpha"/>
<feOffset dy="4"/>
<feGaussianBlur stdDeviation="2"/>
<feComposite in2="hardAlpha" operator="out"/>
<feColorMatrix type="matrix" values="0 0 0 0 0 0 0 0 0 0 0 0 0 0 0 0 0 0 0.25 0"/>
<feBlend mode="normal" in2="effect1_dropShadow_11_394" result="effect2_dropShadow_11_394"/>
<feBlend mode="normal" in="SourceGraphic" in2="effect2_dropShadow_11_394" result="shape"/>
</filter>
<filter id="filter3_dd_11_394" x="131" y="132" width="188" height="188" filterUnits="userSpaceOnUse" color-interpolation-filters="sRGB">
<feFlood flood-opacity="0" result="BackgroundImageFix"/>
<feColorMatrix in="SourceAlpha" type="matrix" values="0 0 0 0 0 0 0 0 0 0 0 0 0 0 0 0 0 0 127 0" result="hardAlpha"/>
<feOffset dy="4"/>
<feGaussianBlur stdDeviation="2"/>
<feComposite in2="hardAlpha" operator="out"/>
<feColorMatrix type="matrix" values="0 0 0 0 0 0 0 0 0 0 0 0 0 0 0 0 0 0 0.25 0"/>
<feBlend mode="normal" in2="BackgroundImageFix" result="effect1_dropShadow_11_394"/>
<feColorMatrix in="SourceAlpha" type="matrix" values="0 0 0 0 0 0 0 0 0 0 0 0 0 0 0 0 0 0 127 0" result="hardAlpha"/>
<feOffset dy="4"/>
<feGaussianBlur stdDeviation="2"/>
<feComposite in2="hardAlpha" operator="out"/>
<feColorMatrix type="matrix" values="0 0 0 0 0 0 0 0 0 0 0 0 0 0 0 0 0 0 0.25 0"/>
<feBlend mode="normal" in2="effect1_dropShadow_11_394" result="effect2_dropShadow_11_394"/>
<feBlend mode="normal" in="SourceGraphic" in2="effect2_dropShadow_11_394" result="shape"/>
</filter>
<filter id="filter4_dd_11_394" x="323" y="206" width="50" height="43" filterUnits="userSpaceOnUse" color-interpolation-filters="sRGB">
<feFlood flood-opacity="0" result="BackgroundImageFix"/>
<feColorMatrix in="SourceAlpha" type="matrix" values="0 0 0 0 0 0 0 0 0 0 0 0 0 0 0 0 0 0 127 0" result="hardAlpha"/>
<feOffset dy="4"/>
<feGaussianBlur stdDeviation="2"/>
<feComposite in2="hardAlpha" operator="out"/>
<feColorMatrix type="matrix" values="0 0 0 0 0 0 0 0 0 0 0 0 0 0 0 0 0 0 0.25 0"/>
<feBlend mode="normal" in2="BackgroundImageFix" result="effect1_dropShadow_11_394"/>
<feColorMatrix in="SourceAlpha" type="matrix" values="0 0 0 0 0 0 0 0 0 0 0 0 0 0 0 0 0 0 127 0" result="hardAlpha"/>
<feOffset dy="4"/>
<feGaussianBlur stdDeviation="2"/>
<feComposite in2="hardAlpha" operator="out"/>
<feColorMatrix type="matrix" values="0 0 0 0 0 0 0 0 0 0 0 0 0 0 0 0 0 0 0.25 0"/>
<feBlend mode="normal" in2="effect1_dropShadow_11_394" result="effect2_dropShadow_11_394"/>
<feBlend mode="normal" in="SourceGraphic" in2="effect2_dropShadow_11_394" result="shape"/>
</filter>
<filter id="filter5_dd_11_394" x="75" y="206" width="50" height="43" filterUnits="userSpaceOnUse" color-interpolation-filters="sRGB">
<feFlood flood-opacity="0" result="BackgroundImageFix"/>
<feColorMatrix in="SourceAlpha" type="matrix" values="0 0 0 0 0 0 0 0 0 0 0 0 0 0 0 0 0 0 127 0" result="hardAlpha"/>
<feOffset dy="4"/>
<feGaussianBlur stdDeviation="2"/>
<feComposite in2="hardAlpha" operator="out"/>
<feColorMatrix type="matrix" values="0 0 0 0 0 0 0 0 0 0 0 0 0 0 0 0 0 0 0.25 0"/>
<feBlend mode="normal" in2="BackgroundImageFix" result="effect1_dropShadow_11_394"/>
<feColorMatrix in="SourceAlpha" type="matrix" values="0 0 0 0 0 0 0 0 0 0 0 0 0 0 0 0 0 0 127 0" result="hardAlpha"/>
<feOffset dy="4"/>
<feGaussianBlur stdDeviation="2"/>
<feComposite in2="hardAlpha" operator="out"/>
<feColorMatrix type="matrix" values="0 0 0 0 0 0 0 0 0 0 0 0 0 0 0 0 0 0 0.25 0"/>
<feBlend mode="normal" in2="effect1_dropShadow_11_394" result="effect2_dropShadow_11_394"/>
<feBlend mode="normal" in="SourceGraphic" in2="effect2_dropShadow_11_394" result="shape"/>
</filter>
<filter id="filter6_d_11_394" x="258.386" y="96.7679" width="57.1812" height="48.23" filterUnits="userSpaceOnUse" color-interpolation-filters="sRGB">
<feFlood flood-opacity="0" result="BackgroundImageFix"/>
<feColorMatrix in="SourceAlpha" type="matrix" values="0 0 0 0 0 0 0 0 0 0 0 0 0 0 0 0 0 0 127 0" result="hardAlpha"/>
<feOffset dy="4"/>
<feGaussianBlur stdDeviation="2"/>
<feComposite in2="hardAlpha" operator="out"/>
<feColorMatrix type="matrix" values="0 0 0 0 0 0 0 0 0 0 0 0 0 0 0 0 0 0 0.25 0"/>
<feBlend mode="normal" in2="BackgroundImageFix" result="effect1_dropShadow_11_394"/>
<feBlend mode="normal" in="SourceGraphic" in2="effect1_dropShadow_11_394" result="shape"/>
</filter>
<filter id="filter7_dd_11_394" x="271.641" y="96.7679" width="43.1676" height="35.0539" filterUnits="userSpaceOnUse" color-interpolation-filters="sRGB">
<feFlood flood-opacity="0" result="BackgroundImageFix"/>
<feColorMatrix in="SourceAlpha" type="matrix" values="0 0 0 0 0 0 0 0 0 0 0 0 0 0 0 0 0 0 127 0" result="hardAlpha"/>
<feOffset dy="4"/>
<feGaussianBlur stdDeviation="2"/>
<feComposite in2="hardAlpha" operator="out"/>
<feColorMatrix type="matrix" values="0 0 0 0 0 0 0 0 0 0 0 0 0 0 0 0 0 0 0.25 0"/>
<feBlend mode="normal" in2="BackgroundImageFix" result="effect1_dropShadow_11_394"/>
<feColorMatrix in="SourceAlpha" type="matrix" values="0 0 0 0 0 0 0 0 0 0 0 0 0 0 0 0 0 0 127 0" result="hardAlpha"/>
<feOffset dy="4"/>
<feGaussianBlur stdDeviation="2"/>
<feComposite in2="hardAlpha" operator="out"/>
<feColorMatrix type="matrix" values="0 0 0 0 0 0 0 0 0 0 0 0 0 0 0 0 0 0 0.25 0"/>
<feBlend mode="normal" in2="effect1_dropShadow_11_394" result="effect2_dropShadow_11_394"/>
<feBlend mode="normal" in="SourceGraphic" in2="effect2_dropShadow_11_394" result="shape"/>
</filter>
<filter id="filter8_d_11_394" x="258.386" y="98.9309" width="52.9385" height="46.067" filterUnits="userSpaceOnUse" color-interpolation-filters="sRGB">
<feFlood flood-opacity="0" result="BackgroundImageFix"/>
<feColorMatrix in="SourceAlpha" type="matrix" values="0 0 0 0 0 0 0 0 0 0 0 0 0 0 0 0 0 0 127 0" result="hardAlpha"/>
<feOffset dy="4"/>
<feGaussianBlur stdDeviation="2"/>
<feComposite in2="hardAlpha" operator="out"/>
<feColorMatrix type="matrix" values="0 0 0 0 0 0 0 0 0 0 0 0 0 0 0 0 0 0 0.25 0"/>
<feBlend mode="normal" in2="BackgroundImageFix" result="effect1_dropShadow_11_394"/>
<feBlend mode="normal" in="SourceGraphic" in2="effect1_dropShadow_11_394" result="shape"/>
</filter>
<filter id="filter9_d_11_394" x="263.706" y="102.302" width="50.0959" height="39.273" filterUnits="userSpaceOnUse" color-interpolation-filters="sRGB">
<feFlood flood-opacity="0" result="BackgroundImageFix"/>
<feColorMatrix in="SourceAlpha" type="matrix" values="0 0 0 0 0 0 0 0 0 0 0 0 0 0 0 0 0 0 127 0" result="hardAlpha"/>
<feOffset dy="4"/>
<feGaussianBlur stdDeviation="2"/>
<feComposite in2="hardAlpha" operator="out"/>
<feColorMatrix type="matrix" values="0 0 0 0 0 0 0 0 0 0 0 0 0 0 0 0 0 0 0.25 0"/>
<feBlend mode="normal" in2="BackgroundImageFix" result="effect1_dropShadow_11_394"/>
<feBlend mode="normal" in="SourceGraphic" in2="effect1_dropShadow_11_394" result="shape"/>
</filter>
<filter id="filter10_d_11_394" x="129.678" y="96.7679" width="57.1812" height="48.23" filterUnits="userSpaceOnUse" color-interpolation-filters="sRGB">
<feFlood flood-opacity="0" result="BackgroundImageFix"/>
<feColorMatrix in="SourceAlpha" type="matrix" values="0 0 0 0 0 0 0 0 0 0 0 0 0 0 0 0 0 0 127 0" result="hardAlpha"/>
<feOffset dy="4"/>
<feGaussianBlur stdDeviation="2"/>
<feComposite in2="hardAlpha" operator="out"/>
<feColorMatrix type="matrix" values="0 0 0 0 0 0 0 0 0 0 0 0 0 0 0 0 0 0 0.25 0"/>
<feBlend mode="normal" in2="BackgroundImageFix" result="effect1_dropShadow_11_394"/>
<feBlend mode="normal" in="SourceGraphic" in2="effect1_dropShadow_11_394" result="shape"/>
</filter>
<filter id="filter11_dd_11_394" x="130.436" y="96.7679" width="43.1676" height="35.0539" filterUnits="userSpaceOnUse" color-interpolation-filters="sRGB">
<feFlood flood-opacity="0" result="BackgroundImageFix"/>
<feColorMatrix in="SourceAlpha" type="matrix" values="0 0 0 0 0 0 0 0 0 0 0 0 0 0 0 0 0 0 127 0" result="hardAlpha"/>
<feOffset dy="4"/>
<feGaussianBlur stdDeviation="2"/>
<feComposite in2="hardAlpha" operator="out"/>
<feColorMatrix type="matrix" values="0 0 0 0 0 0 0 0 0 0 0 0 0 0 0 0 0 0 0.25 0"/>
<feBlend mode="normal" in2="BackgroundImageFix" result="effect1_dropShadow_11_394"/>
<feColorMatrix in="SourceAlpha" type="matrix" values="0 0 0 0 0 0 0 0 0 0 0 0 0 0 0 0 0 0 127 0" result="hardAlpha"/>
<feOffset dy="4"/>
<feGaussianBlur stdDeviation="2"/>
<feComposite in2="hardAlpha" operator="out"/>
<feColorMatrix type="matrix" values="0 0 0 0 0 0 0 0 0 0 0 0 0 0 0 0 0 0 0.25 0"/>
<feBlend mode="normal" in2="effect1_dropShadow_11_394" result="effect2_dropShadow_11_394"/>
<feBlend mode="normal" in="SourceGraphic" in2="effect2_dropShadow_11_394" result="shape"/>
</filter>
<filter id="filter12_d_11_394" x="133.92" y="98.9309" width="52.9386" height="46.067" filterUnits="userSpaceOnUse" color-interpolation-filters="sRGB">
<feFlood flood-opacity="0" result="BackgroundImageFix"/>
<feColorMatrix in="SourceAlpha" type="matrix" values="0 0 0 0 0 0 0 0 0 0 0 0 0 0 0 0 0 0 127 0" result="hardAlpha"/>
<feOffset dy="4"/>
<feGaussianBlur stdDeviation="2"/>
<feComposite in2="hardAlpha" operator="out"/>
<feColorMatrix type="matrix" values="0 0 0 0 0 0 0 0 0 0 0 0 0 0 0 0 0 0 0.25 0"/>
<feBlend mode="normal" in2="BackgroundImageFix" result="effect1_dropShadow_11_394"/>
<feBlend mode="normal" in="SourceGraphic" in2="effect1_dropShadow_11_394" result="shape"/>
</filter>
<filter id="filter13_d_11_394" x="131.442" y="102.302" width="50.0959" height="39.273" filterUnits="userSpaceOnUse" color-interpolation-filters="sRGB">
<feFlood flood-opacity="0" result="BackgroundImageFix"/>
<feColorMatrix in="SourceAlpha" type="matrix" values="0 0 0 0 0 0 0 0 0 0 0 0 0 0 0 0 0 0 127 0" result="hardAlpha"/>
<feOffset dy="4"/>
<feGaussianBlur stdDeviation="2"/>
<feComposite in2="hardAlpha" operator="out"/>
<feColorMatrix type="matrix" values="0 0 0 0 0 0 0 0 0 0 0 0 0 0 0 0 0 0 0.25 0"/>
<feBlend mode="normal" in2="BackgroundImageFix" result="effect1_dropShadow_11_394"/>
<feBlend mode="normal" in="SourceGraphic" in2="effect1_dropShadow_11_394" result="shape"/>
</filter>
<filter id="filter14_d_11_394" x="258.386" y="306.002" width="57.1812" height="48.23" filterUnits="userSpaceOnUse" color-interpolation-filters="sRGB">
<feFlood flood-opacity="0" result="BackgroundImageFix"/>
<feColorMatrix in="SourceAlpha" type="matrix" values="0 0 0 0 0 0 0 0 0 0 0 0 0 0 0 0 0 0 127 0" result="hardAlpha"/>
<feOffset dy="4"/>
<feGaussianBlur stdDeviation="2"/>
<feComposite in2="hardAlpha" operator="out"/>
<feColorMatrix type="matrix" values="0 0 0 0 0 0 0 0 0 0 0 0 0 0 0 0 0 0 0.25 0"/>
<feBlend mode="normal" in2="BackgroundImageFix" result="effect1_dropShadow_11_394"/>
<feBlend mode="normal" in="SourceGraphic" in2="effect1_dropShadow_11_394" result="shape"/>
</filter>
<filter id="filter15_dd_11_394" x="271.641" y="319.178" width="43.1676" height="35.0539" filterUnits="userSpaceOnUse" color-interpolation-filters="sRGB">
<feFlood flood-opacity="0" result="BackgroundImageFix"/>
<feColorMatrix in="SourceAlpha" type="matrix" values="0 0 0 0 0 0 0 0 0 0 0 0 0 0 0 0 0 0 127 0" result="hardAlpha"/>
<feOffset dy="4"/>
<feGaussianBlur stdDeviation="2"/>
<feComposite in2="hardAlpha" operator="out"/>
<feColorMatrix type="matrix" values="0 0 0 0 0 0 0 0 0 0 0 0 0 0 0 0 0 0 0.25 0"/>
<feBlend mode="normal" in2="BackgroundImageFix" result="effect1_dropShadow_11_394"/>
<feColorMatrix in="SourceAlpha" type="matrix" values="0 0 0 0 0 0 0 0 0 0 0 0 0 0 0 0 0 0 127 0" result="hardAlpha"/>
<feOffset dy="4"/>
<feGaussianBlur stdDeviation="2"/>
<feComposite in2="hardAlpha" operator="out"/>
<feColorMatrix type="matrix" values="0 0 0 0 0 0 0 0 0 0 0 0 0 0 0 0 0 0 0.25 0"/>
<feBlend mode="normal" in2="effect1_dropShadow_11_394" result="effect2_dropShadow_11_394"/>
<feBlend mode="normal" in="SourceGraphic" in2="effect2_dropShadow_11_394" result="shape"/>
</filter>
<filter id="filter16_d_11_394" x="258.386" y="306.002" width="52.9385" height="46.067" filterUnits="userSpaceOnUse" color-interpolation-filters="sRGB">
<feFlood flood-opacity="0" result="BackgroundImageFix"/>
<feColorMatrix in="SourceAlpha" type="matrix" values="0 0 0 0 0 0 0 0 0 0 0 0 0 0 0 0 0 0 127 0" result="hardAlpha"/>
<feOffset dy="4"/>
<feGaussianBlur stdDeviation="2"/>
<feComposite in2="hardAlpha" operator="out"/>
<feColorMatrix type="matrix" values="0 0 0 0 0 0 0 0 0 0 0 0 0 0 0 0 0 0 0.25 0"/>
<feBlend mode="normal" in2="BackgroundImageFix" result="effect1_dropShadow_11_394"/>
<feBlend mode="normal" in="SourceGraphic" in2="effect1_dropShadow_11_394" result="shape"/>
</filter>
<filter id="filter17_d_11_394" x="263.706" y="309.424" width="50.0959" height="39.273" filterUnits="userSpaceOnUse" color-interpolation-filters="sRGB">
<feFlood flood-opacity="0" result="BackgroundImageFix"/>
<feColorMatrix in="SourceAlpha" type="matrix" values="0 0 0 0 0 0 0 0 0 0 0 0 0 0 0 0 0 0 127 0" result="hardAlpha"/>
<feOffset dy="4"/>
<feGaussianBlur stdDeviation="2"/>
<feComposite in2="hardAlpha" operator="out"/>
<feColorMatrix type="matrix" values="0 0 0 0 0 0 0 0 0 0 0 0 0 0 0 0 0 0 0.25 0"/>
<feBlend mode="normal" in2="BackgroundImageFix" result="effect1_dropShadow_11_394"/>
<feBlend mode="normal" in="SourceGraphic" in2="effect1_dropShadow_11_394" result="shape"/>
</filter>
<filter id="filter18_d_11_394" x="129.678" y="306.002" width="57.1812" height="48.23" filterUnits="userSpaceOnUse" color-interpolation-filters="sRGB">
<feFlood flood-opacity="0" result="BackgroundImageFix"/>
<feColorMatrix in="SourceAlpha" type="matrix" values="0 0 0 0 0 0 0 0 0 0 0 0 0 0 0 0 0 0 127 0" result="hardAlpha"/>
<feOffset dy="4"/>
<feGaussianBlur stdDeviation="2"/>
<feComposite in2="hardAlpha" operator="out"/>
<feColorMatrix type="matrix" values="0 0 0 0 0 0 0 0 0 0 0 0 0 0 0 0 0 0 0.25 0"/>
<feBlend mode="normal" in2="BackgroundImageFix" result="effect1_dropShadow_11_394"/>
<feBlend mode="normal" in="SourceGraphic" in2="effect1_dropShadow_11_394" result="shape"/>
</filter>
<filter id="filter19_dd_11_394" x="130.436" y="319.178" width="43.1676" height="35.0539" filterUnits="userSpaceOnUse" color-interpolation-filters="sRGB">
<feFlood flood-opacity="0" result="BackgroundImageFix"/>
<feColorMatrix in="SourceAlpha" type="matrix" values="0 0 0 0 0 0 0 0 0 0 0 0 0 0 0 0 0 0 127 0" result="hardAlpha"/>
<feOffset dy="4"/>
<feGaussianBlur stdDeviation="2"/>
<feComposite in2="hardAlpha" operator="out"/>
<feColorMatrix type="matrix" values="0 0 0 0 0 0 0 0 0 0 0 0 0 0 0 0 0 0 0.25 0"/>
<feBlend mode="normal" in2="BackgroundImageFix" result="effect1_dropShadow_11_394"/>
<feColorMatrix in="SourceAlpha" type="matrix" values="0 0 0 0 0 0 0 0 0 0 0 0 0 0 0 0 0 0 127 0" result="hardAlpha"/>
<feOffset dy="4"/>
<feGaussianBlur stdDeviation="2"/>
<feComposite in2="hardAlpha" operator="out"/>
<feColorMatrix type="matrix" values="0 0 0 0 0 0 0 0 0 0 0 0 0 0 0 0 0 0 0.25 0"/>
<feBlend mode="normal" in2="effect1_dropShadow_11_394" result="effect2_dropShadow_11_394"/>
<feBlend mode="normal" in="SourceGraphic" in2="effect2_dropShadow_11_394" result="shape"/>
</filter>
<filter id="filter20_d_11_394" x="133.92" y="306.002" width="52.9386" height="46.067" filterUnits="userSpaceOnUse" color-interpolation-filters="sRGB">
<feFlood flood-opacity="0" result="BackgroundImageFix"/>
<feColorMatrix in="SourceAlpha" type="matrix" values="0 0 0 0 0 0 0 0 0 0 0 0 0 0 0 0 0 0 127 0" result="hardAlpha"/>
<feOffset dy="4"/>
<feGaussianBlur stdDeviation="2"/>
<feComposite in2="hardAlpha" operator="out"/>
<feColorMatrix type="matrix" values="0 0 0 0 0 0 0 0 0 0 0 0 0 0 0 0 0 0 0.25 0"/>
<feBlend mode="normal" in2="BackgroundImageFix" result="effect1_dropShadow_11_394"/>
<feBlend mode="normal" in="SourceGraphic" in2="effect1_dropShadow_11_394" result="shape"/>
</filter>
<filter id="filter21_d_11_394" x="131.442" y="309.424" width="50.0959" height="39.273" filterUnits="userSpaceOnUse" color-interpolation-filters="sRGB">
<feFlood flood-opacity="0" result="BackgroundImageFix"/>
<feColorMatrix in="SourceAlpha" type="matrix" values="0 0 0 0 0 0 0 0 0 0 0 0 0 0 0 0 0 0 127 0" result="hardAlpha"/>
<feOffset dy="4"/>
<feGaussianBlur stdDeviation="2"/>
<feComposite in2="hardAlpha" operator="out"/>
<feColorMatrix type="matrix" values="0 0 0 0 0 0 0 0 0 0 0 0 0 0 0 0 0 0 0.25 0"/>
<feBlend mode="normal" in2="BackgroundImageFix" result="effect1_dropShadow_11_394"/>
<feBlend mode="normal" in="SourceGraphic" in2="effect1_dropShadow_11_394" result="shape"/>
</filter>
<linearGradient id="paint0_linear_11_394" x1="24.7421" y1="166.128" x2="222.742" y2="379.628" gradientUnits="userSpaceOnUse">
<stop offset="0.165513" stop-color="#016843"/>
<stop offset="0.505208" stop-color="#5DC5AC"/>
<stop offset="0.937638" stop-color="#016843"/>
</linearGradient>
<linearGradient id="paint1_linear_11_394" x1="222.742" y1="65.6275" x2="222.742" y2="379.628" gradientUnits="userSpaceOnUse">
<stop stop-color="#585858"/>
<stop offset="0.4375" stop-color="white"/>
<stop offset="1" stop-color="#A7A7A7"/>
</linearGradient>
<linearGradient id="paint2_linear_11_394" x1="195.5" y1="345" x2="222" y2="324" gradientUnits="userSpaceOnUse">
<stop stop-color="#A3A3A3"/>
<stop offset="0.5" stop-color="#CACACA"/>
<stop offset="1" stop-color="#A3A3A3"/>
</linearGradient>
<linearGradient id="paint3_linear_11_394" x1="201" y1="101" x2="222" y2="75" gradientUnits="userSpaceOnUse">
<stop stop-color="#A3A3A3"/>
<stop offset="0.489583" stop-color="white"/>
<stop offset="1" stop-color="#A7A7A7"/>
</linearGradient>
<linearGradient id="paint4_linear_11_394" x1="338.088" y1="166.845" x2="308.811" y2="158.648" gradientUnits="userSpaceOnUse">
<stop stop-color="#A7A7A7"/>
<stop offset="0.489583" stop-color="white"/>
<stop offset="1" stop-color="#A3A3A3"/>
</linearGradient>
<linearGradient id="paint5_linear_11_394" x1="107.831" y1="166.845" x2="137.108" y2="158.648" gradientUnits="userSpaceOnUse">
<stop stop-color="#A7A7A7"/>
<stop offset="0.489583" stop-color="white"/>
<stop offset="1" stop-color="#A3A3A3"/>
</linearGradient>
<linearGradient id="paint6_linear_11_394" x1="338.088" y1="278.038" x2="308.811" y2="286.235" gradientUnits="userSpaceOnUse">
<stop stop-color="#A7A7A7"/>
<stop offset="0.489583" stop-color="white"/>
<stop offset="1" stop-color="#A3A3A3"/>
</linearGradient>
<linearGradient id="paint7_linear_11_394" x1="107.831" y1="278.038" x2="137.108" y2="286.235" gradientUnits="userSpaceOnUse">
<stop stop-color="#A7A7A7"/>
<stop offset="0.489583" stop-color="white"/>
<stop offset="1" stop-color="#A3A3A3"/>
</linearGradient>
<linearGradient id="paint8_linear_11_394" x1="223" y1="135" x2="223" y2="311" gradientUnits="userSpaceOnUse">
<stop/>
<stop offset="1" stop-color="#560099"/>
</linearGradient>
<linearGradient id="paint9_linear_11_394" x1="64.5" y1="117.5" x2="292.021" y2="289.5" gradientUnits="userSpaceOnUse">
<stop offset="0.494792" stop-color="#ADAD94"/>
<stop offset="1" stop-color="#FDFFAD"/>
</linearGradient>
<radialGradient id="paint10_radial_11_394" cx="0" cy="0" r="1" gradientUnits="userSpaceOnUse" gradientTransform="translate(190.709 165.028) rotate(90) scale(5.77654 6.30168)">
<stop stop-color="#D9D9D9"/>
<stop offset="0.71875" stop-color="#D9D9D9" stop-opacity="0"/>
</radialGradient>
<radialGradient id="paint11_radial_11_394" cx="0" cy="0" r="1" gradientUnits="userSpaceOnUse" gradientTransform="translate(234.296 158.201) rotate(90) scale(4.20112 4.72626)">
<stop stop-color="#D9D9D9"/>
<stop offset="0.71875" stop-color="#D9D9D9" stop-opacity="0"/>
</radialGradient>
<radialGradient id="paint12_radial_11_394" cx="0" cy="0" r="1" gradientUnits="userSpaceOnUse" gradientTransform="translate(180.732 198.637) rotate(90) scale(3.67598)">
<stop stop-color="#D9D9D9"/>
<stop offset="0.71875" stop-color="#D9D9D9" stop-opacity="0"/>
</radialGradient>
<radialGradient id="paint13_radial_11_394" cx="0" cy="0" r="1" gradientUnits="userSpaceOnUse" gradientTransform="translate(241.123 209.665) rotate(90) scale(7.35196)">
<stop stop-color="#D9D9D9"/>
<stop offset="0.71875" stop-color="#D9D9D9" stop-opacity="0"/>
</radialGradient>
<radialGradient id="paint14_radial_11_394" cx="0" cy="0" r="1" gradientUnits="userSpaceOnUse" gradientTransform="translate(251.626 173.43) rotate(90) scale(2.6257 3.15084)">
<stop stop-color="#D9D9D9"/>
<stop offset="0.71875" stop-color="#D9D9D9" stop-opacity="0"/>
</radialGradient>
<radialGradient id="paint15_radial_11_394" cx="0" cy="0" r="1" gradientUnits="userSpaceOnUse" gradientTransform="translate(214.341 223.844) rotate(90) scale(3.67598)">
<stop stop-color="#D9D9D9"/>
<stop offset="0.71875" stop-color="#D9D9D9" stop-opacity="0"/>
</radialGradient>
<radialGradient id="paint16_radial_11_394" cx="0" cy="0" r="1" gradientUnits="userSpaceOnUse" gradientTransform="translate(212.24 185.508) rotate(90) scale(2.10056 1.57542)">
<stop stop-color="#D9D9D9"/>
<stop offset="0.71875" stop-color="#D9D9D9" stop-opacity="0"/>
</radialGradient>
<radialGradient id="paint17_radial_11_394" cx="0" cy="0" r="1" gradientUnits="userSpaceOnUse" gradientTransform="translate(193.86 218.592) rotate(90) scale(1.57542 3.15084)">
<stop stop-color="#D9D9D9"/>
<stop offset="0.71875" stop-color="#D9D9D9" stop-opacity="0"/>
</radialGradient>
<radialGradient id="paint18_radial_11_394" cx="0" cy="0" r="1" gradientUnits="userSpaceOnUse" gradientTransform="translate(253.201 198.637) rotate(90) scale(3.67598 1.57542)">
<stop stop-color="#D9D9D9"/>
<stop offset="0.71875" stop-color="#D9D9D9" stop-opacity="0"/>
</radialGradient>
<radialGradient id="paint19_radial_11_394" cx="0" cy="0" r="1" gradientUnits="userSpaceOnUse" gradientTransform="translate(276.832 248.525) rotate(90) scale(3.15084)">
<stop stop-color="#D9D9D9"/>
<stop offset="0.71875" stop-color="#D9D9D9" stop-opacity="0"/>
</radialGradient>
<radialGradient id="paint20_radial_11_394" cx="0" cy="0" r="1" gradientUnits="userSpaceOnUse" gradientTransform="translate(292.061 220.693) rotate(90) scale(3.67598 2.6257)">
<stop stop-color="#D9D9D9"/>
<stop offset="0.71875" stop-color="#D9D9D9" stop-opacity="0"/>
</radialGradient>
<radialGradient id="paint21_radial_11_394" cx="0" cy="0" r="1" gradientUnits="userSpaceOnUse" gradientTransform="translate(279.458 189.184) rotate(90) scale(5.77654)">
<stop stop-color="#D9D9D9"/>
<stop offset="0.71875" stop-color="#D9D9D9" stop-opacity="0"/>
</radialGradient>
<radialGradient id="paint22_radial_11_394" cx="0" cy="0" r="1" gradientUnits="userSpaceOnUse" gradientTransform="translate(158.151 231.196) rotate(90) scale(3.67598 3.15084)">
<stop stop-color="#D9D9D9"/>
<stop offset="0.71875" stop-color="#D9D9D9" stop-opacity="0"/>
</radialGradient>
<radialGradient id="paint23_radial_11_394" cx="0" cy="0" r="1" gradientUnits="userSpaceOnUse" gradientTransform="translate(178.631 225.944) rotate(90) scale(1.57542)">
<stop stop-color="#D9D9D9"/>
<stop offset="0.71875" stop-color="#D9D9D9" stop-opacity="0"/>
</radialGradient>
<radialGradient id="paint24_radial_11_394" cx="0" cy="0" r="1" gradientUnits="userSpaceOnUse" gradientTransform="translate(182.307 250.101) rotate(90) scale(1.57542 2.10056)">
<stop stop-color="#D9D9D9"/>
<stop offset="0.71875" stop-color="#D9D9D9" stop-opacity="0"/>
</radialGradient>
<radialGradient id="paint25_radial_11_394" cx="0" cy="0" r="1" gradientUnits="userSpaceOnUse" gradientTransform="translate(200.687 279.508) rotate(90) scale(11.0279 9.97765)">
<stop stop-color="#D9D9D9"/>
<stop offset="0.71875" stop-color="#D9D9D9" stop-opacity="0"/>
</radialGradient>
<radialGradient id="paint26_radial_11_394" cx="0" cy="0" r="1" gradientUnits="userSpaceOnUse" gradientTransform="translate(240.073 266.905) rotate(90) scale(9.97765 11.5531)">
<stop stop-color="#D9D9D9"/>
<stop offset="0.71875" stop-color="#D9D9D9" stop-opacity="0"/>
</radialGradient>
<radialGradient id="paint27_radial_11_394" cx="0" cy="0" r="1" gradientUnits="userSpaceOnUse" gradientTransform="translate(242.173 233.296) rotate(90) scale(1.57542 3.15084)">
<stop stop-color="#D9D9D9"/>
<stop offset="0.71875" stop-color="#D9D9D9" stop-opacity="0"/>
</radialGradient>
<radialGradient id="paint28_radial_11_394" cx="0" cy="0" r="1" gradientUnits="userSpaceOnUse" gradientTransform="translate(265.804 272.682) rotate(90) scale(4.20112 3.67598)">
<stop stop-color="#D9D9D9"/>
<stop offset="0.71875" stop-color="#D9D9D9" stop-opacity="0"/>
</radialGradient>
<radialGradient id="paint29_radial_11_394" cx="0" cy="0" r="1" gradientUnits="userSpaceOnUse" gradientTransform="translate(208.039 248) rotate(90) scale(2.6257)">
<stop stop-color="#D9D9D9"/>
<stop offset="0.71875" stop-color="#D9D9D9" stop-opacity="0"/>
</radialGradient>
<radialGradient id="paint30_radial_11_394" cx="0" cy="0" r="1" gradientUnits="userSpaceOnUse" gradientTransform="translate(231.145 287.385) rotate(90) scale(3.15084 2.6257)">
<stop stop-color="#D9D9D9"/>
<stop offset="0.71875" stop-color="#D9D9D9" stop-opacity="0"/>
</radialGradient>
<linearGradient id="paint31_linear_11_394" x1="321.076" y1="206.217" x2="355.86" y2="239.194" gradientUnits="userSpaceOnUse">
<stop offset="0.269133" stop-color="#A3A3A3"/>
<stop offset="0.526042" stop-color="white"/>
<stop offset="0.847996" stop-color="#A7A7A7"/>
</linearGradient>
<linearGradient id="paint32_linear_11_394" x1="73.0763" y1="206.217" x2="107.86" y2="239.194" gradientUnits="userSpaceOnUse">
<stop offset="0.269133" stop-color="#A3A3A3"/>
<stop offset="0.526042" stop-color="white"/>
<stop offset="0.847996" stop-color="#A7A7A7"/>
</linearGradient>
<linearGradient id="paint33_linear_11_394" x1="292.975" y1="109.549" x2="286.024" y2="120.667" gradientUnits="userSpaceOnUse">
<stop stop-color="#434343"/>
<stop offset="0.515625" stop-color="#757373"/>
<stop offset="1" stop-color="#484848"/>
</linearGradient>
<linearGradient id="paint34_linear_11_394" x1="281.437" y1="101.814" x2="284.553" y2="116.368" gradientUnits="userSpaceOnUse">
<stop stop-color="#777777"/>
<stop offset="0.505208" stop-color="#B7B7B7"/>
<stop offset="1" stop-color="#777777"/>
</linearGradient>
<linearGradient id="paint35_linear_11_394" x1="278.143" y1="104.173" x2="298.26" y2="139.753" gradientUnits="userSpaceOnUse">
<stop offset="0.0901437" stop-color="#6B6B6B"/>
<stop offset="0.536458" stop-color="#B1B0B0"/>
<stop offset="0.764584" stop-color="#706F6F"/>
</linearGradient>
<linearGradient id="paint36_linear_11_394" x1="282.337" y1="100.167" x2="288.018" y2="134.519" gradientUnits="userSpaceOnUse">
<stop offset="0.264695" stop-color="#A3A3A3"/>
<stop offset="0.526042" stop-color="white"/>
<stop offset="0.728228" stop-color="#A7A7A7"/>
</linearGradient>
<linearGradient id="paint37_linear_11_394" x1="152.269" y1="109.549" x2="159.221" y2="120.667" gradientUnits="userSpaceOnUse">
<stop stop-color="#434343"/>
<stop offset="0.515625" stop-color="#757373"/>
<stop offset="1" stop-color="#484848"/>
</linearGradient>
<linearGradient id="paint38_linear_11_394" x1="163.808" y1="101.814" x2="160.692" y2="116.368" gradientUnits="userSpaceOnUse">
<stop stop-color="#777777"/>
<stop offset="0.505208" stop-color="#B7B7B7"/>
<stop offset="1" stop-color="#777777"/>
</linearGradient>
<linearGradient id="paint39_linear_11_394" x1="167.102" y1="104.173" x2="146.984" y2="139.753" gradientUnits="userSpaceOnUse">
<stop offset="0.0901437" stop-color="#6B6B6B"/>
<stop offset="0.536458" stop-color="#B1B0B0"/>
<stop offset="0.764584" stop-color="#706F6F"/>
</linearGradient>
<linearGradient id="paint40_linear_11_394" x1="162.908" y1="100.167" x2="157.227" y2="134.519" gradientUnits="userSpaceOnUse">
<stop offset="0.264695" stop-color="#A3A3A3"/>
<stop offset="0.526042" stop-color="white"/>
<stop offset="0.728228" stop-color="#A7A7A7"/>
</linearGradient>
<linearGradient id="paint41_linear_11_394" x1="292.975" y1="333.451" x2="286.024" y2="322.333" gradientUnits="userSpaceOnUse">
<stop stop-color="#434343"/>
<stop offset="0.515625" stop-color="#757373"/>
<stop offset="1" stop-color="#484848"/>
</linearGradient>
<linearGradient id="paint42_linear_11_394" x1="281.437" y1="341.186" x2="284.553" y2="326.632" gradientUnits="userSpaceOnUse">
<stop stop-color="#777777"/>
<stop offset="0.505208" stop-color="#B7B7B7"/>
<stop offset="1" stop-color="#777777"/>
</linearGradient>
<linearGradient id="paint43_linear_11_394" x1="278.143" y1="338.827" x2="298.26" y2="303.247" gradientUnits="userSpaceOnUse">
<stop offset="0.0901437" stop-color="#6B6B6B"/>
<stop offset="0.536458" stop-color="#B1B0B0"/>
<stop offset="0.764584" stop-color="#706F6F"/>
</linearGradient>
<linearGradient id="paint44_linear_11_394" x1="282.337" y1="342.833" x2="288.018" y2="308.481" gradientUnits="userSpaceOnUse">
<stop offset="0.264695" stop-color="#A3A3A3"/>
<stop offset="0.526042" stop-color="white"/>
<stop offset="0.728228" stop-color="#A7A7A7"/>
</linearGradient>
<linearGradient id="paint45_linear_11_394" x1="152.269" y1="333.451" x2="159.221" y2="322.333" gradientUnits="userSpaceOnUse">
<stop stop-color="#434343"/>
<stop offset="0.515625" stop-color="#757373"/>
<stop offset="1" stop-color="#484848"/>
</linearGradient>
<linearGradient id="paint46_linear_11_394" x1="163.808" y1="341.186" x2="160.692" y2="326.632" gradientUnits="userSpaceOnUse">
<stop stop-color="#777777"/>
<stop offset="0.505208" stop-color="#B7B7B7"/>
<stop offset="1" stop-color="#777777"/>
</linearGradient>
<linearGradient id="paint47_linear_11_394" x1="167.102" y1="338.827" x2="146.984" y2="303.247" gradientUnits="userSpaceOnUse">
<stop offset="0.0901437" stop-color="#6B6B6B"/>
<stop offset="0.536458" stop-color="#B1B0B0"/>
<stop offset="0.764584" stop-color="#706F6F"/>
</linearGradient>
<linearGradient id="paint48_linear_11_394" x1="162.908" y1="342.833" x2="157.227" y2="308.481" gradientUnits="userSpaceOnUse">
<stop offset="0.264695" stop-color="#A3A3A3"/>
<stop offset="0.526042" stop-color="white"/>
<stop offset="0.728228" stop-color="#A7A7A7"/>
</linearGradient>
</defs>
</svg>
