<svg width="319" height="319" viewBox="0 0 319 319" fill="none" xmlns="http://www.w3.org/2000/svg">
<g filter="url(#filter0_i_11_394)">
<circle cx="159.742" cy="159.628" r="157" transform="rotate(-90 159.742 159.628)" fill="url(#paint0_linear_11_394)"/>
</g>
<circle cx="159.742" cy="159.628" r="155" transform="rotate(-90 159.742 159.628)" stroke="url(#paint1_linear_11_394)" stroke-width="4"/>
<g filter="url(#filter1_f_11_394)">
<path d="M254.853 152.326C251.88 100.22 207.23 60.389 155.124 63.3615C103.018 66.334 63.1872 110.984 66.1597 163.09C69.1322 215.197 113.782 255.027 165.888 252.055C217.995 249.082 257.825 204.432 254.853 152.326Z" fill="white"/>
</g>
<g filter="url(#filter2_dd_11_394)">
<path d="M159 261C170.598 261 180 270.402 180 282C180 293.598 170.598 303 159 303C147.402 303 138 293.598 138 282C138 270.402 147.402 261 159 261Z" fill="url(#paint2_linear_11_394)"/>
<path d="M159 14C169.493 14 178 22.5066 178 33C178 43.4934 169.493 52 159 52C148.507 52 140 43.4934 140 33C140 22.5066 148.507 14 159 14Z" stroke="url(#paint3_linear_11_394)" stroke-width="4"/>
<path d="M270.647 88.2C272.905 83.262 272.94 78.996 272.675 77.48C275.077 79.284 276.844 81.567 278.273 85.637C279.701 89.706 278.424 94.345 277.663 96.451C275.679 101.231 271.421 104.587 267.804 106.211C264.188 107.834 260.939 107.881 255.571 105.507C247.195 101.222 246.102 94.571 246 92.81C250.588 96.36 257.115 96.582 259.805 96.25C262.478 95.623 268.389 93.137 270.647 88.2Z" fill="url(#paint4_linear_11_394)"/>
<path d="M49.2721 88.2C47.0141 83.262 46.9789 78.996 47.2435 77.48C44.8418 79.284 43.0749 81.567 41.6462 85.637C40.2174 89.706 41.4944 94.345 42.2557 96.451C44.2402 101.231 48.4982 104.587 52.1147 106.211C55.7311 107.834 58.9796 107.881 64.3476 105.507C72.7242 101.222 73.8168 94.571 73.9189 92.81C69.3309 96.36 62.8038 96.582 60.1137 96.25C57.4407 95.623 51.5302 93.137 49.2721 88.2Z" fill="url(#paint5_linear_11_394)"/>
<path d="M270.647 230.683C272.905 235.62 272.94 239.886 272.675 241.402C275.077 239.598 276.844 237.315 278.273 233.246C279.701 229.176 278.424 224.538 277.663 222.432C275.679 217.652 271.421 214.295 267.804 212.672C264.188 211.048 260.939 211.001 255.571 213.376C247.195 217.661 246.102 224.312 246 226.073C250.588 222.522 257.115 222.3 259.805 222.633C262.478 223.259 268.389 225.746 270.647 230.683Z" fill="url(#paint6_linear_11_394)"/>
<path d="M49.2721 230.683C47.0141 235.62 46.9789 239.886 47.2435 241.402C44.8418 239.598 43.0749 237.315 41.6462 233.246C40.2174 229.176 41.4944 224.538 42.2557 222.432C44.2402 217.652 48.4982 214.295 52.1147 212.672C55.7311 211.048 58.9796 211.001 64.3476 213.376C72.7242 217.661 73.8168 224.312 73.9189 226.073C69.3309 222.522 62.8038 222.3 60.1137 222.633C57.4407 223.259 51.5302 225.746 49.2721 230.683Z" fill="url(#paint7_linear_11_394)"/>
</g>
<circle cx="160" cy="160" r="88" fill="url(#paint8_linear_11_394)"/>
<g style="mix-blend-mode:overlay">
<g filter="url(#filter3_dd_11_394)">
<path d="M162 249C211.706 249 252 208.706 252 159C252 109.294 211.706 69.0001 162 69.0001C112.294 69.0001 71.9999 109.294 71.9999 159C71.9999 208.706 112.294 249 162 249Z" fill="url(#paint9_linear_11_394)"/>
</g>
<g style="mix-blend-mode:overlay">
<path d="M106.661 220.5C101.861 214.9 90.994 209.167 86.1607 207L85.1607 207.5C70.3607 186.7 70.994 157.5 73.1607 145.5C73.1607 148.7 78.3274 150.667 80.6607 151L84.6607 160.5C87.6607 161.667 92.8607 163.1 89.6607 159.5C86.4607 155.9 88.3274 150.667 89.6607 148.5C88.494 147 86.1607 143.6 86.1607 142C86.1607 140.4 89.8274 137 91.6607 135.5C90.994 134.5 92.2607 129.8 102.661 119C113.061 108.2 125.661 115.5 130.661 120.5L129.161 115C129.494 110.833 131.161 103 135.161 105C139.161 107 141.161 104.167 141.661 102.5C141.161 101.167 140.861 98.3001 143.661 97.5001C152.161 103.5 149.661 100.5 163.661 105C174.861 108.6 174.661 104.833 173.161 102.5L166.661 97.5001C170.494 97.1668 179.261 96.2001 183.661 95.0001C204.861 102.2 204.827 92.0001 202.161 86.0001H213.161C236.661 102.5 249.161 132.5 251.161 148.5C252.761 161.3 251.661 173 250.161 177.5L245.161 172.5C242.494 168.833 237.661 161.5 239.661 161.5C241.661 161.5 242.161 152.833 242.161 148.5C241.661 144.167 240.461 134.9 239.661 132.5C238.965 130.411 234.936 126.909 232.255 124.827C233.34 125.927 233.899 127.675 231.161 129.5C227.561 131.9 226.994 134.5 227.161 135.5C224.994 139.333 220.461 144.7 219.661 135.5C218.861 126.3 211.661 124 208.161 124C207.661 122.333 205.161 118.5 199.161 116.5C193.161 114.5 191.994 117.333 192.161 119C192.494 122.5 194.361 130.1 199.161 132.5C203.961 134.9 201.161 138.167 199.161 139.5C196.161 142.667 190.061 147.1 189.661 139.5C189.261 131.9 186.827 131.667 185.661 132.5C185.994 133.667 185.261 135.9 179.661 135.5C174.061 135.1 166.661 131.333 163.661 129.5C167.994 132.167 174.061 138.4 163.661 142C153.261 145.6 159.327 151.167 163.661 153.5C165.327 155.5 167.061 159.9 160.661 161.5C154.261 163.1 155.661 166.167 157.161 167.5C153.494 171.333 147.861 178.7 154.661 177.5C161.461 176.3 168.494 180.333 171.161 182.5L176.661 190C180.161 191.5 186.461 194.5 183.661 194.5C180.861 194.5 181.494 199.5 182.161 202C179.827 205 175.461 211.5 176.661 213.5C177.861 215.5 176.161 220.667 175.161 223H168.661C168.661 221.5 167.661 218.5 163.661 218.5C158.661 218.5 163.161 223 163.661 225C164.061 226.6 157.827 228.667 154.661 229.5L149.661 226.5L141.661 223C143.327 223 146.561 222.1 146.161 218.5C145.761 214.9 138.661 214.333 135.161 214.5C135.494 215.833 135.561 218.5 133.161 218.5C130.761 218.5 132.161 221.5 133.161 223C131.494 222.167 128.561 221.4 130.161 225C131.761 228.6 129.494 227.5 128.161 226.5C122.994 226.833 111.461 226.1 106.661 220.5Z" fill="#D2D1D1" fill-opacity="0.5"/>
</g>
<g style="mix-blend-mode:overlay">
<path d="M229.907 166.458C226.212 170.686 228.817 173.407 230.581 174.24C229.729 175.084 227.392 175.994 226.33 176.343C224.796 176.69 221.302 178.231 219.59 181.618C217.879 185.005 216.99 183.493 216.759 182.313L209.682 183.698L203.709 174.834L202.661 171.647C202.902 170.47 203.956 166.42 206.248 159.641C208.539 152.863 214.056 152.367 216.529 152.967C218.174 154.152 221.96 156.172 223.946 154.766C225.932 153.36 227.838 153.957 228.544 154.432C230.538 156.679 233.602 162.231 229.907 166.458Z" fill="#4E4646"/>
<path d="M207.453 209.144C211.702 207.748 214.162 211.176 214.862 213.065C214.857 214.196 212.96 216.828 212.012 218.002C211.653 219.297 210.653 221.886 209.521 221.881C208.39 221.876 204.799 223.747 203.145 224.683C204.092 223.744 204.853 222.144 200.323 223.257C195.793 224.369 194.668 222.761 194.672 221.819C194.09 220.048 193.351 216.51 195.048 216.517C196.745 216.524 197.649 214.642 197.888 213.7C198.009 213.112 198.532 211.935 199.663 211.94C201.078 211.946 202.143 210.89 207.453 209.144Z" fill="#4E4646"/>
</g>
<g style="mix-blend-mode:overlay">
<path d="M141 79.7887L142.511 74.0604C153.394 75.4551 155.779 72.6491 155.611 71.0717C157.29 72.0679 160.951 73.7117 162.16 72.317C163.369 70.9223 167.702 70.9057 169.718 71.0717C168.878 71.6528 167.702 73.1638 169.718 74.5585C180.197 76.3517 177.107 78.7925 174.252 79.7887C173.244 80.1208 171.834 81.6318 174.252 85.0189C176.67 88.4061 173.244 88.5888 171.229 88.2567C170.053 87.4265 167.601 85.9654 167.198 86.7623C166.795 87.5593 161.321 89.2529 158.634 90.0001C159.977 89.585 160.85 88.6552 153.595 88.2567C146.34 87.8582 142.176 82.4453 141 79.7887Z" fill="#2E2D2D"/>
</g>
</g>
<ellipse cx="127.709" cy="102.028" rx="6.30168" ry="5.77654" fill="url(#paint10_radial_11_394)"/>
<ellipse cx="171.296" cy="95.2012" rx="4.72626" ry="4.20112" fill="url(#paint11_radial_11_394)"/>
<circle cx="117.732" cy="135.637" r="3.67598" fill="url(#paint12_radial_11_394)"/>
<circle cx="178.123" cy="146.665" r="7.35196" fill="url(#paint13_radial_11_394)"/>
<ellipse cx="188.626" cy="110.43" rx="3.15084" ry="2.6257" fill="url(#paint14_radial_11_394)"/>
<circle cx="151.341" cy="160.844" r="3.67598" fill="url(#paint15_radial_11_394)"/>
<ellipse cx="149.24" cy="122.508" rx="1.57542" ry="2.10056" fill="url(#paint16_radial_11_394)"/>
<ellipse cx="130.86" cy="155.592" rx="3.15084" ry="1.57542" fill="url(#paint17_radial_11_394)"/>
<ellipse cx="190.201" cy="135.637" rx="1.57542" ry="3.67598" fill="url(#paint18_radial_11_394)"/>
<circle cx="213.832" cy="185.525" r="3.15084" fill="url(#paint19_radial_11_394)"/>
<ellipse cx="229.061" cy="157.693" rx="2.6257" ry="3.67598" fill="url(#paint20_radial_11_394)"/>
<circle cx="216.458" cy="126.184" r="5.77654" fill="url(#paint21_radial_11_394)"/>
<ellipse cx="95.1508" cy="168.196" rx="3.15084" ry="3.67598" fill="url(#paint22_radial_11_394)"/>
<circle cx="115.631" cy="162.944" r="1.57542" fill="url(#paint23_radial_11_394)"/>
<ellipse cx="119.307" cy="187.101" rx="2.10056" ry="1.57542" fill="url(#paint24_radial_11_394)"/>
<ellipse cx="137.687" cy="216.508" rx="9.97765" ry="11.0279" fill="url(#paint25_radial_11_394)"/>
<ellipse cx="177.073" cy="203.905" rx="11.5531" ry="9.97765" fill="url(#paint26_radial_11_394)"/>
<ellipse cx="179.173" cy="170.296" rx="3.15084" ry="1.57542" fill="url(#paint27_radial_11_394)"/>
<ellipse cx="202.804" cy="209.682" rx="3.67598" ry="4.20112" fill="url(#paint28_radial_11_394)"/>
<circle cx="145.039" cy="185" r="2.6257" fill="url(#paint29_radial_11_394)"/>
<ellipse cx="168.145" cy="224.386" rx="2.6257" ry="3.15084" fill="url(#paint30_radial_11_394)"/>
<g filter="url(#filter4_dd_11_394)">
<path d="M283.26 160.501C282.768 158.874 283.055 157.383 283.26 156.841C283.328 157.993 283.833 160.419 284.488 160.907C284.693 161.111 285.102 161.111 285.307 160.907C285.512 160.704 286.331 159.687 286.74 156.841C286.945 157.383 287.232 158.874 286.74 160.501C286.249 162.127 286.809 167.007 287.15 169.244C287.491 170.938 288.624 174.734 290.426 176.36C292.678 178.394 293.906 178.19 295.34 177.58C295.995 177.255 296.022 176.903 295.954 176.767C295.954 176.564 295.749 176.279 294.93 176.767C294.111 177.255 293.36 177.106 293.087 176.97C292.678 176.903 291.695 176.076 291.04 173.31C290.385 170.545 291.859 167.661 292.678 167.414C294.248 166.939 297.756 165.177 299.23 161.924L299.434 160.907C299.503 160.704 299.557 160.216 299.23 159.891C298.82 159.484 298.001 159.281 297.182 158.264C298.001 158.264 299.885 157.857 300.868 156.231C301.85 154.604 302.233 153.791 302.301 153.587C302.642 152.571 303.611 150.171 304.758 148.707C305.904 147.243 306.054 145.928 305.986 145.454C305.918 144.708 305.167 143.177 302.71 143.014C300.253 142.851 297.319 144.166 296.159 144.844L292.883 146.877C290.972 148.301 286.904 151.513 285.921 152.977C285.717 152.571 285.717 152.367 285.102 152.164H284.898C284.283 152.367 284.283 152.571 284.079 152.977C283.096 151.513 279.028 148.301 277.117 146.877L273.842 144.844C272.681 144.166 269.747 142.851 267.29 143.014C264.833 143.177 264.082 144.708 264.014 145.454C263.946 145.928 264.096 147.243 265.242 148.707C266.389 150.171 267.358 152.571 267.699 153.587C267.768 153.791 268.15 154.604 269.132 156.231C270.115 157.857 271.999 158.264 272.818 158.264C271.999 159.281 271.18 159.484 270.77 159.891C270.443 160.216 270.497 160.704 270.566 160.907L270.77 161.924C272.245 165.177 275.753 166.939 277.322 167.414C278.141 167.661 279.615 170.545 278.96 173.31C278.305 176.076 277.322 176.903 276.913 176.97C276.64 177.106 275.889 177.255 275.07 176.767C274.251 176.279 274.046 176.564 274.046 176.767C273.978 176.903 274.005 177.255 274.661 177.58C276.094 178.19 277.322 178.394 279.574 176.36C281.376 174.734 282.509 170.938 282.85 169.244C283.191 167.007 283.751 162.127 283.26 160.501Z" fill="url(#paint31_linear_11_394)"/>
</g>
<g filter="url(#filter5_dd_11_394)">
<path d="M35.2596 160.501C34.7682 158.874 35.0549 157.383 35.2596 156.841C35.3279 157.993 35.8329 160.419 36.4881 160.907C36.6928 161.111 37.1023 161.111 37.307 160.907C37.5118 160.704 38.3308 159.687 38.7402 156.841C38.945 157.383 39.2316 158.874 38.7402 160.501C38.2489 162.127 38.8085 167.007 39.1497 169.244C39.491 170.938 40.6239 174.734 42.4256 176.36C44.6778 178.394 45.9063 178.19 47.3395 177.58C47.9946 177.255 48.0219 176.903 47.9537 176.767C47.9537 176.564 47.7489 176.279 46.93 176.767C46.111 177.255 45.3603 177.106 45.0873 176.97C44.6778 176.903 43.695 176.076 43.0399 173.31C42.3847 170.545 43.8588 167.661 44.6778 167.414C46.2475 166.939 49.7554 165.177 51.2296 161.924L51.4343 160.907C51.5026 160.704 51.5572 160.216 51.2296 159.891C50.8201 159.484 50.0011 159.281 49.1821 158.264C50.0011 158.264 51.8848 157.857 52.8675 156.231C53.8503 154.604 54.2325 153.791 54.3007 153.587C54.642 152.571 55.6111 150.171 56.7576 148.707C57.9042 147.243 58.0543 145.928 57.9861 145.454C57.9178 144.708 57.1671 143.177 54.7102 143.014C52.2533 142.851 49.3186 144.166 48.1584 144.844L44.8825 146.877C42.9716 148.301 38.904 151.513 37.9213 152.977C37.7165 152.571 37.7165 152.367 37.1023 152.164H36.8976C36.2833 152.367 36.2833 152.571 36.0786 152.977C35.0958 151.513 31.0283 148.301 29.1173 146.877L25.8414 144.844C24.6812 144.166 21.7466 142.851 19.2897 143.014C16.8327 143.177 16.082 144.708 16.0138 145.454C15.9455 145.928 16.0957 147.243 17.2422 148.707C18.3888 150.171 19.3579 152.571 19.6991 153.587C19.7674 153.791 20.1496 154.604 21.1323 156.231C22.1151 157.857 23.9988 158.264 24.8177 158.264C23.9988 159.281 23.1798 159.484 22.7703 159.891C22.4427 160.216 22.4973 160.704 22.5655 160.907L22.7703 161.924C24.2444 165.177 27.7524 166.939 29.3221 167.414C30.141 167.661 31.6152 170.545 30.96 173.31C30.3048 176.076 29.3221 176.903 28.9126 176.97C28.6396 177.106 27.8889 177.255 27.0699 176.767C26.2509 176.279 26.0462 176.564 26.0462 176.767C25.9779 176.903 26.0052 177.255 26.6604 177.58C28.0936 178.19 29.3221 178.394 31.5742 176.36C33.376 174.734 34.5089 170.938 34.8501 169.244C35.1914 167.007 35.751 162.127 35.2596 160.501Z" fill="url(#paint32_linear_11_394)"/>
</g>
<g filter="url(#filter6_d_11_394)">
<path d="M209.338 38.1934C209.628 38.0627 210.947 35.6904 211.091 35.3906C211.324 36.4029 212.064 38.7803 213.157 40.1914C214.25 41.6026 217.365 45.0316 218.786 46.5697L226.131 52.0723L238.417 59.2344C240.846 59.3673 246.278 59.3411 248.567 58.1735C247.574 59.7618 246.744 61.7122 245.751 62.2609C244.759 62.8097 242.691 64.2459 239.549 63.4511C237.933 63.376 231.487 60.9656 228.466 59.7698L224.238 58.4258L210.505 45.6804L209.851 44.232C207.796 42.531 208.03 40.4941 208.404 39.6883C208.595 39.2445 209.049 38.3242 209.338 38.1934Z" fill="url(#paint33_linear_11_394)"/>
<g filter="url(#filter7_dd_11_394)">
<path d="M212.644 39.3504C212.56 37.3228 214.506 34.71 215.354 33.768C218.764 36.6279 220.138 41.9136 220.398 44.199L229.016 52.4466C230.741 52.8752 235.08 53.6392 238.64 53.2661C242.2 52.893 246.236 53.727 247.809 54.1906C247.31 55.265 246.054 57.5377 245.016 58.0327C242.517 59.3287 240.519 60.0291 238.405 59.8768C236.291 59.7246 233.418 60.7869 229.108 60.8211C225.66 60.8484 224.269 60.1778 224.004 59.839L221.295 58.1449C220.894 58.3706 219.765 57.89 218.457 54.1615C217.15 50.4331 216.457 48.839 216.274 48.5081C213.262 44.805 212.748 41.8849 212.644 39.3504Z" fill="url(#paint34_linear_11_394)"/>
</g>
<g filter="url(#filter8_d_11_394)">
<path d="M228.434 45.0649C228.023 40.234 227.392 36.9628 227.127 35.931C224.128 37.0704 221.602 38.6708 220.714 39.3286C220.154 39.6711 218.792 41.1152 217.829 44.1518C216.866 47.1884 218.835 51.7555 219.941 53.6596L221.412 56.9185L219.858 57.1168C219.551 56.7079 218.917 55.8785 218.842 55.8318C218.768 55.7851 217.823 54.068 217.36 53.2152C214.666 51.7041 208.582 48.2987 205.798 46.7657C203.014 45.2328 200.363 44.9271 199.386 44.9658C199.377 45.4797 200.067 47.6873 200.413 48.7269C200.833 49.5095 201.543 50.993 204.383 52.7689C207.224 54.5448 210.052 54.9269 211.111 54.8959L218.339 59.5459L221.318 59.9786L224.202 63.4714L229.411 65.9486C230.01 66.9298 232.047 69.5465 235.401 72.1634C239.594 75.4345 243.203 73.403 244.324 73.0645C243.12 70.3358 240.841 68.2439 239.852 67.539L225.767 61.5913L221.843 59.1378L230.23 58.4036C232.2 58.1626 236.638 57.134 238.628 54.948C240.619 52.7619 241.07 49.2409 241.047 47.7537C240.966 47.0529 240.697 45.4036 240.277 44.4131C238.175 44.4501 233.561 46.1482 231.517 46.9926C230.501 46.7472 228.461 46.018 228.434 45.0649Z" fill="url(#paint35_linear_11_394)"/>
</g>
<g filter="url(#filter9_d_11_394)">
<path d="M219.227 61.6601L221.026 60.4458C219.215 63.342 220.335 66.122 221.421 67.7107C223.626 71.1683 227.035 70.7874 228.464 70.1648C229.098 69.9119 230.475 69.3172 230.905 68.9622C227.203 66.7774 226.83 65.5042 225.942 64.4295C230.604 68.2801 234.526 69.4068 235.904 69.4888C237.317 69.7227 238.719 69.5594 240.868 68.824C242.937 68.1159 245.809 65.286 246.802 63.6977C245.693 64.4333 242.563 64.0356 241.546 63.7902C240.734 63.5938 238.249 62.205 237.109 61.5351C235.972 60.9976 233.231 59.8384 231.362 59.5017C229.494 59.1649 226.27 59.6097 224.892 59.8742L229.868 57.5275C231.044 56.9632 233.641 55.2343 234.622 52.8331C235.604 50.432 234.993 47.0439 234.565 45.6501L232.978 41.5385C231.117 41.6744 226.792 42.2451 224.381 43.4406C221.367 44.935 220.467 47.6212 219.977 49.6534C219.584 51.2792 219.851 55.1195 220.034 56.8365C219.652 55.2986 218.561 51.8349 217.243 50.2836C215.926 48.7322 214.242 47.3241 213.565 46.814C213.117 46.4907 211.815 45.5382 210.19 44.3138C208.158 42.7834 207.983 42.0242 207.598 41.3934C207.289 40.8887 207.041 39.7892 206.956 39.3026C206.773 39.6646 206.159 40.9096 205.168 42.993C203.929 45.5974 205.447 49.4053 206.638 51.4495C207.591 53.0849 210.398 54.9269 211.683 55.6435C212.636 56.1966 214.806 57.4662 215.852 58.1205C212.825 57.4752 209.826 55.9118 208.704 55.2108C208.611 55.4989 208.447 56.2456 208.541 56.9277C208.708 58.4882 209.762 60.0309 210.269 60.6072C210.545 60.9966 211.604 61.9623 213.632 62.7102C215.659 63.4581 218.207 62.3218 219.227 61.6601Z" fill="url(#paint36_linear_11_394)"/>
</g>
</g>
<g filter="url(#filter10_d_11_394)">
<path d="M109.906 38.1934C109.616 38.0627 108.298 35.6904 108.154 35.3906C107.92 36.4029 107.18 38.7803 106.087 40.1914C104.994 41.6026 101.88 45.0316 100.459 46.5697L93.1133 52.0723L80.8275 59.2344C78.3981 59.3673 72.967 59.3411 70.6776 58.1735C71.6707 59.7618 72.5003 61.7122 73.4932 62.2609C74.4861 62.8097 76.5537 64.2459 79.6954 63.4511C81.3119 63.376 87.7579 60.9656 90.7788 59.7698L95.0067 58.4258L108.74 45.6804L109.393 44.232C111.449 42.531 111.215 40.4941 110.841 39.6883C110.65 39.2445 110.196 38.3242 109.906 38.1934Z" fill="url(#paint37_linear_11_394)"/>
<g filter="url(#filter11_dd_11_394)">
<path d="M106.601 39.3504C106.685 37.3228 104.739 34.71 103.89 33.768C100.48 36.6279 99.107 41.9136 98.8466 44.199L90.2285 52.4466C88.5038 52.8752 84.1645 53.6392 80.6045 53.2661C77.0444 52.893 73.0088 53.727 71.436 54.1906C71.9345 55.265 73.1909 57.5377 74.2282 58.0327C76.7279 59.3287 78.7253 60.0291 80.8393 59.8768C82.9533 59.7246 85.8268 60.7869 90.1366 60.8211C93.5845 60.8484 94.9759 60.1778 95.2405 59.839L97.9499 58.1449C98.351 58.3706 99.4799 57.89 100.787 54.1615C102.095 50.4331 102.787 48.839 102.97 48.5081C105.983 44.805 106.496 41.8849 106.601 39.3504Z" fill="url(#paint38_linear_11_394)"/>
</g>
<g filter="url(#filter12_d_11_394)">
<path d="M90.811 45.0649C91.2212 40.234 91.8528 36.9628 92.1174 35.931C95.117 37.0704 97.6425 38.6708 98.5303 39.3286C99.091 39.6711 100.453 41.1152 101.416 44.1518C102.379 47.1884 100.409 51.7555 99.3039 53.6596L97.8329 56.9185L99.3863 57.1168C99.6938 56.7079 100.327 55.8785 100.402 55.8318C100.477 55.7851 101.422 54.068 101.885 53.2152C104.579 51.7041 110.663 48.2987 113.447 46.7657C116.231 45.2328 118.881 44.9271 119.859 44.9658C119.868 45.4797 119.178 47.6873 118.832 48.7269C118.411 49.5095 117.701 50.993 114.861 52.7689C112.021 54.5448 109.193 54.9269 108.134 54.8959L100.905 59.5459L97.9269 59.9786L95.0427 63.4714L89.834 65.9486C89.2346 66.9298 87.1974 69.5465 83.8434 72.1634C79.651 75.4345 76.0415 73.403 74.9202 73.0645C76.125 70.3358 78.4038 68.2439 79.3925 67.539L93.4772 61.5913L97.4012 59.1378L89.0149 58.4036C87.0449 58.1626 82.6071 57.134 80.6165 54.948C78.6258 52.7619 78.1743 49.2409 78.1973 47.7537C78.279 47.0529 78.5473 45.4036 78.9676 44.4131C81.0699 44.4501 85.6838 46.1482 87.7279 46.9926C88.744 46.7472 90.7832 46.018 90.811 45.0649Z" fill="url(#paint39_linear_11_394)"/>
</g>
<g filter="url(#filter13_d_11_394)">
<path d="M100.018 61.6601L98.219 60.4458C100.03 63.342 98.9092 66.122 97.8233 67.7107C95.6188 71.1683 92.2098 70.7874 90.7808 70.1648C90.1462 69.9119 88.7694 69.3172 88.3395 68.9622C92.0416 66.7774 92.4151 65.5042 93.3026 64.4295C88.6407 68.2801 84.7189 69.4068 83.3407 69.4888C81.9275 69.7227 80.5258 69.5594 78.3766 68.824C76.3073 68.1159 73.4354 65.286 72.4423 63.6977C73.552 64.4333 76.6821 64.0356 77.6982 63.7902C78.5111 63.5938 80.9955 62.205 82.1361 61.5351C83.2728 60.9976 86.0135 59.8384 87.8822 59.5017C89.7509 59.1649 92.9746 59.6097 94.3529 59.8742L89.3768 57.5275C88.2009 56.9632 85.6038 55.2343 84.6222 52.8331C83.6406 50.432 84.2512 47.0439 84.6792 45.6501L86.2669 41.5385C88.1279 41.6744 92.4526 42.2451 94.8636 43.4406C97.8773 44.935 98.7771 47.6212 99.2681 49.6534C99.6608 51.2792 99.3937 55.1195 99.2111 56.8365C99.5923 55.2986 100.684 51.8349 102.001 50.2836C103.318 48.7322 105.002 47.3241 105.68 46.814C106.127 46.4907 107.429 45.5382 109.055 44.3138C111.087 42.7834 111.262 42.0242 111.647 41.3934C111.955 40.8887 112.204 39.7892 112.289 39.3026C112.472 39.6646 113.086 40.9096 114.077 42.993C115.315 45.5974 113.798 49.4053 112.607 51.4495C111.654 53.0849 108.847 54.9269 107.562 55.6435C106.608 56.1966 104.439 57.4662 103.393 58.1205C106.42 57.4752 109.419 55.9118 110.54 55.2108C110.634 55.4989 110.797 56.2456 110.704 56.9277C110.536 58.4882 109.482 60.0309 108.976 60.6072C108.7 60.9966 107.64 61.9623 105.613 62.7102C103.585 63.4581 101.038 62.3218 100.018 61.6601Z" fill="url(#paint40_linear_11_394)"/>
</g>
</g>
<g filter="url(#filter14_d_11_394)">
<path d="M209.338 278.807C209.628 278.937 210.947 281.31 211.091 281.609C211.324 280.597 212.064 278.22 213.157 276.809C214.25 275.397 217.365 271.968 218.786 270.43L226.131 264.928L238.417 257.766C240.846 257.633 246.278 257.659 248.567 258.826C247.574 257.238 246.744 255.288 245.751 254.739C244.759 254.19 242.691 252.754 239.549 253.549C237.933 253.624 231.487 256.034 228.466 257.23L224.238 258.574L210.505 271.32L209.851 272.768C207.796 274.469 208.03 276.506 208.404 277.312C208.595 277.756 209.049 278.676 209.338 278.807Z" fill="url(#paint41_linear_11_394)"/>
<g filter="url(#filter15_dd_11_394)">
<path d="M212.644 277.65C212.56 279.677 214.506 282.29 215.354 283.232C218.764 280.372 220.138 275.086 220.398 272.801L229.016 264.553C230.741 264.125 235.08 263.361 238.64 263.734C242.2 264.107 246.236 263.273 247.809 262.809C247.31 261.735 246.054 259.462 245.016 258.967C242.517 257.671 240.519 256.971 238.405 257.123C236.291 257.275 233.418 256.213 229.108 256.179C225.66 256.152 224.269 256.822 224.004 257.161L221.295 258.855C220.894 258.629 219.765 259.11 218.457 262.838C217.15 266.567 216.457 268.161 216.274 268.492C213.262 272.195 212.748 275.115 212.644 277.65Z" fill="url(#paint42_linear_11_394)"/>
</g>
<g filter="url(#filter16_d_11_394)">
<path d="M228.434 271.935C228.023 276.766 227.392 280.037 227.127 281.069C224.128 279.93 221.602 278.329 220.714 277.671C220.154 277.329 218.792 275.885 217.829 272.848C216.866 269.812 218.835 265.244 219.941 263.34L221.412 260.081L219.858 259.883C219.551 260.292 218.917 261.121 218.842 261.168C218.768 261.215 217.823 262.932 217.36 263.785C214.666 265.296 208.582 268.701 205.798 270.234C203.014 271.767 200.363 272.073 199.386 272.034C199.377 271.52 200.067 269.313 200.413 268.273C200.833 267.49 201.543 266.007 204.383 264.231C207.224 262.455 210.052 262.073 211.111 262.104L218.339 257.454L221.318 257.021L224.202 253.529L229.411 251.051C230.01 250.07 232.047 247.454 235.401 244.837C239.594 241.565 243.203 243.597 244.324 243.936C243.12 246.664 240.841 248.756 239.852 249.461L225.767 255.409L221.843 257.862L230.23 258.596C232.2 258.837 236.638 259.866 238.628 262.052C240.619 264.238 241.07 267.759 241.047 269.246C240.966 269.947 240.697 271.596 240.277 272.587C238.175 272.55 233.561 270.852 231.517 270.007C230.501 270.253 228.461 270.982 228.434 271.935Z" fill="url(#paint43_linear_11_394)"/>
</g>
<g filter="url(#filter17_d_11_394)">
<path d="M219.227 255.34L221.026 256.554C219.215 253.658 220.335 250.878 221.421 249.289C223.626 245.832 227.035 246.213 228.464 246.835C229.098 247.088 230.475 247.683 230.905 248.038C227.203 250.223 226.83 251.496 225.942 252.57C230.604 248.72 234.526 247.593 235.904 247.511C237.317 247.277 238.719 247.441 240.868 248.176C242.937 248.884 245.809 251.714 246.802 253.302C245.693 252.567 242.563 252.964 241.546 253.21C240.734 253.406 238.249 254.795 237.109 255.465C235.972 256.002 233.231 257.162 231.362 257.498C229.494 257.835 226.27 257.39 224.892 257.126L229.868 259.472C231.044 260.037 233.641 261.766 234.622 264.167C235.604 266.568 234.993 269.956 234.565 271.35L232.978 275.462C231.117 275.326 226.792 274.755 224.381 273.559C221.367 272.065 220.467 269.379 219.977 267.347C219.584 265.721 219.851 261.88 220.034 260.164C219.652 261.701 218.561 265.165 217.243 266.716C215.926 268.268 214.242 269.676 213.565 270.186C213.117 270.509 211.815 271.462 210.19 272.686C208.158 274.217 207.983 274.976 207.598 275.607C207.289 276.111 207.041 277.211 206.956 277.697C206.773 277.335 206.159 276.09 205.168 274.007C203.929 271.403 205.447 267.595 206.638 265.55C207.591 263.915 210.398 262.073 211.683 261.356C212.636 260.803 214.806 259.534 215.852 258.88C212.825 259.525 209.826 261.088 208.704 261.789C208.611 261.501 208.447 260.754 208.541 260.072C208.708 258.512 209.762 256.969 210.269 256.393C210.545 256.003 211.604 255.038 213.632 254.29C215.659 253.542 218.207 254.678 219.227 255.34Z" fill="url(#paint44_linear_11_394)"/>
</g>
</g>
<g filter="url(#filter18_d_11_394)">
<path d="M109.906 278.807C109.616 278.937 108.298 281.31 108.154 281.609C107.92 280.597 107.18 278.22 106.087 276.809C104.994 275.397 101.88 271.968 100.459 270.43L93.1133 264.928L80.8275 257.766C78.3981 257.633 72.967 257.659 70.6776 258.826C71.6707 257.238 72.5003 255.288 73.4932 254.739C74.4861 254.19 76.5537 252.754 79.6954 253.549C81.3119 253.624 87.7579 256.034 90.7788 257.23L95.0067 258.574L108.74 271.32L109.393 272.768C111.449 274.469 111.215 276.506 110.841 277.312C110.65 277.756 110.196 278.676 109.906 278.807Z" fill="url(#paint45_linear_11_394)"/>
<g filter="url(#filter19_dd_11_394)">
<path d="M106.601 277.65C106.685 279.677 104.739 282.29 103.89 283.232C100.48 280.372 99.107 275.086 98.8466 272.801L90.2285 264.553C88.5038 264.125 84.1645 263.361 80.6045 263.734C77.0444 264.107 73.0088 263.273 71.436 262.809C71.9345 261.735 73.1909 259.462 74.2282 258.967C76.7279 257.671 78.7253 256.971 80.8393 257.123C82.9533 257.275 85.8268 256.213 90.1366 256.179C93.5845 256.152 94.9759 256.822 95.2405 257.161L97.9499 258.855C98.351 258.629 99.4799 259.11 100.787 262.838C102.095 266.567 102.787 268.161 102.97 268.492C105.983 272.195 106.496 275.115 106.601 277.65Z" fill="url(#paint46_linear_11_394)"/>
</g>
<g filter="url(#filter20_d_11_394)">
<path d="M90.811 271.935C91.2212 276.766 91.8528 280.037 92.1174 281.069C95.117 279.93 97.6425 278.329 98.5303 277.671C99.091 277.329 100.453 275.885 101.416 272.848C102.379 269.812 100.409 265.244 99.3039 263.34L97.8329 260.081L99.3863 259.883C99.6938 260.292 100.327 261.121 100.402 261.168C100.477 261.215 101.422 262.932 101.885 263.785C104.579 265.296 110.663 268.701 113.447 270.234C116.231 271.767 118.881 272.073 119.859 272.034C119.868 271.52 119.178 269.313 118.832 268.273C118.411 267.49 117.701 266.007 114.861 264.231C112.021 262.455 109.193 262.073 108.134 262.104L100.905 257.454L97.9269 257.021L95.0427 253.529L89.834 251.051C89.2346 250.07 87.1974 247.454 83.8434 244.837C79.651 241.565 76.0415 243.597 74.9202 243.936C76.125 246.664 78.4038 248.756 79.3925 249.461L93.4772 255.409L97.4012 257.862L89.0149 258.596C87.0449 258.837 82.6071 259.866 80.6165 262.052C78.6258 264.238 78.1743 267.759 78.1973 269.246C78.279 269.947 78.5473 271.596 78.9676 272.587C81.0699 272.55 85.6838 270.852 87.7279 270.007C88.744 270.253 90.7832 270.982 90.811 271.935Z" fill="url(#paint47_linear_11_394)"/>
</g>
<g filter="url(#filter21_d_11_394)">
<path d="M100.018 255.34L98.219 256.554C100.03 253.658 98.9092 250.878 97.8233 249.289C95.6188 245.832 92.2098 246.213 90.7808 246.835C90.1462 247.088 88.7694 247.683 88.3395 248.038C92.0416 250.223 92.4151 251.496 93.3026 252.57C88.6407 248.72 84.7189 247.593 83.3407 247.511C81.9275 247.277 80.5258 247.441 78.3766 248.176C76.3073 248.884 73.4354 251.714 72.4423 253.302C73.552 252.567 76.6821 252.964 77.6982 253.21C78.5111 253.406 80.9955 254.795 82.1361 255.465C83.2728 256.002 86.0135 257.162 87.8822 257.498C89.7509 257.835 92.9746 257.39 94.3529 257.126L89.3768 259.472C88.2009 260.037 85.6038 261.766 84.6222 264.167C83.6406 266.568 84.2512 269.956 84.6792 271.35L86.2669 275.462C88.1279 275.326 92.4526 274.755 94.8636 273.559C97.8773 272.065 98.7771 269.379 99.2681 267.347C99.6608 265.721 99.3937 261.88 99.2111 260.164C99.5923 261.701 100.684 265.165 102.001 266.716C103.318 268.268 105.002 269.676 105.68 270.186C106.127 270.509 107.429 271.462 109.055 272.686C111.087 274.217 111.262 274.976 111.647 275.607C111.955 276.111 112.204 277.211 112.289 277.697C112.472 277.335 113.086 276.09 114.077 274.007C115.315 271.403 113.798 267.595 112.607 265.55C111.654 263.915 108.847 262.073 107.562 261.356C106.608 260.803 104.439 259.534 103.393 258.88C106.42 259.525 109.419 261.088 110.54 261.789C110.634 261.501 110.797 260.754 110.704 260.072C110.536 258.512 109.482 256.969 108.976 256.393C108.7 256.003 107.64 255.038 105.613 254.29C103.585 253.542 101.038 254.678 100.018 255.34Z" fill="url(#paint48_linear_11_394)"/>
</g>
</g>
<defs>
<filter id="filter0_i_11_394" x="2.74215" y="2.62753" width="314" height="318" filterUnits="userSpaceOnUse" color-interpolation-filters="sRGB">
<feFlood flood-opacity="0" result="BackgroundImageFix"/>
<feBlend mode="normal" in="SourceGraphic" in2="BackgroundImageFix" result="shape"/>
<feColorMatrix in="SourceAlpha" type="matrix" values="0 0 0 0 0 0 0 0 0 0 0 0 0 0 0 0 0 0 127 0" result="hardAlpha"/>
<feOffset dy="4"/>
<feGaussianBlur stdDeviation="2"/>
<feComposite in2="hardAlpha" operator="arithmetic" k2="-1" k3="1"/>
<feColorMatrix type="matrix" values="0 0 0 0 0 0 0 0 0 0 0 0 0 0 0 0 0 0 0.25 0"/>
<feBlend mode="normal" in2="shape" result="effect1_innerShadow_11_394"/>
</filter>
<filter id="filter1_f_11_394" x="62.0036" y="59.2054" width="197.005" height="197.005" filterUnits="userSpaceOnUse" color-interpolation-filters="sRGB">
<feFlood flood-opacity="0" result="BackgroundImageFix"/>
<feBlend mode="normal" in="SourceGraphic" in2="BackgroundImageFix" result="shape"/>
<feGaussianBlur stdDeviation="2" result="effect1_foregroundBlur_11_394"/>
</filter>
<filter id="filter2_dd_11_394" x="36.9999" y="12" width="245.919" height="299" filterUnits="userSpaceOnUse" color-interpolation-filters="sRGB">
<feFlood flood-opacity="0" result="BackgroundImageFix"/>
<feColorMatrix in="SourceAlpha" type="matrix" values="0 0 0 0 0 0 0 0 0 0 0 0 0 0 0 0 0 0 127 0" result="hardAlpha"/>
<feOffset dy="4"/>
<feGaussianBlur stdDeviation="2"/>
<feComposite in2="hardAlpha" operator="out"/>
<feColorMatrix type="matrix" values="0 0 0 0 0 0 0 0 0 0 0 0 0 0 0 0 0 0 0.25 0"/>
<feBlend mode="normal" in2="BackgroundImageFix" result="effect1_dropShadow_11_394"/>
<feColorMatrix in="SourceAlpha" type="matrix" values="0 0 0 0 0 0 0 0 0 0 0 0 0 0 0 0 0 0 127 0" result="hardAlpha"/>
<feOffset dy="4"/>
<feGaussianBlur stdDeviation="2"/>
<feComposite in2="hardAlpha" operator="out"/>
<feColorMatrix type="matrix" values="0 0 0 0 0 0 0 0 0 0 0 0 0 0 0 0 0 0 0.25 0"/>
<feBlend mode="normal" in2="effect1_dropShadow_11_394" result="effect2_dropShadow_11_394"/>
<feBlend mode="normal" in="SourceGraphic" in2="effect2_dropShadow_11_394" result="shape"/>
</filter>
<filter id="filter3_dd_11_394" x="67.9999" y="69.0001" width="188" height="188" filterUnits="userSpaceOnUse" color-interpolation-filters="sRGB">
<feFlood flood-opacity="0" result="BackgroundImageFix"/>
<feColorMatrix in="SourceAlpha" type="matrix" values="0 0 0 0 0 0 0 0 0 0 0 0 0 0 0 0 0 0 127 0" result="hardAlpha"/>
<feOffset dy="4"/>
<feGaussianBlur stdDeviation="2"/>
<feComposite in2="hardAlpha" operator="out"/>
<feColorMatrix type="matrix" values="0 0 0 0 0 0 0 0 0 0 0 0 0 0 0 0 0 0 0.25 0"/>
<feBlend mode="normal" in2="BackgroundImageFix" result="effect1_dropShadow_11_394"/>
<feColorMatrix in="SourceAlpha" type="matrix" values="0 0 0 0 0 0 0 0 0 0 0 0 0 0 0 0 0 0 127 0" result="hardAlpha"/>
<feOffset dy="4"/>
<feGaussianBlur stdDeviation="2"/>
<feComposite in2="hardAlpha" operator="out"/>
<feColorMatrix type="matrix" values="0 0 0 0 0 0 0 0 0 0 0 0 0 0 0 0 0 0 0.25 0"/>
<feBlend mode="normal" in2="effect1_dropShadow_11_394" result="effect2_dropShadow_11_394"/>
<feBlend mode="normal" in="SourceGraphic" in2="effect2_dropShadow_11_394" result="shape"/>
</filter>
<filter id="filter4_dd_11_394" x="260" y="143" width="50" height="43" filterUnits="userSpaceOnUse" color-interpolation-filters="sRGB">
<feFlood flood-opacity="0" result="BackgroundImageFix"/>
<feColorMatrix in="SourceAlpha" type="matrix" values="0 0 0 0 0 0 0 0 0 0 0 0 0 0 0 0 0 0 127 0" result="hardAlpha"/>
<feOffset dy="4"/>
<feGaussianBlur stdDeviation="2"/>
<feComposite in2="hardAlpha" operator="out"/>
<feColorMatrix type="matrix" values="0 0 0 0 0 0 0 0 0 0 0 0 0 0 0 0 0 0 0.25 0"/>
<feBlend mode="normal" in2="BackgroundImageFix" result="effect1_dropShadow_11_394"/>
<feColorMatrix in="SourceAlpha" type="matrix" values="0 0 0 0 0 0 0 0 0 0 0 0 0 0 0 0 0 0 127 0" result="hardAlpha"/>
<feOffset dy="4"/>
<feGaussianBlur stdDeviation="2"/>
<feComposite in2="hardAlpha" operator="out"/>
<feColorMatrix type="matrix" values="0 0 0 0 0 0 0 0 0 0 0 0 0 0 0 0 0 0 0.25 0"/>
<feBlend mode="normal" in2="effect1_dropShadow_11_394" result="effect2_dropShadow_11_394"/>
<feBlend mode="normal" in="SourceGraphic" in2="effect2_dropShadow_11_394" result="shape"/>
</filter>
<filter id="filter5_dd_11_394" x="11.9999" y="143" width="50" height="43" filterUnits="userSpaceOnUse" color-interpolation-filters="sRGB">
<feFlood flood-opacity="0" result="BackgroundImageFix"/>
<feColorMatrix in="SourceAlpha" type="matrix" values="0 0 0 0 0 0 0 0 0 0 0 0 0 0 0 0 0 0 127 0" result="hardAlpha"/>
<feOffset dy="4"/>
<feGaussianBlur stdDeviation="2"/>
<feComposite in2="hardAlpha" operator="out"/>
<feColorMatrix type="matrix" values="0 0 0 0 0 0 0 0 0 0 0 0 0 0 0 0 0 0 0.25 0"/>
<feBlend mode="normal" in2="BackgroundImageFix" result="effect1_dropShadow_11_394"/>
<feColorMatrix in="SourceAlpha" type="matrix" values="0 0 0 0 0 0 0 0 0 0 0 0 0 0 0 0 0 0 127 0" result="hardAlpha"/>
<feOffset dy="4"/>
<feGaussianBlur stdDeviation="2"/>
<feComposite in2="hardAlpha" operator="out"/>
<feColorMatrix type="matrix" values="0 0 0 0 0 0 0 0 0 0 0 0 0 0 0 0 0 0 0.25 0"/>
<feBlend mode="normal" in2="effect1_dropShadow_11_394" result="effect2_dropShadow_11_394"/>
<feBlend mode="normal" in="SourceGraphic" in2="effect2_dropShadow_11_394" result="shape"/>
</filter>
<filter id="filter6_d_11_394" x="195.386" y="33.768" width="57.1812" height="48.23" filterUnits="userSpaceOnUse" color-interpolation-filters="sRGB">
<feFlood flood-opacity="0" result="BackgroundImageFix"/>
<feColorMatrix in="SourceAlpha" type="matrix" values="0 0 0 0 0 0 0 0 0 0 0 0 0 0 0 0 0 0 127 0" result="hardAlpha"/>
<feOffset dy="4"/>
<feGaussianBlur stdDeviation="2"/>
<feComposite in2="hardAlpha" operator="out"/>
<feColorMatrix type="matrix" values="0 0 0 0 0 0 0 0 0 0 0 0 0 0 0 0 0 0 0.25 0"/>
<feBlend mode="normal" in2="BackgroundImageFix" result="effect1_dropShadow_11_394"/>
<feBlend mode="normal" in="SourceGraphic" in2="effect1_dropShadow_11_394" result="shape"/>
</filter>
<filter id="filter7_dd_11_394" x="208.641" y="33.768" width="43.1676" height="35.0539" filterUnits="userSpaceOnUse" color-interpolation-filters="sRGB">
<feFlood flood-opacity="0" result="BackgroundImageFix"/>
<feColorMatrix in="SourceAlpha" type="matrix" values="0 0 0 0 0 0 0 0 0 0 0 0 0 0 0 0 0 0 127 0" result="hardAlpha"/>
<feOffset dy="4"/>
<feGaussianBlur stdDeviation="2"/>
<feComposite in2="hardAlpha" operator="out"/>
<feColorMatrix type="matrix" values="0 0 0 0 0 0 0 0 0 0 0 0 0 0 0 0 0 0 0.25 0"/>
<feBlend mode="normal" in2="BackgroundImageFix" result="effect1_dropShadow_11_394"/>
<feColorMatrix in="SourceAlpha" type="matrix" values="0 0 0 0 0 0 0 0 0 0 0 0 0 0 0 0 0 0 127 0" result="hardAlpha"/>
<feOffset dy="4"/>
<feGaussianBlur stdDeviation="2"/>
<feComposite in2="hardAlpha" operator="out"/>
<feColorMatrix type="matrix" values="0 0 0 0 0 0 0 0 0 0 0 0 0 0 0 0 0 0 0.25 0"/>
<feBlend mode="normal" in2="effect1_dropShadow_11_394" result="effect2_dropShadow_11_394"/>
<feBlend mode="normal" in="SourceGraphic" in2="effect2_dropShadow_11_394" result="shape"/>
</filter>
<filter id="filter8_d_11_394" x="195.386" y="35.931" width="52.9385" height="46.067" filterUnits="userSpaceOnUse" color-interpolation-filters="sRGB">
<feFlood flood-opacity="0" result="BackgroundImageFix"/>
<feColorMatrix in="SourceAlpha" type="matrix" values="0 0 0 0 0 0 0 0 0 0 0 0 0 0 0 0 0 0 127 0" result="hardAlpha"/>
<feOffset dy="4"/>
<feGaussianBlur stdDeviation="2"/>
<feComposite in2="hardAlpha" operator="out"/>
<feColorMatrix type="matrix" values="0 0 0 0 0 0 0 0 0 0 0 0 0 0 0 0 0 0 0.25 0"/>
<feBlend mode="normal" in2="BackgroundImageFix" result="effect1_dropShadow_11_394"/>
<feBlend mode="normal" in="SourceGraphic" in2="effect1_dropShadow_11_394" result="shape"/>
</filter>
<filter id="filter9_d_11_394" x="200.706" y="39.3026" width="50.0959" height="39.273" filterUnits="userSpaceOnUse" color-interpolation-filters="sRGB">
<feFlood flood-opacity="0" result="BackgroundImageFix"/>
<feColorMatrix in="SourceAlpha" type="matrix" values="0 0 0 0 0 0 0 0 0 0 0 0 0 0 0 0 0 0 127 0" result="hardAlpha"/>
<feOffset dy="4"/>
<feGaussianBlur stdDeviation="2"/>
<feComposite in2="hardAlpha" operator="out"/>
<feColorMatrix type="matrix" values="0 0 0 0 0 0 0 0 0 0 0 0 0 0 0 0 0 0 0.25 0"/>
<feBlend mode="normal" in2="BackgroundImageFix" result="effect1_dropShadow_11_394"/>
<feBlend mode="normal" in="SourceGraphic" in2="effect1_dropShadow_11_394" result="shape"/>
</filter>
<filter id="filter10_d_11_394" x="66.6776" y="33.768" width="57.1812" height="48.23" filterUnits="userSpaceOnUse" color-interpolation-filters="sRGB">
<feFlood flood-opacity="0" result="BackgroundImageFix"/>
<feColorMatrix in="SourceAlpha" type="matrix" values="0 0 0 0 0 0 0 0 0 0 0 0 0 0 0 0 0 0 127 0" result="hardAlpha"/>
<feOffset dy="4"/>
<feGaussianBlur stdDeviation="2"/>
<feComposite in2="hardAlpha" operator="out"/>
<feColorMatrix type="matrix" values="0 0 0 0 0 0 0 0 0 0 0 0 0 0 0 0 0 0 0.25 0"/>
<feBlend mode="normal" in2="BackgroundImageFix" result="effect1_dropShadow_11_394"/>
<feBlend mode="normal" in="SourceGraphic" in2="effect1_dropShadow_11_394" result="shape"/>
</filter>
<filter id="filter11_dd_11_394" x="67.436" y="33.768" width="43.1676" height="35.0539" filterUnits="userSpaceOnUse" color-interpolation-filters="sRGB">
<feFlood flood-opacity="0" result="BackgroundImageFix"/>
<feColorMatrix in="SourceAlpha" type="matrix" values="0 0 0 0 0 0 0 0 0 0 0 0 0 0 0 0 0 0 127 0" result="hardAlpha"/>
<feOffset dy="4"/>
<feGaussianBlur stdDeviation="2"/>
<feComposite in2="hardAlpha" operator="out"/>
<feColorMatrix type="matrix" values="0 0 0 0 0 0 0 0 0 0 0 0 0 0 0 0 0 0 0.25 0"/>
<feBlend mode="normal" in2="BackgroundImageFix" result="effect1_dropShadow_11_394"/>
<feColorMatrix in="SourceAlpha" type="matrix" values="0 0 0 0 0 0 0 0 0 0 0 0 0 0 0 0 0 0 127 0" result="hardAlpha"/>
<feOffset dy="4"/>
<feGaussianBlur stdDeviation="2"/>
<feComposite in2="hardAlpha" operator="out"/>
<feColorMatrix type="matrix" values="0 0 0 0 0 0 0 0 0 0 0 0 0 0 0 0 0 0 0.25 0"/>
<feBlend mode="normal" in2="effect1_dropShadow_11_394" result="effect2_dropShadow_11_394"/>
<feBlend mode="normal" in="SourceGraphic" in2="effect2_dropShadow_11_394" result="shape"/>
</filter>
<filter id="filter12_d_11_394" x="70.9202" y="35.931" width="52.9386" height="46.067" filterUnits="userSpaceOnUse" color-interpolation-filters="sRGB">
<feFlood flood-opacity="0" result="BackgroundImageFix"/>
<feColorMatrix in="SourceAlpha" type="matrix" values="0 0 0 0 0 0 0 0 0 0 0 0 0 0 0 0 0 0 127 0" result="hardAlpha"/>
<feOffset dy="4"/>
<feGaussianBlur stdDeviation="2"/>
<feComposite in2="hardAlpha" operator="out"/>
<feColorMatrix type="matrix" values="0 0 0 0 0 0 0 0 0 0 0 0 0 0 0 0 0 0 0.25 0"/>
<feBlend mode="normal" in2="BackgroundImageFix" result="effect1_dropShadow_11_394"/>
<feBlend mode="normal" in="SourceGraphic" in2="effect1_dropShadow_11_394" result="shape"/>
</filter>
<filter id="filter13_d_11_394" x="68.4423" y="39.3026" width="50.0959" height="39.273" filterUnits="userSpaceOnUse" color-interpolation-filters="sRGB">
<feFlood flood-opacity="0" result="BackgroundImageFix"/>
<feColorMatrix in="SourceAlpha" type="matrix" values="0 0 0 0 0 0 0 0 0 0 0 0 0 0 0 0 0 0 127 0" result="hardAlpha"/>
<feOffset dy="4"/>
<feGaussianBlur stdDeviation="2"/>
<feComposite in2="hardAlpha" operator="out"/>
<feColorMatrix type="matrix" values="0 0 0 0 0 0 0 0 0 0 0 0 0 0 0 0 0 0 0.25 0"/>
<feBlend mode="normal" in2="BackgroundImageFix" result="effect1_dropShadow_11_394"/>
<feBlend mode="normal" in="SourceGraphic" in2="effect1_dropShadow_11_394" result="shape"/>
</filter>
<filter id="filter14_d_11_394" x="195.386" y="243.002" width="57.1812" height="48.23" filterUnits="userSpaceOnUse" color-interpolation-filters="sRGB">
<feFlood flood-opacity="0" result="BackgroundImageFix"/>
<feColorMatrix in="SourceAlpha" type="matrix" values="0 0 0 0 0 0 0 0 0 0 0 0 0 0 0 0 0 0 127 0" result="hardAlpha"/>
<feOffset dy="4"/>
<feGaussianBlur stdDeviation="2"/>
<feComposite in2="hardAlpha" operator="out"/>
<feColorMatrix type="matrix" values="0 0 0 0 0 0 0 0 0 0 0 0 0 0 0 0 0 0 0.25 0"/>
<feBlend mode="normal" in2="BackgroundImageFix" result="effect1_dropShadow_11_394"/>
<feBlend mode="normal" in="SourceGraphic" in2="effect1_dropShadow_11_394" result="shape"/>
</filter>
<filter id="filter15_dd_11_394" x="208.641" y="256.178" width="43.1676" height="35.0539" filterUnits="userSpaceOnUse" color-interpolation-filters="sRGB">
<feFlood flood-opacity="0" result="BackgroundImageFix"/>
<feColorMatrix in="SourceAlpha" type="matrix" values="0 0 0 0 0 0 0 0 0 0 0 0 0 0 0 0 0 0 127 0" result="hardAlpha"/>
<feOffset dy="4"/>
<feGaussianBlur stdDeviation="2"/>
<feComposite in2="hardAlpha" operator="out"/>
<feColorMatrix type="matrix" values="0 0 0 0 0 0 0 0 0 0 0 0 0 0 0 0 0 0 0.25 0"/>
<feBlend mode="normal" in2="BackgroundImageFix" result="effect1_dropShadow_11_394"/>
<feColorMatrix in="SourceAlpha" type="matrix" values="0 0 0 0 0 0 0 0 0 0 0 0 0 0 0 0 0 0 127 0" result="hardAlpha"/>
<feOffset dy="4"/>
<feGaussianBlur stdDeviation="2"/>
<feComposite in2="hardAlpha" operator="out"/>
<feColorMatrix type="matrix" values="0 0 0 0 0 0 0 0 0 0 0 0 0 0 0 0 0 0 0.25 0"/>
<feBlend mode="normal" in2="effect1_dropShadow_11_394" result="effect2_dropShadow_11_394"/>
<feBlend mode="normal" in="SourceGraphic" in2="effect2_dropShadow_11_394" result="shape"/>
</filter>
<filter id="filter16_d_11_394" x="195.386" y="243.002" width="52.9385" height="46.067" filterUnits="userSpaceOnUse" color-interpolation-filters="sRGB">
<feFlood flood-opacity="0" result="BackgroundImageFix"/>
<feColorMatrix in="SourceAlpha" type="matrix" values="0 0 0 0 0 0 0 0 0 0 0 0 0 0 0 0 0 0 127 0" result="hardAlpha"/>
<feOffset dy="4"/>
<feGaussianBlur stdDeviation="2"/>
<feComposite in2="hardAlpha" operator="out"/>
<feColorMatrix type="matrix" values="0 0 0 0 0 0 0 0 0 0 0 0 0 0 0 0 0 0 0.25 0"/>
<feBlend mode="normal" in2="BackgroundImageFix" result="effect1_dropShadow_11_394"/>
<feBlend mode="normal" in="SourceGraphic" in2="effect1_dropShadow_11_394" result="shape"/>
</filter>
<filter id="filter17_d_11_394" x="200.706" y="246.424" width="50.0959" height="39.273" filterUnits="userSpaceOnUse" color-interpolation-filters="sRGB">
<feFlood flood-opacity="0" result="BackgroundImageFix"/>
<feColorMatrix in="SourceAlpha" type="matrix" values="0 0 0 0 0 0 0 0 0 0 0 0 0 0 0 0 0 0 127 0" result="hardAlpha"/>
<feOffset dy="4"/>
<feGaussianBlur stdDeviation="2"/>
<feComposite in2="hardAlpha" operator="out"/>
<feColorMatrix type="matrix" values="0 0 0 0 0 0 0 0 0 0 0 0 0 0 0 0 0 0 0.25 0"/>
<feBlend mode="normal" in2="BackgroundImageFix" result="effect1_dropShadow_11_394"/>
<feBlend mode="normal" in="SourceGraphic" in2="effect1_dropShadow_11_394" result="shape"/>
</filter>
<filter id="filter18_d_11_394" x="66.6776" y="243.002" width="57.1812" height="48.23" filterUnits="userSpaceOnUse" color-interpolation-filters="sRGB">
<feFlood flood-opacity="0" result="BackgroundImageFix"/>
<feColorMatrix in="SourceAlpha" type="matrix" values="0 0 0 0 0 0 0 0 0 0 0 0 0 0 0 0 0 0 127 0" result="hardAlpha"/>
<feOffset dy="4"/>
<feGaussianBlur stdDeviation="2"/>
<feComposite in2="hardAlpha" operator="out"/>
<feColorMatrix type="matrix" values="0 0 0 0 0 0 0 0 0 0 0 0 0 0 0 0 0 0 0.25 0"/>
<feBlend mode="normal" in2="BackgroundImageFix" result="effect1_dropShadow_11_394"/>
<feBlend mode="normal" in="SourceGraphic" in2="effect1_dropShadow_11_394" result="shape"/>
</filter>
<filter id="filter19_dd_11_394" x="67.436" y="256.178" width="43.1676" height="35.0539" filterUnits="userSpaceOnUse" color-interpolation-filters="sRGB">
<feFlood flood-opacity="0" result="BackgroundImageFix"/>
<feColorMatrix in="SourceAlpha" type="matrix" values="0 0 0 0 0 0 0 0 0 0 0 0 0 0 0 0 0 0 127 0" result="hardAlpha"/>
<feOffset dy="4"/>
<feGaussianBlur stdDeviation="2"/>
<feComposite in2="hardAlpha" operator="out"/>
<feColorMatrix type="matrix" values="0 0 0 0 0 0 0 0 0 0 0 0 0 0 0 0 0 0 0.25 0"/>
<feBlend mode="normal" in2="BackgroundImageFix" result="effect1_dropShadow_11_394"/>
<feColorMatrix in="SourceAlpha" type="matrix" values="0 0 0 0 0 0 0 0 0 0 0 0 0 0 0 0 0 0 127 0" result="hardAlpha"/>
<feOffset dy="4"/>
<feGaussianBlur stdDeviation="2"/>
<feComposite in2="hardAlpha" operator="out"/>
<feColorMatrix type="matrix" values="0 0 0 0 0 0 0 0 0 0 0 0 0 0 0 0 0 0 0.25 0"/>
<feBlend mode="normal" in2="effect1_dropShadow_11_394" result="effect2_dropShadow_11_394"/>
<feBlend mode="normal" in="SourceGraphic" in2="effect2_dropShadow_11_394" result="shape"/>
</filter>
<filter id="filter20_d_11_394" x="70.9202" y="243.002" width="52.9386" height="46.067" filterUnits="userSpaceOnUse" color-interpolation-filters="sRGB">
<feFlood flood-opacity="0" result="BackgroundImageFix"/>
<feColorMatrix in="SourceAlpha" type="matrix" values="0 0 0 0 0 0 0 0 0 0 0 0 0 0 0 0 0 0 127 0" result="hardAlpha"/>
<feOffset dy="4"/>
<feGaussianBlur stdDeviation="2"/>
<feComposite in2="hardAlpha" operator="out"/>
<feColorMatrix type="matrix" values="0 0 0 0 0 0 0 0 0 0 0 0 0 0 0 0 0 0 0.25 0"/>
<feBlend mode="normal" in2="BackgroundImageFix" result="effect1_dropShadow_11_394"/>
<feBlend mode="normal" in="SourceGraphic" in2="effect1_dropShadow_11_394" result="shape"/>
</filter>
<filter id="filter21_d_11_394" x="68.4423" y="246.424" width="50.0959" height="39.273" filterUnits="userSpaceOnUse" color-interpolation-filters="sRGB">
<feFlood flood-opacity="0" result="BackgroundImageFix"/>
<feColorMatrix in="SourceAlpha" type="matrix" values="0 0 0 0 0 0 0 0 0 0 0 0 0 0 0 0 0 0 127 0" result="hardAlpha"/>
<feOffset dy="4"/>
<feGaussianBlur stdDeviation="2"/>
<feComposite in2="hardAlpha" operator="out"/>
<feColorMatrix type="matrix" values="0 0 0 0 0 0 0 0 0 0 0 0 0 0 0 0 0 0 0.25 0"/>
<feBlend mode="normal" in2="BackgroundImageFix" result="effect1_dropShadow_11_394"/>
<feBlend mode="normal" in="SourceGraphic" in2="effect1_dropShadow_11_394" result="shape"/>
</filter>
<linearGradient id="paint0_linear_11_394" x1="-38.2578" y1="103.128" x2="159.742" y2="316.628" gradientUnits="userSpaceOnUse">
<stop offset="0.165513" stop-color="#016843"/>
<stop offset="0.505208" stop-color="#5DC5AC"/>
<stop offset="0.937638" stop-color="#016843"/>
</linearGradient>
<linearGradient id="paint1_linear_11_394" x1="159.742" y1="2.62753" x2="159.742" y2="316.628" gradientUnits="userSpaceOnUse">
<stop stop-color="#585858"/>
<stop offset="0.4375" stop-color="white"/>
<stop offset="1" stop-color="#A7A7A7"/>
</linearGradient>
<linearGradient id="paint2_linear_11_394" x1="132.5" y1="282" x2="159" y2="261" gradientUnits="userSpaceOnUse">
<stop stop-color="#A3A3A3"/>
<stop offset="0.5" stop-color="#CACACA"/>
<stop offset="1" stop-color="#A3A3A3"/>
</linearGradient>
<linearGradient id="paint3_linear_11_394" x1="138" y1="38" x2="159" y2="12" gradientUnits="userSpaceOnUse">
<stop stop-color="#A3A3A3"/>
<stop offset="0.489583" stop-color="white"/>
<stop offset="1" stop-color="#A7A7A7"/>
</linearGradient>
<linearGradient id="paint4_linear_11_394" x1="275.088" y1="103.845" x2="245.811" y2="95.648" gradientUnits="userSpaceOnUse">
<stop stop-color="#A7A7A7"/>
<stop offset="0.489583" stop-color="white"/>
<stop offset="1" stop-color="#A3A3A3"/>
</linearGradient>
<linearGradient id="paint5_linear_11_394" x1="44.8307" y1="103.845" x2="74.1077" y2="95.648" gradientUnits="userSpaceOnUse">
<stop stop-color="#A7A7A7"/>
<stop offset="0.489583" stop-color="white"/>
<stop offset="1" stop-color="#A3A3A3"/>
</linearGradient>
<linearGradient id="paint6_linear_11_394" x1="275.088" y1="215.038" x2="245.811" y2="223.235" gradientUnits="userSpaceOnUse">
<stop stop-color="#A7A7A7"/>
<stop offset="0.489583" stop-color="white"/>
<stop offset="1" stop-color="#A3A3A3"/>
</linearGradient>
<linearGradient id="paint7_linear_11_394" x1="44.8307" y1="215.038" x2="74.1077" y2="223.235" gradientUnits="userSpaceOnUse">
<stop stop-color="#A7A7A7"/>
<stop offset="0.489583" stop-color="white"/>
<stop offset="1" stop-color="#A3A3A3"/>
</linearGradient>
<linearGradient id="paint8_linear_11_394" x1="160" y1="72.0001" x2="160" y2="248" gradientUnits="userSpaceOnUse">
<stop/>
<stop offset="1" stop-color="#560099"/>
</linearGradient>
<linearGradient id="paint9_linear_11_394" x1="1.49993" y1="54.5001" x2="229.021" y2="226.5" gradientUnits="userSpaceOnUse">
<stop offset="0.494792" stop-color="#ADAD94"/>
<stop offset="1" stop-color="#FDFFAD"/>
</linearGradient>
<radialGradient id="paint10_radial_11_394" cx="0" cy="0" r="1" gradientUnits="userSpaceOnUse" gradientTransform="translate(127.709 102.028) rotate(90) scale(5.77654 6.30168)">
<stop stop-color="#D9D9D9"/>
<stop offset="0.71875" stop-color="#D9D9D9" stop-opacity="0"/>
</radialGradient>
<radialGradient id="paint11_radial_11_394" cx="0" cy="0" r="1" gradientUnits="userSpaceOnUse" gradientTransform="translate(171.296 95.2012) rotate(90) scale(4.20112 4.72626)">
<stop stop-color="#D9D9D9"/>
<stop offset="0.71875" stop-color="#D9D9D9" stop-opacity="0"/>
</radialGradient>
<radialGradient id="paint12_radial_11_394" cx="0" cy="0" r="1" gradientUnits="userSpaceOnUse" gradientTransform="translate(117.732 135.637) rotate(90) scale(3.67598)">
<stop stop-color="#D9D9D9"/>
<stop offset="0.71875" stop-color="#D9D9D9" stop-opacity="0"/>
</radialGradient>
<radialGradient id="paint13_radial_11_394" cx="0" cy="0" r="1" gradientUnits="userSpaceOnUse" gradientTransform="translate(178.123 146.665) rotate(90) scale(7.35196)">
<stop stop-color="#D9D9D9"/>
<stop offset="0.71875" stop-color="#D9D9D9" stop-opacity="0"/>
</radialGradient>
<radialGradient id="paint14_radial_11_394" cx="0" cy="0" r="1" gradientUnits="userSpaceOnUse" gradientTransform="translate(188.626 110.43) rotate(90) scale(2.6257 3.15084)">
<stop stop-color="#D9D9D9"/>
<stop offset="0.71875" stop-color="#D9D9D9" stop-opacity="0"/>
</radialGradient>
<radialGradient id="paint15_radial_11_394" cx="0" cy="0" r="1" gradientUnits="userSpaceOnUse" gradientTransform="translate(151.341 160.844) rotate(90) scale(3.67598)">
<stop stop-color="#D9D9D9"/>
<stop offset="0.71875" stop-color="#D9D9D9" stop-opacity="0"/>
</radialGradient>
<radialGradient id="paint16_radial_11_394" cx="0" cy="0" r="1" gradientUnits="userSpaceOnUse" gradientTransform="translate(149.24 122.508) rotate(90) scale(2.10056 1.57542)">
<stop stop-color="#D9D9D9"/>
<stop offset="0.71875" stop-color="#D9D9D9" stop-opacity="0"/>
</radialGradient>
<radialGradient id="paint17_radial_11_394" cx="0" cy="0" r="1" gradientUnits="userSpaceOnUse" gradientTransform="translate(130.86 155.592) rotate(90) scale(1.57542 3.15084)">
<stop stop-color="#D9D9D9"/>
<stop offset="0.71875" stop-color="#D9D9D9" stop-opacity="0"/>
</radialGradient>
<radialGradient id="paint18_radial_11_394" cx="0" cy="0" r="1" gradientUnits="userSpaceOnUse" gradientTransform="translate(190.201 135.637) rotate(90) scale(3.67598 1.57542)">
<stop stop-color="#D9D9D9"/>
<stop offset="0.71875" stop-color="#D9D9D9" stop-opacity="0"/>
</radialGradient>
<radialGradient id="paint19_radial_11_394" cx="0" cy="0" r="1" gradientUnits="userSpaceOnUse" gradientTransform="translate(213.832 185.525) rotate(90) scale(3.15084)">
<stop stop-color="#D9D9D9"/>
<stop offset="0.71875" stop-color="#D9D9D9" stop-opacity="0"/>
</radialGradient>
<radialGradient id="paint20_radial_11_394" cx="0" cy="0" r="1" gradientUnits="userSpaceOnUse" gradientTransform="translate(229.061 157.693) rotate(90) scale(3.67598 2.6257)">
<stop stop-color="#D9D9D9"/>
<stop offset="0.71875" stop-color="#D9D9D9" stop-opacity="0"/>
</radialGradient>
<radialGradient id="paint21_radial_11_394" cx="0" cy="0" r="1" gradientUnits="userSpaceOnUse" gradientTransform="translate(216.458 126.184) rotate(90) scale(5.77654)">
<stop stop-color="#D9D9D9"/>
<stop offset="0.71875" stop-color="#D9D9D9" stop-opacity="0"/>
</radialGradient>
<radialGradient id="paint22_radial_11_394" cx="0" cy="0" r="1" gradientUnits="userSpaceOnUse" gradientTransform="translate(95.1508 168.196) rotate(90) scale(3.67598 3.15084)">
<stop stop-color="#D9D9D9"/>
<stop offset="0.71875" stop-color="#D9D9D9" stop-opacity="0"/>
</radialGradient>
<radialGradient id="paint23_radial_11_394" cx="0" cy="0" r="1" gradientUnits="userSpaceOnUse" gradientTransform="translate(115.631 162.944) rotate(90) scale(1.57542)">
<stop stop-color="#D9D9D9"/>
<stop offset="0.71875" stop-color="#D9D9D9" stop-opacity="0"/>
</radialGradient>
<radialGradient id="paint24_radial_11_394" cx="0" cy="0" r="1" gradientUnits="userSpaceOnUse" gradientTransform="translate(119.307 187.101) rotate(90) scale(1.57542 2.10056)">
<stop stop-color="#D9D9D9"/>
<stop offset="0.71875" stop-color="#D9D9D9" stop-opacity="0"/>
</radialGradient>
<radialGradient id="paint25_radial_11_394" cx="0" cy="0" r="1" gradientUnits="userSpaceOnUse" gradientTransform="translate(137.687 216.508) rotate(90) scale(11.0279 9.97765)">
<stop stop-color="#D9D9D9"/>
<stop offset="0.71875" stop-color="#D9D9D9" stop-opacity="0"/>
</radialGradient>
<radialGradient id="paint26_radial_11_394" cx="0" cy="0" r="1" gradientUnits="userSpaceOnUse" gradientTransform="translate(177.073 203.905) rotate(90) scale(9.97765 11.5531)">
<stop stop-color="#D9D9D9"/>
<stop offset="0.71875" stop-color="#D9D9D9" stop-opacity="0"/>
</radialGradient>
<radialGradient id="paint27_radial_11_394" cx="0" cy="0" r="1" gradientUnits="userSpaceOnUse" gradientTransform="translate(179.173 170.296) rotate(90) scale(1.57542 3.15084)">
<stop stop-color="#D9D9D9"/>
<stop offset="0.71875" stop-color="#D9D9D9" stop-opacity="0"/>
</radialGradient>
<radialGradient id="paint28_radial_11_394" cx="0" cy="0" r="1" gradientUnits="userSpaceOnUse" gradientTransform="translate(202.804 209.682) rotate(90) scale(4.20112 3.67598)">
<stop stop-color="#D9D9D9"/>
<stop offset="0.71875" stop-color="#D9D9D9" stop-opacity="0"/>
</radialGradient>
<radialGradient id="paint29_radial_11_394" cx="0" cy="0" r="1" gradientUnits="userSpaceOnUse" gradientTransform="translate(145.039 185) rotate(90) scale(2.6257)">
<stop stop-color="#D9D9D9"/>
<stop offset="0.71875" stop-color="#D9D9D9" stop-opacity="0"/>
</radialGradient>
<radialGradient id="paint30_radial_11_394" cx="0" cy="0" r="1" gradientUnits="userSpaceOnUse" gradientTransform="translate(168.145 224.386) rotate(90) scale(3.15084 2.6257)">
<stop stop-color="#D9D9D9"/>
<stop offset="0.71875" stop-color="#D9D9D9" stop-opacity="0"/>
</radialGradient>
<linearGradient id="paint31_linear_11_394" x1="258.076" y1="143.217" x2="292.86" y2="176.194" gradientUnits="userSpaceOnUse">
<stop offset="0.269133" stop-color="#A3A3A3"/>
<stop offset="0.526042" stop-color="white"/>
<stop offset="0.847996" stop-color="#A7A7A7"/>
</linearGradient>
<linearGradient id="paint32_linear_11_394" x1="10.0762" y1="143.217" x2="44.8597" y2="176.194" gradientUnits="userSpaceOnUse">
<stop offset="0.269133" stop-color="#A3A3A3"/>
<stop offset="0.526042" stop-color="white"/>
<stop offset="0.847996" stop-color="#A7A7A7"/>
</linearGradient>
<linearGradient id="paint33_linear_11_394" x1="229.975" y1="46.5488" x2="223.024" y2="57.6666" gradientUnits="userSpaceOnUse">
<stop stop-color="#434343"/>
<stop offset="0.515625" stop-color="#757373"/>
<stop offset="1" stop-color="#484848"/>
</linearGradient>
<linearGradient id="paint34_linear_11_394" x1="218.437" y1="38.8143" x2="221.553" y2="53.3679" gradientUnits="userSpaceOnUse">
<stop stop-color="#777777"/>
<stop offset="0.505208" stop-color="#B7B7B7"/>
<stop offset="1" stop-color="#777777"/>
</linearGradient>
<linearGradient id="paint35_linear_11_394" x1="215.143" y1="41.1729" x2="235.26" y2="76.7535" gradientUnits="userSpaceOnUse">
<stop offset="0.0901437" stop-color="#6B6B6B"/>
<stop offset="0.536458" stop-color="#B1B0B0"/>
<stop offset="0.764584" stop-color="#706F6F"/>
</linearGradient>
<linearGradient id="paint36_linear_11_394" x1="219.337" y1="37.1676" x2="225.018" y2="71.519" gradientUnits="userSpaceOnUse">
<stop offset="0.264695" stop-color="#A3A3A3"/>
<stop offset="0.526042" stop-color="white"/>
<stop offset="0.728228" stop-color="#A7A7A7"/>
</linearGradient>
<linearGradient id="paint37_linear_11_394" x1="89.2691" y1="46.5488" x2="96.2208" y2="57.6666" gradientUnits="userSpaceOnUse">
<stop stop-color="#434343"/>
<stop offset="0.515625" stop-color="#757373"/>
<stop offset="1" stop-color="#484848"/>
</linearGradient>
<linearGradient id="paint38_linear_11_394" x1="100.808" y1="38.8143" x2="97.692" y2="53.3679" gradientUnits="userSpaceOnUse">
<stop stop-color="#777777"/>
<stop offset="0.505208" stop-color="#B7B7B7"/>
<stop offset="1" stop-color="#777777"/>
</linearGradient>
<linearGradient id="paint39_linear_11_394" x1="104.102" y1="41.1729" x2="83.9845" y2="76.7535" gradientUnits="userSpaceOnUse">
<stop offset="0.0901437" stop-color="#6B6B6B"/>
<stop offset="0.536458" stop-color="#B1B0B0"/>
<stop offset="0.764584" stop-color="#706F6F"/>
</linearGradient>
<linearGradient id="paint40_linear_11_394" x1="99.9081" y1="37.1676" x2="94.2266" y2="71.519" gradientUnits="userSpaceOnUse">
<stop offset="0.264695" stop-color="#A3A3A3"/>
<stop offset="0.526042" stop-color="white"/>
<stop offset="0.728228" stop-color="#A7A7A7"/>
</linearGradient>
<linearGradient id="paint41_linear_11_394" x1="229.975" y1="270.451" x2="223.024" y2="259.333" gradientUnits="userSpaceOnUse">
<stop stop-color="#434343"/>
<stop offset="0.515625" stop-color="#757373"/>
<stop offset="1" stop-color="#484848"/>
</linearGradient>
<linearGradient id="paint42_linear_11_394" x1="218.437" y1="278.186" x2="221.553" y2="263.632" gradientUnits="userSpaceOnUse">
<stop stop-color="#777777"/>
<stop offset="0.505208" stop-color="#B7B7B7"/>
<stop offset="1" stop-color="#777777"/>
</linearGradient>
<linearGradient id="paint43_linear_11_394" x1="215.143" y1="275.827" x2="235.26" y2="240.246" gradientUnits="userSpaceOnUse">
<stop offset="0.0901437" stop-color="#6B6B6B"/>
<stop offset="0.536458" stop-color="#B1B0B0"/>
<stop offset="0.764584" stop-color="#706F6F"/>
</linearGradient>
<linearGradient id="paint44_linear_11_394" x1="219.337" y1="279.832" x2="225.018" y2="245.481" gradientUnits="userSpaceOnUse">
<stop offset="0.264695" stop-color="#A3A3A3"/>
<stop offset="0.526042" stop-color="white"/>
<stop offset="0.728228" stop-color="#A7A7A7"/>
</linearGradient>
<linearGradient id="paint45_linear_11_394" x1="89.2691" y1="270.451" x2="96.2208" y2="259.333" gradientUnits="userSpaceOnUse">
<stop stop-color="#434343"/>
<stop offset="0.515625" stop-color="#757373"/>
<stop offset="1" stop-color="#484848"/>
</linearGradient>
<linearGradient id="paint46_linear_11_394" x1="100.808" y1="278.186" x2="97.692" y2="263.632" gradientUnits="userSpaceOnUse">
<stop stop-color="#777777"/>
<stop offset="0.505208" stop-color="#B7B7B7"/>
<stop offset="1" stop-color="#777777"/>
</linearGradient>
<linearGradient id="paint47_linear_11_394" x1="104.102" y1="275.827" x2="83.9845" y2="240.246" gradientUnits="userSpaceOnUse">
<stop offset="0.0901437" stop-color="#6B6B6B"/>
<stop offset="0.536458" stop-color="#B1B0B0"/>
<stop offset="0.764584" stop-color="#706F6F"/>
</linearGradient>
<linearGradient id="paint48_linear_11_394" x1="99.9081" y1="279.832" x2="94.2266" y2="245.481" gradientUnits="userSpaceOnUse">
<stop offset="0.264695" stop-color="#A3A3A3"/>
<stop offset="0.526042" stop-color="white"/>
<stop offset="0.728228" stop-color="#A7A7A7"/>
</linearGradient>
</defs>
</svg>
