<svg width="334" height="334" viewBox="0 0 334 334" fill="none" xmlns="http://www.w3.org/2000/svg">
<g filter="url(#filter0_i_11_365)">
<circle cx="166.628" cy="166.628" r="157" transform="rotate(3.63093 166.628 166.628)" fill="url(#paint0_linear_11_365)"/>
</g>
<circle cx="166.628" cy="166.628" r="155" transform="rotate(3.63093 166.628 166.628)" stroke="url(#paint1_linear_11_365)" stroke-width="4"/>
<g filter="url(#filter1_f_11_365)">
<path d="M168.5 262C220.691 262 263 219.691 263 167.5C263 115.309 220.691 73 168.5 73C116.309 73 74 115.309 74 167.5C74 219.691 116.309 262 168.5 262Z" fill="white"/>
</g>
<g filter="url(#filter2_dd_11_365)">
<circle cx="275.618" cy="104.313" r="19" transform="rotate(-120.29 275.618 104.313)" stroke="url(#paint2_linear_11_365)" stroke-width="4" shape-rendering="crispEdges"/>
</g>
<g filter="url(#filter3_d_11_365)">
<circle cx="60.6105" cy="229.903" r="21" transform="rotate(-120.29 60.6105 229.903)" fill="url(#paint3_linear_11_365)"/>
</g>
<g filter="url(#filter4_dd_11_365)">
<path d="M171.607 35.6882C174.731 31.2482 178.397 29.066 179.84 28.5299C177.07 27.3661 174.208 26.9918 169.973 27.8107C165.739 28.6295 162.377 32.0718 160.943 33.7913C157.817 37.9157 157.066 43.2855 157.488 47.2271C157.91 51.1686 159.508 53.9974 164.266 57.4349C172.191 62.5068 178.485 60.0956 180.057 59.2956C174.677 57.1247 171.193 51.6007 170.124 49.11C169.316 46.4861 168.482 40.1281 171.607 35.6882Z" fill="url(#paint4_linear_11_365)"/>
</g>
<g filter="url(#filter5_dd_11_365)">
<path d="M283.275 226.864C288.677 226.323 292.379 224.202 293.555 223.209C293.208 226.193 292.128 228.87 289.334 232.156C286.541 235.442 281.892 236.679 279.689 237.084C274.561 237.781 269.515 235.798 266.289 233.494C263.063 231.19 261.384 228.408 260.727 222.576C260.202 213.181 265.394 208.883 266.863 207.907C266.111 213.659 269.212 219.407 270.856 221.562C272.745 223.555 277.873 227.404 283.275 226.864Z" fill="url(#paint5_linear_11_365)"/>
</g>
<g filter="url(#filter6_dd_11_365)">
<path d="M48.5744 107.553C43.1724 108.094 39.4707 110.215 38.2951 111.208C38.6418 108.224 39.7219 105.547 42.5152 102.261C45.3084 98.9747 49.9581 97.7376 52.1602 97.333C57.2885 96.6357 62.3347 98.6193 65.5605 100.923C68.7863 103.227 70.4654 106.009 71.1226 111.841C71.6476 121.236 66.4556 125.534 64.9865 126.51C65.7382 120.758 62.6379 115.009 60.9938 112.854C59.1049 110.862 53.9764 107.013 48.5744 107.553Z" fill="url(#paint6_linear_11_365)"/>
</g>
<g filter="url(#filter7_dd_11_365)">
<path d="M160.243 298.729C157.119 303.169 153.453 305.351 152.01 305.887C154.779 307.051 157.642 307.425 161.876 306.606C166.111 305.787 169.472 302.345 170.907 300.626C174.033 296.501 174.784 291.131 174.362 287.19C173.939 283.248 172.342 280.42 167.584 276.982C159.659 271.91 153.365 274.321 151.793 275.121C157.173 277.292 160.656 282.816 161.726 285.307C162.533 287.931 163.367 294.289 160.243 298.729Z" fill="url(#paint7_linear_11_365)"/>
</g>
<ellipse cx="170.594" cy="166.628" rx="90.0335" ry="90" fill="black"/>
<path d="M139.128 167.128C139.128 204.473 158.628 235.128 199.128 251.628C191.128 254.628 179.488 257.128 167.128 257.128C117.422 257.128 77.1276 216.833 77.1276 167.128C77.1276 117.422 117.422 77.1275 167.128 77.1275C184.193 77.1275 187.128 78.6276 199.628 82.1276C160.128 95.6276 139.128 134.488 139.128 167.128Z" fill="#D9D9D9"/>
<g style="mix-blend-mode:overlay">
<path d="M191.628 84.6275C182.628 89.8128 176.343 92.955 168.927 100.127C147.136 121.202 142.651 141.793 142.437 145.171C142.486 145.315 142.512 145.467 142.512 145.628C137.628 153.128 139.474 178.128 139.474 178.128C140.378 179.538 139.474 193.628 154.046 217.8C163.587 233.628 179.128 240.588 175.128 239.628C165.128 237.228 164.67 242.942 165.192 246.349L155.386 251.333C126.96 247.273 102.224 226.193 93.1908 212.836C85.9645 202.151 81.6435 191.223 80.9416 186.531L87.6644 188.723C91.7031 190.783 99.3346 195.13 97.5517 196.037C95.7689 196.943 99.2502 204.895 101.214 208.758C103.623 212.395 108.892 220.112 110.692 221.889C112.259 223.435 117.437 224.732 120.771 225.373C119.306 224.884 118.015 223.579 119.629 220.712C121.751 216.941 121.078 214.366 120.476 213.55C120.671 209.151 122.28 202.313 127.162 210.152C132.044 217.991 139.504 216.779 142.624 215.193C143.825 216.452 157.628 223.742 154.046 217.8C139.474 193.628 140.378 179.538 139.474 178.128C139.474 178.128 137.628 153.128 142.512 145.628C142.444 145.72 142.412 145.56 142.437 145.171C141.4 142.159 130.138 142.455 132.52 141.244C135.016 139.975 132.186 135.805 130.459 133.878C131.179 130.147 132.127 122.374 130.151 121.135C128.175 119.896 127.349 114.519 127.183 111.986L132.977 109.041C133.657 110.378 135.908 112.599 139.474 110.787C143.931 108.521 137.88 106.549 136.528 104.992C135.447 103.747 140.067 99.0805 142.512 96.9028L148.329 97.3115L157.047 96.8066C155.561 97.5618 153.086 99.8292 155.074 102.857C157.062 105.885 163.648 103.173 166.693 101.439C165.791 100.401 164.523 98.054 166.663 96.9665C168.802 95.8791 166.195 93.8391 164.624 92.955C166.487 92.9427 169.45 92.297 166.392 89.8128C163.334 87.3285 165.853 87.2821 167.495 87.5693C171.95 84.9311 184.811 81.8104 191.628 84.6275Z" fill="#D2D1D1" fill-opacity="0.5"/>
</g>
<g style="mix-blend-mode:overlay">
<path d="M103.225 187.591C104.603 182.148 101.048 180.903 99.0979 180.96C99.4746 179.821 101.146 177.951 101.935 177.158C103.145 176.154 105.562 173.197 105.553 169.402C105.544 165.607 107.022 166.553 107.762 167.499L113.443 163.059L122.784 168.254L125.162 170.62C125.481 171.778 126.376 175.866 127.405 182.947C128.434 190.028 123.74 192.97 121.264 193.556C119.261 193.244 114.97 193.16 113.837 195.313C112.704 197.466 110.734 197.797 109.89 197.694C107.094 196.594 101.847 193.033 103.225 187.591Z" fill="#4E4646"/>
<path d="M103.899 139.364C100.745 142.534 96.9978 140.593 95.5188 139.226C95.0104 138.216 95.5086 135.01 95.8213 133.534C95.5546 132.217 95.2739 129.456 96.2846 128.947C97.2953 128.439 99.6485 125.144 100.699 123.561C100.28 124.827 100.327 126.597 103.861 123.553C107.395 120.509 109.126 121.432 109.55 122.274C110.871 123.589 113.133 126.408 111.617 127.171C110.101 127.934 110.149 130.021 110.362 130.969C110.521 131.548 110.587 132.834 109.577 133.342C108.313 133.978 107.842 135.402 103.899 139.364Z" fill="#4E4646"/>
</g>
<g style="mix-blend-mode:overlay">
<path d="M145.628 86.4162L147.139 80.6879C158.021 82.0826 160.406 79.2765 160.238 77.6992C161.918 78.6954 165.579 80.3392 166.788 78.9445C167.997 77.5497 172.33 77.5331 174.345 77.6992C173.505 78.2803 172.33 79.7913 174.345 81.186C184.824 82.9792 181.734 85.42 178.879 86.4162C177.872 86.7483 176.461 88.2592 178.879 91.6464C181.298 95.0336 177.872 95.2162 175.857 94.8842C174.681 94.054 172.229 92.5928 171.826 93.3898C171.423 94.1868 165.948 95.8804 163.261 96.6276C164.605 96.2125 165.478 95.2827 158.223 94.8842C150.968 94.4857 146.803 89.0728 145.628 86.4162Z" fill="#2E2D2D"/>
</g>
<g filter="url(#filter8_dd_11_365)">
<path d="M287.426 175.096C287.718 174.622 289.018 174.139 289.631 173.957C289.404 174.57 289.91 175.256 290.192 175.523L290.605 176.224L289.54 176.967C289.186 177.214 288.829 177.512 288.81 178.15C288.802 178.436 288.766 179.044 288.692 179.179C287.829 180.186 287.503 182.156 287.448 183.015C287.403 183.559 287.2 184.918 286.75 186.006C286.301 187.094 286.529 187.606 286.699 187.726L286.688 188.07C286.747 188.416 286.578 188.841 286.486 189.011C286.486 189.039 286.458 189.389 286.353 190.556C286.248 191.723 286.731 192.432 286.985 192.641C287.052 193.303 287.379 194.546 288.153 194.225C288.926 193.904 289.186 193.539 289.22 193.397C289.226 193.196 289.308 192.762 289.59 192.633C290.207 192.307 289.886 191.437 289.715 191.346C289.579 191.273 289.383 190.848 289.302 190.645C289.152 189.866 288.979 188.105 289.49 187.294C290.001 186.483 290.372 185.886 290.493 185.689L290.389 186.288C290.32 186.63 290.305 187.335 290.789 187.419C291.272 187.502 291.67 187.933 291.809 188.138C291.808 188.167 291.908 188.313 292.314 188.67C292.72 189.026 293.406 188.903 293.699 188.797L294.141 188.553C294.319 188.386 294.729 188.037 294.939 187.974C295.629 188.133 296.096 188.009 296.243 187.927L297.042 187.349C297.155 187.438 297.623 187.642 298.593 187.74C299.562 187.838 299.352 187.504 299.126 187.325C298.874 187.06 298.407 186.426 298.558 186.017C298.709 185.609 299.076 184.197 299.24 183.542C299.739 183.327 300.739 182.795 300.751 182.382C300.763 181.969 300.193 181.677 299.907 181.582C299.852 181.494 299.797 181.183 300.022 180.639C300.247 180.095 300.329 179.099 300.342 178.669C300.347 178.497 300.345 177.998 300.294 177.376C300.243 176.755 300.493 175.575 300.624 175.062C300.863 174.037 301.025 173.267 301.036 172.923C301.044 172.665 301.057 172.201 300.399 171.01C299.74 169.82 300.192 168.279 300.5 167.657L301.605 165.538C302.088 163.917 301.982 161.676 301.85 160.295C301.745 159.199 301.072 157.288 300.663 156.472C300.25 155.743 299.308 154.177 298.834 153.749C298.361 153.322 297.639 152.107 297.338 151.552L296.091 149.707L295.002 148.384C294.61 147.941 293.811 147.005 293.748 146.796C293.684 146.588 292.322 145.118 291.649 144.409L290.386 143.08L289.032 141.921C288.805 141.77 288.354 141.384 288.183 141.293C288.01 141.2 286.591 140.327 285.88 139.932C285.823 139.902 285.521 139.732 284.77 139.296C284.019 138.861 283.018 138.842 282.612 138.887L280.438 138.994C279.537 139.11 277.596 139.373 277.037 139.494C276.338 139.645 275.016 140.294 274.391 140.878C273.89 141.345 274.326 142.052 274.607 142.347C275.061 142.648 276.113 143.081 276.689 142.41C277.265 141.739 278.341 141.369 278.807 141.269C279.474 141.203 281.07 141.061 282.113 141.024C283.156 140.986 284.779 141.879 285.46 142.33L287.243 143.674C287.718 144.033 288.677 145.066 289.097 145.538C289.599 146.155 290.671 147.479 290.938 147.831C291.272 148.271 291.433 148.706 291.512 148.967C290.746 149.013 289.614 149.512 289.144 149.756L289.262 148.727C289.268 148.498 289.319 147.971 289.466 147.7C289.923 146.94 289.755 146.762 289.586 146.585C288.915 145.808 287.996 145.591 287.62 145.579L286.148 145.449L283.285 145.363C282.073 145.24 281.751 145.374 281.721 145.402C281.573 145.512 281.187 145.833 280.828 146.236C280.469 146.638 280.591 147.376 280.697 147.695C280.638 147.75 280.548 148.052 280.664 148.813C280.78 149.574 280.979 149.884 281.064 149.944C281.117 150.089 281.258 150.414 281.392 150.556C281.866 150.983 282.343 150.699 282.523 150.504C282.644 150.335 282.974 149.949 283.327 149.754C283.768 149.509 283.6 149.331 283.518 149.157C283.806 148.821 284.169 148.689 284.315 148.664C284.662 148.646 285.497 148.614 286.052 148.631C286.607 148.647 286.679 148.936 286.646 149.079L285.903 150.692C285.769 151.29 285.512 152.711 285.555 153.608C285.597 154.504 286.223 155.435 286.531 155.789C286.784 156.026 287.358 156.588 287.625 156.941C287.892 157.293 288.191 157.388 288.306 157.392L288.916 157.324C289.612 157.287 291.055 157.233 291.261 157.308C291.869 157.877 292.014 158.249 292.01 158.364C292.002 158.65 291.912 159.308 291.624 159.643C290.271 160.773 289.143 160.343 288.749 159.987C288.614 159.667 288.146 159.263 287.353 160.203C286.561 161.143 286.078 163.149 285.936 164.034C285.932 164.148 285.9 164.652 285.797 165.751C285.669 167.124 286.021 166.963 286.105 167.051C286.076 168.014 286.18 168.431 286.235 168.518C286.261 168.605 286.505 168.768 287.271 168.722C288.036 168.676 288.36 168.095 288.427 167.81C288.467 167.438 288.512 166.693 288.374 166.689C288.235 166.685 288.149 166.453 288.124 166.337L288.152 165.391C288.396 164.228 288.805 163.891 288.98 163.867C289.212 163.845 289.658 163.836 289.584 163.971C288.929 164.984 288.893 166.734 288.958 167.481L289.011 168.602C287.134 170.382 283.184 174.124 282.398 174.858C281.887 175.669 282.147 176.436 282.342 176.717L282.328 177.18C282.093 178.068 282.609 178.422 282.896 178.488L282.886 178.832C282.861 179.658 283.37 180.052 283.628 180.146C283.624 180.26 283.634 180.507 283.701 180.578C284.109 180.866 284.625 180.663 284.832 180.526C285.102 180.19 285.696 179.494 285.907 179.399C286.171 179.28 286.185 178.845 286.014 178.754C285.877 178.681 285.787 178.604 285.759 178.574C285.817 178.547 285.936 178.459 285.94 178.322C285.879 177.459 285.693 177.884 285.621 177.365C285.564 176.95 286.273 175.893 286.635 175.416C286.777 175.506 287.134 175.569 287.426 175.096Z" fill="url(#paint8_linear_11_365)"/>
</g>
<g filter="url(#filter9_dd_11_365)">
<path d="M233.573 46.9425C232.438 48.9207 229.878 49.5833 227.854 48.4225C225.829 47.2616 225.108 44.7169 226.243 42.7387C227.377 40.7605 229.938 40.0979 231.962 41.2587C233.986 42.4196 234.707 44.9643 233.573 46.9425Z" fill="url(#paint9_linear_11_365)"/>
<path d="M249.424 72.049C248.611 73.4658 246.722 73.9086 245.204 73.038C243.685 72.1673 243.113 70.313 243.926 68.8961C244.738 67.4793 246.628 67.0365 248.146 67.9072C249.664 68.7778 250.236 70.6322 249.424 72.049Z" fill="url(#paint10_linear_11_365)"/>
<path d="M223.868 69.2289C227.97 64.2225 224.742 60.4034 222.616 59.1197L220.015 56.7273C220.005 56.0358 220.829 54.9945 224.198 56.3607C227.568 57.7269 228.502 61.0371 228.548 62.5215C228.844 62.0051 229.315 60.5812 228.828 59.0157C227.876 56.2056 223.481 54.7058 221.403 54.3071C221.5 52.4978 222.663 49.5622 226.53 52.2947C229.85 54.6405 231.04 56.3966 231.313 57.2419L230.558 53.3179L229.65 50.0958L233.852 50.2546L234.861 56.4294C234.958 54.9197 236.138 52.08 240.084 52.799C244.029 53.5179 244.023 51.9275 243.526 51.0425L246.233 55.039C245.995 56.1247 244.582 58.1189 240.835 57.411C237.088 56.7031 238.106 59.0407 237.272 60.3845L247.69 59.091L244.068 63.0602C244.362 64.0005 244.535 65.7333 242.875 65.1415C241.215 64.5497 240.191 63.4521 239.886 62.9773L238.859 64.7683C240.631 64.8069 243.679 66.3101 244.981 67.0568C245.409 69.1035 246.263 68.3968 244.419 70.2721C240.805 67.6336 236.841 67.0202 235.311 67.0434C233.864 68.4863 231.161 71.3528 230.813 73.2114C230.465 75.0701 232.868 76.7056 234.113 77.2909C234.452 77.6405 235.191 78.5264 235.666 79.493C235.735 79.593 235.784 79.6979 235.81 79.8078C235.766 79.7023 235.717 79.5972 235.666 79.493C235.178 78.783 233.72 78.3276 232.964 78.1761L234.159 80.3403C233.793 80.3449 232.859 80.238 232.048 79.7734C230.982 78.2356 230.137 77.5193 229.847 77.3534C229.568 77.5792 228.949 78.1375 228.705 78.5635C227.934 77.7614 227.655 77.3396 227.612 77.229C227.248 75.9267 226.472 73.6293 226.28 74.8573C226.089 76.0854 225.213 76.3463 224.799 76.3233C224.82 75.9499 224.925 75.0966 225.169 74.6707C224.836 75.2515 222.694 74.816 221.664 74.5256C222.246 74.3665 223.484 73.9226 223.772 73.4192C222.11 73.5465 219.327 72.8639 218.143 72.5067C218.749 72.2323 220.174 71.7155 221.023 71.8427C219.39 69.7739 217.481 69.3398 216.731 69.3813L215.507 68.1644C216.8 68.0698 219.593 68.0121 220.42 68.5375C221.453 69.1944 222.812 69.3949 223.868 69.2289Z" fill="url(#paint11_linear_11_365)"/>
<path d="M240.885 65.9299L244.135 70.4312L246.768 69.304L249.826 60.5084L244.514 48.65L236.133 44.9371L229.209 45.2762L221.719 59.1197L225.29 58.1446C226.823 57.3724 229.599 55.6372 228.448 54.8738C227.296 54.1105 229.964 53.3848 231.442 53.1174C230.867 51.4371 230.235 48.7847 232.302 51.6169C234.369 54.449 236.796 54.8804 237.752 54.7421C239.363 54.3156 242.112 54.0006 240.211 56.1526C238.311 58.3045 240.468 60.1377 241.784 60.7853L240.785 62.5279L240.885 65.9299Z" fill="url(#paint12_linear_11_365)"/>
<path d="M251.374 66.4135C249.902 68.9798 246.874 70.0077 244.61 68.7094C242.346 67.4111 241.704 64.2782 243.175 61.7118C244.647 59.1455 247.675 58.1176 249.939 59.4159C252.203 60.7142 252.846 63.8471 251.374 66.4135Z" fill="url(#paint13_linear_11_365)"/>
<path d="M251.823 59.5956C251.087 60.8788 249.476 61.337 248.224 60.6191C246.972 59.9012 246.554 58.279 247.29 56.9959C248.026 55.7127 249.637 55.2544 250.889 55.9723C252.141 56.6902 252.559 58.3124 251.823 59.5956Z" fill="url(#paint14_linear_11_365)"/>
<path d="M251.226 56.1659C250.092 58.1442 247.531 58.8068 245.507 57.6459C243.483 56.4851 242.762 53.9403 243.896 51.9621C245.031 49.9839 247.591 49.3213 249.615 50.4821C251.64 51.643 252.361 54.1877 251.226 56.1659Z" fill="url(#paint15_linear_11_365)"/>
<path d="M250.418 54.2229C249.33 56.121 246.742 56.6814 244.637 55.4747C242.533 54.2681 241.71 51.7512 242.798 49.8532C243.887 47.9552 246.475 47.3947 248.579 48.6014C250.683 49.8081 251.507 52.3249 250.418 54.2229Z" fill="url(#paint16_linear_11_365)"/>
<path d="M245.09 49.8808C243.695 52.3134 240.167 52.9111 237.211 51.2156C234.254 49.5202 232.988 46.1737 234.384 43.741C235.779 41.3083 239.306 40.7107 242.263 42.4061C245.219 44.1016 246.485 47.4481 245.09 49.8808Z" fill="url(#paint17_linear_11_365)"/>
<path d="M223.876 58.0409C222.634 60.2063 219.727 60.872 217.383 59.5279C215.039 58.1837 214.146 55.3387 215.388 53.1734C216.63 51.008 219.536 50.3423 221.88 51.6864C224.224 53.0306 225.117 55.8756 223.876 58.0409Z" fill="url(#paint18_linear_11_365)"/>
<path d="M226.461 52.191C225.373 54.089 222.85 54.6866 220.825 53.5258C218.801 52.3649 218.043 49.8852 219.131 47.9872C220.22 46.0892 222.743 45.4916 224.767 46.6525C226.791 47.8133 227.55 50.293 226.461 52.191Z" fill="url(#paint19_linear_11_365)"/>
<path d="M230.303 50.8563C229.169 52.8346 226.608 53.4972 224.584 52.3363C222.559 51.1755 221.838 48.6307 222.973 46.6525C224.107 44.6743 226.668 44.0117 228.692 45.1726C230.716 46.3334 231.437 48.8781 230.303 50.8563Z" fill="url(#paint20_linear_11_365)"/>
</g>
<g filter="url(#filter10_dd_11_365)">
<path d="M91.4159 52.8713C92.4697 54.8936 91.6464 57.4072 89.5771 58.4855C87.5077 59.5638 84.9759 58.7985 83.9221 56.7762C82.8682 54.7539 83.6915 52.2403 85.7609 51.162C87.8303 50.0836 90.3621 50.8489 91.4159 52.8713Z" fill="url(#paint21_linear_11_365)"/>
<path d="M121.107 53.0668C121.861 54.5152 121.215 56.345 119.663 57.1537C118.111 57.9625 116.241 57.4439 115.486 55.9955C114.732 54.547 115.378 52.7172 116.93 51.9085C118.482 51.0998 120.352 51.6183 121.107 53.0668Z" fill="url(#paint22_linear_11_365)"/>
<path d="M104.947 73.0644C102.944 66.9103 97.9874 67.5678 95.7595 68.6658L92.3418 69.5658C91.7545 69.2007 91.3219 67.9454 94.2898 65.8452C97.2576 63.745 100.549 64.7439 101.824 65.5059C101.549 64.978 100.603 63.8137 99.0227 63.379C96.143 62.6648 92.5094 65.5565 91.0526 67.0916C89.5817 66.0334 87.7368 63.4713 92.1238 61.6886C95.8899 60.1583 98.0104 60.1037 98.8696 60.3294L95.1578 58.8493L91.9549 57.8756L94.3556 54.4225L100.099 56.9035C98.8803 56.0077 97.1256 53.4824 99.8593 50.5479C102.593 47.6134 101.25 46.761 100.237 46.7016L105.063 46.5782C105.848 47.3642 106.765 49.6296 104.148 52.4027C101.531 55.1759 104.048 55.5797 104.73 57.0075L109.261 47.5366L110.649 52.7275C111.599 52.9873 113.152 53.7767 111.758 54.8553C110.364 55.934 108.887 56.2042 108.323 56.2045L109.277 58.0354C110.266 56.5639 113.175 54.8087 114.507 54.1151C116.461 54.8584 116.327 53.7582 116.911 56.3229C112.74 57.9427 110.085 60.9491 109.279 62.2499C109.714 64.2467 110.669 68.0693 112.047 69.365C113.424 70.6607 116.097 69.5193 117.262 68.7867C117.739 68.6894 118.884 68.5453 119.954 68.6666C120.075 68.6627 120.19 68.6777 120.297 68.7155C120.184 68.6958 120.069 68.6797 119.954 68.6666C119.093 68.6943 117.923 69.6765 117.388 70.2312L119.854 70.3931C119.661 70.7036 119.067 71.4325 118.239 71.8641C116.369 71.9326 115.309 72.258 115.014 72.4121C115.053 72.7689 115.189 73.5915 115.416 74.0269C114.325 74.2431 113.819 74.2508 113.703 74.2277C112.41 73.8317 110.057 73.2458 110.988 74.0696C111.918 74.8933 111.666 75.7717 111.423 76.1079C111.12 75.888 110.458 75.3395 110.231 74.9041C110.541 75.4979 109.018 77.0673 108.218 77.7777C108.399 77.2014 108.692 75.9201 108.424 75.4055C107.634 76.8739 105.559 78.8491 104.619 79.6531C104.715 78.995 105.048 77.5169 105.614 76.8698C102.991 77.1293 101.596 78.5022 101.226 79.1562L99.5406 79.5311C100.159 78.3911 101.617 76.0081 102.505 75.5955C103.615 75.0798 104.517 74.0436 104.947 73.0644Z" fill="url(#paint23_linear_11_365)"/>
<path d="M111.348 56.9564L116.892 56.6474L117.363 53.8222L111.606 46.5033L98.7553 44.5795L91.1081 49.634L87.6591 55.6468L95.2756 69.4213L96.3808 65.8881C96.5571 64.1813 96.5938 60.9072 95.3299 61.4652C94.0659 62.0231 94.8939 59.3853 95.4658 57.9967C93.7411 57.5741 91.1666 56.6757 94.6665 56.4627C98.1663 56.2497 99.8388 54.4386 100.238 53.5597C100.748 51.9725 101.965 49.4883 102.752 52.2495C103.539 55.0106 106.246 54.1829 107.501 53.4239L108.43 55.2053L111.348 56.9564Z" fill="url(#paint24_linear_11_365)"/>
<path d="M117.413 48.3848C118.78 51.0084 118.012 54.1129 115.698 55.3189C113.384 56.5249 110.399 55.3758 109.032 52.7522C107.665 50.1286 108.433 47.0241 110.747 45.8181C113.062 44.6121 116.046 45.7613 117.413 48.3848Z" fill="url(#paint25_linear_11_365)"/>
<path d="M111.915 44.3289C112.598 45.6407 112.115 47.2447 110.835 47.9116C109.555 48.5784 107.964 48.0556 107.28 46.7438C106.597 45.432 107.08 43.828 108.36 43.1612C109.64 42.4943 111.231 43.0172 111.915 44.3289Z" fill="url(#paint26_linear_11_365)"/>
<path d="M108.705 42.9814C109.759 45.0037 108.935 47.5173 106.866 48.5956C104.797 49.6739 102.265 48.9086 101.211 46.8863C100.157 44.8639 100.981 42.3504 103.05 41.2721C105.119 40.1937 107.651 40.959 108.705 42.9814Z" fill="url(#paint27_linear_11_365)"/>
<path d="M106.633 42.6139C107.644 44.5543 106.72 47.0359 104.569 48.1568C102.418 49.2777 99.8542 48.6134 98.8431 46.673C97.832 44.7327 98.7562 42.2511 100.907 41.1302C103.058 40.0093 105.622 40.6736 106.633 42.6139Z" fill="url(#paint28_linear_11_365)"/>
<path d="M100.102 44.7585C101.398 47.2454 99.9986 50.5382 96.9762 52.1131C93.9539 53.688 90.4532 52.9487 89.1573 50.4618C87.8614 47.9748 89.261 44.6821 92.2834 43.1071C95.3057 41.5322 98.8064 42.2716 100.102 44.7585Z" fill="url(#paint29_linear_11_365)"/>
<path d="M95.5305 67.0233C96.684 69.237 95.6767 72.0437 93.2806 73.2922C90.8845 74.5408 88.0069 73.7585 86.8534 71.5448C85.7 69.3312 86.7073 66.5245 89.1034 65.2759C91.4995 64.0274 94.377 64.8097 95.5305 67.0233Z" fill="url(#paint30_linear_11_365)"/>
<path d="M91.9994 61.6905C93.0105 63.6309 92.1526 66.078 90.0832 67.1563C88.0139 68.2346 85.5167 67.5358 84.5056 65.5955C83.4945 63.6551 84.3524 61.208 86.4218 60.1297C88.4911 59.0514 90.9883 59.7502 91.9994 61.6905Z" fill="url(#paint31_linear_11_365)"/>
<path d="M92.9477 57.7358C94.0015 59.7581 93.1783 62.2717 91.1089 63.35C89.0395 64.4284 86.5077 63.6631 85.4539 61.6407C84.4001 59.6184 85.2233 57.1048 87.2927 56.0265C89.3621 54.9482 91.8939 55.7135 92.9477 57.7358Z" fill="url(#paint32_linear_11_365)"/>
</g>
<g filter="url(#filter11_dd_11_365)">
<path d="M234.363 286.32C233.108 284.416 230.511 283.913 228.563 285.197C226.615 286.481 226.052 289.066 227.307 290.97C228.562 292.874 231.159 293.377 233.107 292.093C235.056 290.809 235.618 288.224 234.363 286.32Z" fill="url(#paint33_linear_11_365)"/>
<path d="M248.628 260.28C247.73 258.916 245.816 258.591 244.355 259.554C242.894 260.517 242.438 262.403 243.336 263.767C244.235 265.131 246.148 265.456 247.61 264.493C249.071 263.53 249.527 261.644 248.628 260.28Z" fill="url(#paint34_linear_11_365)"/>
<path d="M223.297 264.677C227.7 269.42 224.716 273.432 222.673 274.845L220.225 277.394C220.258 278.084 221.145 279.073 224.423 277.501C227.701 275.928 228.429 272.566 228.383 271.082C228.71 271.579 229.268 272.971 228.88 274.564C228.103 277.427 223.81 279.197 221.76 279.723C221.97 281.523 223.311 284.381 227.002 281.414C230.171 278.867 231.249 277.041 231.47 276.18L230.959 280.144L230.252 283.416L234.437 282.997L235.062 276.771C235.252 278.272 236.605 281.033 240.499 280.071C244.392 279.11 244.484 280.697 244.043 281.611L246.497 277.455C246.193 276.386 244.659 274.483 240.963 275.422C237.267 276.36 238.138 273.964 237.222 272.675L247.701 273.32L243.84 269.583C244.075 268.626 244.14 266.886 242.52 267.58C240.9 268.273 239.946 269.432 239.671 269.925L238.535 268.201C240.301 268.053 243.25 266.364 244.503 265.538C244.804 263.468 245.7 264.121 243.743 262.363C240.299 265.221 236.382 266.078 234.853 266.15C233.32 264.799 230.444 262.106 229.981 260.272C229.519 258.439 231.816 256.658 233.022 255.996C233.339 255.626 234.022 254.696 234.436 253.702C234.498 253.598 234.541 253.49 234.56 253.379C234.522 253.487 234.481 253.595 234.436 253.702C233.993 254.441 232.566 254.986 231.821 255.184L232.879 252.95C232.514 252.968 231.588 253.133 230.808 253.647C229.839 255.247 229.04 256.015 228.761 256.198C228.469 255.99 227.816 255.471 227.546 255.061C226.826 255.909 226.574 256.348 226.537 256.461C226.255 257.783 225.622 260.124 225.355 258.91C225.088 257.697 224.198 257.49 223.786 257.539C223.831 257.91 223.988 258.756 224.258 259.166C223.89 258.606 221.778 259.174 220.768 259.527C221.36 259.65 222.622 260.017 222.941 260.501C221.274 260.477 218.539 261.331 217.38 261.761C218.001 261.997 219.455 262.424 220.295 262.245C218.793 264.411 216.915 264.962 216.164 264.967L215.017 266.258C216.314 266.272 219.105 266.157 219.897 265.581C220.888 264.861 222.232 264.577 223.297 264.677Z" fill="url(#paint35_linear_11_365)"/>
<path d="M240.485 266.916L243.45 262.222L246.148 263.184L249.744 271.773L245.177 283.938L237.042 288.163L230.111 288.253L221.778 274.9L225.402 275.652C226.98 276.328 229.858 277.888 228.756 278.721C227.654 279.554 230.362 280.114 231.853 280.289C231.384 282.002 230.917 284.688 232.805 281.733C234.693 278.779 237.089 278.198 238.051 278.277C239.686 278.602 242.448 278.746 240.418 276.716C238.388 274.686 240.428 272.723 241.701 271.995L240.596 270.318L240.485 266.916Z" fill="url(#paint36_linear_11_365)"/>
<path d="M250.924 265.784C249.296 263.314 246.21 262.475 244.031 263.911C241.851 265.347 241.404 268.514 243.032 270.984C244.66 273.454 247.746 274.293 249.926 272.857C252.105 271.421 252.552 268.254 250.924 265.784Z" fill="url(#paint37_linear_11_365)"/>
<path d="M251.794 272.561C250.981 271.326 249.344 270.968 248.139 271.762C246.934 272.556 246.617 274.201 247.431 275.436C248.245 276.671 249.881 277.029 251.086 276.235C252.291 275.441 252.608 273.796 251.794 272.561Z" fill="url(#paint38_linear_11_365)"/>
<path d="M251.411 276.021C250.157 274.117 247.56 273.614 245.611 274.898C243.663 276.182 243.101 278.766 244.355 280.671C245.61 282.575 248.207 283.077 250.155 281.793C252.104 280.509 252.666 277.925 251.411 276.021Z" fill="url(#paint39_linear_11_365)"/>
<path d="M250.725 278.01C249.521 276.183 246.903 275.784 244.878 277.119C242.852 278.453 242.187 281.016 243.391 282.843C244.594 284.67 247.212 285.069 249.238 283.735C251.263 282.4 251.929 279.837 250.725 278.01Z" fill="url(#paint40_linear_11_365)"/>
<path d="M245.676 282.674C244.133 280.332 240.575 279.954 237.729 281.83C234.883 283.705 233.827 287.124 235.37 289.465C236.913 291.807 240.471 292.185 243.317 290.309C246.163 288.434 247.219 285.016 245.676 282.674Z" fill="url(#paint41_linear_11_365)"/>
<path d="M223.997 275.843C222.623 273.759 219.681 273.275 217.425 274.762C215.169 276.248 214.453 279.143 215.827 281.227C217.2 283.312 220.143 283.796 222.399 282.309C224.655 280.823 225.37 277.928 223.997 275.843Z" fill="url(#paint42_linear_11_365)"/>
<path d="M226.94 281.522C225.736 279.695 223.181 279.255 221.232 280.539C219.284 281.823 218.68 284.345 219.884 286.172C221.088 287.999 223.644 288.439 225.592 287.155C227.541 285.871 228.144 283.349 226.94 281.522Z" fill="url(#paint43_linear_11_365)"/>
<path d="M230.857 282.616C229.602 280.712 227.005 280.209 225.057 281.493C223.109 282.777 222.546 285.362 223.801 287.266C225.056 289.17 227.653 289.673 229.601 288.389C231.55 287.105 232.112 284.52 230.857 282.616Z" fill="url(#paint44_linear_11_365)"/>
</g>
<g filter="url(#filter12_dd_11_365)">
<path d="M93.7237 281.861C94.8415 279.873 94.0989 277.334 92.065 276.19C90.0312 275.047 87.4762 275.731 86.3583 277.718C85.2405 279.706 85.9831 282.245 88.0169 283.388C90.0508 284.532 92.6058 283.848 93.7237 281.861Z" fill="url(#paint45_linear_11_365)"/>
<path d="M123.406 282.613C124.206 281.19 123.619 279.34 122.093 278.482C120.568 277.624 118.682 278.083 117.882 279.507C117.081 280.93 117.669 282.78 119.194 283.638C120.719 284.495 122.605 284.037 123.406 282.613Z" fill="url(#paint46_linear_11_365)"/>
<path d="M107.893 262.11C105.694 268.197 100.761 267.381 98.5694 266.213L95.1822 265.204C94.5835 265.55 94.1111 266.791 97.0103 268.985C99.9096 271.179 103.231 270.286 104.53 269.565C104.238 270.083 103.256 271.217 101.662 271.601C98.7611 272.223 95.2217 269.217 93.8146 267.636C92.3107 268.647 90.3849 271.148 94.7128 273.07C98.4281 274.72 100.546 274.842 101.412 274.644L97.6546 276.005L94.4222 276.876L96.7114 280.404L102.531 278.108C101.284 278.964 99.4499 281.432 102.089 284.452C104.727 287.473 103.358 288.282 102.343 288.309L107.162 288.586C107.973 287.826 108.962 285.591 106.435 282.735C103.907 279.88 106.436 279.557 107.163 278.152L111.389 287.762L112.942 282.618C113.901 282.389 115.477 281.65 114.119 280.527C112.76 279.404 111.293 279.087 110.729 279.069L111.741 277.269C112.682 278.772 115.534 280.619 116.842 281.355C118.819 280.674 118.65 281.77 119.316 279.225C115.199 277.473 112.641 274.383 111.878 273.057C112.376 271.075 113.453 267.285 114.871 266.034C116.289 264.783 118.924 266.009 120.065 266.779C120.539 266.891 121.678 267.072 122.752 266.985C122.873 266.992 122.988 266.981 123.096 266.947C122.982 266.963 122.867 266.975 122.752 266.985C121.892 266.929 120.754 265.91 120.237 265.339L122.707 265.256C122.524 264.939 121.953 264.192 121.139 263.734C119.272 263.606 118.224 263.247 117.933 263.083C117.984 262.728 118.147 261.91 118.387 261.482C117.304 261.231 116.799 261.207 116.681 261.227C115.376 261.581 113.006 262.092 113.962 261.298C114.919 260.504 114.694 259.618 114.462 259.275C114.153 259.485 113.474 260.012 113.233 260.44C113.561 259.856 112.09 258.239 111.313 257.503C111.475 258.085 111.727 259.375 111.443 259.881C110.7 258.388 108.689 256.348 107.775 255.514C107.85 256.175 108.136 257.663 108.681 258.328C106.067 257.985 104.717 256.568 104.368 255.902L102.696 255.474C103.277 256.633 104.658 259.061 105.533 259.502C106.626 260.053 107.494 261.117 107.893 262.11Z" fill="url(#paint47_linear_11_365)"/>
<path d="M113.776 278.414L119.307 278.9L119.688 281.739L113.7 288.87L100.795 290.382L93.3127 285.086L90.0574 278.966L98.1098 265.442L99.1017 269.009C99.2234 270.72 99.1555 273.994 97.91 273.396C96.6646 272.798 97.4078 275.461 97.9352 276.867C96.1978 277.234 93.596 278.05 97.0873 278.375C100.579 278.699 102.192 280.563 102.563 281.454C103.022 283.057 104.159 285.579 105.034 282.844C105.909 280.109 108.588 281.023 109.819 281.822L110.803 280.071L113.776 278.414Z" fill="url(#paint48_linear_11_365)"/>
<path d="M119.565 287.175C121.015 284.596 120.346 281.469 118.072 280.19C115.797 278.91 112.777 279.963 111.327 282.542C109.877 285.121 110.545 288.248 112.82 289.527C115.095 290.807 118.114 289.753 119.565 287.175Z" fill="url(#paint49_linear_11_365)"/>
<path d="M113.939 291.053C114.664 289.764 114.232 288.145 112.975 287.438C111.717 286.73 110.109 287.202 109.384 288.491C108.659 289.781 109.091 291.399 110.349 292.107C111.607 292.814 113.214 292.342 113.939 291.053Z" fill="url(#paint50_linear_11_365)"/>
<path d="M110.688 292.297C111.806 290.31 111.063 287.771 109.029 286.627C106.996 285.484 104.441 286.168 103.323 288.155C102.205 290.143 102.947 292.681 104.981 293.825C107.015 294.969 109.57 294.285 110.688 292.297Z" fill="url(#paint51_linear_11_365)"/>
<path d="M108.605 292.599C109.678 290.691 108.833 288.182 106.719 286.993C104.605 285.804 102.022 286.386 100.949 288.293C99.8766 290.2 100.721 292.71 102.835 293.899C104.949 295.088 107.533 294.506 108.605 292.599Z" fill="url(#paint52_linear_11_365)"/>
<path d="M102.147 290.247C103.521 287.802 102.227 284.466 99.257 282.796C96.2864 281.125 92.7639 281.752 91.3893 284.197C90.0146 286.641 91.3084 289.977 94.2789 291.647C97.2494 293.318 100.772 292.691 102.147 290.247Z" fill="url(#paint53_linear_11_365)"/>
<path d="M98.2881 267.847C99.5117 265.671 98.5945 262.834 96.2395 261.51C93.8845 260.185 90.9834 260.875 89.7598 263.051C88.5362 265.226 89.4534 268.064 91.8085 269.388C94.1635 270.713 97.0645 270.023 98.2881 267.847Z" fill="url(#paint54_linear_11_365)"/>
<path d="M94.5885 273.064C95.661 271.157 94.8817 268.684 92.8478 267.54C90.8139 266.396 88.2957 267.015 87.2232 268.922C86.1506 270.829 86.93 273.303 88.9638 274.446C90.9977 275.59 93.516 274.971 94.5885 273.064Z" fill="url(#paint55_linear_11_365)"/>
<path d="M95.41 277.047C96.5279 275.06 95.7853 272.521 93.7514 271.377C91.7175 270.233 89.1626 270.917 88.0447 272.905C86.9269 274.893 87.6694 277.431 89.7033 278.575C91.7372 279.719 94.2922 279.035 95.41 277.047Z" fill="url(#paint56_linear_11_365)"/>
</g>
<ellipse cx="204.156" cy="110.498" rx="5.02793" ry="4.60894" transform="rotate(39.2467 204.156 110.498)" fill="url(#paint57_radial_11_365)"/>
<ellipse cx="234.534" cy="128.282" rx="3.77095" ry="3.35196" transform="rotate(39.2467 234.534 128.282)" fill="url(#paint58_radial_11_365)"/>
<circle cx="181.026" cy="126.228" r="2.93296" transform="rotate(39.2467 181.026 126.228)" fill="url(#paint59_radial_11_365)"/>
<circle cx="212.775" cy="163.527" r="5.86592" transform="rotate(39.2467 212.775 163.527)" fill="url(#paint60_radial_11_365)"/>
<ellipse cx="237.555" cy="146.439" rx="2.51397" ry="2.09497" transform="rotate(39.2467 237.555 146.439)" fill="url(#paint61_radial_11_365)"/>
<circle cx="189.069" cy="158.769" r="2.93296" transform="rotate(39.2467 189.069 158.769)" fill="url(#paint62_radial_11_365)"/>
<ellipse cx="207.122" cy="134.021" rx="1.25698" ry="1.67598" transform="rotate(39.2467 207.122 134.021)" fill="url(#paint63_radial_11_365)"/>
<ellipse cx="179.065" cy="145.186" rx="2.51397" ry="1.25698" transform="rotate(39.2467 179.065 145.186)" fill="url(#paint64_radial_11_365)"/>
<ellipse cx="225.804" cy="162.81" rx="1.25698" ry="2.93296" transform="rotate(39.2467 225.804 162.81)" fill="url(#paint65_radial_11_365)"/>
<circle cx="215.223" cy="205.564" r="2.51397" transform="rotate(39.2467 215.223 205.564)" fill="url(#paint66_radial_11_365)"/>
<ellipse cx="238.683" cy="196.054" rx="2.09497" ry="2.93296" transform="rotate(39.2467 238.683 196.054)" fill="url(#paint67_radial_11_365)"/>
<circle cx="246.8" cy="170.223" r="4.60894" transform="rotate(39.2467 246.8 170.223)" fill="url(#paint68_radial_11_365)"/>
<ellipse cx="150.638" cy="134.948" rx="2.51397" ry="2.93296" transform="rotate(39.2467 150.638 134.948)" fill="url(#paint69_radial_11_365)"/>
<circle cx="165.944" cy="142.041" r="1.25698" transform="rotate(39.2467 165.944 142.041)" fill="url(#paint70_radial_11_365)"/>
<ellipse cx="156.021" cy="158.823" rx="1.67598" ry="1.25698" transform="rotate(39.2467 156.021 158.823)" fill="url(#paint71_radial_11_365)"/>
<ellipse cx="152.534" cy="186.272" rx="7.96089" ry="8.79888" transform="rotate(39.2467 152.534 186.272)" fill="url(#paint72_radial_11_365)"/>
<ellipse cx="183.232" cy="198.365" rx="9.21788" ry="7.96089" transform="rotate(39.2467 183.232 198.365)" fill="url(#paint73_radial_11_365)"/>
<ellipse cx="201.495" cy="178.659" rx="2.51397" ry="1.25698" transform="rotate(39.2467 201.495 178.659)" fill="url(#paint74_radial_11_365)"/>
<ellipse cx="196.216" cy="214.923" rx="2.93296" ry="3.35196" transform="rotate(39.2467 196.216 214.923)" fill="url(#paint75_radial_11_365)"/>
<circle cx="172.981" cy="170.514" r="2.09497" transform="rotate(39.2467 172.981 170.514)" fill="url(#paint76_radial_11_365)"/>
<ellipse cx="167.377" cy="206.514" rx="2.09497" ry="2.51397" transform="rotate(39.2467 167.377 206.514)" fill="url(#paint77_radial_11_365)"/>
<g filter="url(#filter13_dd_11_365)">
<path d="M47.2364 176.489C46.9443 176.016 45.6448 175.533 45.0316 175.351C45.2584 175.964 44.7523 176.65 44.4709 176.917L44.0579 177.618L45.1221 178.36C45.4769 178.608 45.8331 178.906 45.8523 179.543C45.8609 179.83 45.8966 180.437 45.9701 180.573C46.8339 181.58 47.1595 183.549 47.2142 184.408C47.2595 184.952 47.4625 186.312 47.912 187.4C48.3615 188.488 48.1338 189 47.9638 189.12L47.9741 189.464C47.9151 189.81 48.0842 190.235 48.1761 190.404C48.177 190.433 48.2048 190.782 48.3094 191.95C48.414 193.117 47.9318 193.826 47.6776 194.034C47.6107 194.696 47.2834 195.94 46.5098 195.619C45.7361 195.298 45.4762 194.933 45.4429 194.79C45.4369 194.59 45.3544 194.156 45.0727 194.027C44.4551 193.701 44.7762 192.831 44.9471 192.739C45.0838 192.667 45.2794 192.242 45.3601 192.039C45.5103 191.259 45.6831 189.498 45.1725 188.687C44.6619 187.876 44.2908 187.279 44.1691 187.082L44.274 187.682C44.3422 188.024 44.3576 188.729 43.8739 188.813C43.3902 188.896 42.9922 189.327 42.8537 189.532C42.8545 189.56 42.7548 189.707 42.3487 190.063C41.9427 190.42 41.256 190.297 40.9634 190.191L40.5219 189.946C40.3433 189.78 39.9334 189.43 39.7231 189.368C39.0333 189.526 38.5666 189.403 38.4194 189.321L37.6206 188.743C37.5075 188.832 37.039 189.035 36.0696 189.133C35.1001 189.232 35.31 188.898 35.5362 188.719C35.7886 188.453 36.2558 187.82 36.1045 187.411C35.9533 187.002 35.5867 185.59 35.4223 184.936C34.9238 184.721 33.9238 184.189 33.9114 183.776C33.899 183.363 34.469 183.071 34.7556 182.976C34.8108 182.888 34.8651 182.577 34.6403 182.033C34.4156 181.489 34.3335 180.493 34.3206 180.063C34.3154 179.891 34.3178 179.391 34.3685 178.77C34.4193 178.149 34.1696 176.969 34.0384 176.456C33.7992 175.431 33.6371 174.661 33.6267 174.317C33.619 174.059 33.605 173.594 34.2638 172.404C34.9225 171.214 34.4709 169.672 34.1628 169.05L33.0572 166.932C32.5743 165.311 32.6805 163.07 32.8126 161.689C32.9174 160.593 33.5903 158.682 33.9999 157.866C34.412 157.136 35.3547 155.57 35.828 155.143C36.3014 154.716 37.023 153.5 37.3247 152.946L38.5715 151.101L39.6604 149.777C40.0522 149.335 40.8517 148.399 40.9149 148.19C40.9781 147.982 42.3404 146.512 43.0136 145.803L44.276 144.474L45.6302 143.314C45.8572 143.164 46.3087 142.778 46.4796 142.686C46.6525 142.594 48.0712 141.72 48.7828 141.326C48.8398 141.296 49.1414 141.126 49.8924 140.69C50.6433 140.254 51.6441 140.236 52.0506 140.281L54.2244 140.388C55.125 140.504 57.0662 140.767 57.6255 140.888C58.3246 141.039 59.6465 141.688 60.2718 142.271C60.7721 142.738 60.3361 143.446 60.0556 143.741C59.6016 144.042 58.5496 144.475 57.9737 143.804C57.3979 143.132 56.3217 142.763 55.8556 142.662C55.188 142.596 53.592 142.455 52.549 142.418C51.506 142.38 49.8833 143.273 49.2023 143.723L47.4195 145.068C46.944 145.427 45.9854 146.46 45.5654 146.931C45.0631 147.549 43.9916 148.872 43.7244 149.225C43.3903 149.665 43.2298 150.1 43.1508 150.361C43.9162 150.407 45.0484 150.906 45.5188 151.15L45.401 150.121C45.3941 149.892 45.3435 149.365 45.1964 149.094C44.7394 148.333 44.9077 148.156 45.076 147.979C45.7472 147.201 46.6668 146.984 47.0427 146.973L48.5147 146.843L51.3773 146.756C52.5891 146.634 52.9115 146.768 52.9412 146.795C53.0893 146.906 53.4752 147.227 53.8346 147.629C54.194 148.032 54.0715 148.77 53.9653 149.089C54.0248 149.144 54.115 149.446 53.9989 150.206C53.8829 150.967 53.6839 151.277 53.5989 151.337C53.5453 151.482 53.4047 151.808 53.27 151.95C52.7967 152.377 52.3193 152.093 52.1397 151.898C52.0189 151.729 51.6889 151.343 51.3358 151.147C50.8943 150.902 51.0626 150.725 51.1442 150.551C50.8562 150.215 50.4934 150.082 50.3479 150.058C50.0001 150.04 49.1656 150.008 48.6105 150.024C48.0553 150.041 47.983 150.33 48.0162 150.473L48.7593 152.086C48.8931 152.684 49.15 154.105 49.1076 155.001C49.0651 155.898 48.439 156.829 48.1313 157.183C47.878 157.42 47.3045 157.982 47.0373 158.334C46.7701 158.687 46.472 158.782 46.3563 158.785L45.7465 158.718C45.0508 158.681 43.6079 158.627 43.4018 158.702C42.7938 159.271 42.6487 159.643 42.6522 159.757C42.6608 160.044 42.7501 160.701 43.038 161.037C44.3917 162.167 45.519 161.737 45.9135 161.381C46.0486 161.061 46.5168 160.657 47.3091 161.597C48.1015 162.537 48.5843 164.542 48.7267 165.427C48.7302 165.542 48.7627 166.046 48.8652 167.145C48.9934 168.518 48.6412 168.356 48.5571 168.445C48.5861 169.408 48.4828 169.824 48.4276 169.912C48.4013 169.999 48.1573 170.161 47.3918 170.115C46.6264 170.07 46.3022 169.488 46.2357 169.203C46.1956 168.832 46.15 168.087 46.2888 168.083C46.4276 168.079 46.5132 167.847 46.5387 167.731L46.5102 166.785C46.2668 165.622 45.8573 165.284 45.683 165.261C45.4508 165.239 45.0048 165.23 45.0783 165.365C45.7339 166.378 45.7692 168.127 45.7049 168.875L45.6518 169.996C47.5286 171.775 51.4788 175.518 52.2649 176.252C52.7755 177.063 52.515 177.829 52.3209 178.111L52.3348 178.574C52.5699 179.462 52.0538 179.816 51.7664 179.882L51.7768 180.226C51.8016 181.051 51.2925 181.445 51.0349 181.539C51.0383 181.654 51.0284 181.901 50.9611 181.972C50.553 182.26 50.0375 182.057 49.8308 181.92C49.5602 181.584 48.9663 180.888 48.755 180.792C48.491 180.673 48.4779 180.239 48.6488 180.148C48.7855 180.075 48.8758 179.998 48.9039 179.968C48.8452 179.941 48.7268 179.853 48.7226 179.715C48.7835 178.853 48.9699 179.277 49.0411 178.759C49.0981 178.344 48.3891 177.287 48.0274 176.81C47.8854 176.9 47.5285 176.963 47.2364 176.489Z" fill="url(#paint78_linear_11_365)"/>
</g>
<defs>
<filter id="filter0_i_11_365" x="9.6221" y="9.6221" width="314.011" height="318.011" filterUnits="userSpaceOnUse" color-interpolation-filters="sRGB">
<feFlood flood-opacity="0" result="BackgroundImageFix"/>
<feBlend mode="normal" in="SourceGraphic" in2="BackgroundImageFix" result="shape"/>
<feColorMatrix in="SourceAlpha" type="matrix" values="0 0 0 0 0 0 0 0 0 0 0 0 0 0 0 0 0 0 127 0" result="hardAlpha"/>
<feOffset dy="4"/>
<feGaussianBlur stdDeviation="2"/>
<feComposite in2="hardAlpha" operator="arithmetic" k2="-1" k3="1"/>
<feColorMatrix type="matrix" values="0 0 0 0 0 0 0 0 0 0 0 0 0 0 0 0 0 0 0.25 0"/>
<feBlend mode="normal" in2="shape" result="effect1_innerShadow_11_365"/>
</filter>
<filter id="filter1_f_11_365" x="70" y="69" width="197" height="197" filterUnits="userSpaceOnUse" color-interpolation-filters="sRGB">
<feFlood flood-opacity="0" result="BackgroundImageFix"/>
<feBlend mode="normal" in="SourceGraphic" in2="BackgroundImageFix" result="shape"/>
<feGaussianBlur stdDeviation="2" result="effect1_foregroundBlur_11_365"/>
</filter>
<filter id="filter2_dd_11_365" x="250.615" y="83.3099" width="50.0068" height="50.0068" filterUnits="userSpaceOnUse" color-interpolation-filters="sRGB">
<feFlood flood-opacity="0" result="BackgroundImageFix"/>
<feColorMatrix in="SourceAlpha" type="matrix" values="0 0 0 0 0 0 0 0 0 0 0 0 0 0 0 0 0 0 127 0" result="hardAlpha"/>
<feOffset dy="4"/>
<feGaussianBlur stdDeviation="2"/>
<feComposite in2="hardAlpha" operator="out"/>
<feColorMatrix type="matrix" values="0 0 0 0 0 0 0 0 0 0 0 0 0 0 0 0 0 0 0.25 0"/>
<feBlend mode="normal" in2="BackgroundImageFix" result="effect1_dropShadow_11_365"/>
<feColorMatrix in="SourceAlpha" type="matrix" values="0 0 0 0 0 0 0 0 0 0 0 0 0 0 0 0 0 0 127 0" result="hardAlpha"/>
<feOffset dy="4"/>
<feGaussianBlur stdDeviation="2"/>
<feComposite in2="hardAlpha" operator="out"/>
<feColorMatrix type="matrix" values="0 0 0 0 0 0 0 0 0 0 0 0 0 0 0 0 0 0 0.25 0"/>
<feBlend mode="normal" in2="effect1_dropShadow_11_365" result="effect2_dropShadow_11_365"/>
<feBlend mode="normal" in="SourceGraphic" in2="effect2_dropShadow_11_365" result="shape"/>
</filter>
<filter id="filter3_d_11_365" x="35.6071" y="208.899" width="50.0068" height="50.0068" filterUnits="userSpaceOnUse" color-interpolation-filters="sRGB">
<feFlood flood-opacity="0" result="BackgroundImageFix"/>
<feColorMatrix in="SourceAlpha" type="matrix" values="0 0 0 0 0 0 0 0 0 0 0 0 0 0 0 0 0 0 127 0" result="hardAlpha"/>
<feOffset dy="4"/>
<feGaussianBlur stdDeviation="2"/>
<feComposite in2="hardAlpha" operator="out"/>
<feColorMatrix type="matrix" values="0 0 0 0 0 0 0 0 0 0 0 0 0 0 0 0 0 0 0.25 0"/>
<feBlend mode="normal" in2="BackgroundImageFix" result="effect1_dropShadow_11_365"/>
<feBlend mode="normal" in="SourceGraphic" in2="effect1_dropShadow_11_365" result="shape"/>
</filter>
<filter id="filter4_dd_11_365" x="153.38" y="27.3713" width="30.6769" height="41.2007" filterUnits="userSpaceOnUse" color-interpolation-filters="sRGB">
<feFlood flood-opacity="0" result="BackgroundImageFix"/>
<feColorMatrix in="SourceAlpha" type="matrix" values="0 0 0 0 0 0 0 0 0 0 0 0 0 0 0 0 0 0 127 0" result="hardAlpha"/>
<feOffset dy="4"/>
<feGaussianBlur stdDeviation="2"/>
<feComposite in2="hardAlpha" operator="out"/>
<feColorMatrix type="matrix" values="0 0 0 0 0 0 0 0 0 0 0 0 0 0 0 0 0 0 0.25 0"/>
<feBlend mode="normal" in2="BackgroundImageFix" result="effect1_dropShadow_11_365"/>
<feColorMatrix in="SourceAlpha" type="matrix" values="0 0 0 0 0 0 0 0 0 0 0 0 0 0 0 0 0 0 127 0" result="hardAlpha"/>
<feOffset dy="4"/>
<feGaussianBlur stdDeviation="2"/>
<feComposite in2="hardAlpha" operator="out"/>
<feColorMatrix type="matrix" values="0 0 0 0 0 0 0 0 0 0 0 0 0 0 0 0 0 0 0.25 0"/>
<feBlend mode="normal" in2="effect1_dropShadow_11_365" result="effect2_dropShadow_11_365"/>
<feBlend mode="normal" in="SourceGraphic" in2="effect2_dropShadow_11_365" result="shape"/>
</filter>
<filter id="filter5_dd_11_365" x="256.69" y="207.907" width="40.8647" height="37.3188" filterUnits="userSpaceOnUse" color-interpolation-filters="sRGB">
<feFlood flood-opacity="0" result="BackgroundImageFix"/>
<feColorMatrix in="SourceAlpha" type="matrix" values="0 0 0 0 0 0 0 0 0 0 0 0 0 0 0 0 0 0 127 0" result="hardAlpha"/>
<feOffset dy="4"/>
<feGaussianBlur stdDeviation="2"/>
<feComposite in2="hardAlpha" operator="out"/>
<feColorMatrix type="matrix" values="0 0 0 0 0 0 0 0 0 0 0 0 0 0 0 0 0 0 0.25 0"/>
<feBlend mode="normal" in2="BackgroundImageFix" result="effect1_dropShadow_11_365"/>
<feColorMatrix in="SourceAlpha" type="matrix" values="0 0 0 0 0 0 0 0 0 0 0 0 0 0 0 0 0 0 127 0" result="hardAlpha"/>
<feOffset dy="4"/>
<feGaussianBlur stdDeviation="2"/>
<feComposite in2="hardAlpha" operator="out"/>
<feColorMatrix type="matrix" values="0 0 0 0 0 0 0 0 0 0 0 0 0 0 0 0 0 0 0.25 0"/>
<feBlend mode="normal" in2="effect1_dropShadow_11_365" result="effect2_dropShadow_11_365"/>
<feBlend mode="normal" in="SourceGraphic" in2="effect2_dropShadow_11_365" result="shape"/>
</filter>
<filter id="filter6_dd_11_365" x="34.2951" y="97.1913" width="40.8647" height="37.3188" filterUnits="userSpaceOnUse" color-interpolation-filters="sRGB">
<feFlood flood-opacity="0" result="BackgroundImageFix"/>
<feColorMatrix in="SourceAlpha" type="matrix" values="0 0 0 0 0 0 0 0 0 0 0 0 0 0 0 0 0 0 127 0" result="hardAlpha"/>
<feOffset dy="4"/>
<feGaussianBlur stdDeviation="2"/>
<feComposite in2="hardAlpha" operator="out"/>
<feColorMatrix type="matrix" values="0 0 0 0 0 0 0 0 0 0 0 0 0 0 0 0 0 0 0.25 0"/>
<feBlend mode="normal" in2="BackgroundImageFix" result="effect1_dropShadow_11_365"/>
<feColorMatrix in="SourceAlpha" type="matrix" values="0 0 0 0 0 0 0 0 0 0 0 0 0 0 0 0 0 0 127 0" result="hardAlpha"/>
<feOffset dy="4"/>
<feGaussianBlur stdDeviation="2"/>
<feComposite in2="hardAlpha" operator="out"/>
<feColorMatrix type="matrix" values="0 0 0 0 0 0 0 0 0 0 0 0 0 0 0 0 0 0 0.25 0"/>
<feBlend mode="normal" in2="effect1_dropShadow_11_365" result="effect2_dropShadow_11_365"/>
<feBlend mode="normal" in="SourceGraphic" in2="effect2_dropShadow_11_365" result="shape"/>
</filter>
<filter id="filter7_dd_11_365" x="147.793" y="273.845" width="30.6769" height="41.2007" filterUnits="userSpaceOnUse" color-interpolation-filters="sRGB">
<feFlood flood-opacity="0" result="BackgroundImageFix"/>
<feColorMatrix in="SourceAlpha" type="matrix" values="0 0 0 0 0 0 0 0 0 0 0 0 0 0 0 0 0 0 127 0" result="hardAlpha"/>
<feOffset dy="4"/>
<feGaussianBlur stdDeviation="2"/>
<feComposite in2="hardAlpha" operator="out"/>
<feColorMatrix type="matrix" values="0 0 0 0 0 0 0 0 0 0 0 0 0 0 0 0 0 0 0.25 0"/>
<feBlend mode="normal" in2="BackgroundImageFix" result="effect1_dropShadow_11_365"/>
<feColorMatrix in="SourceAlpha" type="matrix" values="0 0 0 0 0 0 0 0 0 0 0 0 0 0 0 0 0 0 127 0" result="hardAlpha"/>
<feOffset dy="4"/>
<feGaussianBlur stdDeviation="2"/>
<feComposite in2="hardAlpha" operator="out"/>
<feColorMatrix type="matrix" values="0 0 0 0 0 0 0 0 0 0 0 0 0 0 0 0 0 0 0.25 0"/>
<feBlend mode="normal" in2="effect1_dropShadow_11_365" result="effect2_dropShadow_11_365"/>
<feBlend mode="normal" in="SourceGraphic" in2="effect2_dropShadow_11_365" result="shape"/>
</filter>
<filter id="filter8_dd_11_365" x="270.162" y="138.87" width="35.7992" height="63.4068" filterUnits="userSpaceOnUse" color-interpolation-filters="sRGB">
<feFlood flood-opacity="0" result="BackgroundImageFix"/>
<feColorMatrix in="SourceAlpha" type="matrix" values="0 0 0 0 0 0 0 0 0 0 0 0 0 0 0 0 0 0 127 0" result="hardAlpha"/>
<feOffset dy="4"/>
<feGaussianBlur stdDeviation="2"/>
<feComposite in2="hardAlpha" operator="out"/>
<feColorMatrix type="matrix" values="0 0 0 0 0 0 0 0 0 0 0 0 0 0 0 0 0 0 0.25 0"/>
<feBlend mode="normal" in2="BackgroundImageFix" result="effect1_dropShadow_11_365"/>
<feColorMatrix in="SourceAlpha" type="matrix" values="0 0 0 0 0 0 0 0 0 0 0 0 0 0 0 0 0 0 127 0" result="hardAlpha"/>
<feOffset dy="4"/>
<feGaussianBlur stdDeviation="2"/>
<feComposite in2="hardAlpha" operator="out"/>
<feColorMatrix type="matrix" values="0 0 0 0 0 0 0 0 0 0 0 0 0 0 0 0 0 0 0.25 0"/>
<feBlend mode="normal" in2="effect1_dropShadow_11_365" result="effect2_dropShadow_11_365"/>
<feBlend mode="normal" in="SourceGraphic" in2="effect2_dropShadow_11_365" result="shape"/>
</filter>
<filter id="filter9_dd_11_365" x="210.828" y="40.6869" width="45.358" height="47.6536" filterUnits="userSpaceOnUse" color-interpolation-filters="sRGB">
<feFlood flood-opacity="0" result="BackgroundImageFix"/>
<feColorMatrix in="SourceAlpha" type="matrix" values="0 0 0 0 0 0 0 0 0 0 0 0 0 0 0 0 0 0 127 0" result="hardAlpha"/>
<feOffset dy="4"/>
<feGaussianBlur stdDeviation="2"/>
<feComposite in2="hardAlpha" operator="out"/>
<feColorMatrix type="matrix" values="0 0 0 0 0 0 0 0 0 0 0 0 0 0 0 0 0 0 0.25 0"/>
<feBlend mode="normal" in2="BackgroundImageFix" result="effect1_dropShadow_11_365"/>
<feColorMatrix in="SourceAlpha" type="matrix" values="0 0 0 0 0 0 0 0 0 0 0 0 0 0 0 0 0 0 127 0" result="hardAlpha"/>
<feOffset dy="4"/>
<feGaussianBlur stdDeviation="2"/>
<feComposite in2="hardAlpha" operator="out"/>
<feColorMatrix type="matrix" values="0 0 0 0 0 0 0 0 0 0 0 0 0 0 0 0 0 0 0.25 0"/>
<feBlend mode="normal" in2="effect1_dropShadow_11_365" result="effect2_dropShadow_11_365"/>
<feBlend mode="normal" in="SourceGraphic" in2="effect2_dropShadow_11_365" result="shape"/>
</filter>
<filter id="filter10_dd_11_365" x="79.4633" y="40.5854" width="45.9588" height="47.0677" filterUnits="userSpaceOnUse" color-interpolation-filters="sRGB">
<feFlood flood-opacity="0" result="BackgroundImageFix"/>
<feColorMatrix in="SourceAlpha" type="matrix" values="0 0 0 0 0 0 0 0 0 0 0 0 0 0 0 0 0 0 127 0" result="hardAlpha"/>
<feOffset dy="4"/>
<feGaussianBlur stdDeviation="2"/>
<feComposite in2="hardAlpha" operator="out"/>
<feColorMatrix type="matrix" values="0 0 0 0 0 0 0 0 0 0 0 0 0 0 0 0 0 0 0.25 0"/>
<feBlend mode="normal" in2="BackgroundImageFix" result="effect1_dropShadow_11_365"/>
<feColorMatrix in="SourceAlpha" type="matrix" values="0 0 0 0 0 0 0 0 0 0 0 0 0 0 0 0 0 0 127 0" result="hardAlpha"/>
<feOffset dy="4"/>
<feGaussianBlur stdDeviation="2"/>
<feComposite in2="hardAlpha" operator="out"/>
<feColorMatrix type="matrix" values="0 0 0 0 0 0 0 0 0 0 0 0 0 0 0 0 0 0 0.25 0"/>
<feBlend mode="normal" in2="effect1_dropShadow_11_365" result="effect2_dropShadow_11_365"/>
<feBlend mode="normal" in="SourceGraphic" in2="effect2_dropShadow_11_365" result="shape"/>
</filter>
<filter id="filter11_dd_11_365" x="211.017" y="252.95" width="45.2289" height="47.8537" filterUnits="userSpaceOnUse" color-interpolation-filters="sRGB">
<feFlood flood-opacity="0" result="BackgroundImageFix"/>
<feColorMatrix in="SourceAlpha" type="matrix" values="0 0 0 0 0 0 0 0 0 0 0 0 0 0 0 0 0 0 127 0" result="hardAlpha"/>
<feOffset dy="4"/>
<feGaussianBlur stdDeviation="2"/>
<feComposite in2="hardAlpha" operator="out"/>
<feColorMatrix type="matrix" values="0 0 0 0 0 0 0 0 0 0 0 0 0 0 0 0 0 0 0.25 0"/>
<feBlend mode="normal" in2="BackgroundImageFix" result="effect1_dropShadow_11_365"/>
<feColorMatrix in="SourceAlpha" type="matrix" values="0 0 0 0 0 0 0 0 0 0 0 0 0 0 0 0 0 0 127 0" result="hardAlpha"/>
<feOffset dy="4"/>
<feGaussianBlur stdDeviation="2"/>
<feComposite in2="hardAlpha" operator="out"/>
<feColorMatrix type="matrix" values="0 0 0 0 0 0 0 0 0 0 0 0 0 0 0 0 0 0 0.25 0"/>
<feBlend mode="normal" in2="effect1_dropShadow_11_365" result="effect2_dropShadow_11_365"/>
<feBlend mode="normal" in="SourceGraphic" in2="effect2_dropShadow_11_365" result="shape"/>
</filter>
<filter id="filter12_dd_11_365" x="81.838" y="255.474" width="45.9256" height="47.0417" filterUnits="userSpaceOnUse" color-interpolation-filters="sRGB">
<feFlood flood-opacity="0" result="BackgroundImageFix"/>
<feColorMatrix in="SourceAlpha" type="matrix" values="0 0 0 0 0 0 0 0 0 0 0 0 0 0 0 0 0 0 127 0" result="hardAlpha"/>
<feOffset dy="4"/>
<feGaussianBlur stdDeviation="2"/>
<feComposite in2="hardAlpha" operator="out"/>
<feColorMatrix type="matrix" values="0 0 0 0 0 0 0 0 0 0 0 0 0 0 0 0 0 0 0.25 0"/>
<feBlend mode="normal" in2="BackgroundImageFix" result="effect1_dropShadow_11_365"/>
<feColorMatrix in="SourceAlpha" type="matrix" values="0 0 0 0 0 0 0 0 0 0 0 0 0 0 0 0 0 0 127 0" result="hardAlpha"/>
<feOffset dy="4"/>
<feGaussianBlur stdDeviation="2"/>
<feComposite in2="hardAlpha" operator="out"/>
<feColorMatrix type="matrix" values="0 0 0 0 0 0 0 0 0 0 0 0 0 0 0 0 0 0 0.25 0"/>
<feBlend mode="normal" in2="effect1_dropShadow_11_365" result="effect2_dropShadow_11_365"/>
<feBlend mode="normal" in="SourceGraphic" in2="effect2_dropShadow_11_365" result="shape"/>
</filter>
<filter id="filter13_dd_11_365" x="28.7012" y="140.264" width="35.7992" height="63.4068" filterUnits="userSpaceOnUse" color-interpolation-filters="sRGB">
<feFlood flood-opacity="0" result="BackgroundImageFix"/>
<feColorMatrix in="SourceAlpha" type="matrix" values="0 0 0 0 0 0 0 0 0 0 0 0 0 0 0 0 0 0 127 0" result="hardAlpha"/>
<feOffset dy="4"/>
<feGaussianBlur stdDeviation="2"/>
<feComposite in2="hardAlpha" operator="out"/>
<feColorMatrix type="matrix" values="0 0 0 0 0 0 0 0 0 0 0 0 0 0 0 0 0 0 0.25 0"/>
<feBlend mode="normal" in2="BackgroundImageFix" result="effect1_dropShadow_11_365"/>
<feColorMatrix in="SourceAlpha" type="matrix" values="0 0 0 0 0 0 0 0 0 0 0 0 0 0 0 0 0 0 127 0" result="hardAlpha"/>
<feOffset dy="4"/>
<feGaussianBlur stdDeviation="2"/>
<feComposite in2="hardAlpha" operator="out"/>
<feColorMatrix type="matrix" values="0 0 0 0 0 0 0 0 0 0 0 0 0 0 0 0 0 0 0.25 0"/>
<feBlend mode="normal" in2="effect1_dropShadow_11_365" result="effect2_dropShadow_11_365"/>
<feBlend mode="normal" in="SourceGraphic" in2="effect2_dropShadow_11_365" result="shape"/>
</filter>
<linearGradient id="paint0_linear_11_365" x1="-31.3724" y1="110.128" x2="166.628" y2="323.628" gradientUnits="userSpaceOnUse">
<stop offset="0.165513" stop-color="#0130A9"/>
<stop offset="0.505208" stop-color="#5D74C5"/>
<stop offset="0.937638" stop-color="#012A68"/>
</linearGradient>
<linearGradient id="paint1_linear_11_365" x1="166.628" y1="9.62756" x2="166.628" y2="323.628" gradientUnits="userSpaceOnUse">
<stop stop-color="#585858"/>
<stop offset="0.4375" stop-color="white"/>
<stop offset="1" stop-color="#A7A7A7"/>
</linearGradient>
<linearGradient id="paint2_linear_11_365" x1="254.618" y1="99.3133" x2="275.618" y2="125.313" gradientUnits="userSpaceOnUse">
<stop stop-color="#A3A3A3"/>
<stop offset="0.489583" stop-color="white"/>
<stop offset="1" stop-color="#A7A7A7"/>
</linearGradient>
<linearGradient id="paint3_linear_11_365" x1="34.1105" y1="229.903" x2="60.6105" y2="250.903" gradientUnits="userSpaceOnUse">
<stop stop-color="#A3A3A3"/>
<stop offset="0.5" stop-color="#CACACA"/>
<stop offset="1" stop-color="#A3A3A3"/>
</linearGradient>
<linearGradient id="paint4_linear_11_365" x1="155.857" y1="39.744" x2="177.702" y2="60.89" gradientUnits="userSpaceOnUse">
<stop stop-color="#A7A7A7"/>
<stop offset="0.489583" stop-color="white"/>
<stop offset="1" stop-color="#A3A3A3"/>
</linearGradient>
<linearGradient id="paint5_linear_11_365" x1="272.006" y1="238.59" x2="264.317" y2="209.175" gradientUnits="userSpaceOnUse">
<stop stop-color="#A7A7A7"/>
<stop offset="0.489583" stop-color="white"/>
<stop offset="1" stop-color="#A3A3A3"/>
</linearGradient>
<linearGradient id="paint6_linear_11_365" x1="59.8435" y1="95.8271" x2="67.5324" y2="125.242" gradientUnits="userSpaceOnUse">
<stop stop-color="#A7A7A7"/>
<stop offset="0.489583" stop-color="white"/>
<stop offset="1" stop-color="#A3A3A3"/>
</linearGradient>
<linearGradient id="paint7_linear_11_365" x1="175.992" y1="294.673" x2="154.148" y2="273.527" gradientUnits="userSpaceOnUse">
<stop stop-color="#A7A7A7"/>
<stop offset="0.489583" stop-color="white"/>
<stop offset="1" stop-color="#A3A3A3"/>
</linearGradient>
<linearGradient id="paint8_linear_11_365" x1="301.832" y1="167.066" x2="294.652" y2="163.881" gradientUnits="userSpaceOnUse">
<stop stop-color="#A3A3A3"/>
<stop offset="0.5" stop-color="white"/>
<stop offset="1" stop-color="#D9D9D9"/>
</linearGradient>
<linearGradient id="paint9_linear_11_365" x1="243.565" y1="43.1529" x2="224.606" y2="76.2126" gradientUnits="userSpaceOnUse">
<stop stop-color="#CACACA"/>
<stop offset="0.484375" stop-color="white"/>
<stop offset="1" stop-color="#A7A7A7"/>
</linearGradient>
<linearGradient id="paint10_linear_11_365" x1="243.565" y1="43.1529" x2="224.606" y2="76.2126" gradientUnits="userSpaceOnUse">
<stop stop-color="#CACACA"/>
<stop offset="0.484375" stop-color="white"/>
<stop offset="1" stop-color="#A7A7A7"/>
</linearGradient>
<linearGradient id="paint11_linear_11_365" x1="243.565" y1="43.1529" x2="224.606" y2="76.2126" gradientUnits="userSpaceOnUse">
<stop stop-color="#CACACA"/>
<stop offset="0.484375" stop-color="white"/>
<stop offset="1" stop-color="#A7A7A7"/>
</linearGradient>
<linearGradient id="paint12_linear_11_365" x1="243.565" y1="43.1529" x2="224.606" y2="76.2126" gradientUnits="userSpaceOnUse">
<stop stop-color="#CACACA"/>
<stop offset="0.484375" stop-color="white"/>
<stop offset="1" stop-color="#A7A7A7"/>
</linearGradient>
<linearGradient id="paint13_linear_11_365" x1="243.565" y1="43.1529" x2="224.606" y2="76.2126" gradientUnits="userSpaceOnUse">
<stop stop-color="#CACACA"/>
<stop offset="0.484375" stop-color="white"/>
<stop offset="1" stop-color="#A7A7A7"/>
</linearGradient>
<linearGradient id="paint14_linear_11_365" x1="243.565" y1="43.1529" x2="224.606" y2="76.2126" gradientUnits="userSpaceOnUse">
<stop stop-color="#CACACA"/>
<stop offset="0.484375" stop-color="white"/>
<stop offset="1" stop-color="#A7A7A7"/>
</linearGradient>
<linearGradient id="paint15_linear_11_365" x1="243.565" y1="43.1529" x2="224.606" y2="76.2126" gradientUnits="userSpaceOnUse">
<stop stop-color="#CACACA"/>
<stop offset="0.484375" stop-color="white"/>
<stop offset="1" stop-color="#A7A7A7"/>
</linearGradient>
<linearGradient id="paint16_linear_11_365" x1="243.565" y1="43.1529" x2="224.606" y2="76.2126" gradientUnits="userSpaceOnUse">
<stop stop-color="#CACACA"/>
<stop offset="0.484375" stop-color="white"/>
<stop offset="1" stop-color="#A7A7A7"/>
</linearGradient>
<linearGradient id="paint17_linear_11_365" x1="243.565" y1="43.1529" x2="224.606" y2="76.2126" gradientUnits="userSpaceOnUse">
<stop stop-color="#CACACA"/>
<stop offset="0.484375" stop-color="white"/>
<stop offset="1" stop-color="#A7A7A7"/>
</linearGradient>
<linearGradient id="paint18_linear_11_365" x1="243.565" y1="43.1529" x2="224.606" y2="76.2126" gradientUnits="userSpaceOnUse">
<stop stop-color="#CACACA"/>
<stop offset="0.484375" stop-color="white"/>
<stop offset="1" stop-color="#A7A7A7"/>
</linearGradient>
<linearGradient id="paint19_linear_11_365" x1="243.565" y1="43.1529" x2="224.606" y2="76.2126" gradientUnits="userSpaceOnUse">
<stop stop-color="#CACACA"/>
<stop offset="0.484375" stop-color="white"/>
<stop offset="1" stop-color="#A7A7A7"/>
</linearGradient>
<linearGradient id="paint20_linear_11_365" x1="243.565" y1="43.1529" x2="224.606" y2="76.2126" gradientUnits="userSpaceOnUse">
<stop stop-color="#CACACA"/>
<stop offset="0.484375" stop-color="white"/>
<stop offset="1" stop-color="#A7A7A7"/>
</linearGradient>
<linearGradient id="paint21_linear_11_365" x1="93.6145" y1="42.4135" x2="111.226" y2="76.2106" gradientUnits="userSpaceOnUse">
<stop stop-color="#CACACA"/>
<stop offset="0.484375" stop-color="white"/>
<stop offset="1" stop-color="#A7A7A7"/>
</linearGradient>
<linearGradient id="paint22_linear_11_365" x1="93.6145" y1="42.4135" x2="111.226" y2="76.2106" gradientUnits="userSpaceOnUse">
<stop stop-color="#CACACA"/>
<stop offset="0.484375" stop-color="white"/>
<stop offset="1" stop-color="#A7A7A7"/>
</linearGradient>
<linearGradient id="paint23_linear_11_365" x1="93.6145" y1="42.4135" x2="111.226" y2="76.2106" gradientUnits="userSpaceOnUse">
<stop stop-color="#CACACA"/>
<stop offset="0.484375" stop-color="white"/>
<stop offset="1" stop-color="#A7A7A7"/>
</linearGradient>
<linearGradient id="paint24_linear_11_365" x1="93.6145" y1="42.4135" x2="111.226" y2="76.2106" gradientUnits="userSpaceOnUse">
<stop stop-color="#CACACA"/>
<stop offset="0.484375" stop-color="white"/>
<stop offset="1" stop-color="#A7A7A7"/>
</linearGradient>
<linearGradient id="paint25_linear_11_365" x1="93.6145" y1="42.4135" x2="111.226" y2="76.2106" gradientUnits="userSpaceOnUse">
<stop stop-color="#CACACA"/>
<stop offset="0.484375" stop-color="white"/>
<stop offset="1" stop-color="#A7A7A7"/>
</linearGradient>
<linearGradient id="paint26_linear_11_365" x1="93.6145" y1="42.4135" x2="111.226" y2="76.2106" gradientUnits="userSpaceOnUse">
<stop stop-color="#CACACA"/>
<stop offset="0.484375" stop-color="white"/>
<stop offset="1" stop-color="#A7A7A7"/>
</linearGradient>
<linearGradient id="paint27_linear_11_365" x1="93.6145" y1="42.4135" x2="111.226" y2="76.2106" gradientUnits="userSpaceOnUse">
<stop stop-color="#CACACA"/>
<stop offset="0.484375" stop-color="white"/>
<stop offset="1" stop-color="#A7A7A7"/>
</linearGradient>
<linearGradient id="paint28_linear_11_365" x1="93.6145" y1="42.4135" x2="111.226" y2="76.2106" gradientUnits="userSpaceOnUse">
<stop stop-color="#CACACA"/>
<stop offset="0.484375" stop-color="white"/>
<stop offset="1" stop-color="#A7A7A7"/>
</linearGradient>
<linearGradient id="paint29_linear_11_365" x1="93.6145" y1="42.4135" x2="111.226" y2="76.2106" gradientUnits="userSpaceOnUse">
<stop stop-color="#CACACA"/>
<stop offset="0.484375" stop-color="white"/>
<stop offset="1" stop-color="#A7A7A7"/>
</linearGradient>
<linearGradient id="paint30_linear_11_365" x1="93.6145" y1="42.4135" x2="111.226" y2="76.2106" gradientUnits="userSpaceOnUse">
<stop stop-color="#CACACA"/>
<stop offset="0.484375" stop-color="white"/>
<stop offset="1" stop-color="#A7A7A7"/>
</linearGradient>
<linearGradient id="paint31_linear_11_365" x1="93.6145" y1="42.4135" x2="111.226" y2="76.2106" gradientUnits="userSpaceOnUse">
<stop stop-color="#CACACA"/>
<stop offset="0.484375" stop-color="white"/>
<stop offset="1" stop-color="#A7A7A7"/>
</linearGradient>
<linearGradient id="paint32_linear_11_365" x1="93.6145" y1="42.4135" x2="111.226" y2="76.2106" gradientUnits="userSpaceOnUse">
<stop stop-color="#CACACA"/>
<stop offset="0.484375" stop-color="white"/>
<stop offset="1" stop-color="#A7A7A7"/>
</linearGradient>
<linearGradient id="paint33_linear_11_365" x1="244.57" y1="289.483" x2="223.6" y2="257.661" gradientUnits="userSpaceOnUse">
<stop stop-color="#CACACA"/>
<stop offset="0.484375" stop-color="white"/>
<stop offset="1" stop-color="#A7A7A7"/>
</linearGradient>
<linearGradient id="paint34_linear_11_365" x1="244.57" y1="289.483" x2="223.6" y2="257.661" gradientUnits="userSpaceOnUse">
<stop stop-color="#CACACA"/>
<stop offset="0.484375" stop-color="white"/>
<stop offset="1" stop-color="#A7A7A7"/>
</linearGradient>
<linearGradient id="paint35_linear_11_365" x1="244.57" y1="289.483" x2="223.6" y2="257.661" gradientUnits="userSpaceOnUse">
<stop stop-color="#CACACA"/>
<stop offset="0.484375" stop-color="white"/>
<stop offset="1" stop-color="#A7A7A7"/>
</linearGradient>
<linearGradient id="paint36_linear_11_365" x1="244.57" y1="289.483" x2="223.6" y2="257.661" gradientUnits="userSpaceOnUse">
<stop stop-color="#CACACA"/>
<stop offset="0.484375" stop-color="white"/>
<stop offset="1" stop-color="#A7A7A7"/>
</linearGradient>
<linearGradient id="paint37_linear_11_365" x1="244.57" y1="289.483" x2="223.6" y2="257.661" gradientUnits="userSpaceOnUse">
<stop stop-color="#CACACA"/>
<stop offset="0.484375" stop-color="white"/>
<stop offset="1" stop-color="#A7A7A7"/>
</linearGradient>
<linearGradient id="paint38_linear_11_365" x1="244.57" y1="289.483" x2="223.6" y2="257.661" gradientUnits="userSpaceOnUse">
<stop stop-color="#CACACA"/>
<stop offset="0.484375" stop-color="white"/>
<stop offset="1" stop-color="#A7A7A7"/>
</linearGradient>
<linearGradient id="paint39_linear_11_365" x1="244.57" y1="289.483" x2="223.6" y2="257.661" gradientUnits="userSpaceOnUse">
<stop stop-color="#CACACA"/>
<stop offset="0.484375" stop-color="white"/>
<stop offset="1" stop-color="#A7A7A7"/>
</linearGradient>
<linearGradient id="paint40_linear_11_365" x1="244.57" y1="289.483" x2="223.6" y2="257.661" gradientUnits="userSpaceOnUse">
<stop stop-color="#CACACA"/>
<stop offset="0.484375" stop-color="white"/>
<stop offset="1" stop-color="#A7A7A7"/>
</linearGradient>
<linearGradient id="paint41_linear_11_365" x1="244.57" y1="289.483" x2="223.6" y2="257.661" gradientUnits="userSpaceOnUse">
<stop stop-color="#CACACA"/>
<stop offset="0.484375" stop-color="white"/>
<stop offset="1" stop-color="#A7A7A7"/>
</linearGradient>
<linearGradient id="paint42_linear_11_365" x1="244.57" y1="289.483" x2="223.6" y2="257.661" gradientUnits="userSpaceOnUse">
<stop stop-color="#CACACA"/>
<stop offset="0.484375" stop-color="white"/>
<stop offset="1" stop-color="#A7A7A7"/>
</linearGradient>
<linearGradient id="paint43_linear_11_365" x1="244.57" y1="289.483" x2="223.6" y2="257.661" gradientUnits="userSpaceOnUse">
<stop stop-color="#CACACA"/>
<stop offset="0.484375" stop-color="white"/>
<stop offset="1" stop-color="#A7A7A7"/>
</linearGradient>
<linearGradient id="paint44_linear_11_365" x1="244.57" y1="289.483" x2="223.6" y2="257.661" gradientUnits="userSpaceOnUse">
<stop stop-color="#CACACA"/>
<stop offset="0.484375" stop-color="white"/>
<stop offset="1" stop-color="#A7A7A7"/>
</linearGradient>
<linearGradient id="paint45_linear_11_365" x1="95.5872" y1="292.383" x2="114.269" y2="259.166" gradientUnits="userSpaceOnUse">
<stop stop-color="#CACACA"/>
<stop offset="0.484375" stop-color="white"/>
<stop offset="1" stop-color="#A7A7A7"/>
</linearGradient>
<linearGradient id="paint46_linear_11_365" x1="95.5872" y1="292.383" x2="114.269" y2="259.166" gradientUnits="userSpaceOnUse">
<stop stop-color="#CACACA"/>
<stop offset="0.484375" stop-color="white"/>
<stop offset="1" stop-color="#A7A7A7"/>
</linearGradient>
<linearGradient id="paint47_linear_11_365" x1="95.5872" y1="292.383" x2="114.269" y2="259.166" gradientUnits="userSpaceOnUse">
<stop stop-color="#CACACA"/>
<stop offset="0.484375" stop-color="white"/>
<stop offset="1" stop-color="#A7A7A7"/>
</linearGradient>
<linearGradient id="paint48_linear_11_365" x1="95.5872" y1="292.383" x2="114.269" y2="259.166" gradientUnits="userSpaceOnUse">
<stop stop-color="#CACACA"/>
<stop offset="0.484375" stop-color="white"/>
<stop offset="1" stop-color="#A7A7A7"/>
</linearGradient>
<linearGradient id="paint49_linear_11_365" x1="95.5872" y1="292.383" x2="114.269" y2="259.166" gradientUnits="userSpaceOnUse">
<stop stop-color="#CACACA"/>
<stop offset="0.484375" stop-color="white"/>
<stop offset="1" stop-color="#A7A7A7"/>
</linearGradient>
<linearGradient id="paint50_linear_11_365" x1="95.5872" y1="292.383" x2="114.269" y2="259.166" gradientUnits="userSpaceOnUse">
<stop stop-color="#CACACA"/>
<stop offset="0.484375" stop-color="white"/>
<stop offset="1" stop-color="#A7A7A7"/>
</linearGradient>
<linearGradient id="paint51_linear_11_365" x1="95.5872" y1="292.383" x2="114.269" y2="259.166" gradientUnits="userSpaceOnUse">
<stop stop-color="#CACACA"/>
<stop offset="0.484375" stop-color="white"/>
<stop offset="1" stop-color="#A7A7A7"/>
</linearGradient>
<linearGradient id="paint52_linear_11_365" x1="95.5872" y1="292.383" x2="114.269" y2="259.166" gradientUnits="userSpaceOnUse">
<stop stop-color="#CACACA"/>
<stop offset="0.484375" stop-color="white"/>
<stop offset="1" stop-color="#A7A7A7"/>
</linearGradient>
<linearGradient id="paint53_linear_11_365" x1="95.5872" y1="292.383" x2="114.269" y2="259.166" gradientUnits="userSpaceOnUse">
<stop stop-color="#CACACA"/>
<stop offset="0.484375" stop-color="white"/>
<stop offset="1" stop-color="#A7A7A7"/>
</linearGradient>
<linearGradient id="paint54_linear_11_365" x1="95.5872" y1="292.383" x2="114.269" y2="259.166" gradientUnits="userSpaceOnUse">
<stop stop-color="#CACACA"/>
<stop offset="0.484375" stop-color="white"/>
<stop offset="1" stop-color="#A7A7A7"/>
</linearGradient>
<linearGradient id="paint55_linear_11_365" x1="95.5872" y1="292.383" x2="114.269" y2="259.166" gradientUnits="userSpaceOnUse">
<stop stop-color="#CACACA"/>
<stop offset="0.484375" stop-color="white"/>
<stop offset="1" stop-color="#A7A7A7"/>
</linearGradient>
<linearGradient id="paint56_linear_11_365" x1="95.5872" y1="292.383" x2="114.269" y2="259.166" gradientUnits="userSpaceOnUse">
<stop stop-color="#CACACA"/>
<stop offset="0.484375" stop-color="white"/>
<stop offset="1" stop-color="#A7A7A7"/>
</linearGradient>
<radialGradient id="paint57_radial_11_365" cx="0" cy="0" r="1" gradientUnits="userSpaceOnUse" gradientTransform="translate(204.156 110.498) rotate(90) scale(4.60894 5.02793)">
<stop stop-color="#D9D9D9"/>
<stop offset="0.71875" stop-color="#D9D9D9" stop-opacity="0"/>
</radialGradient>
<radialGradient id="paint58_radial_11_365" cx="0" cy="0" r="1" gradientUnits="userSpaceOnUse" gradientTransform="translate(234.534 128.282) rotate(90) scale(3.35196 3.77095)">
<stop stop-color="#D9D9D9"/>
<stop offset="0.71875" stop-color="#D9D9D9" stop-opacity="0"/>
</radialGradient>
<radialGradient id="paint59_radial_11_365" cx="0" cy="0" r="1" gradientUnits="userSpaceOnUse" gradientTransform="translate(181.026 126.228) rotate(90) scale(2.93296)">
<stop stop-color="#D9D9D9"/>
<stop offset="0.71875" stop-color="#D9D9D9" stop-opacity="0"/>
</radialGradient>
<radialGradient id="paint60_radial_11_365" cx="0" cy="0" r="1" gradientUnits="userSpaceOnUse" gradientTransform="translate(212.775 163.527) rotate(90) scale(5.86592)">
<stop stop-color="#D9D9D9"/>
<stop offset="0.71875" stop-color="#D9D9D9" stop-opacity="0"/>
</radialGradient>
<radialGradient id="paint61_radial_11_365" cx="0" cy="0" r="1" gradientUnits="userSpaceOnUse" gradientTransform="translate(237.555 146.439) rotate(90) scale(2.09497 2.51397)">
<stop stop-color="#D9D9D9"/>
<stop offset="0.71875" stop-color="#D9D9D9" stop-opacity="0"/>
</radialGradient>
<radialGradient id="paint62_radial_11_365" cx="0" cy="0" r="1" gradientUnits="userSpaceOnUse" gradientTransform="translate(189.069 158.769) rotate(90) scale(2.93296)">
<stop stop-color="#D9D9D9"/>
<stop offset="0.71875" stop-color="#D9D9D9" stop-opacity="0"/>
</radialGradient>
<radialGradient id="paint63_radial_11_365" cx="0" cy="0" r="1" gradientUnits="userSpaceOnUse" gradientTransform="translate(207.122 134.021) rotate(90) scale(1.67598 1.25698)">
<stop stop-color="#D9D9D9"/>
<stop offset="0.71875" stop-color="#D9D9D9" stop-opacity="0"/>
</radialGradient>
<radialGradient id="paint64_radial_11_365" cx="0" cy="0" r="1" gradientUnits="userSpaceOnUse" gradientTransform="translate(179.065 145.186) rotate(90) scale(1.25698 2.51397)">
<stop stop-color="#D9D9D9"/>
<stop offset="0.71875" stop-color="#D9D9D9" stop-opacity="0"/>
</radialGradient>
<radialGradient id="paint65_radial_11_365" cx="0" cy="0" r="1" gradientUnits="userSpaceOnUse" gradientTransform="translate(225.804 162.81) rotate(90) scale(2.93296 1.25698)">
<stop stop-color="#D9D9D9"/>
<stop offset="0.71875" stop-color="#D9D9D9" stop-opacity="0"/>
</radialGradient>
<radialGradient id="paint66_radial_11_365" cx="0" cy="0" r="1" gradientUnits="userSpaceOnUse" gradientTransform="translate(215.223 205.564) rotate(90) scale(2.51397)">
<stop stop-color="#D9D9D9"/>
<stop offset="0.71875" stop-color="#D9D9D9" stop-opacity="0"/>
</radialGradient>
<radialGradient id="paint67_radial_11_365" cx="0" cy="0" r="1" gradientUnits="userSpaceOnUse" gradientTransform="translate(238.683 196.054) rotate(90) scale(2.93296 2.09497)">
<stop stop-color="#D9D9D9"/>
<stop offset="0.71875" stop-color="#D9D9D9" stop-opacity="0"/>
</radialGradient>
<radialGradient id="paint68_radial_11_365" cx="0" cy="0" r="1" gradientUnits="userSpaceOnUse" gradientTransform="translate(246.8 170.223) rotate(90) scale(4.60894)">
<stop stop-color="#D9D9D9"/>
<stop offset="0.71875" stop-color="#D9D9D9" stop-opacity="0"/>
</radialGradient>
<radialGradient id="paint69_radial_11_365" cx="0" cy="0" r="1" gradientUnits="userSpaceOnUse" gradientTransform="translate(150.638 134.948) rotate(90) scale(2.93296 2.51397)">
<stop stop-color="#D9D9D9"/>
<stop offset="0.71875" stop-color="#D9D9D9" stop-opacity="0"/>
</radialGradient>
<radialGradient id="paint70_radial_11_365" cx="0" cy="0" r="1" gradientUnits="userSpaceOnUse" gradientTransform="translate(165.944 142.041) rotate(90) scale(1.25698)">
<stop stop-color="#D9D9D9"/>
<stop offset="0.71875" stop-color="#D9D9D9" stop-opacity="0"/>
</radialGradient>
<radialGradient id="paint71_radial_11_365" cx="0" cy="0" r="1" gradientUnits="userSpaceOnUse" gradientTransform="translate(156.021 158.823) rotate(90) scale(1.25698 1.67598)">
<stop stop-color="#D9D9D9"/>
<stop offset="0.71875" stop-color="#D9D9D9" stop-opacity="0"/>
</radialGradient>
<radialGradient id="paint72_radial_11_365" cx="0" cy="0" r="1" gradientUnits="userSpaceOnUse" gradientTransform="translate(152.534 186.272) rotate(90) scale(8.79888 7.96089)">
<stop stop-color="#D9D9D9"/>
<stop offset="0.71875" stop-color="#D9D9D9" stop-opacity="0"/>
</radialGradient>
<radialGradient id="paint73_radial_11_365" cx="0" cy="0" r="1" gradientUnits="userSpaceOnUse" gradientTransform="translate(183.232 198.365) rotate(90) scale(7.96089 9.21788)">
<stop stop-color="#D9D9D9"/>
<stop offset="0.71875" stop-color="#D9D9D9" stop-opacity="0"/>
</radialGradient>
<radialGradient id="paint74_radial_11_365" cx="0" cy="0" r="1" gradientUnits="userSpaceOnUse" gradientTransform="translate(201.495 178.659) rotate(90) scale(1.25698 2.51397)">
<stop stop-color="#D9D9D9"/>
<stop offset="0.71875" stop-color="#D9D9D9" stop-opacity="0"/>
</radialGradient>
<radialGradient id="paint75_radial_11_365" cx="0" cy="0" r="1" gradientUnits="userSpaceOnUse" gradientTransform="translate(196.216 214.923) rotate(90) scale(3.35196 2.93296)">
<stop stop-color="#D9D9D9"/>
<stop offset="0.71875" stop-color="#D9D9D9" stop-opacity="0"/>
</radialGradient>
<radialGradient id="paint76_radial_11_365" cx="0" cy="0" r="1" gradientUnits="userSpaceOnUse" gradientTransform="translate(172.981 170.514) rotate(90) scale(2.09497)">
<stop stop-color="#D9D9D9"/>
<stop offset="0.71875" stop-color="#D9D9D9" stop-opacity="0"/>
</radialGradient>
<radialGradient id="paint77_radial_11_365" cx="0" cy="0" r="1" gradientUnits="userSpaceOnUse" gradientTransform="translate(167.377 206.514) rotate(90) scale(2.51397 2.09497)">
<stop stop-color="#D9D9D9"/>
<stop offset="0.71875" stop-color="#D9D9D9" stop-opacity="0"/>
</radialGradient>
<linearGradient id="paint78_linear_11_365" x1="32.8307" y1="168.46" x2="40.01" y2="165.275" gradientUnits="userSpaceOnUse">
<stop stop-color="#A3A3A3"/>
<stop offset="0.5" stop-color="white"/>
<stop offset="1" stop-color="#D9D9D9"/>
</linearGradient>
</defs>
</svg>
