<svg width="253" height="253" viewBox="0 0 253 253" fill="none" xmlns="http://www.w3.org/2000/svg">
<circle cx="126.5" cy="126.5" r="123.5" fill="#010101" stroke="url(#paint0_linear_7_116)" stroke-width="6"/>
<path d="M124.987 15.0759C126.342 12.7848 129.658 12.7848 131.013 15.0759L142.186 33.9683C143.566 36.3014 141.884 39.25 139.174 39.25H116.826C114.116 39.25 112.434 36.3014 113.814 33.9683L124.987 15.0759Z" stroke="url(#paint1_linear_7_116)"/>
<path d="M124.987 236.924C126.342 239.215 129.658 239.215 131.013 236.924L142.186 218.032C143.566 215.699 141.884 212.75 139.174 212.75H116.826C114.116 212.75 112.434 215.699 113.814 218.032L124.987 236.924Z" stroke="url(#paint2_linear_7_116)"/>
<path d="M237.924 123.987C240.215 125.342 240.215 128.658 237.924 130.013L219.032 141.186C216.699 142.566 213.75 140.884 213.75 138.174L213.75 115.826C213.75 113.116 216.699 111.434 219.032 112.814L237.924 123.987Z" stroke="url(#paint3_linear_7_116)"/>
<path d="M205.569 47.4367C208.16 46.8303 210.454 49.2242 209.737 51.7875L203.824 72.9253C203.093 75.5358 199.801 76.3611 197.925 74.4036L182.466 58.2663C180.591 56.3088 181.557 53.0547 184.197 52.4371L205.569 47.4367Z" stroke="url(#paint4_linear_7_116)"/>
<path d="M208.569 203.499C211.16 204.106 213.454 201.712 212.737 199.148L206.824 178.011C206.093 175.4 202.801 174.575 200.925 176.532L185.466 192.67C183.591 194.627 184.557 197.881 187.197 198.499L208.569 203.499Z" stroke="url(#paint5_linear_7_116)"/>
<path d="M50.2757 45.0153C47.6976 44.3534 45.3534 46.6976 46.0153 49.2757L51.4734 70.5356C52.1474 73.1611 55.4216 74.0569 57.3383 72.1401L73.1401 56.3383C75.0569 54.4216 74.1611 51.1474 71.5356 50.4734L50.2757 45.0153Z" stroke="url(#paint6_linear_7_116)"/>
<path d="M51.1675 207.675C48.5894 208.336 46.2452 205.992 46.9071 203.414L52.3652 182.154C53.0392 179.529 56.3134 178.633 58.2301 180.55L74.0319 196.352C75.9486 198.268 75.0529 201.542 72.4274 202.216L51.1675 207.675Z" stroke="url(#paint7_linear_7_116)"/>
<path d="M17.0759 123.987C14.7848 125.342 14.7848 128.658 17.0759 130.013L35.9683 141.186C38.3014 142.566 41.25 140.884 41.25 138.174L41.25 115.826C41.25 113.116 38.3014 111.434 35.9683 112.814L17.0759 123.987Z" stroke="url(#paint8_linear_7_116)"/>
<circle cx="89" cy="33" r="13.5" stroke="url(#paint9_linear_7_116)"/>
<circle cx="164" cy="33" r="13.5" stroke="url(#paint10_linear_7_116)"/>
<circle cx="222" cy="89" r="13.5" stroke="url(#paint11_linear_7_116)"/>
<circle cx="222" cy="162" r="13.5" stroke="url(#paint12_linear_7_116)"/>
<circle cx="169" cy="219" r="13.5" stroke="url(#paint13_linear_7_116)"/>
<circle cx="88" cy="219" r="13.5" stroke="url(#paint14_linear_7_116)"/>
<circle cx="34" cy="162" r="13.5" stroke="url(#paint15_linear_7_116)"/>
<circle cx="34" cy="89" r="13.5" stroke="url(#paint16_linear_7_116)"/>
<circle cx="127" cy="125" r="75" fill="url(#paint17_linear_7_116)"/>
<circle cx="127" cy="125" r="69.9721" fill="url(#paint18_linear_7_116)"/>
<ellipse cx="99.7654" cy="79.7486" rx="5.02793" ry="4.60894" fill="url(#paint19_radial_7_116)"/>
<ellipse cx="134.542" cy="74.3017" rx="3.77095" ry="3.35196" fill="url(#paint20_radial_7_116)"/>
<circle cx="91.8045" cy="106.564" r="2.93296" fill="url(#paint21_radial_7_116)"/>
<circle cx="139.989" cy="115.363" r="5.86592" fill="url(#paint22_radial_7_116)"/>
<ellipse cx="148.369" cy="86.4525" rx="2.51397" ry="2.09497" fill="url(#paint23_radial_7_116)"/>
<circle cx="118.62" cy="126.676" r="2.93296" fill="url(#paint24_radial_7_116)"/>
<ellipse cx="116.944" cy="96.0894" rx="1.25698" ry="1.67598" fill="url(#paint25_radial_7_116)"/>
<ellipse cx="102.279" cy="122.486" rx="2.51397" ry="1.25698" fill="url(#paint26_radial_7_116)"/>
<ellipse cx="149.626" cy="106.564" rx="1.25698" ry="2.93296" fill="url(#paint27_radial_7_116)"/>
<circle cx="168.48" cy="146.369" r="2.51397" fill="url(#paint28_radial_7_116)"/>
<ellipse cx="180.631" cy="124.162" rx="2.09497" ry="2.93296" fill="url(#paint29_radial_7_116)"/>
<circle cx="170.575" cy="99.0223" r="4.60894" fill="url(#paint30_radial_7_116)"/>
<ellipse cx="73.7877" cy="132.542" rx="2.51397" ry="2.93296" fill="url(#paint31_radial_7_116)"/>
<circle cx="90.1285" cy="128.352" r="1.25698" fill="url(#paint32_radial_7_116)"/>
<ellipse cx="93.0614" cy="147.626" rx="1.67598" ry="1.25698" fill="url(#paint33_radial_7_116)"/>
<ellipse cx="107.726" cy="171.089" rx="7.96089" ry="8.79888" fill="url(#paint34_radial_7_116)"/>
<ellipse cx="139.151" cy="161.034" rx="9.21788" ry="7.96089" fill="url(#paint35_radial_7_116)"/>
<ellipse cx="140.827" cy="134.218" rx="2.51397" ry="1.25698" fill="url(#paint36_radial_7_116)"/>
<ellipse cx="159.682" cy="165.642" rx="2.93296" ry="3.35196" fill="url(#paint37_radial_7_116)"/>
<circle cx="113.592" cy="145.95" r="2.09497" fill="url(#paint38_radial_7_116)"/>
<ellipse cx="132.028" cy="177.374" rx="2.09497" ry="2.51397" fill="url(#paint39_radial_7_116)"/>
<defs>
<linearGradient id="paint0_linear_7_116" x1="126.5" y1="3" x2="126.5" y2="250" gradientUnits="userSpaceOnUse">
<stop offset="0.25" stop-color="#BC9E00"/>
<stop offset="0.526042" stop-color="#F8F8F8"/>
<stop offset="0.807292" stop-color="#F0BF12"/>
</linearGradient>
<linearGradient id="paint1_linear_7_116" x1="128" y1="9" x2="128" y2="50" gradientUnits="userSpaceOnUse">
<stop offset="0.25" stop-color="#838383"/>
<stop offset="0.546875" stop-color="white"/>
<stop offset="0.776042" stop-color="#686868"/>
</linearGradient>
<linearGradient id="paint2_linear_7_116" x1="128" y1="243" x2="128" y2="202" gradientUnits="userSpaceOnUse">
<stop offset="0.25" stop-color="#686868"/>
<stop offset="0.546875" stop-color="white"/>
<stop offset="0.776042" stop-color="#838383"/>
</linearGradient>
<linearGradient id="paint3_linear_7_116" x1="244" y1="127" x2="203" y2="127" gradientUnits="userSpaceOnUse">
<stop offset="0.25" stop-color="#838383"/>
<stop offset="0.546875" stop-color="#D9D9D9"/>
<stop offset="0.776042" stop-color="#686868"/>
</linearGradient>
<linearGradient id="paint4_linear_7_116" x1="212.04" y1="45.409" x2="182.433" y2="73.7714" gradientUnits="userSpaceOnUse">
<stop offset="0.25" stop-color="#686868"/>
<stop offset="0.546875" stop-color="#FFFCFB" stop-opacity="0.69"/>
<stop offset="0.776042" stop-color="#838383"/>
</linearGradient>
<linearGradient id="paint5_linear_7_116" x1="215.04" y1="205.527" x2="185.433" y2="177.165" gradientUnits="userSpaceOnUse">
<stop offset="0.25" stop-color="#838383"/>
<stop offset="0.546875" stop-color="#F8F8F8"/>
<stop offset="0.776042" stop-color="#686868"/>
</linearGradient>
<linearGradient id="paint6_linear_7_116" x1="43.8492" y1="42.8492" x2="72.8406" y2="71.8406" gradientUnits="userSpaceOnUse">
<stop offset="0.25" stop-color="#838383"/>
<stop offset="0.546875" stop-color="white"/>
<stop offset="0.776042" stop-color="#686868"/>
</linearGradient>
<linearGradient id="paint7_linear_7_116" x1="44.741" y1="209.841" x2="73.7324" y2="180.849" gradientUnits="userSpaceOnUse">
<stop offset="0.25" stop-color="#838383"/>
<stop offset="0.546875" stop-color="white"/>
<stop offset="0.776042" stop-color="#686868"/>
</linearGradient>
<linearGradient id="paint8_linear_7_116" x1="11" y1="127" x2="52" y2="127" gradientUnits="userSpaceOnUse">
<stop offset="0.25" stop-color="#686868"/>
<stop offset="0.546875" stop-color="white"/>
<stop offset="0.776042" stop-color="#838383"/>
</linearGradient>
<linearGradient id="paint9_linear_7_116" x1="89" y1="19" x2="89" y2="47" gradientUnits="userSpaceOnUse">
<stop offset="0.130208" stop-color="#686868"/>
<stop offset="0.484375" stop-color="white"/>
<stop offset="0.817708" stop-color="#838383"/>
</linearGradient>
<linearGradient id="paint10_linear_7_116" x1="164" y1="19" x2="164" y2="47" gradientUnits="userSpaceOnUse">
<stop offset="0.130208" stop-color="#838383"/>
<stop offset="0.484375" stop-color="#FFFCFB" stop-opacity="0.69"/>
<stop offset="0.817708" stop-color="#686868"/>
</linearGradient>
<linearGradient id="paint11_linear_7_116" x1="222" y1="75" x2="222" y2="103" gradientUnits="userSpaceOnUse">
<stop offset="0.130208" stop-color="#686868"/>
<stop offset="0.484375" stop-color="#F8F8F8"/>
<stop offset="0.817708" stop-color="#838383"/>
</linearGradient>
<linearGradient id="paint12_linear_7_116" x1="222" y1="148" x2="222" y2="176" gradientUnits="userSpaceOnUse">
<stop offset="0.130208" stop-color="#838383"/>
<stop offset="0.484375" stop-color="#F8F8F8"/>
<stop offset="0.817708" stop-color="#686868"/>
</linearGradient>
<linearGradient id="paint13_linear_7_116" x1="169" y1="205" x2="169" y2="233" gradientUnits="userSpaceOnUse">
<stop offset="0.130208" stop-color="#686868"/>
<stop offset="0.484375" stop-color="white"/>
<stop offset="0.817708" stop-color="#838383"/>
</linearGradient>
<linearGradient id="paint14_linear_7_116" x1="88" y1="205" x2="88" y2="233" gradientUnits="userSpaceOnUse">
<stop offset="0.130208" stop-color="#686868"/>
<stop offset="0.484375" stop-color="white"/>
<stop offset="0.817708" stop-color="#838383"/>
</linearGradient>
<linearGradient id="paint15_linear_7_116" x1="34" y1="148" x2="34" y2="176" gradientUnits="userSpaceOnUse">
<stop offset="0.130208" stop-color="#686868"/>
<stop offset="0.484375" stop-color="#FFFCFB" stop-opacity="0.69"/>
<stop offset="0.817708" stop-color="#838383"/>
</linearGradient>
<linearGradient id="paint16_linear_7_116" x1="34" y1="75" x2="34" y2="103" gradientUnits="userSpaceOnUse">
<stop offset="0.130208" stop-color="#838383"/>
<stop offset="0.484375" stop-color="white"/>
<stop offset="0.817708" stop-color="#686868"/>
</linearGradient>
<linearGradient id="paint17_linear_7_116" x1="56.6089" y1="59.6369" x2="167.642" y2="211.732" gradientUnits="userSpaceOnUse">
<stop offset="0.265484" stop-color="#838383"/>
<stop offset="0.466855" stop-color="white"/>
<stop offset="0.596041" stop-color="#686868"/>
</linearGradient>
<linearGradient id="paint18_linear_7_116" x1="127" y1="55.0279" x2="127" y2="194.972" gradientUnits="userSpaceOnUse">
<stop/>
<stop offset="1" stop-color="#560099"/>
</linearGradient>
<radialGradient id="paint19_radial_7_116" cx="0" cy="0" r="1" gradientUnits="userSpaceOnUse" gradientTransform="translate(99.7654 79.7486) rotate(90) scale(4.60894 5.02793)">
<stop stop-color="#D9D9D9"/>
<stop offset="0.71875" stop-color="#D9D9D9" stop-opacity="0"/>
</radialGradient>
<radialGradient id="paint20_radial_7_116" cx="0" cy="0" r="1" gradientUnits="userSpaceOnUse" gradientTransform="translate(134.542 74.3017) rotate(90) scale(3.35196 3.77095)">
<stop stop-color="#D9D9D9"/>
<stop offset="0.71875" stop-color="#D9D9D9" stop-opacity="0"/>
</radialGradient>
<radialGradient id="paint21_radial_7_116" cx="0" cy="0" r="1" gradientUnits="userSpaceOnUse" gradientTransform="translate(91.8045 106.564) rotate(90) scale(2.93296)">
<stop stop-color="#D9D9D9"/>
<stop offset="0.71875" stop-color="#D9D9D9" stop-opacity="0"/>
</radialGradient>
<radialGradient id="paint22_radial_7_116" cx="0" cy="0" r="1" gradientUnits="userSpaceOnUse" gradientTransform="translate(139.989 115.363) rotate(90) scale(5.86592)">
<stop stop-color="#D9D9D9"/>
<stop offset="0.71875" stop-color="#D9D9D9" stop-opacity="0"/>
</radialGradient>
<radialGradient id="paint23_radial_7_116" cx="0" cy="0" r="1" gradientUnits="userSpaceOnUse" gradientTransform="translate(148.369 86.4525) rotate(90) scale(2.09497 2.51397)">
<stop stop-color="#D9D9D9"/>
<stop offset="0.71875" stop-color="#D9D9D9" stop-opacity="0"/>
</radialGradient>
<radialGradient id="paint24_radial_7_116" cx="0" cy="0" r="1" gradientUnits="userSpaceOnUse" gradientTransform="translate(118.62 126.676) rotate(90) scale(2.93296)">
<stop stop-color="#D9D9D9"/>
<stop offset="0.71875" stop-color="#D9D9D9" stop-opacity="0"/>
</radialGradient>
<radialGradient id="paint25_radial_7_116" cx="0" cy="0" r="1" gradientUnits="userSpaceOnUse" gradientTransform="translate(116.944 96.0894) rotate(90) scale(1.67598 1.25698)">
<stop stop-color="#D9D9D9"/>
<stop offset="0.71875" stop-color="#D9D9D9" stop-opacity="0"/>
</radialGradient>
<radialGradient id="paint26_radial_7_116" cx="0" cy="0" r="1" gradientUnits="userSpaceOnUse" gradientTransform="translate(102.279 122.486) rotate(90) scale(1.25698 2.51397)">
<stop stop-color="#D9D9D9"/>
<stop offset="0.71875" stop-color="#D9D9D9" stop-opacity="0"/>
</radialGradient>
<radialGradient id="paint27_radial_7_116" cx="0" cy="0" r="1" gradientUnits="userSpaceOnUse" gradientTransform="translate(149.626 106.564) rotate(90) scale(2.93296 1.25698)">
<stop stop-color="#D9D9D9"/>
<stop offset="0.71875" stop-color="#D9D9D9" stop-opacity="0"/>
</radialGradient>
<radialGradient id="paint28_radial_7_116" cx="0" cy="0" r="1" gradientUnits="userSpaceOnUse" gradientTransform="translate(168.48 146.369) rotate(90) scale(2.51397)">
<stop stop-color="#D9D9D9"/>
<stop offset="0.71875" stop-color="#D9D9D9" stop-opacity="0"/>
</radialGradient>
<radialGradient id="paint29_radial_7_116" cx="0" cy="0" r="1" gradientUnits="userSpaceOnUse" gradientTransform="translate(180.631 124.162) rotate(90) scale(2.93296 2.09497)">
<stop stop-color="#D9D9D9"/>
<stop offset="0.71875" stop-color="#D9D9D9" stop-opacity="0"/>
</radialGradient>
<radialGradient id="paint30_radial_7_116" cx="0" cy="0" r="1" gradientUnits="userSpaceOnUse" gradientTransform="translate(170.575 99.0223) rotate(90) scale(4.60894)">
<stop stop-color="#D9D9D9"/>
<stop offset="0.71875" stop-color="#D9D9D9" stop-opacity="0"/>
</radialGradient>
<radialGradient id="paint31_radial_7_116" cx="0" cy="0" r="1" gradientUnits="userSpaceOnUse" gradientTransform="translate(73.7877 132.542) rotate(90) scale(2.93296 2.51397)">
<stop stop-color="#D9D9D9"/>
<stop offset="0.71875" stop-color="#D9D9D9" stop-opacity="0"/>
</radialGradient>
<radialGradient id="paint32_radial_7_116" cx="0" cy="0" r="1" gradientUnits="userSpaceOnUse" gradientTransform="translate(90.1285 128.352) rotate(90) scale(1.25698)">
<stop stop-color="#D9D9D9"/>
<stop offset="0.71875" stop-color="#D9D9D9" stop-opacity="0"/>
</radialGradient>
<radialGradient id="paint33_radial_7_116" cx="0" cy="0" r="1" gradientUnits="userSpaceOnUse" gradientTransform="translate(93.0614 147.626) rotate(90) scale(1.25698 1.67598)">
<stop stop-color="#D9D9D9"/>
<stop offset="0.71875" stop-color="#D9D9D9" stop-opacity="0"/>
</radialGradient>
<radialGradient id="paint34_radial_7_116" cx="0" cy="0" r="1" gradientUnits="userSpaceOnUse" gradientTransform="translate(107.726 171.089) rotate(90) scale(8.79888 7.96089)">
<stop stop-color="#D9D9D9"/>
<stop offset="0.71875" stop-color="#D9D9D9" stop-opacity="0"/>
</radialGradient>
<radialGradient id="paint35_radial_7_116" cx="0" cy="0" r="1" gradientUnits="userSpaceOnUse" gradientTransform="translate(139.151 161.034) rotate(90) scale(7.96089 9.21788)">
<stop stop-color="#D9D9D9"/>
<stop offset="0.71875" stop-color="#D9D9D9" stop-opacity="0"/>
</radialGradient>
<radialGradient id="paint36_radial_7_116" cx="0" cy="0" r="1" gradientUnits="userSpaceOnUse" gradientTransform="translate(140.827 134.218) rotate(90) scale(1.25698 2.51397)">
<stop stop-color="#D9D9D9"/>
<stop offset="0.71875" stop-color="#D9D9D9" stop-opacity="0"/>
</radialGradient>
<radialGradient id="paint37_radial_7_116" cx="0" cy="0" r="1" gradientUnits="userSpaceOnUse" gradientTransform="translate(159.682 165.642) rotate(90) scale(3.35196 2.93296)">
<stop stop-color="#D9D9D9"/>
<stop offset="0.71875" stop-color="#D9D9D9" stop-opacity="0"/>
</radialGradient>
<radialGradient id="paint38_radial_7_116" cx="0" cy="0" r="1" gradientUnits="userSpaceOnUse" gradientTransform="translate(113.592 145.95) rotate(90) scale(2.09497)">
<stop stop-color="#D9D9D9"/>
<stop offset="0.71875" stop-color="#D9D9D9" stop-opacity="0"/>
</radialGradient>
<radialGradient id="paint39_radial_7_116" cx="0" cy="0" r="1" gradientUnits="userSpaceOnUse" gradientTransform="translate(132.028 177.374) rotate(90) scale(2.51397 2.09497)">
<stop stop-color="#D9D9D9"/>
<stop offset="0.71875" stop-color="#D9D9D9" stop-opacity="0"/>
</radialGradient>
</defs>
</svg>
