<svg width="253" height="253" viewBox="0 0 253 253" fill="none" xmlns="http://www.w3.org/2000/svg">
<circle cx="126.5" cy="126.5" r="123.5" fill="#010101" stroke="url(#paint0_linear_9_249)" stroke-width="6"/>
<circle cx="88" cy="34" r="13.5" fill="url(#paint1_linear_9_249)" stroke="url(#paint2_linear_9_249)"/>
<circle cx="163" cy="34" r="13.5" fill="url(#paint3_linear_9_249)" stroke="url(#paint4_linear_9_249)"/>
<circle cx="221" cy="90" r="13.5" fill="url(#paint5_linear_9_249)" stroke="url(#paint6_linear_9_249)"/>
<circle cx="221" cy="163" r="13.5" fill="url(#paint7_linear_9_249)" stroke="url(#paint8_linear_9_249)"/>
<circle cx="168" cy="220" r="13.5" fill="url(#paint9_linear_9_249)" stroke="url(#paint10_linear_9_249)"/>
<circle cx="87" cy="220" r="13.5" fill="url(#paint11_linear_9_249)" stroke="url(#paint12_linear_9_249)"/>
<circle cx="33" cy="163" r="13.5" fill="url(#paint13_linear_9_249)" stroke="url(#paint14_linear_9_249)"/>
<circle cx="33" cy="90" r="13.5" fill="url(#paint15_linear_9_249)" stroke="url(#paint16_linear_9_249)"/>
<path d="M129.013 16.0759L140.186 34.9683C141.566 37.3014 139.884 40.25 137.174 40.25H114.826C112.116 40.25 110.434 37.3014 111.814 34.9683L122.987 16.0759C124.342 13.7848 127.658 13.7848 129.013 16.0759Z" stroke="url(#paint17_linear_9_249)"/>
<path d="M130.013 237.924L141.186 219.032C142.566 216.699 140.884 213.75 138.174 213.75H115.826C113.116 213.75 111.434 216.699 112.814 219.032L123.987 237.924C125.342 240.215 128.658 240.215 130.013 237.924Z" stroke="url(#paint18_linear_9_249)"/>
<path d="M235.924 131.013L217.032 142.186C214.699 143.566 211.75 141.884 211.75 139.174L211.75 116.826C211.75 114.116 214.699 112.434 217.032 113.814L235.924 124.987C238.215 126.342 238.215 129.658 235.924 131.013Z" stroke="url(#paint19_linear_9_249)"/>
<path d="M207.737 52.7875L201.824 73.9254C201.093 76.5358 197.801 77.3611 195.925 75.4036L180.466 59.2663C178.591 57.3088 179.557 54.0547 182.197 53.4371L203.569 48.4367C206.16 47.8303 208.454 50.2242 207.737 52.7875Z" stroke="url(#paint20_linear_9_249)"/>
<path d="M210.737 200.148L204.824 179.011C204.093 176.4 200.801 175.575 198.925 177.532L183.466 193.67C181.591 195.627 182.557 198.881 185.197 199.499L206.569 204.499C209.16 205.106 211.454 202.712 210.737 200.148Z" stroke="url(#paint21_linear_9_249)"/>
<path d="M44.0153 50.2757L49.4734 71.5356C50.1474 74.1611 53.4216 75.0569 55.3383 73.1401L71.1401 57.3383C73.0569 55.4216 72.1611 52.1474 69.5356 51.4734L48.2757 46.0153C45.6976 45.3534 43.3534 47.6976 44.0153 50.2757Z" stroke="url(#paint22_linear_9_249)"/>
<path d="M44.9071 204.414L50.3652 183.154C51.0392 180.529 54.3134 179.633 56.2301 181.55L72.0319 197.352C73.9486 199.268 73.0529 202.542 70.4274 203.217L49.1675 208.675C46.5894 209.336 44.2452 206.992 44.9071 204.414Z" stroke="url(#paint23_linear_9_249)"/>
<path d="M15.0759 131.013L33.9683 142.186C36.3014 143.566 39.25 141.884 39.25 139.174L39.25 116.826C39.25 114.116 36.3014 112.434 33.9683 113.814L15.0759 124.987C12.7848 126.342 12.7848 129.658 15.0759 131.013Z" stroke="url(#paint24_linear_9_249)"/>
<path d="M202 126.5C148.5 125 169.197 125 127.5 125C85.8025 125 127.5 125 51 126.5C51 84.8025 84.8025 51 126.5 51C168.197 51 202 84.8025 202 126.5Z" fill="url(#paint25_linear_9_249)"/>
<path d="M202 126C148.5 127.5 169.197 127.5 127.5 127.5C85.8025 127.5 127.5 127.5 51 126C51 167.697 84.8025 201.5 126.5 201.5C168.197 201.5 202 167.697 202 126Z" fill="black"/>
<path d="M116.788 115.25L126 60.0729L135.212 115.25H116.788Z" fill="url(#paint26_linear_9_249)" stroke="url(#paint27_linear_9_249)" stroke-width="2"/>
<path d="M107.668 119.599L97.4195 95.6808L121.874 104.575L107.668 119.599Z" fill="url(#paint28_linear_9_249)" stroke="url(#paint29_linear_9_249)" stroke-width="2"/>
<path d="M144.874 119.599L155.123 95.6808L130.669 104.575L144.874 119.599Z" fill="url(#paint30_linear_9_249)" stroke="url(#paint31_linear_9_249)" stroke-width="2"/>
<path d="M148.5 115.812L197.567 125L148.5 134.188L148.5 115.812Z" fill="url(#paint32_linear_9_249)" stroke="url(#paint33_linear_9_249)" stroke-width="2"/>
<path d="M104.75 115.815L56.3624 125L104.75 134.185L104.75 115.815Z" fill="url(#paint34_linear_9_249)" stroke="url(#paint35_linear_9_249)" stroke-width="2"/>
<path d="M150 124C150 111.021 139.479 100.5 126.5 100.5C113.521 100.5 103 111.021 103 124C118 124 113.521 124 126.5 124C139.479 124 139 124 150 124Z" fill="url(#paint36_linear_9_249)"/>
<path d="M116.788 134.75L126 189.927L135.212 134.75H116.788Z" stroke="url(#paint37_linear_9_249)" stroke-width="2"/>
<path d="M107.668 130.401L97.4195 154.319L121.874 145.425L107.668 130.401Z" stroke="url(#paint38_linear_9_249)" stroke-width="2"/>
<path d="M144.874 130.401L155.123 154.319L130.669 145.425L144.874 130.401Z" stroke="url(#paint39_linear_9_249)" stroke-width="2"/>
<path d="M146 133.813L191.314 126L146 126L146 133.813Z" fill="black" stroke="url(#paint40_linear_9_249)" stroke-width="2"/>
<path d="M102.693 126L104.453 134.128L61.6307 126L102.693 126Z" fill="black" stroke="url(#paint41_linear_9_249)" stroke-width="2"/>
<path d="M148.982 125C148.509 138.433 138.537 149 126.5 149C114.463 149 104.491 138.433 104.018 125L126.5 125L138.992 125L148.982 125Z" fill="black" stroke="url(#paint42_linear_9_249)" stroke-width="2"/>
<path d="M51.5 125.5H202.5M51.5 125.5C51.5 96 70.5 51.5 127.5 51.5C181.9 51.5 201.5 97 202.5 125.5M51.5 125.5C51.5 157.5 72.5 200.5 127.5 202C176.5 202 203.64 158 202.5 125.5" stroke="url(#paint43_linear_9_249)" stroke-width="4"/>
<defs>
<linearGradient id="paint0_linear_9_249" x1="126.5" y1="3" x2="126.5" y2="250" gradientUnits="userSpaceOnUse">
<stop offset="0.25" stop-color="#BC9E00"/>
<stop offset="0.526042" stop-color="#F8F8F8"/>
<stop offset="0.807292" stop-color="#F0BF12"/>
</linearGradient>
<linearGradient id="paint1_linear_9_249" x1="88" y1="20" x2="88" y2="48" gradientUnits="userSpaceOnUse">
<stop stop-color="#EBFF00"/>
<stop offset="0.526042" stop-color="#FF7A00"/>
<stop offset="1" stop-color="#560099"/>
</linearGradient>
<linearGradient id="paint2_linear_9_249" x1="88" y1="20" x2="88" y2="48" gradientUnits="userSpaceOnUse">
<stop offset="0.130208" stop-color="#BC9E00"/>
<stop offset="0.484375" stop-color="#EFF24F"/>
<stop offset="0.817708" stop-color="#BC9E00"/>
</linearGradient>
<linearGradient id="paint3_linear_9_249" x1="163" y1="20" x2="163" y2="48" gradientUnits="userSpaceOnUse">
<stop stop-color="#EBFF00"/>
<stop offset="0.526042" stop-color="#FF7A00"/>
<stop offset="1" stop-color="#560099"/>
</linearGradient>
<linearGradient id="paint4_linear_9_249" x1="163" y1="20" x2="163" y2="48" gradientUnits="userSpaceOnUse">
<stop offset="0.130208" stop-color="#BC9E00"/>
<stop offset="0.484375" stop-color="#EFF24F"/>
<stop offset="0.817708" stop-color="#BC9E00"/>
</linearGradient>
<linearGradient id="paint5_linear_9_249" x1="221" y1="76" x2="221" y2="104" gradientUnits="userSpaceOnUse">
<stop stop-color="#EBFF00"/>
<stop offset="0.526042" stop-color="#FF7A00"/>
<stop offset="1" stop-color="#560099"/>
</linearGradient>
<linearGradient id="paint6_linear_9_249" x1="221" y1="76" x2="221" y2="104" gradientUnits="userSpaceOnUse">
<stop offset="0.130208" stop-color="#BC9E00"/>
<stop offset="0.484375" stop-color="#EFF24F"/>
<stop offset="0.817708" stop-color="#BC9E00"/>
</linearGradient>
<linearGradient id="paint7_linear_9_249" x1="221" y1="149" x2="221" y2="177" gradientUnits="userSpaceOnUse">
<stop stop-color="#EBFF00"/>
<stop offset="0.526042" stop-color="#FF7A00"/>
<stop offset="1" stop-color="#560099"/>
</linearGradient>
<linearGradient id="paint8_linear_9_249" x1="221" y1="149" x2="221" y2="177" gradientUnits="userSpaceOnUse">
<stop offset="0.130208" stop-color="#BC9E00"/>
<stop offset="0.484375" stop-color="#EFF24F"/>
<stop offset="0.817708" stop-color="#BC9E00"/>
</linearGradient>
<linearGradient id="paint9_linear_9_249" x1="168" y1="206" x2="168" y2="234" gradientUnits="userSpaceOnUse">
<stop stop-color="#EBFF00"/>
<stop offset="0.526042" stop-color="#FF7A00"/>
<stop offset="1" stop-color="#560099"/>
</linearGradient>
<linearGradient id="paint10_linear_9_249" x1="168" y1="206" x2="168" y2="234" gradientUnits="userSpaceOnUse">
<stop offset="0.130208" stop-color="#BC9E00"/>
<stop offset="0.484375" stop-color="#EFF24F"/>
<stop offset="0.817708" stop-color="#BC9E00"/>
</linearGradient>
<linearGradient id="paint11_linear_9_249" x1="87" y1="206" x2="87" y2="234" gradientUnits="userSpaceOnUse">
<stop stop-color="#EBFF00"/>
<stop offset="0.526042" stop-color="#FF7A00"/>
<stop offset="1" stop-color="#560099"/>
</linearGradient>
<linearGradient id="paint12_linear_9_249" x1="87" y1="206" x2="87" y2="234" gradientUnits="userSpaceOnUse">
<stop offset="0.130208" stop-color="#BC9E00"/>
<stop offset="0.484375" stop-color="#EFF24F"/>
<stop offset="0.817708" stop-color="#BC9E00"/>
</linearGradient>
<linearGradient id="paint13_linear_9_249" x1="33" y1="149" x2="33" y2="177" gradientUnits="userSpaceOnUse">
<stop stop-color="#EBFF00"/>
<stop offset="0.526042" stop-color="#FF7A00"/>
<stop offset="1" stop-color="#560099"/>
</linearGradient>
<linearGradient id="paint14_linear_9_249" x1="33" y1="149" x2="33" y2="177" gradientUnits="userSpaceOnUse">
<stop offset="0.130208" stop-color="#BC9E00"/>
<stop offset="0.484375" stop-color="#EFF24F"/>
<stop offset="0.817708" stop-color="#BC9E00"/>
</linearGradient>
<linearGradient id="paint15_linear_9_249" x1="33" y1="76" x2="33" y2="104" gradientUnits="userSpaceOnUse">
<stop stop-color="#EBFF00"/>
<stop offset="0.526042" stop-color="#FF7A00"/>
<stop offset="1" stop-color="#560099"/>
</linearGradient>
<linearGradient id="paint16_linear_9_249" x1="33" y1="76" x2="33" y2="104" gradientUnits="userSpaceOnUse">
<stop offset="0.130208" stop-color="#BC9E00"/>
<stop offset="0.484375" stop-color="#EFF24F"/>
<stop offset="0.817708" stop-color="#BC9E00"/>
</linearGradient>
<linearGradient id="paint17_linear_9_249" x1="126" y1="10" x2="126" y2="51" gradientUnits="userSpaceOnUse">
<stop offset="0.25" stop-color="#F0BF12"/>
<stop offset="0.546875" stop-color="#EFF24F"/>
<stop offset="0.776042" stop-color="#BC9E00"/>
</linearGradient>
<linearGradient id="paint18_linear_9_249" x1="127" y1="244" x2="127" y2="203" gradientUnits="userSpaceOnUse">
<stop offset="0.25" stop-color="#F0BF12"/>
<stop offset="0.546875" stop-color="#EFF24F"/>
<stop offset="0.776042" stop-color="#BC9E00"/>
</linearGradient>
<linearGradient id="paint19_linear_9_249" x1="242" y1="128" x2="201" y2="128" gradientUnits="userSpaceOnUse">
<stop offset="0.25" stop-color="#F0BF12"/>
<stop offset="0.546875" stop-color="#EFF24F"/>
<stop offset="0.776042" stop-color="#BC9E00"/>
</linearGradient>
<linearGradient id="paint20_linear_9_249" x1="210.04" y1="46.409" x2="180.433" y2="74.7714" gradientUnits="userSpaceOnUse">
<stop offset="0.25" stop-color="#F0BF12"/>
<stop offset="0.546875" stop-color="#EFF24F"/>
<stop offset="0.776042" stop-color="#BC9E00"/>
</linearGradient>
<linearGradient id="paint21_linear_9_249" x1="213.04" y1="206.527" x2="183.433" y2="178.165" gradientUnits="userSpaceOnUse">
<stop offset="0.25" stop-color="#F0BF12"/>
<stop offset="0.546875" stop-color="#EFF24F"/>
<stop offset="0.776042" stop-color="#BC9E00"/>
</linearGradient>
<linearGradient id="paint22_linear_9_249" x1="41.8492" y1="43.8492" x2="70.8406" y2="72.8406" gradientUnits="userSpaceOnUse">
<stop offset="0.25" stop-color="#F0BF12"/>
<stop offset="0.546875" stop-color="#EFF24F"/>
<stop offset="0.776042" stop-color="#BC9E00"/>
</linearGradient>
<linearGradient id="paint23_linear_9_249" x1="42.741" y1="210.841" x2="71.7324" y2="181.849" gradientUnits="userSpaceOnUse">
<stop offset="0.25" stop-color="#F0BF12"/>
<stop offset="0.546875" stop-color="#EFF24F"/>
<stop offset="0.776042" stop-color="#BC9E00"/>
</linearGradient>
<linearGradient id="paint24_linear_9_249" x1="9" y1="128" x2="50" y2="128" gradientUnits="userSpaceOnUse">
<stop offset="0.25" stop-color="#F0BF12"/>
<stop offset="0.546875" stop-color="#EFF24F"/>
<stop offset="0.776042" stop-color="#BC9E00"/>
</linearGradient>
<linearGradient id="paint25_linear_9_249" x1="88" y1="200.5" x2="223.5" y2="4.49999" gradientUnits="userSpaceOnUse">
<stop offset="0.101848" stop-color="#FF4D00"/>
<stop offset="0.395833" stop-color="#FF7A00"/>
<stop offset="0.692708" stop-color="#F2EB3E"/>
</linearGradient>
<linearGradient id="paint26_linear_9_249" x1="126" y1="54" x2="126" y2="137" gradientUnits="userSpaceOnUse">
<stop offset="0.0208333" stop-color="#BC9E00"/>
<stop offset="0.479167" stop-color="#EFF24F"/>
<stop offset="1" stop-color="#FDFF9B"/>
</linearGradient>
<linearGradient id="paint27_linear_9_249" x1="126" y1="54" x2="126" y2="137" gradientUnits="userSpaceOnUse">
<stop stop-color="#686868"/>
<stop offset="1" stop-color="white"/>
</linearGradient>
<linearGradient id="paint28_linear_9_249" x1="95.5906" y1="93.9514" x2="122.133" y2="119.049" gradientUnits="userSpaceOnUse">
<stop offset="0.0208333" stop-color="#BC9E00"/>
<stop offset="0.479167" stop-color="#EFF24F"/>
<stop offset="1" stop-color="#FDFF9B"/>
</linearGradient>
<linearGradient id="paint29_linear_9_249" x1="95.5906" y1="93.9514" x2="122.133" y2="119.049" gradientUnits="userSpaceOnUse">
<stop stop-color="#838383"/>
<stop offset="1" stop-color="white"/>
</linearGradient>
<linearGradient id="paint30_linear_9_249" x1="156.952" y1="93.9514" x2="130.409" y2="119.049" gradientUnits="userSpaceOnUse">
<stop offset="0.0208333" stop-color="#BC9E00"/>
<stop offset="0.479167" stop-color="#EFF24F"/>
<stop offset="1" stop-color="#FDFF9B"/>
</linearGradient>
<linearGradient id="paint31_linear_9_249" x1="156.952" y1="93.9514" x2="130.409" y2="119.049" gradientUnits="userSpaceOnUse">
<stop stop-color="#686868"/>
<stop offset="1" stop-color="white"/>
</linearGradient>
<linearGradient id="paint32_linear_9_249" x1="203" y1="125" x2="129" y2="125" gradientUnits="userSpaceOnUse">
<stop offset="0.0208333" stop-color="#BC9E00"/>
<stop offset="0.479167" stop-color="#EFF24F"/>
<stop offset="1" stop-color="#FDFF9B"/>
</linearGradient>
<linearGradient id="paint33_linear_9_249" x1="203" y1="125" x2="129" y2="125" gradientUnits="userSpaceOnUse">
<stop stop-color="#686868"/>
<stop offset="1" stop-color="white"/>
</linearGradient>
<linearGradient id="paint34_linear_9_249" x1="51" y1="125" x2="124" y2="125" gradientUnits="userSpaceOnUse">
<stop offset="0.0208333" stop-color="#BC9E00"/>
<stop offset="0.479167" stop-color="#EFF24F"/>
<stop offset="1" stop-color="#FDFF9B"/>
</linearGradient>
<linearGradient id="paint35_linear_9_249" x1="51" y1="125" x2="124" y2="125" gradientUnits="userSpaceOnUse">
<stop stop-color="#838383"/>
<stop offset="1" stop-color="white"/>
</linearGradient>
<linearGradient id="paint36_linear_9_249" x1="108" y1="137.5" x2="150" y2="102.5" gradientUnits="userSpaceOnUse">
<stop stop-color="#686868"/>
<stop offset="0.425884" stop-color="#D9D9D9"/>
<stop offset="0.848958" stop-color="#838383"/>
</linearGradient>
<linearGradient id="paint37_linear_9_249" x1="126" y1="196" x2="126" y2="113" gradientUnits="userSpaceOnUse">
<stop stop-color="#686868"/>
<stop offset="1" stop-color="white"/>
</linearGradient>
<linearGradient id="paint38_linear_9_249" x1="95.5906" y1="156.049" x2="122.133" y2="130.951" gradientUnits="userSpaceOnUse">
<stop stop-color="#838383"/>
<stop offset="1" stop-color="white"/>
</linearGradient>
<linearGradient id="paint39_linear_9_249" x1="156.952" y1="156.049" x2="130.409" y2="130.951" gradientUnits="userSpaceOnUse">
<stop stop-color="#686868"/>
<stop offset="1" stop-color="white"/>
</linearGradient>
<linearGradient id="paint40_linear_9_249" x1="203" y1="125" x2="125.667" y2="125" gradientUnits="userSpaceOnUse">
<stop stop-color="#686868"/>
<stop offset="1" stop-color="white"/>
</linearGradient>
<linearGradient id="paint41_linear_9_249" x1="51" y1="125" x2="124" y2="125" gradientUnits="userSpaceOnUse">
<stop stop-color="#838383"/>
<stop offset="1" stop-color="white"/>
</linearGradient>
<linearGradient id="paint42_linear_9_249" x1="135.5" y1="148.894" x2="94.6549" y2="131.603" gradientUnits="userSpaceOnUse">
<stop stop-color="#838383"/>
<stop offset="0.520833" stop-color="white"/>
<stop offset="1" stop-color="#686868"/>
</linearGradient>
<linearGradient id="paint43_linear_9_249" x1="63.5" y1="69.5" x2="183.5" y2="180.5" gradientUnits="userSpaceOnUse">
<stop offset="0.404653" stop-color="#686868"/>
<stop offset="0.53125" stop-color="white"/>
<stop offset="0.643361" stop-color="#838383"/>
</linearGradient>
</defs>
</svg>
