<svg width="271" height="272" viewBox="0 0 271 272" fill="none" xmlns="http://www.w3.org/2000/svg">
<g filter="url(#filter0_ii_10_1005)">
<circle cx="135.5" cy="135.5" r="135.5" transform="rotate(-180 135.5 135.5)" fill="url(#paint0_linear_10_1005)"/>
</g>
<circle cx="135.5" cy="135.5" r="133.5" transform="rotate(-180 135.5 135.5)" stroke="url(#paint1_linear_10_1005)" stroke-width="4"/>
<g filter="url(#filter1_ddd_10_1005)">
<path d="M118.344 180.96L137.258 240L159.324 180.96L226.5 226.046L179.289 155.736L239.5 136.818L179.289 116.85L226.5 45.4605L156.172 93.728L137.258 30.5L118.344 93.728L43.5 43.046L94.176 116.85L31 136.818L94.176 155.736L43.5 230.591L118.344 180.96Z" fill="url(#paint2_linear_10_1005)"/>
</g>
<g filter="url(#filter2_dd_10_1005)">
<circle cx="136" cy="136" r="88" transform="rotate(-180 136 136)" fill="url(#paint3_linear_10_1005)"/>
<circle cx="136" cy="136" r="86.5" transform="rotate(-180 136 136)" stroke="url(#paint4_linear_10_1005)" stroke-width="3"/>
</g>
<ellipse cx="170.291" cy="192.972" rx="6.30168" ry="5.77654" transform="rotate(-180 170.291 192.972)" fill="url(#paint5_radial_10_1005)"/>
<ellipse cx="126.704" cy="199.799" rx="4.72626" ry="4.20112" transform="rotate(-180 126.704 199.799)" fill="url(#paint6_radial_10_1005)"/>
<circle cx="180.268" cy="159.363" r="3.67598" transform="rotate(-180 180.268 159.363)" fill="url(#paint7_radial_10_1005)"/>
<circle cx="119.877" cy="148.335" r="7.35196" transform="rotate(-180 119.877 148.335)" fill="url(#paint8_radial_10_1005)"/>
<ellipse cx="109.374" cy="184.57" rx="3.15084" ry="2.6257" transform="rotate(-180 109.374 184.57)" fill="url(#paint9_radial_10_1005)"/>
<circle cx="146.659" cy="134.156" r="3.67598" transform="rotate(-180 146.659 134.156)" fill="url(#paint10_radial_10_1005)"/>
<ellipse cx="148.76" cy="172.492" rx="1.57542" ry="2.10056" transform="rotate(-180 148.76 172.492)" fill="url(#paint11_radial_10_1005)"/>
<ellipse cx="167.14" cy="139.408" rx="3.15084" ry="1.57542" transform="rotate(-180 167.14 139.408)" fill="url(#paint12_radial_10_1005)"/>
<ellipse cx="107.799" cy="159.363" rx="1.57542" ry="3.67598" transform="rotate(-180 107.799 159.363)" fill="url(#paint13_radial_10_1005)"/>
<circle cx="84.1676" cy="109.475" r="3.15084" transform="rotate(-180 84.1676 109.475)" fill="url(#paint14_radial_10_1005)"/>
<ellipse cx="68.9385" cy="137.307" rx="2.6257" ry="3.67598" transform="rotate(-180 68.9385 137.307)" fill="url(#paint15_radial_10_1005)"/>
<circle cx="81.5419" cy="168.816" r="5.77654" transform="rotate(-180 81.5419 168.816)" fill="url(#paint16_radial_10_1005)"/>
<ellipse cx="202.849" cy="126.804" rx="3.15084" ry="3.67598" transform="rotate(-180 202.849 126.804)" fill="url(#paint17_radial_10_1005)"/>
<circle cx="182.369" cy="132.056" r="1.57542" transform="rotate(-180 182.369 132.056)" fill="url(#paint18_radial_10_1005)"/>
<ellipse cx="178.693" cy="107.899" rx="2.10056" ry="1.57542" transform="rotate(-180 178.693 107.899)" fill="url(#paint19_radial_10_1005)"/>
<ellipse cx="160.313" cy="78.4916" rx="9.97765" ry="11.0279" transform="rotate(-180 160.313 78.4916)" fill="url(#paint20_radial_10_1005)"/>
<ellipse cx="120.927" cy="91.095" rx="11.5531" ry="9.97765" transform="rotate(-180 120.927 91.095)" fill="url(#paint21_radial_10_1005)"/>
<ellipse cx="118.827" cy="124.704" rx="3.15084" ry="1.57542" transform="rotate(-180 118.827 124.704)" fill="url(#paint22_radial_10_1005)"/>
<ellipse cx="95.1955" cy="85.3184" rx="3.67598" ry="4.20112" transform="rotate(-180 95.1955 85.3184)" fill="url(#paint23_radial_10_1005)"/>
<circle cx="152.961" cy="110" r="2.6257" transform="rotate(-180 152.961 110)" fill="url(#paint24_radial_10_1005)"/>
<ellipse cx="129.855" cy="70.6145" rx="2.6257" ry="3.15084" transform="rotate(-180 129.855 70.6145)" fill="url(#paint25_radial_10_1005)"/>
<g filter="url(#filter3_f_10_1005)">
<path fill-rule="evenodd" clip-rule="evenodd" d="M132 174.5C111.5 174.143 93 155.696 93 132.5C93 117.608 100.369 104.22 112.5 97.5C106 94 105 88.8333 105 86.5C105 84.6667 105.4 80 107 76C108.6 72 113 67 115 65C114.526 65.5 113.363 68.4 112.5 76C111.637 83.6 118.474 88.5 122 90C127.5 92.5 142 94.5 150 91.5C162.145 86.9455 162 78.5 162.5 76C162.9 74 161.333 67.8333 160.5 65C163 68.5 166 71.5 167.5 76C169 80.5 169 84.6667 169 86.5C169 93.5 165.5 95.5 161 99C167.5 105 176.5 114.5 177 132.5C177 153.832 161.097 171.449 140.5 174.143V182H151.5L159.5 175.5V195.5L151.5 188.5H140.5V198L147 205.5H125.5L132 198V188.5H121.5L113.5 195.5V174.5L121.5 182H132V174.5ZM136 164C109.173 164 103.167 142.5 103.5 132.5C104.333 122 112 101.1 136 101.5C160 101.9 166.667 122.333 167 132.5C167 141 159.5 164 136 164Z" fill="white"/>
</g>
<g filter="url(#filter4_f_10_1005)">
<path fill-rule="evenodd" clip-rule="evenodd" d="M132 176.5C111.5 176.143 93 157.696 93 134.5C93 119.608 100.369 106.22 112.5 99.5C106 96 105 90.8333 105 88.5C105 86.6667 105.4 82 107 78C108.6 74 113 69 115 67C114.526 67.5 113.363 70.4 112.5 78C111.637 85.6 118.474 90.5 122 92C127.5 94.5 142 96.5 150 93.5C162.145 88.9455 162 80.5 162.5 78C162.9 76 161.333 69.8333 160.5 67C163 70.5 166 73.5 167.5 78C169 82.5 169 86.6667 169 88.5C169 95.5 165.5 97.5 161 101C167.5 107 176.5 116.5 177 134.5C177 155.832 161.097 173.449 140.5 176.143V184H151.5L159.5 177.5V197.5L151.5 190.5H140.5V200L147 207.5H125.5L132 200V190.5H121.5L113.5 197.5V176.5L121.5 184H132V176.5ZM136 166C109.173 166 103.167 144.5 103.5 134.5C104.333 124 112 103.1 136 103.5C160 103.9 166.667 124.333 167 134.5C167 143 159.5 166 136 166Z" fill="white"/>
</g>
<g filter="url(#filter5_f_10_1005)">
<path fill-rule="evenodd" clip-rule="evenodd" d="M132 174.5C111.5 174.143 93 155.696 93 132.5C93 117.608 100.369 104.22 112.5 97.5C106 94 105 88.8333 105 86.5C105 84.6667 105.4 80 107 76C108.6 72 113 67 115 65C114.526 65.5 113.363 68.4 112.5 76C111.637 83.6 118.474 88.5 122 90C127.5 92.5 142 94.5 150 91.5C162.145 86.9455 162 78.5 162.5 76C162.9 74 161.333 67.8333 160.5 65C163 68.5 166 71.5 167.5 76C169 80.5 169 84.6667 169 86.5C169 93.5 165.5 95.5 161 99C167.5 105 176.5 114.5 177 132.5C177 153.832 161.097 171.449 140.5 174.143V182H151.5L159.5 175.5V195.5L151.5 188.5H140.5V198L147 205.5H125.5L132 198V188.5H121.5L113.5 195.5V174.5L121.5 182H132V174.5ZM136 164C109.173 164 103.167 142.5 103.5 132.5C104.333 122 112 101.1 136 101.5C160 101.9 166.667 122.333 167 132.5C167 141 159.5 164 136 164Z" fill="white"/>
</g>
<path fill-rule="evenodd" clip-rule="evenodd" d="M132 174.5C111.5 174.143 93 155.696 93 132.5C93 117.608 100.369 104.22 112.5 97.5C106 94 105 88.8333 105 86.5C105 84.6667 105.4 80 107 76C108.6 72 113 67 115 65C114.526 65.5 113.363 68.4 112.5 76C111.637 83.6 118.474 88.5 122 90C127.5 92.5 142 94.5 150 91.5C162.145 86.9455 162 78.5 162.5 76C162.9 74 161.333 67.8333 160.5 65C163 68.5 166 71.5 167.5 76C169 80.5 169 84.6667 169 86.5C169 93.5 165.5 95.5 161 99C167.5 105 176.5 114.5 177 132.5C177 153.832 161.097 171.449 140.5 174.143V182H151.5L159.5 175.5V195.5L151.5 188.5H140.5V198L147 205.5H125.5L132 198V188.5H121.5L113.5 195.5V174.5L121.5 182H132V174.5ZM136 164C109.173 164 103.167 142.5 103.5 132.5C104.333 122 112 101.1 136 101.5C160 101.9 166.667 122.333 167 132.5C167 141 159.5 164 136 164Z" fill="url(#paint26_linear_10_1005)"/>
<path d="M136.5 170.5V185L140.5 182V174L136.5 170.5Z" fill="url(#paint27_linear_10_1005)"/>
<path fill-rule="evenodd" clip-rule="evenodd" d="M172 133.5C172 153.658 155.658 170 135.5 170C115.342 170 99 153.658 99 133.5C99 113.342 115.342 97 135.5 97C155.658 97 172 113.342 172 133.5ZM104 133.5C104 115 121 102 135.5 102C150 102 166.5 116.3 166.5 133.5C166.5 155 145.5 164 135.5 164C127.5 164 104 158.545 104 133.5Z" fill="url(#paint28_linear_10_1005)"/>
<path d="M110 74.5C111.2 70.9 113.833 66.6667 115 65C114.084 66.5 112.302 71.1 112.5 77.5C112.699 83.9 118.916 88.5 122 90C124.667 91 131.4 93 137 93C144 93 153.648 89.8524 159.5 84C161 82.5 163.5 76 162 70.5C161.521 68.7441 161.5 68 160.5 65C163.3 68.6 164.667 72.8333 165 74.5C165.167 76.5 166.182 81.6578 165 85.5C163 92 159 93.5 157 94.5C152 96 143.667 97.3333 139 97H134.5C132 97.3333 125.4 97.5 119 95.5C112.6 93.5 109.667 88 109 85.5C108.833 83.3333 108.8 78.1 110 74.5Z" fill="url(#paint29_linear_10_1005)"/>
<path d="M155 185H136.5L140.5 188.5H151.5L159.5 195.5L155 185Z" fill="url(#paint30_linear_10_1005)"/>
<path d="M136.5 200.5L147 205.5L140.5 198V188.5L136.5 185V200.5Z" fill="url(#paint31_linear_10_1005)"/>
<path d="M136.5 185L132 182H121.5L113.5 174.5L119 185H136.5Z" fill="url(#paint32_linear_10_1005)"/>
<g filter="url(#filter6_ddd_10_1005)">
<path d="M87.8797 43.2071C85.8722 42.033 84.3688 43.147 83.868 43.8507C84.057 43.2219 84.3619 42.4 84.4907 42.0676C84.2763 41.915 83.9074 41.5253 84.7487 40.343C85.8003 38.8652 86.8944 38.6896 87.7741 38.3615C85.2222 35.5915 84.0649 32.2238 84.1945 29.7718C84.324 27.3197 81.5152 23.0949 80.0139 22.0266C91.1165 24.5842 96.0064 32.2405 97.0636 35.749C97.1779 36.0423 97.5223 36.6479 97.9857 36.7231C101.658 36.2835 105.866 34.2743 107.511 33.3247C108.177 32.8439 109.661 32.1194 110.279 33.0677C111.342 34.8421 110.22 36.6304 109.527 37.3028L100.195 38.613C99.3436 38.7495 97.3713 39.4026 96.2896 40.9227C95.2079 42.4428 93.6645 43.4011 93.028 43.6902C92.1484 44.0184 89.8872 44.3812 87.8797 43.2071Z" fill="url(#paint33_linear_10_1005)"/>
</g>
<g filter="url(#filter7_dd_10_1005)">
<circle cx="137" cy="17" r="10" fill="url(#paint34_linear_10_1005)"/>
<circle cx="137" cy="17" r="9" stroke="url(#paint35_linear_10_1005)" stroke-width="2"/>
</g>
<g filter="url(#filter8_dd_10_1005)">
<path d="M106.728 246.279L109.315 247.92C108.937 248.01 108.095 248.153 107.754 248.004C105.605 250.131 103.166 248.81 102.215 247.884C101.557 247.256 99.4914 245.623 96.4924 244.109C93.4935 242.595 88.7939 241.174 86.819 240.652C85.4134 240.379 82.2845 239.745 81.0142 239.395C80.0766 237.351 81.6848 236.112 82.6062 235.748L89.864 238.917C92.639 240.128 92.6128 239.606 93.789 238.076C100.606 228.283 113.096 231.693 113.95 232.066C107.62 234.921 105.747 239.211 104.077 241.291C102.74 242.955 105.287 245.31 106.728 246.279Z" fill="url(#paint36_linear_10_1005)"/>
</g>
<g filter="url(#filter9_ddd_10_1005)">
<path d="M48.8364 184.077C47.8471 186.182 49.0914 187.579 49.8372 188.015C49.194 187.883 48.348 187.653 48.0054 187.555C47.8727 187.782 47.5176 188.184 46.2647 187.452C44.6985 186.538 44.4255 185.464 44.0198 184.617C41.4899 187.407 38.2395 188.862 35.7857 188.952C33.3319 189.043 29.376 192.22 28.4466 193.811C29.9983 182.523 37.1852 176.967 40.5848 175.599C40.8667 175.459 41.4389 175.062 41.4723 174.593C40.7051 170.975 38.3266 166.964 37.2333 165.411C36.6948 164.791 35.8401 163.378 36.7292 162.678C38.4011 161.459 40.2828 162.416 41.0147 163.047L43.1565 172.224C43.3688 173.059 44.1961 174.965 45.8071 175.906C47.418 176.847 48.5109 178.298 48.8559 178.906C49.2616 179.753 49.8257 181.972 48.8364 184.077Z" fill="url(#paint37_linear_10_1005)"/>
</g>
<g filter="url(#filter10_ddd_10_1005)">
<path d="M181.329 225.958C183.491 226.814 184.808 225.484 185.196 224.712C185.105 225.363 184.928 226.221 184.852 226.569C185.087 226.688 185.511 227.017 184.859 228.313C184.044 229.934 182.989 230.273 182.17 230.731C185.113 233.081 186.768 236.234 187.013 238.677C187.257 241.121 190.675 244.87 192.322 245.698C180.959 244.857 174.963 238.032 173.385 234.725C173.227 234.452 172.795 233.906 172.325 233.902C168.762 234.895 164.908 237.52 163.427 238.709C162.842 239.285 161.485 240.227 160.731 239.383C159.41 237.791 160.247 235.853 160.83 235.083L169.855 232.37C170.675 232.106 172.526 231.161 173.364 229.494C174.202 227.827 175.582 226.645 176.167 226.263C176.987 225.805 179.166 225.103 181.329 225.958Z" fill="url(#paint38_linear_10_1005)"/>
</g>
<g filter="url(#filter11_ddd_10_1005)">
<path d="M224.059 89.9248C224.934 87.7698 223.616 86.4414 222.848 86.0466C223.497 86.1436 224.354 86.3276 224.702 86.4075C224.822 86.1734 225.155 85.7526 226.446 86.4159C228.059 87.2451 228.389 88.3028 228.84 89.1264C231.216 86.2043 234.383 84.5767 236.829 84.3538C239.274 84.1309 243.053 80.7461 243.895 79.1074C242.954 90.4618 236.076 96.3975 232.756 97.9461C232.482 98.1013 231.932 98.5289 231.923 98.9982C232.884 102.57 235.475 106.447 236.651 107.939C237.222 108.529 238.151 109.894 237.301 110.641C235.697 111.948 233.767 111.094 233.002 110.503L230.369 101.455C230.112 100.632 229.184 98.7738 227.524 97.9209C225.865 97.068 224.696 95.6777 224.318 95.0892C223.868 94.2656 223.185 92.0797 224.059 89.9248Z" fill="url(#paint39_linear_10_1005)"/>
</g>
<g filter="url(#filter12_dd_10_1005)">
<path d="M169.576 27.8201L166.982 26.1467C167.364 26.0588 168.213 25.9212 168.556 26.0741C170.738 23.9487 173.185 25.2984 174.136 26.239C174.794 26.8766 176.862 28.5392 179.871 30.088C182.88 31.6369 187.604 33.1067 189.589 33.6481C191.003 33.9345 194.15 34.5981 195.427 34.9611C196.356 37.0277 194.726 38.263 193.794 38.6223L186.508 35.372C183.721 34.1293 183.744 34.6556 182.547 36.1873C175.6 45.9993 163.044 42.4645 162.187 42.0822C168.587 39.2561 170.508 34.9489 172.208 32.8668C173.567 31.201 171.02 28.8083 169.576 27.8201Z" fill="url(#paint40_linear_10_1005)"/>
</g>
<g filter="url(#filter13_dd_10_1005)">
<path d="M23.5772 103.288L22.0919 105.996C21.977 105.621 21.7794 104.783 21.9076 104.43C19.6317 102.405 20.8046 99.8669 21.6754 98.8512C22.2649 98.1495 23.7768 95.968 25.1083 92.8551C26.4398 89.7423 27.5707 84.9248 27.9697 82.9052C28.155 81.4739 28.5934 78.2864 28.8649 76.9864C30.8609 75.9132 32.2093 77.452 32.634 78.3555L29.909 85.8574C28.867 88.7258 29.3906 88.6662 31.004 89.7518C41.2883 95.9851 38.6539 108.765 38.3333 109.647C35.0585 103.463 30.6242 101.852 28.4258 100.304C26.6671 99.0659 24.4606 101.778 23.5772 103.288Z" fill="url(#paint41_linear_10_1005)"/>
</g>
<g filter="url(#filter14_dd_10_1005)">
<path d="M247.648 169.924L249.287 167.292C249.381 167.674 249.533 168.524 249.385 168.871C251.554 171.027 250.239 173.506 249.31 174.476C248.68 175.147 247.044 177.25 245.538 180.297C244.032 183.344 242.632 188.11 242.121 190.112C241.856 191.537 241.241 194.708 240.897 195.996C238.837 196.961 237.571 195.345 237.195 194.416L240.34 187.046C241.543 184.229 241.015 184.259 239.457 183.082C229.493 176.267 232.838 163.602 233.208 162.735C236.15 169.115 240.506 170.975 242.624 172.647C244.318 173.986 246.68 171.389 247.648 169.924Z" fill="url(#paint42_linear_10_1005)"/>
</g>
<g filter="url(#filter15_ddd_10_1005)">
<circle cx="19" cy="135" r="10" fill="url(#paint43_linear_10_1005)"/>
<circle cx="19" cy="135" r="9" stroke="url(#paint44_linear_10_1005)" stroke-width="2"/>
</g>
<g filter="url(#filter16_dd_10_1005)">
<circle cx="252" cy="134" r="10" fill="url(#paint45_linear_10_1005)"/>
<circle cx="252" cy="134" r="9" stroke="url(#paint46_linear_10_1005)" stroke-width="2"/>
</g>
<g filter="url(#filter17_dd_10_1005)">
<circle cx="137" cy="254" r="10" fill="url(#paint47_linear_10_1005)"/>
<circle cx="137" cy="254" r="9" stroke="url(#paint48_linear_10_1005)" stroke-width="2"/>
</g>
<defs>
<filter id="filter0_ii_10_1005" x="1.52588e-05" y="0" width="271" height="275" filterUnits="userSpaceOnUse" color-interpolation-filters="sRGB">
<feFlood flood-opacity="0" result="BackgroundImageFix"/>
<feBlend mode="normal" in="SourceGraphic" in2="BackgroundImageFix" result="shape"/>
<feColorMatrix in="SourceAlpha" type="matrix" values="0 0 0 0 0 0 0 0 0 0 0 0 0 0 0 0 0 0 127 0" result="hardAlpha"/>
<feOffset dy="4"/>
<feGaussianBlur stdDeviation="2"/>
<feComposite in2="hardAlpha" operator="arithmetic" k2="-1" k3="1"/>
<feColorMatrix type="matrix" values="0 0 0 0 0 0 0 0 0 0 0 0 0 0 0 0 0 0 0.25 0"/>
<feBlend mode="normal" in2="shape" result="effect1_innerShadow_10_1005"/>
<feColorMatrix in="SourceAlpha" type="matrix" values="0 0 0 0 0 0 0 0 0 0 0 0 0 0 0 0 0 0 127 0" result="hardAlpha"/>
<feOffset dy="4"/>
<feGaussianBlur stdDeviation="2"/>
<feComposite in2="hardAlpha" operator="arithmetic" k2="-1" k3="1"/>
<feColorMatrix type="matrix" values="0 0 0 0 0 0 0 0 0 0 0 0 0 0 0 0 0 0 0.25 0"/>
<feBlend mode="normal" in2="effect1_innerShadow_10_1005" result="effect2_innerShadow_10_1005"/>
</filter>
<filter id="filter1_ddd_10_1005" x="27" y="30.5" width="216.5" height="217.5" filterUnits="userSpaceOnUse" color-interpolation-filters="sRGB">
<feFlood flood-opacity="0" result="BackgroundImageFix"/>
<feColorMatrix in="SourceAlpha" type="matrix" values="0 0 0 0 0 0 0 0 0 0 0 0 0 0 0 0 0 0 127 0" result="hardAlpha"/>
<feOffset dy="4"/>
<feGaussianBlur stdDeviation="2"/>
<feComposite in2="hardAlpha" operator="out"/>
<feColorMatrix type="matrix" values="0 0 0 0 0 0 0 0 0 0 0 0 0 0 0 0 0 0 0.25 0"/>
<feBlend mode="normal" in2="BackgroundImageFix" result="effect1_dropShadow_10_1005"/>
<feColorMatrix in="SourceAlpha" type="matrix" values="0 0 0 0 0 0 0 0 0 0 0 0 0 0 0 0 0 0 127 0" result="hardAlpha"/>
<feOffset dy="4"/>
<feGaussianBlur stdDeviation="2"/>
<feComposite in2="hardAlpha" operator="out"/>
<feColorMatrix type="matrix" values="0 0 0 0 0 0 0 0 0 0 0 0 0 0 0 0 0 0 0.25 0"/>
<feBlend mode="normal" in2="effect1_dropShadow_10_1005" result="effect2_dropShadow_10_1005"/>
<feColorMatrix in="SourceAlpha" type="matrix" values="0 0 0 0 0 0 0 0 0 0 0 0 0 0 0 0 0 0 127 0" result="hardAlpha"/>
<feOffset dy="4"/>
<feGaussianBlur stdDeviation="2"/>
<feComposite in2="hardAlpha" operator="out"/>
<feColorMatrix type="matrix" values="0 0 0 0 0 0 0 0 0 0 0 0 0 0 0 0 0 0 0.25 0"/>
<feBlend mode="normal" in2="effect2_dropShadow_10_1005" result="effect3_dropShadow_10_1005"/>
<feBlend mode="normal" in="SourceGraphic" in2="effect3_dropShadow_10_1005" result="shape"/>
</filter>
<filter id="filter2_dd_10_1005" x="44" y="48" width="184" height="184" filterUnits="userSpaceOnUse" color-interpolation-filters="sRGB">
<feFlood flood-opacity="0" result="BackgroundImageFix"/>
<feColorMatrix in="SourceAlpha" type="matrix" values="0 0 0 0 0 0 0 0 0 0 0 0 0 0 0 0 0 0 127 0" result="hardAlpha"/>
<feOffset dy="4"/>
<feGaussianBlur stdDeviation="2"/>
<feComposite in2="hardAlpha" operator="out"/>
<feColorMatrix type="matrix" values="0 0 0 0 0 0 0 0 0 0 0 0 0 0 0 0 0 0 0.25 0"/>
<feBlend mode="normal" in2="BackgroundImageFix" result="effect1_dropShadow_10_1005"/>
<feColorMatrix in="SourceAlpha" type="matrix" values="0 0 0 0 0 0 0 0 0 0 0 0 0 0 0 0 0 0 127 0" result="hardAlpha"/>
<feOffset dy="4"/>
<feGaussianBlur stdDeviation="2"/>
<feComposite in2="hardAlpha" operator="out"/>
<feColorMatrix type="matrix" values="0 0 0 0 0 0 0 0 0 0 0 0 0 0 0 0 0 0 0.25 0"/>
<feBlend mode="normal" in2="effect1_dropShadow_10_1005" result="effect2_dropShadow_10_1005"/>
<feBlend mode="normal" in="SourceGraphic" in2="effect2_dropShadow_10_1005" result="shape"/>
</filter>
<filter id="filter3_f_10_1005" x="89" y="61" width="92" height="148.5" filterUnits="userSpaceOnUse" color-interpolation-filters="sRGB">
<feFlood flood-opacity="0" result="BackgroundImageFix"/>
<feBlend mode="normal" in="SourceGraphic" in2="BackgroundImageFix" result="shape"/>
<feGaussianBlur stdDeviation="2" result="effect1_foregroundBlur_10_1005"/>
</filter>
<filter id="filter4_f_10_1005" x="89" y="63" width="92" height="148.5" filterUnits="userSpaceOnUse" color-interpolation-filters="sRGB">
<feFlood flood-opacity="0" result="BackgroundImageFix"/>
<feBlend mode="normal" in="SourceGraphic" in2="BackgroundImageFix" result="shape"/>
<feGaussianBlur stdDeviation="2" result="effect1_foregroundBlur_10_1005"/>
</filter>
<filter id="filter5_f_10_1005" x="89" y="61" width="92" height="148.5" filterUnits="userSpaceOnUse" color-interpolation-filters="sRGB">
<feFlood flood-opacity="0" result="BackgroundImageFix"/>
<feBlend mode="normal" in="SourceGraphic" in2="BackgroundImageFix" result="shape"/>
<feGaussianBlur stdDeviation="2" result="effect1_foregroundBlur_10_1005"/>
</filter>
<filter id="filter6_ddd_10_1005" x="76.0139" y="22.0266" width="38.7025" height="29.9863" filterUnits="userSpaceOnUse" color-interpolation-filters="sRGB">
<feFlood flood-opacity="0" result="BackgroundImageFix"/>
<feColorMatrix in="SourceAlpha" type="matrix" values="0 0 0 0 0 0 0 0 0 0 0 0 0 0 0 0 0 0 127 0" result="hardAlpha"/>
<feOffset dy="4"/>
<feGaussianBlur stdDeviation="2"/>
<feComposite in2="hardAlpha" operator="out"/>
<feColorMatrix type="matrix" values="0 0 0 0 0 0 0 0 0 0 0 0 0 0 0 0 0 0 0.25 0"/>
<feBlend mode="normal" in2="BackgroundImageFix" result="effect1_dropShadow_10_1005"/>
<feColorMatrix in="SourceAlpha" type="matrix" values="0 0 0 0 0 0 0 0 0 0 0 0 0 0 0 0 0 0 127 0" result="hardAlpha"/>
<feOffset dy="4"/>
<feGaussianBlur stdDeviation="2"/>
<feComposite in2="hardAlpha" operator="out"/>
<feColorMatrix type="matrix" values="0 0 0 0 0 0 0 0 0 0 0 0 0 0 0 0 0 0 0.25 0"/>
<feBlend mode="normal" in2="effect1_dropShadow_10_1005" result="effect2_dropShadow_10_1005"/>
<feColorMatrix in="SourceAlpha" type="matrix" values="0 0 0 0 0 0 0 0 0 0 0 0 0 0 0 0 0 0 127 0" result="hardAlpha"/>
<feOffset dy="4"/>
<feGaussianBlur stdDeviation="2"/>
<feComposite in2="hardAlpha" operator="out"/>
<feColorMatrix type="matrix" values="0 0 0 0 0 0 0 0 0 0 0 0 0 0 0 0 0 0 0.25 0"/>
<feBlend mode="normal" in2="effect2_dropShadow_10_1005" result="effect3_dropShadow_10_1005"/>
<feBlend mode="normal" in="SourceGraphic" in2="effect3_dropShadow_10_1005" result="shape"/>
</filter>
<filter id="filter7_dd_10_1005" x="123" y="7" width="28" height="28" filterUnits="userSpaceOnUse" color-interpolation-filters="sRGB">
<feFlood flood-opacity="0" result="BackgroundImageFix"/>
<feColorMatrix in="SourceAlpha" type="matrix" values="0 0 0 0 0 0 0 0 0 0 0 0 0 0 0 0 0 0 127 0" result="hardAlpha"/>
<feOffset dy="4"/>
<feGaussianBlur stdDeviation="2"/>
<feComposite in2="hardAlpha" operator="out"/>
<feColorMatrix type="matrix" values="0 0 0 0 0 0 0 0 0 0 0 0 0 0 0 0 0 0 0.25 0"/>
<feBlend mode="normal" in2="BackgroundImageFix" result="effect1_dropShadow_10_1005"/>
<feColorMatrix in="SourceAlpha" type="matrix" values="0 0 0 0 0 0 0 0 0 0 0 0 0 0 0 0 0 0 127 0" result="hardAlpha"/>
<feOffset dy="4"/>
<feGaussianBlur stdDeviation="2"/>
<feComposite in2="hardAlpha" operator="out"/>
<feColorMatrix type="matrix" values="0 0 0 0 0 0 0 0 0 0 0 0 0 0 0 0 0 0 0.25 0"/>
<feBlend mode="normal" in2="effect1_dropShadow_10_1005" result="effect2_dropShadow_10_1005"/>
<feBlend mode="normal" in="SourceGraphic" in2="effect2_dropShadow_10_1005" result="shape"/>
</filter>
<filter id="filter8_dd_10_1005" x="76.7303" y="231.191" width="41.2192" height="25.9559" filterUnits="userSpaceOnUse" color-interpolation-filters="sRGB">
<feFlood flood-opacity="0" result="BackgroundImageFix"/>
<feColorMatrix in="SourceAlpha" type="matrix" values="0 0 0 0 0 0 0 0 0 0 0 0 0 0 0 0 0 0 127 0" result="hardAlpha"/>
<feOffset dy="4"/>
<feGaussianBlur stdDeviation="2"/>
<feComposite in2="hardAlpha" operator="out"/>
<feColorMatrix type="matrix" values="0 0 0 0 0 0 0 0 0 0 0 0 0 0 0 0 0 0 0.25 0"/>
<feBlend mode="normal" in2="BackgroundImageFix" result="effect1_dropShadow_10_1005"/>
<feColorMatrix in="SourceAlpha" type="matrix" values="0 0 0 0 0 0 0 0 0 0 0 0 0 0 0 0 0 0 127 0" result="hardAlpha"/>
<feOffset dy="4"/>
<feGaussianBlur stdDeviation="2"/>
<feComposite in2="hardAlpha" operator="out"/>
<feColorMatrix type="matrix" values="0 0 0 0 0 0 0 0 0 0 0 0 0 0 0 0 0 0 0.25 0"/>
<feBlend mode="normal" in2="effect1_dropShadow_10_1005" result="effect2_dropShadow_10_1005"/>
<feBlend mode="normal" in="SourceGraphic" in2="effect2_dropShadow_10_1005" result="shape"/>
</filter>
<filter id="filter9_ddd_10_1005" x="24.4466" y="162.091" width="29.3906" height="39.72" filterUnits="userSpaceOnUse" color-interpolation-filters="sRGB">
<feFlood flood-opacity="0" result="BackgroundImageFix"/>
<feColorMatrix in="SourceAlpha" type="matrix" values="0 0 0 0 0 0 0 0 0 0 0 0 0 0 0 0 0 0 127 0" result="hardAlpha"/>
<feOffset dy="4"/>
<feGaussianBlur stdDeviation="2"/>
<feComposite in2="hardAlpha" operator="out"/>
<feColorMatrix type="matrix" values="0 0 0 0 0 0 0 0 0 0 0 0 0 0 0 0 0 0 0.25 0"/>
<feBlend mode="normal" in2="BackgroundImageFix" result="effect1_dropShadow_10_1005"/>
<feColorMatrix in="SourceAlpha" type="matrix" values="0 0 0 0 0 0 0 0 0 0 0 0 0 0 0 0 0 0 127 0" result="hardAlpha"/>
<feOffset dy="4"/>
<feGaussianBlur stdDeviation="2"/>
<feComposite in2="hardAlpha" operator="out"/>
<feColorMatrix type="matrix" values="0 0 0 0 0 0 0 0 0 0 0 0 0 0 0 0 0 0 0.25 0"/>
<feBlend mode="normal" in2="effect1_dropShadow_10_1005" result="effect2_dropShadow_10_1005"/>
<feColorMatrix in="SourceAlpha" type="matrix" values="0 0 0 0 0 0 0 0 0 0 0 0 0 0 0 0 0 0 127 0" result="hardAlpha"/>
<feOffset dy="4"/>
<feGaussianBlur stdDeviation="2"/>
<feComposite in2="hardAlpha" operator="out"/>
<feColorMatrix type="matrix" values="0 0 0 0 0 0 0 0 0 0 0 0 0 0 0 0 0 0 0.25 0"/>
<feBlend mode="normal" in2="effect2_dropShadow_10_1005" result="effect3_dropShadow_10_1005"/>
<feBlend mode="normal" in="SourceGraphic" in2="effect3_dropShadow_10_1005" result="shape"/>
</filter>
<filter id="filter10_ddd_10_1005" x="156.027" y="224.712" width="40.2947" height="28.9851" filterUnits="userSpaceOnUse" color-interpolation-filters="sRGB">
<feFlood flood-opacity="0" result="BackgroundImageFix"/>
<feColorMatrix in="SourceAlpha" type="matrix" values="0 0 0 0 0 0 0 0 0 0 0 0 0 0 0 0 0 0 127 0" result="hardAlpha"/>
<feOffset dy="4"/>
<feGaussianBlur stdDeviation="2"/>
<feComposite in2="hardAlpha" operator="out"/>
<feColorMatrix type="matrix" values="0 0 0 0 0 0 0 0 0 0 0 0 0 0 0 0 0 0 0.25 0"/>
<feBlend mode="normal" in2="BackgroundImageFix" result="effect1_dropShadow_10_1005"/>
<feColorMatrix in="SourceAlpha" type="matrix" values="0 0 0 0 0 0 0 0 0 0 0 0 0 0 0 0 0 0 127 0" result="hardAlpha"/>
<feOffset dy="4"/>
<feGaussianBlur stdDeviation="2"/>
<feComposite in2="hardAlpha" operator="out"/>
<feColorMatrix type="matrix" values="0 0 0 0 0 0 0 0 0 0 0 0 0 0 0 0 0 0 0.25 0"/>
<feBlend mode="normal" in2="effect1_dropShadow_10_1005" result="effect2_dropShadow_10_1005"/>
<feColorMatrix in="SourceAlpha" type="matrix" values="0 0 0 0 0 0 0 0 0 0 0 0 0 0 0 0 0 0 127 0" result="hardAlpha"/>
<feOffset dy="4"/>
<feGaussianBlur stdDeviation="2"/>
<feComposite in2="hardAlpha" operator="out"/>
<feColorMatrix type="matrix" values="0 0 0 0 0 0 0 0 0 0 0 0 0 0 0 0 0 0 0.25 0"/>
<feBlend mode="normal" in2="effect2_dropShadow_10_1005" result="effect3_dropShadow_10_1005"/>
<feBlend mode="normal" in="SourceGraphic" in2="effect3_dropShadow_10_1005" result="shape"/>
</filter>
<filter id="filter11_ddd_10_1005" x="218.848" y="79.1074" width="29.0475" height="40.2204" filterUnits="userSpaceOnUse" color-interpolation-filters="sRGB">
<feFlood flood-opacity="0" result="BackgroundImageFix"/>
<feColorMatrix in="SourceAlpha" type="matrix" values="0 0 0 0 0 0 0 0 0 0 0 0 0 0 0 0 0 0 127 0" result="hardAlpha"/>
<feOffset dy="4"/>
<feGaussianBlur stdDeviation="2"/>
<feComposite in2="hardAlpha" operator="out"/>
<feColorMatrix type="matrix" values="0 0 0 0 0 0 0 0 0 0 0 0 0 0 0 0 0 0 0.25 0"/>
<feBlend mode="normal" in2="BackgroundImageFix" result="effect1_dropShadow_10_1005"/>
<feColorMatrix in="SourceAlpha" type="matrix" values="0 0 0 0 0 0 0 0 0 0 0 0 0 0 0 0 0 0 127 0" result="hardAlpha"/>
<feOffset dy="4"/>
<feGaussianBlur stdDeviation="2"/>
<feComposite in2="hardAlpha" operator="out"/>
<feColorMatrix type="matrix" values="0 0 0 0 0 0 0 0 0 0 0 0 0 0 0 0 0 0 0.25 0"/>
<feBlend mode="normal" in2="effect1_dropShadow_10_1005" result="effect2_dropShadow_10_1005"/>
<feColorMatrix in="SourceAlpha" type="matrix" values="0 0 0 0 0 0 0 0 0 0 0 0 0 0 0 0 0 0 127 0" result="hardAlpha"/>
<feOffset dy="4"/>
<feGaussianBlur stdDeviation="2"/>
<feComposite in2="hardAlpha" operator="out"/>
<feColorMatrix type="matrix" values="0 0 0 0 0 0 0 0 0 0 0 0 0 0 0 0 0 0 0.25 0"/>
<feBlend mode="normal" in2="effect2_dropShadow_10_1005" result="effect3_dropShadow_10_1005"/>
<feBlend mode="normal" in="SourceGraphic" in2="effect3_dropShadow_10_1005" result="shape"/>
</filter>
<filter id="filter12_dd_10_1005" x="158.187" y="24.9426" width="41.5168" height="26.0699" filterUnits="userSpaceOnUse" color-interpolation-filters="sRGB">
<feFlood flood-opacity="0" result="BackgroundImageFix"/>
<feColorMatrix in="SourceAlpha" type="matrix" values="0 0 0 0 0 0 0 0 0 0 0 0 0 0 0 0 0 0 127 0" result="hardAlpha"/>
<feOffset dy="4"/>
<feGaussianBlur stdDeviation="2"/>
<feComposite in2="hardAlpha" operator="out"/>
<feColorMatrix type="matrix" values="0 0 0 0 0 0 0 0 0 0 0 0 0 0 0 0 0 0 0.25 0"/>
<feBlend mode="normal" in2="BackgroundImageFix" result="effect1_dropShadow_10_1005"/>
<feColorMatrix in="SourceAlpha" type="matrix" values="0 0 0 0 0 0 0 0 0 0 0 0 0 0 0 0 0 0 127 0" result="hardAlpha"/>
<feOffset dy="4"/>
<feGaussianBlur stdDeviation="2"/>
<feComposite in2="hardAlpha" operator="out"/>
<feColorMatrix type="matrix" values="0 0 0 0 0 0 0 0 0 0 0 0 0 0 0 0 0 0 0.25 0"/>
<feBlend mode="normal" in2="effect1_dropShadow_10_1005" result="effect2_dropShadow_10_1005"/>
<feBlend mode="normal" in="SourceGraphic" in2="effect2_dropShadow_10_1005" result="shape"/>
</filter>
<filter id="filter13_dd_10_1005" x="16.5865" y="76.6201" width="26.282" height="41.0273" filterUnits="userSpaceOnUse" color-interpolation-filters="sRGB">
<feFlood flood-opacity="0" result="BackgroundImageFix"/>
<feColorMatrix in="SourceAlpha" type="matrix" values="0 0 0 0 0 0 0 0 0 0 0 0 0 0 0 0 0 0 127 0" result="hardAlpha"/>
<feOffset dy="4"/>
<feGaussianBlur stdDeviation="2"/>
<feComposite in2="hardAlpha" operator="out"/>
<feColorMatrix type="matrix" values="0 0 0 0 0 0 0 0 0 0 0 0 0 0 0 0 0 0 0.25 0"/>
<feBlend mode="normal" in2="BackgroundImageFix" result="effect1_dropShadow_10_1005"/>
<feColorMatrix in="SourceAlpha" type="matrix" values="0 0 0 0 0 0 0 0 0 0 0 0 0 0 0 0 0 0 127 0" result="hardAlpha"/>
<feOffset dy="4"/>
<feGaussianBlur stdDeviation="2"/>
<feComposite in2="hardAlpha" operator="out"/>
<feColorMatrix type="matrix" values="0 0 0 0 0 0 0 0 0 0 0 0 0 0 0 0 0 0 0.25 0"/>
<feBlend mode="normal" in2="effect1_dropShadow_10_1005" result="effect2_dropShadow_10_1005"/>
<feBlend mode="normal" in="SourceGraphic" in2="effect2_dropShadow_10_1005" result="shape"/>
</filter>
<filter id="filter14_dd_10_1005" x="228.374" y="162.735" width="26.1892" height="41.5576" filterUnits="userSpaceOnUse" color-interpolation-filters="sRGB">
<feFlood flood-opacity="0" result="BackgroundImageFix"/>
<feColorMatrix in="SourceAlpha" type="matrix" values="0 0 0 0 0 0 0 0 0 0 0 0 0 0 0 0 0 0 127 0" result="hardAlpha"/>
<feOffset dy="4"/>
<feGaussianBlur stdDeviation="2"/>
<feComposite in2="hardAlpha" operator="out"/>
<feColorMatrix type="matrix" values="0 0 0 0 0 0 0 0 0 0 0 0 0 0 0 0 0 0 0.25 0"/>
<feBlend mode="normal" in2="BackgroundImageFix" result="effect1_dropShadow_10_1005"/>
<feColorMatrix in="SourceAlpha" type="matrix" values="0 0 0 0 0 0 0 0 0 0 0 0 0 0 0 0 0 0 127 0" result="hardAlpha"/>
<feOffset dy="4"/>
<feGaussianBlur stdDeviation="2"/>
<feComposite in2="hardAlpha" operator="out"/>
<feColorMatrix type="matrix" values="0 0 0 0 0 0 0 0 0 0 0 0 0 0 0 0 0 0 0.25 0"/>
<feBlend mode="normal" in2="effect1_dropShadow_10_1005" result="effect2_dropShadow_10_1005"/>
<feBlend mode="normal" in="SourceGraphic" in2="effect2_dropShadow_10_1005" result="shape"/>
</filter>
<filter id="filter15_ddd_10_1005" x="4.99997" y="125" width="28" height="28" filterUnits="userSpaceOnUse" color-interpolation-filters="sRGB">
<feFlood flood-opacity="0" result="BackgroundImageFix"/>
<feColorMatrix in="SourceAlpha" type="matrix" values="0 0 0 0 0 0 0 0 0 0 0 0 0 0 0 0 0 0 127 0" result="hardAlpha"/>
<feOffset dy="4"/>
<feGaussianBlur stdDeviation="2"/>
<feComposite in2="hardAlpha" operator="out"/>
<feColorMatrix type="matrix" values="0 0 0 0 0 0 0 0 0 0 0 0 0 0 0 0 0 0 0.25 0"/>
<feBlend mode="normal" in2="BackgroundImageFix" result="effect1_dropShadow_10_1005"/>
<feColorMatrix in="SourceAlpha" type="matrix" values="0 0 0 0 0 0 0 0 0 0 0 0 0 0 0 0 0 0 127 0" result="hardAlpha"/>
<feOffset dy="4"/>
<feGaussianBlur stdDeviation="2"/>
<feComposite in2="hardAlpha" operator="out"/>
<feColorMatrix type="matrix" values="0 0 0 0 0 0 0 0 0 0 0 0 0 0 0 0 0 0 0.25 0"/>
<feBlend mode="normal" in2="effect1_dropShadow_10_1005" result="effect2_dropShadow_10_1005"/>
<feColorMatrix in="SourceAlpha" type="matrix" values="0 0 0 0 0 0 0 0 0 0 0 0 0 0 0 0 0 0 127 0" result="hardAlpha"/>
<feOffset dy="4"/>
<feGaussianBlur stdDeviation="2"/>
<feComposite in2="hardAlpha" operator="out"/>
<feColorMatrix type="matrix" values="0 0 0 0 0 0 0 0 0 0 0 0 0 0 0 0 0 0 0.25 0"/>
<feBlend mode="normal" in2="effect2_dropShadow_10_1005" result="effect3_dropShadow_10_1005"/>
<feBlend mode="normal" in="SourceGraphic" in2="effect3_dropShadow_10_1005" result="shape"/>
</filter>
<filter id="filter16_dd_10_1005" x="238" y="124" width="28" height="28" filterUnits="userSpaceOnUse" color-interpolation-filters="sRGB">
<feFlood flood-opacity="0" result="BackgroundImageFix"/>
<feColorMatrix in="SourceAlpha" type="matrix" values="0 0 0 0 0 0 0 0 0 0 0 0 0 0 0 0 0 0 127 0" result="hardAlpha"/>
<feOffset dy="4"/>
<feGaussianBlur stdDeviation="2"/>
<feComposite in2="hardAlpha" operator="out"/>
<feColorMatrix type="matrix" values="0 0 0 0 0 0 0 0 0 0 0 0 0 0 0 0 0 0 0.25 0"/>
<feBlend mode="normal" in2="BackgroundImageFix" result="effect1_dropShadow_10_1005"/>
<feColorMatrix in="SourceAlpha" type="matrix" values="0 0 0 0 0 0 0 0 0 0 0 0 0 0 0 0 0 0 127 0" result="hardAlpha"/>
<feOffset dy="4"/>
<feGaussianBlur stdDeviation="2"/>
<feComposite in2="hardAlpha" operator="out"/>
<feColorMatrix type="matrix" values="0 0 0 0 0 0 0 0 0 0 0 0 0 0 0 0 0 0 0.25 0"/>
<feBlend mode="normal" in2="effect1_dropShadow_10_1005" result="effect2_dropShadow_10_1005"/>
<feBlend mode="normal" in="SourceGraphic" in2="effect2_dropShadow_10_1005" result="shape"/>
</filter>
<filter id="filter17_dd_10_1005" x="123" y="244" width="28" height="28" filterUnits="userSpaceOnUse" color-interpolation-filters="sRGB">
<feFlood flood-opacity="0" result="BackgroundImageFix"/>
<feColorMatrix in="SourceAlpha" type="matrix" values="0 0 0 0 0 0 0 0 0 0 0 0 0 0 0 0 0 0 127 0" result="hardAlpha"/>
<feOffset dy="4"/>
<feGaussianBlur stdDeviation="2"/>
<feComposite in2="hardAlpha" operator="out"/>
<feColorMatrix type="matrix" values="0 0 0 0 0 0 0 0 0 0 0 0 0 0 0 0 0 0 0.25 0"/>
<feBlend mode="normal" in2="BackgroundImageFix" result="effect1_dropShadow_10_1005"/>
<feColorMatrix in="SourceAlpha" type="matrix" values="0 0 0 0 0 0 0 0 0 0 0 0 0 0 0 0 0 0 127 0" result="hardAlpha"/>
<feOffset dy="4"/>
<feGaussianBlur stdDeviation="2"/>
<feComposite in2="hardAlpha" operator="out"/>
<feColorMatrix type="matrix" values="0 0 0 0 0 0 0 0 0 0 0 0 0 0 0 0 0 0 0.25 0"/>
<feBlend mode="normal" in2="effect1_dropShadow_10_1005" result="effect2_dropShadow_10_1005"/>
<feBlend mode="normal" in="SourceGraphic" in2="effect2_dropShadow_10_1005" result="shape"/>
</filter>
<linearGradient id="paint0_linear_10_1005" x1="70.7997" y1="246.869" x2="141.157" y2="5.39241" gradientUnits="userSpaceOnUse">
<stop offset="0.157298" stop-color="#6F6A00"/>
<stop offset="0.515625" stop-color="#E6C100"/>
<stop offset="0.834637" stop-color="#5F6100"/>
</linearGradient>
<linearGradient id="paint1_linear_10_1005" x1="133.732" y1="-4.86064" x2="77.1637" y2="259.597" gradientUnits="userSpaceOnUse">
<stop offset="0.236248" stop-color="#424242"/>
<stop offset="0.520833" stop-color="white"/>
<stop offset="0.833884" stop-color="#424242"/>
</linearGradient>
<linearGradient id="paint2_linear_10_1005" x1="111.812" y1="266.668" x2="143.585" y2="1.49755" gradientUnits="userSpaceOnUse">
<stop offset="0.239482" stop-color="#424242"/>
<stop offset="0.425093" stop-color="#D9D9D9"/>
<stop offset="0.724953" stop-color="#3E3E3E"/>
</linearGradient>
<linearGradient id="paint3_linear_10_1005" x1="136" y1="48" x2="136" y2="224" gradientUnits="userSpaceOnUse">
<stop/>
<stop offset="1" stop-color="#44005B"/>
</linearGradient>
<linearGradient id="paint4_linear_10_1005" x1="108" y1="57.5" x2="136" y2="224" gradientUnits="userSpaceOnUse">
<stop offset="0.178452" stop-color="#424242"/>
<stop offset="0.463542" stop-color="#B6B6B6"/>
<stop offset="0.855913" stop-color="#424242"/>
</linearGradient>
<radialGradient id="paint5_radial_10_1005" cx="0" cy="0" r="1" gradientUnits="userSpaceOnUse" gradientTransform="translate(170.291 192.972) rotate(90) scale(5.77654 6.30168)">
<stop stop-color="#D9D9D9"/>
<stop offset="0.71875" stop-color="#D9D9D9" stop-opacity="0"/>
</radialGradient>
<radialGradient id="paint6_radial_10_1005" cx="0" cy="0" r="1" gradientUnits="userSpaceOnUse" gradientTransform="translate(126.704 199.799) rotate(90) scale(4.20112 4.72626)">
<stop stop-color="#D9D9D9"/>
<stop offset="0.71875" stop-color="#D9D9D9" stop-opacity="0"/>
</radialGradient>
<radialGradient id="paint7_radial_10_1005" cx="0" cy="0" r="1" gradientUnits="userSpaceOnUse" gradientTransform="translate(180.268 159.363) rotate(90) scale(3.67598)">
<stop stop-color="#D9D9D9"/>
<stop offset="0.71875" stop-color="#D9D9D9" stop-opacity="0"/>
</radialGradient>
<radialGradient id="paint8_radial_10_1005" cx="0" cy="0" r="1" gradientUnits="userSpaceOnUse" gradientTransform="translate(119.877 148.335) rotate(90) scale(7.35196)">
<stop stop-color="#D9D9D9"/>
<stop offset="0.71875" stop-color="#D9D9D9" stop-opacity="0"/>
</radialGradient>
<radialGradient id="paint9_radial_10_1005" cx="0" cy="0" r="1" gradientUnits="userSpaceOnUse" gradientTransform="translate(109.374 184.57) rotate(90) scale(2.6257 3.15084)">
<stop stop-color="#D9D9D9"/>
<stop offset="0.71875" stop-color="#D9D9D9" stop-opacity="0"/>
</radialGradient>
<radialGradient id="paint10_radial_10_1005" cx="0" cy="0" r="1" gradientUnits="userSpaceOnUse" gradientTransform="translate(146.659 134.156) rotate(90) scale(3.67598)">
<stop stop-color="#D9D9D9"/>
<stop offset="0.71875" stop-color="#D9D9D9" stop-opacity="0"/>
</radialGradient>
<radialGradient id="paint11_radial_10_1005" cx="0" cy="0" r="1" gradientUnits="userSpaceOnUse" gradientTransform="translate(148.76 172.492) rotate(90) scale(2.10056 1.57542)">
<stop stop-color="#D9D9D9"/>
<stop offset="0.71875" stop-color="#D9D9D9" stop-opacity="0"/>
</radialGradient>
<radialGradient id="paint12_radial_10_1005" cx="0" cy="0" r="1" gradientUnits="userSpaceOnUse" gradientTransform="translate(167.14 139.408) rotate(90) scale(1.57542 3.15084)">
<stop stop-color="#D9D9D9"/>
<stop offset="0.71875" stop-color="#D9D9D9" stop-opacity="0"/>
</radialGradient>
<radialGradient id="paint13_radial_10_1005" cx="0" cy="0" r="1" gradientUnits="userSpaceOnUse" gradientTransform="translate(107.799 159.363) rotate(90) scale(3.67598 1.57542)">
<stop stop-color="#D9D9D9"/>
<stop offset="0.71875" stop-color="#D9D9D9" stop-opacity="0"/>
</radialGradient>
<radialGradient id="paint14_radial_10_1005" cx="0" cy="0" r="1" gradientUnits="userSpaceOnUse" gradientTransform="translate(84.1676 109.475) rotate(90) scale(3.15084)">
<stop stop-color="#D9D9D9"/>
<stop offset="0.71875" stop-color="#D9D9D9" stop-opacity="0"/>
</radialGradient>
<radialGradient id="paint15_radial_10_1005" cx="0" cy="0" r="1" gradientUnits="userSpaceOnUse" gradientTransform="translate(68.9385 137.307) rotate(90) scale(3.67598 2.6257)">
<stop stop-color="#D9D9D9"/>
<stop offset="0.71875" stop-color="#D9D9D9" stop-opacity="0"/>
</radialGradient>
<radialGradient id="paint16_radial_10_1005" cx="0" cy="0" r="1" gradientUnits="userSpaceOnUse" gradientTransform="translate(81.5419 168.816) rotate(90) scale(5.77654)">
<stop stop-color="#D9D9D9"/>
<stop offset="0.71875" stop-color="#D9D9D9" stop-opacity="0"/>
</radialGradient>
<radialGradient id="paint17_radial_10_1005" cx="0" cy="0" r="1" gradientUnits="userSpaceOnUse" gradientTransform="translate(202.849 126.804) rotate(90) scale(3.67598 3.15084)">
<stop stop-color="#D9D9D9"/>
<stop offset="0.71875" stop-color="#D9D9D9" stop-opacity="0"/>
</radialGradient>
<radialGradient id="paint18_radial_10_1005" cx="0" cy="0" r="1" gradientUnits="userSpaceOnUse" gradientTransform="translate(182.369 132.056) rotate(90) scale(1.57542)">
<stop stop-color="#D9D9D9"/>
<stop offset="0.71875" stop-color="#D9D9D9" stop-opacity="0"/>
</radialGradient>
<radialGradient id="paint19_radial_10_1005" cx="0" cy="0" r="1" gradientUnits="userSpaceOnUse" gradientTransform="translate(178.693 107.899) rotate(90) scale(1.57542 2.10056)">
<stop stop-color="#D9D9D9"/>
<stop offset="0.71875" stop-color="#D9D9D9" stop-opacity="0"/>
</radialGradient>
<radialGradient id="paint20_radial_10_1005" cx="0" cy="0" r="1" gradientUnits="userSpaceOnUse" gradientTransform="translate(160.313 78.4916) rotate(90) scale(11.0279 9.97765)">
<stop stop-color="#D9D9D9"/>
<stop offset="0.71875" stop-color="#D9D9D9" stop-opacity="0"/>
</radialGradient>
<radialGradient id="paint21_radial_10_1005" cx="0" cy="0" r="1" gradientUnits="userSpaceOnUse" gradientTransform="translate(120.927 91.095) rotate(90) scale(9.97765 11.5531)">
<stop stop-color="#D9D9D9"/>
<stop offset="0.71875" stop-color="#D9D9D9" stop-opacity="0"/>
</radialGradient>
<radialGradient id="paint22_radial_10_1005" cx="0" cy="0" r="1" gradientUnits="userSpaceOnUse" gradientTransform="translate(118.827 124.704) rotate(90) scale(1.57542 3.15084)">
<stop stop-color="#D9D9D9"/>
<stop offset="0.71875" stop-color="#D9D9D9" stop-opacity="0"/>
</radialGradient>
<radialGradient id="paint23_radial_10_1005" cx="0" cy="0" r="1" gradientUnits="userSpaceOnUse" gradientTransform="translate(95.1955 85.3184) rotate(90) scale(4.20112 3.67598)">
<stop stop-color="#D9D9D9"/>
<stop offset="0.71875" stop-color="#D9D9D9" stop-opacity="0"/>
</radialGradient>
<radialGradient id="paint24_radial_10_1005" cx="0" cy="0" r="1" gradientUnits="userSpaceOnUse" gradientTransform="translate(152.961 110) rotate(90) scale(2.6257)">
<stop stop-color="#D9D9D9"/>
<stop offset="0.71875" stop-color="#D9D9D9" stop-opacity="0"/>
</radialGradient>
<radialGradient id="paint25_radial_10_1005" cx="0" cy="0" r="1" gradientUnits="userSpaceOnUse" gradientTransform="translate(129.855 70.6145) rotate(90) scale(3.15084 2.6257)">
<stop stop-color="#D9D9D9"/>
<stop offset="0.71875" stop-color="#D9D9D9" stop-opacity="0"/>
</radialGradient>
<linearGradient id="paint26_linear_10_1005" x1="101.5" y1="67" x2="161.5" y2="205.5" gradientUnits="userSpaceOnUse">
<stop offset="0.297394" stop-color="#6D5C00"/>
<stop offset="0.444876" stop-color="#FFD600"/>
<stop offset="0.610261" stop-color="#766300"/>
</linearGradient>
<linearGradient id="paint27_linear_10_1005" x1="138.5" y1="170.5" x2="138.5" y2="185" gradientUnits="userSpaceOnUse">
<stop stop-color="#776301"/>
<stop offset="1" stop-color="#C5B100"/>
</linearGradient>
<linearGradient id="paint28_linear_10_1005" x1="135.5" y1="97" x2="135.5" y2="170" gradientUnits="userSpaceOnUse">
<stop stop-color="#FBD301"/>
<stop offset="1" stop-color="#776301"/>
</linearGradient>
<linearGradient id="paint29_linear_10_1005" x1="137.068" y1="65" x2="137.068" y2="97.2037" gradientUnits="userSpaceOnUse">
<stop stop-color="#F7D002"/>
<stop offset="1" stop-color="#776301"/>
</linearGradient>
<linearGradient id="paint30_linear_10_1005" x1="136.5" y1="185" x2="159.5" y2="186" gradientUnits="userSpaceOnUse">
<stop stop-color="#BDA901"/>
<stop offset="1" stop-color="#776301"/>
</linearGradient>
<linearGradient id="paint31_linear_10_1005" x1="141.75" y1="185" x2="141.75" y2="205.5" gradientUnits="userSpaceOnUse">
<stop stop-color="#C5B100"/>
<stop offset="1" stop-color="#776301"/>
</linearGradient>
<linearGradient id="paint32_linear_10_1005" x1="125" y1="174.5" x2="125" y2="185" gradientUnits="userSpaceOnUse">
<stop stop-color="#776301"/>
<stop offset="1" stop-color="#C5B100"/>
</linearGradient>
<linearGradient id="paint33_linear_10_1005" x1="43.5" y1="38.5" x2="225.99" y2="236.278" gradientUnits="userSpaceOnUse">
<stop offset="0.252809" stop-color="#424242"/>
<stop offset="0.5625" stop-color="#D9D9D9"/>
<stop offset="0.849504" stop-color="#424242"/>
</linearGradient>
<linearGradient id="paint34_linear_10_1005" x1="137" y1="7" x2="137" y2="27" gradientUnits="userSpaceOnUse">
<stop stop-color="#FDFFAA"/>
<stop offset="0.484375" stop-color="white"/>
<stop offset="1" stop-color="#FDFF9B"/>
</linearGradient>
<linearGradient id="paint35_linear_10_1005" x1="137" y1="7" x2="137" y2="27" gradientUnits="userSpaceOnUse">
<stop offset="0.130208" stop-color="#BC9E00"/>
<stop offset="0.484375" stop-color="#EFF24F"/>
<stop offset="0.817708" stop-color="#BC9E00"/>
</linearGradient>
<linearGradient id="paint36_linear_10_1005" x1="42.3869" y1="62.9804" x2="213.831" y2="224.006" gradientUnits="userSpaceOnUse">
<stop stop-color="#424242"/>
<stop offset="0.489583" stop-color="#D9D9D9"/>
<stop offset="0.979167" stop-color="#3E3E3E"/>
</linearGradient>
<linearGradient id="paint37_linear_10_1005" x1="231" y1="229" x2="45.9879" y2="32.6841" gradientUnits="userSpaceOnUse">
<stop offset="0.252809" stop-color="#424242"/>
<stop offset="0.5625" stop-color="#D9D9D9"/>
<stop offset="0.849504" stop-color="#424242"/>
</linearGradient>
<linearGradient id="paint38_linear_10_1005" x1="232" y1="228" x2="44.3896" y2="38.1446" gradientUnits="userSpaceOnUse">
<stop offset="0.252809" stop-color="#424242"/>
<stop offset="0.5625" stop-color="#D9D9D9"/>
<stop offset="0.849504" stop-color="#424242"/>
</linearGradient>
<linearGradient id="paint39_linear_10_1005" x1="43.5" y1="38.5" x2="227.005" y2="235.293" gradientUnits="userSpaceOnUse">
<stop offset="0.252809" stop-color="#424242"/>
<stop offset="0.5625" stop-color="#D9D9D9"/>
<stop offset="0.849504" stop-color="#424242"/>
</linearGradient>
<linearGradient id="paint40_linear_10_1005" x1="86.1828" y1="19.4304" x2="224.312" y2="196.776" gradientUnits="userSpaceOnUse">
<stop stop-color="#424242"/>
<stop offset="0.489583" stop-color="#D9D9D9"/>
<stop offset="0.979167" stop-color="#3E3E3E"/>
</linearGradient>
<linearGradient id="paint41_linear_10_1005" x1="46.2268" y1="39.0591" x2="204.017" y2="212.541" gradientUnits="userSpaceOnUse">
<stop stop-color="#424242"/>
<stop offset="0.489583" stop-color="#D9D9D9"/>
<stop offset="0.979167" stop-color="#3E3E3E"/>
</linearGradient>
<linearGradient id="paint42_linear_10_1005" x1="44" y1="42.4999" x2="231.5" y2="235" gradientUnits="userSpaceOnUse">
<stop stop-color="#424242"/>
<stop offset="0.489583" stop-color="#D9D9D9"/>
<stop offset="0.979167" stop-color="#3E3E3E"/>
</linearGradient>
<linearGradient id="paint43_linear_10_1005" x1="6.2727" y1="125" x2="27.1818" y2="151.364" gradientUnits="userSpaceOnUse">
<stop stop-color="#FFF500"/>
<stop offset="1" stop-color="#FF0000"/>
</linearGradient>
<linearGradient id="paint44_linear_10_1005" x1="-46" y1="135" x2="104" y2="326.818" gradientUnits="userSpaceOnUse">
<stop offset="0.130208" stop-color="#BC9E00"/>
<stop offset="0.484375" stop-color="#EFF24F"/>
<stop offset="0.817708" stop-color="#BC9E00"/>
</linearGradient>
<linearGradient id="paint45_linear_10_1005" x1="252" y1="124" x2="252" y2="144" gradientUnits="userSpaceOnUse">
<stop stop-color="#0060A6"/>
<stop offset="0.484375" stop-color="#00B3FF"/>
<stop offset="1" stop-color="#0062BC"/>
</linearGradient>
<linearGradient id="paint46_linear_10_1005" x1="252" y1="124" x2="252" y2="144" gradientUnits="userSpaceOnUse">
<stop offset="0.130208" stop-color="#BC9E00"/>
<stop offset="0.484375" stop-color="#EFF24F"/>
<stop offset="0.817708" stop-color="#BC9E00"/>
</linearGradient>
<linearGradient id="paint47_linear_10_1005" x1="137" y1="244" x2="137" y2="264" gradientUnits="userSpaceOnUse">
<stop stop-color="#147B03"/>
<stop offset="0.484375" stop-color="#18A800"/>
<stop offset="1" stop-color="#0C4D02"/>
</linearGradient>
<linearGradient id="paint48_linear_10_1005" x1="137" y1="244" x2="137" y2="264" gradientUnits="userSpaceOnUse">
<stop offset="0.130208" stop-color="#BC9E00"/>
<stop offset="0.484375" stop-color="#EFF24F"/>
<stop offset="0.817708" stop-color="#BC9E00"/>
</linearGradient>
</defs>
</svg>
