<svg width="271" height="271" viewBox="0 0 271 271" fill="none" xmlns="http://www.w3.org/2000/svg">
<g filter="url(#filter0_ii_14_1087)">
<circle cx="135.5" cy="135.5" r="135.5" fill="url(#paint0_linear_14_1087)"/>
</g>
<circle cx="135.5" cy="135.5" r="133.5" stroke="url(#paint1_linear_14_1087)" stroke-width="4"/>
<g filter="url(#filter1_dd_14_1087)">
<circle cx="135" cy="135" r="88" fill="url(#paint2_linear_14_1087)"/>
<circle cx="135" cy="135" r="86.5" stroke="url(#paint3_linear_14_1087)" stroke-width="3"/>
</g>
<ellipse cx="100.709" cy="78.0279" rx="6.30168" ry="5.77654" fill="url(#paint4_radial_14_1087)"/>
<ellipse cx="144.296" cy="71.2011" rx="4.72626" ry="4.20112" fill="url(#paint5_radial_14_1087)"/>
<circle cx="90.7319" cy="111.637" r="3.67598" fill="url(#paint6_radial_14_1087)"/>
<circle cx="151.123" cy="122.665" r="7.35196" fill="url(#paint7_radial_14_1087)"/>
<ellipse cx="161.626" cy="86.4301" rx="3.15084" ry="2.6257" fill="url(#paint8_radial_14_1087)"/>
<circle cx="124.341" cy="136.844" r="3.67598" fill="url(#paint9_radial_14_1087)"/>
<ellipse cx="122.24" cy="98.5084" rx="1.57542" ry="2.10056" fill="url(#paint10_radial_14_1087)"/>
<ellipse cx="103.86" cy="131.592" rx="3.15084" ry="1.57542" fill="url(#paint11_radial_14_1087)"/>
<ellipse cx="163.201" cy="111.637" rx="1.57542" ry="3.67598" fill="url(#paint12_radial_14_1087)"/>
<circle cx="186.832" cy="161.525" r="3.15084" fill="url(#paint13_radial_14_1087)"/>
<ellipse cx="202.061" cy="133.693" rx="2.6257" ry="3.67598" fill="url(#paint14_radial_14_1087)"/>
<circle cx="189.458" cy="102.184" r="5.77654" fill="url(#paint15_radial_14_1087)"/>
<ellipse cx="68.1508" cy="144.196" rx="3.15084" ry="3.67598" fill="url(#paint16_radial_14_1087)"/>
<circle cx="88.6313" cy="138.944" r="1.57542" fill="url(#paint17_radial_14_1087)"/>
<ellipse cx="92.3073" cy="163.101" rx="2.10056" ry="1.57542" fill="url(#paint18_radial_14_1087)"/>
<ellipse cx="110.687" cy="192.508" rx="9.97765" ry="11.0279" fill="url(#paint19_radial_14_1087)"/>
<ellipse cx="150.073" cy="179.905" rx="11.5531" ry="9.97765" fill="url(#paint20_radial_14_1087)"/>
<ellipse cx="152.173" cy="146.296" rx="3.15084" ry="1.57542" fill="url(#paint21_radial_14_1087)"/>
<ellipse cx="175.804" cy="185.682" rx="3.67598" ry="4.20112" fill="url(#paint22_radial_14_1087)"/>
<circle cx="118.039" cy="161" r="2.6257" fill="url(#paint23_radial_14_1087)"/>
<ellipse cx="141.145" cy="200.385" rx="2.6257" ry="3.15084" fill="url(#paint24_radial_14_1087)"/>
<g filter="url(#filter2_f_14_1087)">
<path fill-rule="evenodd" clip-rule="evenodd" d="M183 115.5C183 142.286 157.5 163.5 140.5 163.5V183H153L160.5 177.5V197L153 191.5H140.5V201L145.5 208.5H124L130.5 201V191.5H117.5L109.5 197V177.5L116.5 183H130.5V163.837C105.585 161.803 86 140.939 86 115.5C86 88.7142 107.714 67 134.5 67C161.286 67 183 88.7142 183 115.5ZM96 115.5C96 94 114.5 77.5 134.5 77.5C154.5 77.5 172.5 94.5 172.5 115.5C172.5 136.5 154 152.5 134.5 152.5C115 152.5 96 137 96 115.5Z" fill="white"/>
</g>
<g filter="url(#filter3_f_14_1087)">
<path fill-rule="evenodd" clip-rule="evenodd" d="M183 115.5C183 142.286 157.5 163.5 140.5 163.5V183H153L160.5 177.5V197L153 191.5H140.5V201L145.5 208.5H124L130.5 201V191.5H117.5L109.5 197V177.5L116.5 183H130.5V163.837C105.585 161.803 86 140.939 86 115.5C86 88.7142 107.714 67 134.5 67C161.286 67 183 88.7142 183 115.5ZM96 115.5C96 94 114.5 77.5 134.5 77.5C154.5 77.5 172.5 94.5 172.5 115.5C172.5 136.5 154 152.5 134.5 152.5C115 152.5 96 137 96 115.5Z" fill="white"/>
</g>
<path fill-rule="evenodd" clip-rule="evenodd" d="M183 115.5C183 142.286 157.5 163.5 140.5 163.5V183H153L160.5 177.5V197L153 191.5H140.5V201L145.5 208.5H124L130.5 201V191.5H117.5L109.5 197V177.5L116.5 183H130.5V163.837C105.585 161.803 86 140.939 86 115.5C86 88.7142 107.714 67 134.5 67C161.286 67 183 88.7142 183 115.5ZM96 115.5C96 94 114.5 77.5 134.5 77.5C154.5 77.5 172.5 94.5 172.5 115.5C172.5 136.5 154 152.5 134.5 152.5C115 152.5 96 137 96 115.5Z" fill="url(#paint25_linear_14_1087)"/>
<path d="M135.5 187.5H114L109.5 177.5L116.5 183H130.5L135.5 187.5Z" fill="url(#paint26_linear_14_1087)"/>
<path d="M156 188L135 187.5L140.5 191.5H152.5L160.5 197L156 188Z" fill="url(#paint27_linear_14_1087)"/>
<path d="M145.5 208.5L135.5 204L135 187.5L140.5 191.5V201L145.5 208.5Z" fill="url(#paint28_linear_14_1087)"/>
<path d="M140.5 183L135 187.5V159L140.5 163.5V183Z" fill="url(#paint29_linear_14_1087)"/>
<path fill-rule="evenodd" clip-rule="evenodd" d="M179 115C179 139.301 159.301 159 135 159C110.699 159 91 139.301 91 115C91 90.6995 110.699 71 135 71C159.301 71 179 90.6995 179 115ZM96.5 115C96.5 136.318 114 152.5 135 152.5C150 152.5 173 139 173 115C173 97 156.5 77.5 135 77.5C113.5 77.5 96.5 93.682 96.5 115Z" fill="url(#paint30_linear_14_1087)"/>
<path d="M221 76L233 72L245 76L249 88L245 100L233 104L221 100L217 88L221 76Z" fill="url(#paint31_linear_14_1087)"/>
<path d="M224 79L233 76L242 79L245 88L242 97L233 100L224 97L221 88L224 79Z" fill="url(#paint32_linear_14_1087)"/>
<path d="M233 76V72L245 76L242 79L233 76Z" fill="url(#paint33_linear_14_1087)"/>
<path d="M233 76V72L221 76L224 79L233 76Z" fill="url(#paint34_linear_14_1087)"/>
<path d="M245 76L242 79L245 88H249L245 76Z" fill="url(#paint35_linear_14_1087)"/>
<path d="M221 173L233 169L245 173L249 185L245 197L233 201L221 197L217 185L221 173Z" fill="url(#paint36_linear_14_1087)"/>
<path d="M224 176L233 173L242 176L245 185L242 194L233 197L224 194L221 185L224 176Z" fill="url(#paint37_linear_14_1087)"/>
<path d="M233 173V169L245 173L242 176L233 173Z" fill="url(#paint38_linear_14_1087)"/>
<path d="M233 173V169L221 173L224 176L233 173Z" fill="url(#paint39_linear_14_1087)"/>
<path d="M245 173L242 176L245 185H249L245 173Z" fill="url(#paint40_linear_14_1087)"/>
<path d="M185 33L197 29L209 33L213 45L209 57L197 61L185 57L181 45L185 33Z" fill="url(#paint41_linear_14_1087)"/>
<path d="M188 36L197 33L206 36L209 45L206 54L197 57L188 54L185 45L188 36Z" fill="url(#paint42_linear_14_1087)"/>
<path d="M197 33V29L209 33L206 36L197 33Z" fill="url(#paint43_linear_14_1087)"/>
<path d="M197 33V29L185 33L188 36L197 33Z" fill="url(#paint44_linear_14_1087)"/>
<path d="M209 33L206 36L209 45H213L209 33Z" fill="url(#paint45_linear_14_1087)"/>
<path d="M185 215L197 211L209 215L213 227L209 239L197 243L185 239L181 227L185 215Z" fill="url(#paint46_linear_14_1087)"/>
<path d="M188 218L197 215L206 218L209 227L206 236L197 239L188 236L185 227L188 218Z" fill="url(#paint47_linear_14_1087)"/>
<path d="M197 215V211L209 215L206 218L197 215Z" fill="url(#paint48_linear_14_1087)"/>
<path d="M197 215V211L185 215L188 218L197 215Z" fill="url(#paint49_linear_14_1087)"/>
<path d="M209 215L206 218L209 227H213L209 215Z" fill="url(#paint50_linear_14_1087)"/>
<path d="M23 76L35 72L47 76L51 88L47 100L35 104L23 100L19 88L23 76Z" fill="url(#paint51_linear_14_1087)"/>
<path d="M26 79L35 76L44 79L47 88L44 97L35 100L26 97L23 88L26 79Z" fill="url(#paint52_linear_14_1087)"/>
<path d="M35 76V72L47 76L44 79L35 76Z" fill="url(#paint53_linear_14_1087)"/>
<path d="M35 76V72L23 76L26 79L35 76Z" fill="url(#paint54_linear_14_1087)"/>
<path d="M47 76L44 79L47 88H51L47 76Z" fill="url(#paint55_linear_14_1087)"/>
<path d="M61 33L73 29L85 33L89 45L85 57L73 61L61 57L57 45L61 33Z" fill="url(#paint56_linear_14_1087)"/>
<path d="M64 36L73 33L82 36L85 45L82 54L73 57L64 54L61 45L64 36Z" fill="url(#paint57_linear_14_1087)"/>
<path d="M73 33V29L85 33L82 36L73 33Z" fill="url(#paint58_linear_14_1087)"/>
<path d="M73 33V29L61 33L64 36L73 33Z" fill="url(#paint59_linear_14_1087)"/>
<path d="M85 33L82 36L85 45H89L85 33Z" fill="url(#paint60_linear_14_1087)"/>
<path d="M23 173L35 169L47 173L51 185L47 197L35 201L23 197L19 185L23 173Z" fill="url(#paint61_linear_14_1087)"/>
<path d="M26 176L35 173L44 176L47 185L44 194L35 197L26 194L23 185L26 176Z" fill="url(#paint62_linear_14_1087)"/>
<path d="M35 173V169L47 173L44 176L35 173Z" fill="url(#paint63_linear_14_1087)"/>
<path d="M35 173V169L23 173L26 176L35 173Z" fill="url(#paint64_linear_14_1087)"/>
<path d="M47 173L44 176L47 185H51L47 173Z" fill="url(#paint65_linear_14_1087)"/>
<path d="M61 215L73 211L85 215L89 227L85 239L73 243L61 239L57 227L61 215Z" fill="url(#paint66_linear_14_1087)"/>
<path d="M64 218L73 215L82 218L85 227L82 236L73 239L64 236L61 227L64 218Z" fill="url(#paint67_linear_14_1087)"/>
<path d="M73 215V211L85 215L82 218L73 215Z" fill="url(#paint68_linear_14_1087)"/>
<path d="M73 215V211L61 215L64 218L73 215Z" fill="url(#paint69_linear_14_1087)"/>
<path d="M85 215L82 218L85 227H89L85 215Z" fill="url(#paint70_linear_14_1087)"/>
<g filter="url(#filter4_ddd_14_1087)">
<path d="M144.254 249.554C138.628 252.302 135.072 256.996 133.997 259C132.122 255.336 126.28 251.176 123.594 249.554C121.396 248.504 117 245.289 117 240.824C117.147 231.234 123.594 229.231 126.964 230.233C130.92 230.662 133.411 235.099 133.997 236.244C135.023 233.667 137.807 229.66 144.254 230.233C149.412 230.691 150.995 237.245 150.995 240.824C151.092 242.589 149.881 246.806 144.254 249.554Z" fill="url(#paint71_linear_14_1087)"/>
</g>
<g filter="url(#filter5_ddd_14_1087)">
<path fill-rule="evenodd" clip-rule="evenodd" d="M230.838 124.379L227 118.473V113H233.183V116.529H237.802V113H244.269V116.529H249.102V113H255V118.473L251.376 124.379V140.582L255 143.175V148H227V143.175L230.838 140.582V124.379ZM237.802 127.043V132.733H244.269V127.043C244.151 126.155 243.345 124.379 241.071 124.379C238.797 124.379 237.944 126.155 237.802 127.043Z" fill="url(#paint72_linear_14_1087)"/>
</g>
<g filter="url(#filter6_ddd_14_1087)">
<path d="M149.5 36.5H118.5C117.5 27 116.5 25.5 114 18.5C119 19.5 121.5 22 123 23.5L123 23.5C120.6 27.9 123.333 29.6667 125 30C126.5 30.3333 129.7 30.2 130.5 27C130.5 22.5 127.5 22 126.5 22C127 18 132.5 12 134 11C139 15 141 20.5 141 22C137 22.0655 137 25.3606 137.5 27C138.333 28.6667 140.7 31.5 143.5 29.5C147 27 145 24 144.5 23.5C147 20 153 18.5 154.5 18.5C151.3 22.1 149.833 32 149.5 36.5Z" fill="url(#paint73_linear_14_1087)"/>
</g>
<g filter="url(#filter7_ddd_14_1087)">
<path d="M10.0703 140.814C12.5165 141.709 18.924 142.962 24.9843 140.814C24.9843 139.35 25.4578 133.493 21.1967 131.053C21.6701 130.077 22.1436 129.345 22.1436 127.636C22.1436 125.928 21.249 123 17.6457 123C14.0947 123 12.9111 126.172 12.9111 127.636C12.9111 128.369 12.9111 129.833 14.0947 131.053C12.5165 131.785 9.50216 134.762 10.0703 140.814Z" fill="url(#paint74_linear_14_1087)"/>
</g>
<g filter="url(#filter8_ddd_14_1087)">
<path d="M27.0703 140.814C29.5165 141.709 35.924 142.962 41.9843 140.814C41.9843 139.35 42.4578 133.493 38.1967 131.053C38.6701 130.077 39.1436 129.345 39.1436 127.636C39.1436 125.928 38.249 123 34.6457 123C31.0947 123 29.9111 126.172 29.9111 127.636C29.9111 128.369 29.9111 129.833 31.0947 131.053C29.5165 131.785 26.5022 134.762 27.0703 140.814Z" fill="url(#paint75_linear_14_1087)"/>
</g>
<g filter="url(#filter9_ddd_14_1087)">
<path d="M18.075 143.814C20.6843 144.709 27.519 145.962 33.9833 143.814C33.9833 142.35 34.4883 136.493 29.9431 134.053C30.4481 133.077 30.9532 132.345 30.9532 130.636C30.9532 128.928 29.9989 126 26.1554 126C22.3677 126 21.1052 129.172 21.1052 130.636C21.1052 131.369 21.1052 132.833 22.3677 134.053C20.6843 134.785 17.469 137.762 18.075 143.814Z" fill="url(#paint76_linear_14_1087)"/>
</g>
<defs>
<filter id="filter0_ii_14_1087" x="0" y="0" width="271" height="275" filterUnits="userSpaceOnUse" color-interpolation-filters="sRGB">
<feFlood flood-opacity="0" result="BackgroundImageFix"/>
<feBlend mode="normal" in="SourceGraphic" in2="BackgroundImageFix" result="shape"/>
<feColorMatrix in="SourceAlpha" type="matrix" values="0 0 0 0 0 0 0 0 0 0 0 0 0 0 0 0 0 0 127 0" result="hardAlpha"/>
<feOffset dy="4"/>
<feGaussianBlur stdDeviation="2"/>
<feComposite in2="hardAlpha" operator="arithmetic" k2="-1" k3="1"/>
<feColorMatrix type="matrix" values="0 0 0 0 0 0 0 0 0 0 0 0 0 0 0 0 0 0 0.25 0"/>
<feBlend mode="normal" in2="shape" result="effect1_innerShadow_14_1087"/>
<feColorMatrix in="SourceAlpha" type="matrix" values="0 0 0 0 0 0 0 0 0 0 0 0 0 0 0 0 0 0 127 0" result="hardAlpha"/>
<feOffset dy="4"/>
<feGaussianBlur stdDeviation="2"/>
<feComposite in2="hardAlpha" operator="arithmetic" k2="-1" k3="1"/>
<feColorMatrix type="matrix" values="0 0 0 0 0 0 0 0 0 0 0 0 0 0 0 0 0 0 0.25 0"/>
<feBlend mode="normal" in2="effect1_innerShadow_14_1087" result="effect2_innerShadow_14_1087"/>
</filter>
<filter id="filter1_dd_14_1087" x="43" y="47" width="184" height="184" filterUnits="userSpaceOnUse" color-interpolation-filters="sRGB">
<feFlood flood-opacity="0" result="BackgroundImageFix"/>
<feColorMatrix in="SourceAlpha" type="matrix" values="0 0 0 0 0 0 0 0 0 0 0 0 0 0 0 0 0 0 127 0" result="hardAlpha"/>
<feOffset dy="4"/>
<feGaussianBlur stdDeviation="2"/>
<feComposite in2="hardAlpha" operator="out"/>
<feColorMatrix type="matrix" values="0 0 0 0 0 0 0 0 0 0 0 0 0 0 0 0 0 0 0.25 0"/>
<feBlend mode="normal" in2="BackgroundImageFix" result="effect1_dropShadow_14_1087"/>
<feColorMatrix in="SourceAlpha" type="matrix" values="0 0 0 0 0 0 0 0 0 0 0 0 0 0 0 0 0 0 127 0" result="hardAlpha"/>
<feOffset dy="4"/>
<feGaussianBlur stdDeviation="2"/>
<feComposite in2="hardAlpha" operator="out"/>
<feColorMatrix type="matrix" values="0 0 0 0 0 0 0 0 0 0 0 0 0 0 0 0 0 0 0.25 0"/>
<feBlend mode="normal" in2="effect1_dropShadow_14_1087" result="effect2_dropShadow_14_1087"/>
<feBlend mode="normal" in="SourceGraphic" in2="effect2_dropShadow_14_1087" result="shape"/>
</filter>
<filter id="filter2_f_14_1087" x="82" y="63" width="105" height="149.5" filterUnits="userSpaceOnUse" color-interpolation-filters="sRGB">
<feFlood flood-opacity="0" result="BackgroundImageFix"/>
<feBlend mode="normal" in="SourceGraphic" in2="BackgroundImageFix" result="shape"/>
<feGaussianBlur stdDeviation="2" result="effect1_foregroundBlur_14_1087"/>
</filter>
<filter id="filter3_f_14_1087" x="82" y="63" width="105" height="149.5" filterUnits="userSpaceOnUse" color-interpolation-filters="sRGB">
<feFlood flood-opacity="0" result="BackgroundImageFix"/>
<feBlend mode="normal" in="SourceGraphic" in2="BackgroundImageFix" result="shape"/>
<feGaussianBlur stdDeviation="2" result="effect1_foregroundBlur_14_1087"/>
</filter>
<filter id="filter4_ddd_14_1087" x="113" y="230" width="42" height="37" filterUnits="userSpaceOnUse" color-interpolation-filters="sRGB">
<feFlood flood-opacity="0" result="BackgroundImageFix"/>
<feColorMatrix in="SourceAlpha" type="matrix" values="0 0 0 0 0 0 0 0 0 0 0 0 0 0 0 0 0 0 127 0" result="hardAlpha"/>
<feOffset dy="4"/>
<feGaussianBlur stdDeviation="2"/>
<feComposite in2="hardAlpha" operator="out"/>
<feColorMatrix type="matrix" values="0 0 0 0 0 0 0 0 0 0 0 0 0 0 0 0 0 0 0.25 0"/>
<feBlend mode="normal" in2="BackgroundImageFix" result="effect1_dropShadow_14_1087"/>
<feColorMatrix in="SourceAlpha" type="matrix" values="0 0 0 0 0 0 0 0 0 0 0 0 0 0 0 0 0 0 127 0" result="hardAlpha"/>
<feOffset dy="4"/>
<feGaussianBlur stdDeviation="2"/>
<feComposite in2="hardAlpha" operator="out"/>
<feColorMatrix type="matrix" values="0 0 0 0 0 0 0 0 0 0 0 0 0 0 0 0 0 0 0.25 0"/>
<feBlend mode="normal" in2="effect1_dropShadow_14_1087" result="effect2_dropShadow_14_1087"/>
<feColorMatrix in="SourceAlpha" type="matrix" values="0 0 0 0 0 0 0 0 0 0 0 0 0 0 0 0 0 0 127 0" result="hardAlpha"/>
<feOffset dy="4"/>
<feGaussianBlur stdDeviation="2"/>
<feComposite in2="hardAlpha" operator="out"/>
<feColorMatrix type="matrix" values="0 0 0 0 0 0 0 0 0 0 0 0 0 0 0 0 0 0 0.25 0"/>
<feBlend mode="normal" in2="effect2_dropShadow_14_1087" result="effect3_dropShadow_14_1087"/>
<feBlend mode="normal" in="SourceGraphic" in2="effect3_dropShadow_14_1087" result="shape"/>
</filter>
<filter id="filter5_ddd_14_1087" x="223" y="113" width="36" height="43" filterUnits="userSpaceOnUse" color-interpolation-filters="sRGB">
<feFlood flood-opacity="0" result="BackgroundImageFix"/>
<feColorMatrix in="SourceAlpha" type="matrix" values="0 0 0 0 0 0 0 0 0 0 0 0 0 0 0 0 0 0 127 0" result="hardAlpha"/>
<feOffset dy="4"/>
<feGaussianBlur stdDeviation="2"/>
<feComposite in2="hardAlpha" operator="out"/>
<feColorMatrix type="matrix" values="0 0 0 0 0 0 0 0 0 0 0 0 0 0 0 0 0 0 0.25 0"/>
<feBlend mode="normal" in2="BackgroundImageFix" result="effect1_dropShadow_14_1087"/>
<feColorMatrix in="SourceAlpha" type="matrix" values="0 0 0 0 0 0 0 0 0 0 0 0 0 0 0 0 0 0 127 0" result="hardAlpha"/>
<feOffset dy="4"/>
<feGaussianBlur stdDeviation="2"/>
<feComposite in2="hardAlpha" operator="out"/>
<feColorMatrix type="matrix" values="0 0 0 0 0 0 0 0 0 0 0 0 0 0 0 0 0 0 0.25 0"/>
<feBlend mode="normal" in2="effect1_dropShadow_14_1087" result="effect2_dropShadow_14_1087"/>
<feColorMatrix in="SourceAlpha" type="matrix" values="0 0 0 0 0 0 0 0 0 0 0 0 0 0 0 0 0 0 127 0" result="hardAlpha"/>
<feOffset dy="4"/>
<feGaussianBlur stdDeviation="2"/>
<feComposite in2="hardAlpha" operator="out"/>
<feColorMatrix type="matrix" values="0 0 0 0 0 0 0 0 0 0 0 0 0 0 0 0 0 0 0.25 0"/>
<feBlend mode="normal" in2="effect2_dropShadow_14_1087" result="effect3_dropShadow_14_1087"/>
<feBlend mode="normal" in="SourceGraphic" in2="effect3_dropShadow_14_1087" result="shape"/>
</filter>
<filter id="filter6_ddd_14_1087" x="110" y="11" width="48.5" height="33.5" filterUnits="userSpaceOnUse" color-interpolation-filters="sRGB">
<feFlood flood-opacity="0" result="BackgroundImageFix"/>
<feColorMatrix in="SourceAlpha" type="matrix" values="0 0 0 0 0 0 0 0 0 0 0 0 0 0 0 0 0 0 127 0" result="hardAlpha"/>
<feOffset dy="4"/>
<feGaussianBlur stdDeviation="2"/>
<feComposite in2="hardAlpha" operator="out"/>
<feColorMatrix type="matrix" values="0 0 0 0 0 0 0 0 0 0 0 0 0 0 0 0 0 0 0.25 0"/>
<feBlend mode="normal" in2="BackgroundImageFix" result="effect1_dropShadow_14_1087"/>
<feColorMatrix in="SourceAlpha" type="matrix" values="0 0 0 0 0 0 0 0 0 0 0 0 0 0 0 0 0 0 127 0" result="hardAlpha"/>
<feOffset dy="4"/>
<feGaussianBlur stdDeviation="2"/>
<feComposite in2="hardAlpha" operator="out"/>
<feColorMatrix type="matrix" values="0 0 0 0 0 0 0 0 0 0 0 0 0 0 0 0 0 0 0.25 0"/>
<feBlend mode="normal" in2="effect1_dropShadow_14_1087" result="effect2_dropShadow_14_1087"/>
<feColorMatrix in="SourceAlpha" type="matrix" values="0 0 0 0 0 0 0 0 0 0 0 0 0 0 0 0 0 0 127 0" result="hardAlpha"/>
<feOffset dy="4"/>
<feGaussianBlur stdDeviation="2"/>
<feComposite in2="hardAlpha" operator="out"/>
<feColorMatrix type="matrix" values="0 0 0 0 0 0 0 0 0 0 0 0 0 0 0 0 0 0 0.25 0"/>
<feBlend mode="normal" in2="effect2_dropShadow_14_1087" result="effect3_dropShadow_14_1087"/>
<feBlend mode="normal" in="SourceGraphic" in2="effect3_dropShadow_14_1087" result="shape"/>
</filter>
<filter id="filter7_ddd_14_1087" x="6" y="123" width="23" height="27" filterUnits="userSpaceOnUse" color-interpolation-filters="sRGB">
<feFlood flood-opacity="0" result="BackgroundImageFix"/>
<feColorMatrix in="SourceAlpha" type="matrix" values="0 0 0 0 0 0 0 0 0 0 0 0 0 0 0 0 0 0 127 0" result="hardAlpha"/>
<feOffset dy="4"/>
<feGaussianBlur stdDeviation="2"/>
<feComposite in2="hardAlpha" operator="out"/>
<feColorMatrix type="matrix" values="0 0 0 0 0 0 0 0 0 0 0 0 0 0 0 0 0 0 0.25 0"/>
<feBlend mode="normal" in2="BackgroundImageFix" result="effect1_dropShadow_14_1087"/>
<feColorMatrix in="SourceAlpha" type="matrix" values="0 0 0 0 0 0 0 0 0 0 0 0 0 0 0 0 0 0 127 0" result="hardAlpha"/>
<feOffset dy="4"/>
<feGaussianBlur stdDeviation="2"/>
<feComposite in2="hardAlpha" operator="out"/>
<feColorMatrix type="matrix" values="0 0 0 0 0 0 0 0 0 0 0 0 0 0 0 0 0 0 0.25 0"/>
<feBlend mode="normal" in2="effect1_dropShadow_14_1087" result="effect2_dropShadow_14_1087"/>
<feColorMatrix in="SourceAlpha" type="matrix" values="0 0 0 0 0 0 0 0 0 0 0 0 0 0 0 0 0 0 127 0" result="hardAlpha"/>
<feOffset dy="4"/>
<feGaussianBlur stdDeviation="2"/>
<feComposite in2="hardAlpha" operator="out"/>
<feColorMatrix type="matrix" values="0 0 0 0 0 0 0 0 0 0 0 0 0 0 0 0 0 0 0.25 0"/>
<feBlend mode="normal" in2="effect2_dropShadow_14_1087" result="effect3_dropShadow_14_1087"/>
<feBlend mode="normal" in="SourceGraphic" in2="effect3_dropShadow_14_1087" result="shape"/>
</filter>
<filter id="filter8_ddd_14_1087" x="23" y="123" width="23" height="27" filterUnits="userSpaceOnUse" color-interpolation-filters="sRGB">
<feFlood flood-opacity="0" result="BackgroundImageFix"/>
<feColorMatrix in="SourceAlpha" type="matrix" values="0 0 0 0 0 0 0 0 0 0 0 0 0 0 0 0 0 0 127 0" result="hardAlpha"/>
<feOffset dy="4"/>
<feGaussianBlur stdDeviation="2"/>
<feComposite in2="hardAlpha" operator="out"/>
<feColorMatrix type="matrix" values="0 0 0 0 0 0 0 0 0 0 0 0 0 0 0 0 0 0 0.25 0"/>
<feBlend mode="normal" in2="BackgroundImageFix" result="effect1_dropShadow_14_1087"/>
<feColorMatrix in="SourceAlpha" type="matrix" values="0 0 0 0 0 0 0 0 0 0 0 0 0 0 0 0 0 0 127 0" result="hardAlpha"/>
<feOffset dy="4"/>
<feGaussianBlur stdDeviation="2"/>
<feComposite in2="hardAlpha" operator="out"/>
<feColorMatrix type="matrix" values="0 0 0 0 0 0 0 0 0 0 0 0 0 0 0 0 0 0 0.25 0"/>
<feBlend mode="normal" in2="effect1_dropShadow_14_1087" result="effect2_dropShadow_14_1087"/>
<feColorMatrix in="SourceAlpha" type="matrix" values="0 0 0 0 0 0 0 0 0 0 0 0 0 0 0 0 0 0 127 0" result="hardAlpha"/>
<feOffset dy="4"/>
<feGaussianBlur stdDeviation="2"/>
<feComposite in2="hardAlpha" operator="out"/>
<feColorMatrix type="matrix" values="0 0 0 0 0 0 0 0 0 0 0 0 0 0 0 0 0 0 0.25 0"/>
<feBlend mode="normal" in2="effect2_dropShadow_14_1087" result="effect3_dropShadow_14_1087"/>
<feBlend mode="normal" in="SourceGraphic" in2="effect3_dropShadow_14_1087" result="shape"/>
</filter>
<filter id="filter9_ddd_14_1087" x="14" y="126" width="24" height="27" filterUnits="userSpaceOnUse" color-interpolation-filters="sRGB">
<feFlood flood-opacity="0" result="BackgroundImageFix"/>
<feColorMatrix in="SourceAlpha" type="matrix" values="0 0 0 0 0 0 0 0 0 0 0 0 0 0 0 0 0 0 127 0" result="hardAlpha"/>
<feOffset dy="4"/>
<feGaussianBlur stdDeviation="2"/>
<feComposite in2="hardAlpha" operator="out"/>
<feColorMatrix type="matrix" values="0 0 0 0 0 0 0 0 0 0 0 0 0 0 0 0 0 0 0.25 0"/>
<feBlend mode="normal" in2="BackgroundImageFix" result="effect1_dropShadow_14_1087"/>
<feColorMatrix in="SourceAlpha" type="matrix" values="0 0 0 0 0 0 0 0 0 0 0 0 0 0 0 0 0 0 127 0" result="hardAlpha"/>
<feOffset dy="4"/>
<feGaussianBlur stdDeviation="2"/>
<feComposite in2="hardAlpha" operator="out"/>
<feColorMatrix type="matrix" values="0 0 0 0 0 0 0 0 0 0 0 0 0 0 0 0 0 0 0.25 0"/>
<feBlend mode="normal" in2="effect1_dropShadow_14_1087" result="effect2_dropShadow_14_1087"/>
<feColorMatrix in="SourceAlpha" type="matrix" values="0 0 0 0 0 0 0 0 0 0 0 0 0 0 0 0 0 0 127 0" result="hardAlpha"/>
<feOffset dy="4"/>
<feGaussianBlur stdDeviation="2"/>
<feComposite in2="hardAlpha" operator="out"/>
<feColorMatrix type="matrix" values="0 0 0 0 0 0 0 0 0 0 0 0 0 0 0 0 0 0 0.25 0"/>
<feBlend mode="normal" in2="effect2_dropShadow_14_1087" result="effect3_dropShadow_14_1087"/>
<feBlend mode="normal" in="SourceGraphic" in2="effect3_dropShadow_14_1087" result="shape"/>
</filter>
<linearGradient id="paint0_linear_14_1087" x1="35.5243" y1="27.912" x2="153.77" y2="273.537" gradientUnits="userSpaceOnUse">
<stop offset="0.157298" stop-color="#09006F"/>
<stop offset="0.515625" stop-color="#0025E6"/>
<stop offset="0.834637" stop-color="#001561"/>
</linearGradient>
<linearGradient id="paint1_linear_14_1087" x1="60.4621" y1="15.1155" x2="135.5" y2="271" gradientUnits="userSpaceOnUse">
<stop offset="0.236248" stop-color="#424242"/>
<stop offset="0.520833" stop-color="white"/>
<stop offset="0.833884" stop-color="#424242"/>
</linearGradient>
<linearGradient id="paint2_linear_14_1087" x1="135" y1="47" x2="135" y2="223" gradientUnits="userSpaceOnUse">
<stop/>
<stop offset="1" stop-color="#44005B"/>
</linearGradient>
<linearGradient id="paint3_linear_14_1087" x1="107" y1="56.5" x2="135" y2="223" gradientUnits="userSpaceOnUse">
<stop offset="0.178452" stop-color="#424242"/>
<stop offset="0.463542" stop-color="#B6B6B6"/>
<stop offset="0.855913" stop-color="#424242"/>
</linearGradient>
<radialGradient id="paint4_radial_14_1087" cx="0" cy="0" r="1" gradientUnits="userSpaceOnUse" gradientTransform="translate(100.709 78.0279) rotate(90) scale(5.77654 6.30168)">
<stop stop-color="#D9D9D9"/>
<stop offset="0.71875" stop-color="#D9D9D9" stop-opacity="0"/>
</radialGradient>
<radialGradient id="paint5_radial_14_1087" cx="0" cy="0" r="1" gradientUnits="userSpaceOnUse" gradientTransform="translate(144.296 71.2011) rotate(90) scale(4.20112 4.72626)">
<stop stop-color="#D9D9D9"/>
<stop offset="0.71875" stop-color="#D9D9D9" stop-opacity="0"/>
</radialGradient>
<radialGradient id="paint6_radial_14_1087" cx="0" cy="0" r="1" gradientUnits="userSpaceOnUse" gradientTransform="translate(90.7319 111.637) rotate(90) scale(3.67598)">
<stop stop-color="#D9D9D9"/>
<stop offset="0.71875" stop-color="#D9D9D9" stop-opacity="0"/>
</radialGradient>
<radialGradient id="paint7_radial_14_1087" cx="0" cy="0" r="1" gradientUnits="userSpaceOnUse" gradientTransform="translate(151.123 122.665) rotate(90) scale(7.35196)">
<stop stop-color="#D9D9D9"/>
<stop offset="0.71875" stop-color="#D9D9D9" stop-opacity="0"/>
</radialGradient>
<radialGradient id="paint8_radial_14_1087" cx="0" cy="0" r="1" gradientUnits="userSpaceOnUse" gradientTransform="translate(161.626 86.4301) rotate(90) scale(2.6257 3.15084)">
<stop stop-color="#D9D9D9"/>
<stop offset="0.71875" stop-color="#D9D9D9" stop-opacity="0"/>
</radialGradient>
<radialGradient id="paint9_radial_14_1087" cx="0" cy="0" r="1" gradientUnits="userSpaceOnUse" gradientTransform="translate(124.341 136.844) rotate(90) scale(3.67598)">
<stop stop-color="#D9D9D9"/>
<stop offset="0.71875" stop-color="#D9D9D9" stop-opacity="0"/>
</radialGradient>
<radialGradient id="paint10_radial_14_1087" cx="0" cy="0" r="1" gradientUnits="userSpaceOnUse" gradientTransform="translate(122.24 98.5084) rotate(90) scale(2.10056 1.57542)">
<stop stop-color="#D9D9D9"/>
<stop offset="0.71875" stop-color="#D9D9D9" stop-opacity="0"/>
</radialGradient>
<radialGradient id="paint11_radial_14_1087" cx="0" cy="0" r="1" gradientUnits="userSpaceOnUse" gradientTransform="translate(103.86 131.592) rotate(90) scale(1.57542 3.15084)">
<stop stop-color="#D9D9D9"/>
<stop offset="0.71875" stop-color="#D9D9D9" stop-opacity="0"/>
</radialGradient>
<radialGradient id="paint12_radial_14_1087" cx="0" cy="0" r="1" gradientUnits="userSpaceOnUse" gradientTransform="translate(163.201 111.637) rotate(90) scale(3.67598 1.57542)">
<stop stop-color="#D9D9D9"/>
<stop offset="0.71875" stop-color="#D9D9D9" stop-opacity="0"/>
</radialGradient>
<radialGradient id="paint13_radial_14_1087" cx="0" cy="0" r="1" gradientUnits="userSpaceOnUse" gradientTransform="translate(186.832 161.525) rotate(90) scale(3.15084)">
<stop stop-color="#D9D9D9"/>
<stop offset="0.71875" stop-color="#D9D9D9" stop-opacity="0"/>
</radialGradient>
<radialGradient id="paint14_radial_14_1087" cx="0" cy="0" r="1" gradientUnits="userSpaceOnUse" gradientTransform="translate(202.061 133.693) rotate(90) scale(3.67598 2.6257)">
<stop stop-color="#D9D9D9"/>
<stop offset="0.71875" stop-color="#D9D9D9" stop-opacity="0"/>
</radialGradient>
<radialGradient id="paint15_radial_14_1087" cx="0" cy="0" r="1" gradientUnits="userSpaceOnUse" gradientTransform="translate(189.458 102.184) rotate(90) scale(5.77654)">
<stop stop-color="#D9D9D9"/>
<stop offset="0.71875" stop-color="#D9D9D9" stop-opacity="0"/>
</radialGradient>
<radialGradient id="paint16_radial_14_1087" cx="0" cy="0" r="1" gradientUnits="userSpaceOnUse" gradientTransform="translate(68.1508 144.196) rotate(90) scale(3.67598 3.15084)">
<stop stop-color="#D9D9D9"/>
<stop offset="0.71875" stop-color="#D9D9D9" stop-opacity="0"/>
</radialGradient>
<radialGradient id="paint17_radial_14_1087" cx="0" cy="0" r="1" gradientUnits="userSpaceOnUse" gradientTransform="translate(88.6313 138.944) rotate(90) scale(1.57542)">
<stop stop-color="#D9D9D9"/>
<stop offset="0.71875" stop-color="#D9D9D9" stop-opacity="0"/>
</radialGradient>
<radialGradient id="paint18_radial_14_1087" cx="0" cy="0" r="1" gradientUnits="userSpaceOnUse" gradientTransform="translate(92.3073 163.101) rotate(90) scale(1.57542 2.10056)">
<stop stop-color="#D9D9D9"/>
<stop offset="0.71875" stop-color="#D9D9D9" stop-opacity="0"/>
</radialGradient>
<radialGradient id="paint19_radial_14_1087" cx="0" cy="0" r="1" gradientUnits="userSpaceOnUse" gradientTransform="translate(110.687 192.508) rotate(90) scale(11.0279 9.97765)">
<stop stop-color="#D9D9D9"/>
<stop offset="0.71875" stop-color="#D9D9D9" stop-opacity="0"/>
</radialGradient>
<radialGradient id="paint20_radial_14_1087" cx="0" cy="0" r="1" gradientUnits="userSpaceOnUse" gradientTransform="translate(150.073 179.905) rotate(90) scale(9.97765 11.5531)">
<stop stop-color="#D9D9D9"/>
<stop offset="0.71875" stop-color="#D9D9D9" stop-opacity="0"/>
</radialGradient>
<radialGradient id="paint21_radial_14_1087" cx="0" cy="0" r="1" gradientUnits="userSpaceOnUse" gradientTransform="translate(152.173 146.296) rotate(90) scale(1.57542 3.15084)">
<stop stop-color="#D9D9D9"/>
<stop offset="0.71875" stop-color="#D9D9D9" stop-opacity="0"/>
</radialGradient>
<radialGradient id="paint22_radial_14_1087" cx="0" cy="0" r="1" gradientUnits="userSpaceOnUse" gradientTransform="translate(175.804 185.682) rotate(90) scale(4.20112 3.67598)">
<stop stop-color="#D9D9D9"/>
<stop offset="0.71875" stop-color="#D9D9D9" stop-opacity="0"/>
</radialGradient>
<radialGradient id="paint23_radial_14_1087" cx="0" cy="0" r="1" gradientUnits="userSpaceOnUse" gradientTransform="translate(118.039 161) rotate(90) scale(2.6257)">
<stop stop-color="#D9D9D9"/>
<stop offset="0.71875" stop-color="#D9D9D9" stop-opacity="0"/>
</radialGradient>
<radialGradient id="paint24_radial_14_1087" cx="0" cy="0" r="1" gradientUnits="userSpaceOnUse" gradientTransform="translate(141.145 200.385) rotate(90) scale(3.15084 2.6257)">
<stop stop-color="#D9D9D9"/>
<stop offset="0.71875" stop-color="#D9D9D9" stop-opacity="0"/>
</radialGradient>
<linearGradient id="paint25_linear_14_1087" x1="135" y1="21.5" x2="134.5" y2="208.5" gradientUnits="userSpaceOnUse">
<stop stop-color="#000231"/>
<stop offset="0.53125" stop-color="#232CFD"/>
<stop offset="1" stop-color="#000462"/>
</linearGradient>
<linearGradient id="paint26_linear_14_1087" x1="110" y1="177" x2="140.5" y2="193" gradientUnits="userSpaceOnUse">
<stop stop-color="#09006F"/>
<stop offset="0.453125" stop-color="#0025E6"/>
<stop offset="0.984375" stop-color="#09006F"/>
</linearGradient>
<linearGradient id="paint27_linear_14_1087" x1="143" y1="188" x2="162" y2="209.5" gradientUnits="userSpaceOnUse">
<stop stop-color="#09006F"/>
<stop offset="0.453125" stop-color="#232CFD"/>
<stop offset="0.921875" stop-color="#000462"/>
</linearGradient>
<linearGradient id="paint28_linear_14_1087" x1="139.75" y1="188" x2="139.75" y2="207.5" gradientUnits="userSpaceOnUse">
<stop stop-color="#09006F"/>
<stop offset="0.520833" stop-color="#232CFD"/>
<stop offset="1" stop-color="#09006F"/>
</linearGradient>
<linearGradient id="paint29_linear_14_1087" x1="126.5" y1="162.5" x2="151" y2="199.5" gradientUnits="userSpaceOnUse">
<stop stop-color="#09006F"/>
<stop offset="0.5" stop-color="#232CFD"/>
<stop offset="1" stop-color="#09006F"/>
</linearGradient>
<linearGradient id="paint30_linear_14_1087" x1="135" y1="71" x2="135" y2="159" gradientUnits="userSpaceOnUse">
<stop offset="0.2081" stop-color="#09006F"/>
<stop offset="0.567708" stop-color="#232CFD"/>
<stop offset="0.973958" stop-color="#09006F"/>
</linearGradient>
<linearGradient id="paint31_linear_14_1087" x1="233" y1="72" x2="233" y2="104" gradientUnits="userSpaceOnUse">
<stop stop-color="#0C4D02"/>
<stop offset="1" stop-color="#18A800"/>
</linearGradient>
<linearGradient id="paint32_linear_14_1087" x1="226.25" y1="75.25" x2="243.5" y2="100" gradientUnits="userSpaceOnUse">
<stop offset="0.151345" stop-color="#0C4D02"/>
<stop offset="0.3536" stop-color="#18A800"/>
<stop offset="0.629618" stop-color="#0C4D02"/>
</linearGradient>
<linearGradient id="paint33_linear_14_1087" x1="230" y1="84" x2="245" y2="76.5" gradientUnits="userSpaceOnUse">
<stop offset="0.380208" stop-color="#18A800"/>
<stop offset="0.836486" stop-color="#0B5000"/>
</linearGradient>
<linearGradient id="paint34_linear_14_1087" x1="236" y1="84" x2="221" y2="76.5" gradientUnits="userSpaceOnUse">
<stop offset="0.430151" stop-color="#18A800"/>
<stop offset="0.836486" stop-color="#0C5300"/>
</linearGradient>
<linearGradient id="paint35_linear_14_1087" x1="245.5" y1="76" x2="245.5" y2="88" gradientUnits="userSpaceOnUse">
<stop stop-color="#18A800"/>
<stop offset="1" stop-color="#0C4D02"/>
</linearGradient>
<linearGradient id="paint36_linear_14_1087" x1="233" y1="169" x2="233" y2="201" gradientUnits="userSpaceOnUse">
<stop stop-color="#626262"/>
<stop offset="1"/>
</linearGradient>
<linearGradient id="paint37_linear_14_1087" x1="226.25" y1="172.25" x2="243.5" y2="197" gradientUnits="userSpaceOnUse">
<stop offset="0.151345"/>
<stop offset="0.3536" stop-color="#555555"/>
<stop offset="0.817708"/>
</linearGradient>
<linearGradient id="paint38_linear_14_1087" x1="230" y1="181" x2="245" y2="173.5" gradientUnits="userSpaceOnUse">
<stop offset="0.380208"/>
<stop offset="0.836486" stop-color="#595959"/>
</linearGradient>
<linearGradient id="paint39_linear_14_1087" x1="236" y1="181" x2="221" y2="173.5" gradientUnits="userSpaceOnUse">
<stop offset="0.430151" stop-color="#404040"/>
<stop offset="0.836486"/>
</linearGradient>
<linearGradient id="paint40_linear_14_1087" x1="245.5" y1="173" x2="245.5" y2="185" gradientUnits="userSpaceOnUse">
<stop stop-color="#383838"/>
<stop offset="1" stop-color="#0F0F0E"/>
</linearGradient>
<linearGradient id="paint41_linear_14_1087" x1="197" y1="29" x2="197" y2="61" gradientUnits="userSpaceOnUse">
<stop stop-color="#4B4D02"/>
<stop offset="1" stop-color="#A89700"/>
</linearGradient>
<linearGradient id="paint42_linear_14_1087" x1="190.25" y1="32.25" x2="207.5" y2="57" gradientUnits="userSpaceOnUse">
<stop offset="0.151345" stop-color="#8B7D00"/>
<stop offset="0.3536" stop-color="#FBF100"/>
<stop offset="0.629618" stop-color="#737500"/>
</linearGradient>
<linearGradient id="paint43_linear_14_1087" x1="194" y1="41" x2="209" y2="33.5" gradientUnits="userSpaceOnUse">
<stop offset="0.380208" stop-color="#DBD200"/>
<stop offset="0.836486" stop-color="#504300"/>
</linearGradient>
<linearGradient id="paint44_linear_14_1087" x1="200" y1="41" x2="185" y2="33.5" gradientUnits="userSpaceOnUse">
<stop offset="0.430151" stop-color="#A89700"/>
<stop offset="0.836486" stop-color="#534600"/>
</linearGradient>
<linearGradient id="paint45_linear_14_1087" x1="209.5" y1="33" x2="209.5" y2="45" gradientUnits="userSpaceOnUse">
<stop stop-color="#A8A100"/>
<stop offset="1" stop-color="#4D4102"/>
</linearGradient>
<linearGradient id="paint46_linear_14_1087" x1="197" y1="211" x2="197" y2="243" gradientUnits="userSpaceOnUse">
<stop stop-color="#474747"/>
<stop offset="1" stop-color="#B4B4B4"/>
</linearGradient>
<linearGradient id="paint47_linear_14_1087" x1="190.25" y1="214.25" x2="207.5" y2="239" gradientUnits="userSpaceOnUse">
<stop offset="0.151345" stop-color="#8C8C8C"/>
<stop offset="0.3536" stop-color="#FBFBFB"/>
<stop offset="0.629618" stop-color="#797979"/>
</linearGradient>
<linearGradient id="paint48_linear_14_1087" x1="194" y1="223" x2="209" y2="215.5" gradientUnits="userSpaceOnUse">
<stop offset="0.380208" stop-color="#E1E1E1"/>
<stop offset="0.836486" stop-color="#4B4B4B"/>
</linearGradient>
<linearGradient id="paint49_linear_14_1087" x1="200" y1="223" x2="185" y2="215.5" gradientUnits="userSpaceOnUse">
<stop offset="0.430151" stop-color="#B5B5B5"/>
<stop offset="0.836486" stop-color="#4A4A4A"/>
</linearGradient>
<linearGradient id="paint50_linear_14_1087" x1="209.5" y1="215" x2="209.5" y2="227" gradientUnits="userSpaceOnUse">
<stop stop-color="#A7A7A7"/>
<stop offset="1" stop-color="#555555"/>
</linearGradient>
<linearGradient id="paint51_linear_14_1087" x1="35" y1="72" x2="35" y2="104" gradientUnits="userSpaceOnUse">
<stop stop-color="#47024D"/>
<stop offset="1" stop-color="#7200A8"/>
</linearGradient>
<linearGradient id="paint52_linear_14_1087" x1="28.25" y1="75.25" x2="45.5" y2="100" gradientUnits="userSpaceOnUse">
<stop offset="0.151345" stop-color="#5F008B"/>
<stop offset="0.3536" stop-color="#9B00FB"/>
<stop offset="0.629618" stop-color="#4F0075"/>
</linearGradient>
<linearGradient id="paint53_linear_14_1087" x1="32" y1="84" x2="47" y2="76.5" gradientUnits="userSpaceOnUse">
<stop offset="0.380208" stop-color="#7B00DB"/>
<stop offset="0.836486" stop-color="#360050"/>
</linearGradient>
<linearGradient id="paint54_linear_14_1087" x1="38" y1="84" x2="23" y2="76.5" gradientUnits="userSpaceOnUse">
<stop offset="0.430151" stop-color="#5E00A8"/>
<stop offset="0.836486" stop-color="#290053"/>
</linearGradient>
<linearGradient id="paint55_linear_14_1087" x1="47.5" y1="76" x2="47.5" y2="88" gradientUnits="userSpaceOnUse">
<stop stop-color="#5E00A8"/>
<stop offset="1" stop-color="#23024D"/>
</linearGradient>
<linearGradient id="paint56_linear_14_1087" x1="73" y1="29" x2="73" y2="61" gradientUnits="userSpaceOnUse">
<stop stop-color="#4D0202"/>
<stop offset="1" stop-color="#A80000"/>
</linearGradient>
<linearGradient id="paint57_linear_14_1087" x1="66.25" y1="32.25" x2="83.5" y2="57" gradientUnits="userSpaceOnUse">
<stop offset="0.151345" stop-color="#8B0000"/>
<stop offset="0.3536" stop-color="#FB0000"/>
<stop offset="0.629618" stop-color="#750000"/>
</linearGradient>
<linearGradient id="paint58_linear_14_1087" x1="70" y1="41" x2="85" y2="33.5" gradientUnits="userSpaceOnUse">
<stop offset="0.380208" stop-color="#DB0000"/>
<stop offset="0.836486" stop-color="#500000"/>
</linearGradient>
<linearGradient id="paint59_linear_14_1087" x1="76" y1="41" x2="61" y2="33.5" gradientUnits="userSpaceOnUse">
<stop offset="0.430151" stop-color="#A80000"/>
<stop offset="0.836486" stop-color="#530000"/>
</linearGradient>
<linearGradient id="paint60_linear_14_1087" x1="85.5" y1="33" x2="85.5" y2="45" gradientUnits="userSpaceOnUse">
<stop stop-color="#A80000"/>
<stop offset="1" stop-color="#4D0202"/>
</linearGradient>
<linearGradient id="paint61_linear_14_1087" x1="35" y1="169" x2="35" y2="201" gradientUnits="userSpaceOnUse">
<stop stop-color="#02444D"/>
<stop offset="1" stop-color="#008AA8"/>
</linearGradient>
<linearGradient id="paint62_linear_14_1087" x1="28.25" y1="172.25" x2="45.5" y2="197" gradientUnits="userSpaceOnUse">
<stop offset="0.151345" stop-color="#007A8B"/>
<stop offset="0.3536" stop-color="#00ECFB"/>
<stop offset="0.629618" stop-color="#006E75"/>
</linearGradient>
<linearGradient id="paint63_linear_14_1087" x1="32" y1="181" x2="47" y2="173.5" gradientUnits="userSpaceOnUse">
<stop offset="0.380208" stop-color="#00DBCE"/>
<stop offset="0.836486" stop-color="#00504B"/>
</linearGradient>
<linearGradient id="paint64_linear_14_1087" x1="38" y1="181" x2="23" y2="173.5" gradientUnits="userSpaceOnUse">
<stop offset="0.430151" stop-color="#009EA8"/>
<stop offset="0.836486" stop-color="#004E53"/>
</linearGradient>
<linearGradient id="paint65_linear_14_1087" x1="47.5" y1="173" x2="47.5" y2="185" gradientUnits="userSpaceOnUse">
<stop stop-color="#009EA8"/>
<stop offset="1" stop-color="#024D4D"/>
</linearGradient>
<linearGradient id="paint66_linear_14_1087" x1="73" y1="211" x2="73" y2="243" gradientUnits="userSpaceOnUse">
<stop stop-color="#530F00"/>
<stop offset="1" stop-color="#A83200"/>
</linearGradient>
<linearGradient id="paint67_linear_14_1087" x1="66.25" y1="214.25" x2="83.5" y2="239" gradientUnits="userSpaceOnUse">
<stop offset="0.151345" stop-color="#8B4300"/>
<stop offset="0.3536" stop-color="#FB5A00"/>
<stop offset="0.629618" stop-color="#753F00"/>
</linearGradient>
<linearGradient id="paint68_linear_14_1087" x1="70" y1="223" x2="85" y2="215.5" gradientUnits="userSpaceOnUse">
<stop offset="0.380208" stop-color="#DB4F00"/>
<stop offset="0.836486" stop-color="#502100"/>
</linearGradient>
<linearGradient id="paint69_linear_14_1087" x1="76" y1="223" x2="61" y2="215.5" gradientUnits="userSpaceOnUse">
<stop offset="0.430151" stop-color="#A85100"/>
<stop offset="0.836486" stop-color="#532300"/>
</linearGradient>
<linearGradient id="paint70_linear_14_1087" x1="85.5" y1="215" x2="85.5" y2="227" gradientUnits="userSpaceOnUse">
<stop stop-color="#A85100"/>
<stop offset="1" stop-color="#4D2602"/>
</linearGradient>
<linearGradient id="paint71_linear_14_1087" x1="124.619" y1="227.37" x2="148.003" y2="264.368" gradientUnits="userSpaceOnUse">
<stop stop-color="#3E3E3E"/>
<stop offset="0.505208" stop-color="#D9D9D9"/>
<stop offset="1" stop-color="#424242"/>
</linearGradient>
<linearGradient id="paint72_linear_14_1087" x1="229.558" y1="112.928" x2="253.863" y2="147.048" gradientUnits="userSpaceOnUse">
<stop stop-color="#424242"/>
<stop offset="0.515625" stop-color="#D9D9D9"/>
<stop offset="1" stop-color="#424242"/>
</linearGradient>
<linearGradient id="paint73_linear_14_1087" x1="134.25" y1="11" x2="147.5" y2="38.5" gradientUnits="userSpaceOnUse">
<stop stop-color="#424242"/>
<stop offset="0.557292" stop-color="#D9D9D9"/>
<stop offset="1" stop-color="#424242"/>
</linearGradient>
<linearGradient id="paint74_linear_14_1087" x1="13.3846" y1="123.976" x2="25.4713" y2="141.205" gradientUnits="userSpaceOnUse">
<stop stop-color="#424242"/>
<stop offset="0.442708" stop-color="#D9D9D9"/>
<stop offset="0.916667" stop-color="#424242"/>
</linearGradient>
<linearGradient id="paint75_linear_14_1087" x1="30.3846" y1="123.976" x2="42.4713" y2="141.205" gradientUnits="userSpaceOnUse">
<stop stop-color="#424242"/>
<stop offset="0.442708" stop-color="#D9D9D9"/>
<stop offset="0.916667" stop-color="#424242"/>
</linearGradient>
<linearGradient id="paint76_linear_14_1087" x1="21.6102" y1="126.976" x2="33.413" y2="144.922" gradientUnits="userSpaceOnUse">
<stop stop-color="#424242"/>
<stop offset="0.442708" stop-color="#D9D9D9"/>
<stop offset="0.916667" stop-color="#424242"/>
</linearGradient>
</defs>
</svg>
