<svg width="271" height="271" viewBox="0 0 271 271" fill="none" xmlns="http://www.w3.org/2000/svg">
<g filter="url(#filter0_ii_4_576)">
<circle cx="135.5" cy="135.5" r="135.5" fill="url(#paint0_linear_4_576)"/>
</g>
<circle cx="135.5" cy="135.5" r="133.5" stroke="url(#paint1_linear_4_576)" stroke-width="4"/>
<g filter="url(#filter1_dd_4_576)">
<circle cx="135" cy="135" r="88" fill="url(#paint2_linear_4_576)"/>
<circle cx="135" cy="135" r="86.5" stroke="url(#paint3_linear_4_576)" stroke-width="3"/>
</g>
<ellipse cx="102.71" cy="79.0279" rx="6.30168" ry="5.77654" fill="url(#paint4_radial_4_576)"/>
<ellipse cx="146.296" cy="72.2011" rx="4.72626" ry="4.20112" fill="url(#paint5_radial_4_576)"/>
<circle cx="92.7319" cy="112.637" r="3.67598" fill="url(#paint6_radial_4_576)"/>
<circle cx="153.123" cy="123.665" r="7.35196" fill="url(#paint7_radial_4_576)"/>
<ellipse cx="163.626" cy="87.4301" rx="3.15084" ry="2.6257" fill="url(#paint8_radial_4_576)"/>
<circle cx="126.341" cy="137.844" r="3.67598" fill="url(#paint9_radial_4_576)"/>
<ellipse cx="124.24" cy="99.5084" rx="1.57542" ry="2.10056" fill="url(#paint10_radial_4_576)"/>
<ellipse cx="105.86" cy="132.592" rx="3.15084" ry="1.57542" fill="url(#paint11_radial_4_576)"/>
<ellipse cx="165.201" cy="112.637" rx="1.57542" ry="3.67598" fill="url(#paint12_radial_4_576)"/>
<circle cx="188.832" cy="162.525" r="3.15084" fill="url(#paint13_radial_4_576)"/>
<ellipse cx="204.061" cy="134.693" rx="2.6257" ry="3.67598" fill="url(#paint14_radial_4_576)"/>
<circle cx="191.458" cy="103.184" r="5.77654" fill="url(#paint15_radial_4_576)"/>
<ellipse cx="70.1508" cy="145.196" rx="3.15084" ry="3.67598" fill="url(#paint16_radial_4_576)"/>
<circle cx="90.6313" cy="139.944" r="1.57542" fill="url(#paint17_radial_4_576)"/>
<ellipse cx="94.3072" cy="164.101" rx="2.10056" ry="1.57542" fill="url(#paint18_radial_4_576)"/>
<ellipse cx="112.687" cy="193.508" rx="9.97765" ry="11.0279" fill="url(#paint19_radial_4_576)"/>
<ellipse cx="152.073" cy="180.905" rx="11.5531" ry="9.97765" fill="url(#paint20_radial_4_576)"/>
<ellipse cx="154.173" cy="147.296" rx="3.15084" ry="1.57542" fill="url(#paint21_radial_4_576)"/>
<ellipse cx="177.805" cy="186.682" rx="3.67598" ry="4.20112" fill="url(#paint22_radial_4_576)"/>
<circle cx="120.039" cy="162" r="2.6257" fill="url(#paint23_radial_4_576)"/>
<ellipse cx="143.145" cy="201.385" rx="2.6257" ry="3.15084" fill="url(#paint24_radial_4_576)"/>
<g filter="url(#filter2_ddd_4_576)">
<path d="M225.761 54.1662L230.925 52.3803C231.099 52.2908 231.337 52.0945 230.896 52.025L225.498 51.1748C223.79 51.0238 219.899 50.7765 218.001 50.995C215.627 51.2681 203.889 52.9978 201.352 52.5338C201.112 51.9921 200.772 51.8833 200.306 51.9277C199.933 51.9633 199.314 52.0536 199.052 52.0943C198.685 52.192 197.889 52.6285 197.642 53.5929C197.507 53.7563 197.134 53.8608 196.965 53.8926C196.704 53.792 196.006 53.7017 195.295 54.1458C195.16 54.2057 194.88 54.2324 194.727 54.1058C194.642 54.0355 194.384 53.9597 194.032 54.219C193.68 54.4784 193.326 54.3804 193.193 54.299C193.042 54.2035 192.646 54.0876 192.26 54.3878C192.152 54.4358 191.842 54.4433 191.701 54.4411L191.141 54.4944C190.942 54.2154 190.403 53.6614 189.84 53.6774C189.277 53.6934 188.877 53.9416 188.748 54.0637C188.514 54.2428 188.044 54.7706 188.033 55.4491C187.999 55.49 187.901 55.5401 187.855 55.5601C187.713 55.6332 187.451 55.8335 187.478 56.0738C187.525 56.2883 187.791 56.4231 187.933 56.467C187.981 56.4788 188.087 56.5108 188.128 56.5451C188.257 57.2111 188.813 57.648 189.075 57.7832C189.224 57.8807 189.661 58.0548 190.218 57.9715C190.775 57.8883 191.208 57.2482 191.355 56.9385L191.915 56.8926C192.054 56.8656 192.36 56.8185 192.476 56.8467C192.908 57.0744 193.278 56.8906 193.409 56.7702C193.526 56.6666 193.858 56.5079 194.249 56.7014C194.641 56.8948 194.882 56.7748 194.953 56.6907C195.082 56.5391 195.362 56.5162 195.506 56.5514C196.283 56.8636 196.955 56.6519 197.194 56.5071C197.366 56.5086 197.752 56.5459 197.913 56.6831C198.326 57.5891 199.186 57.8789 199.564 57.9105C199.83 57.9044 200.455 57.8845 200.829 57.8539C201.295 57.8157 201.611 57.6489 201.751 57.0734C204.168 56.1705 216.027 55.8096 218.412 55.6612C220.319 55.5425 224.106 54.6151 225.761 54.1662Z" fill="url(#paint25_linear_4_576)"/>
<g filter="url(#filter3_ddd_4_576)">
<path d="M206.328 37.6768L207.249 32.2913C207.309 32.1049 207.464 31.8382 207.605 32.262L209.322 37.4489C209.749 39.1096 210.626 42.9082 210.72 44.8171C210.837 47.2033 211.041 59.0663 211.912 61.4946C212.486 61.643 212.648 61.9604 212.68 62.4277C212.706 62.8015 212.718 63.4266 212.72 63.6924C212.684 64.0705 212.382 64.9268 211.471 65.3274C211.332 65.4872 211.289 65.8719 211.286 66.0443C211.427 66.2849 211.63 66.9595 211.308 67.7328C211.271 67.8762 211.29 68.1565 211.44 68.2871C211.523 68.3596 211.64 68.602 211.441 68.9912C211.242 69.3804 211.397 69.714 211.499 69.8322C211.617 69.9649 211.796 70.3375 211.563 70.7667C211.533 70.8814 211.576 71.1883 211.601 71.3274L211.64 71.8881C211.948 72.0391 212.582 72.4806 212.658 73.0387C212.734 73.5969 212.554 74.0317 212.454 74.1794C212.316 74.4393 211.872 74.9893 211.204 75.1103C211.169 75.1502 211.136 75.2558 211.123 75.3036C211.074 75.4554 210.919 75.747 210.678 75.7598C210.459 75.7482 210.282 75.5079 210.216 75.3744C210.196 75.329 210.148 75.2296 210.107 75.1953C209.429 75.1757 208.907 74.6984 208.731 74.4622C208.611 74.3311 208.368 73.9281 208.359 73.3649C208.351 72.8017 208.912 72.2701 209.194 72.0748L209.148 71.5146C209.152 71.3733 209.148 71.0635 209.102 70.9545C208.807 70.5651 208.928 70.1699 209.025 70.0209C209.108 69.8888 209.211 69.5358 208.956 69.1807C208.702 68.8257 208.781 68.5685 208.852 68.4844C208.981 68.3329 208.958 68.0528 208.9 67.9166C208.465 67.2003 208.565 66.503 208.669 66.2438C208.639 66.0739 208.54 65.6999 208.378 65.5628C207.417 65.3032 206.991 64.5016 206.898 64.1333C206.861 63.8701 206.779 63.2503 206.748 62.8768C206.71 62.4101 206.823 62.0718 207.368 61.8392C207.865 59.3079 206.291 47.5481 206.049 45.1713C205.856 43.2699 206.154 39.3827 206.328 37.6768Z" fill="url(#paint26_linear_4_576)"/>
</g>
</g>
<g filter="url(#filter4_ddd_4_576)">
<path d="M42.4222 211.065L37.2585 212.851C37.0844 212.94 36.8464 213.136 37.2875 213.206L42.6848 214.056C44.3928 214.207 48.2836 214.454 50.1823 214.236C52.5556 213.963 64.2937 212.233 66.8313 212.697C67.0711 213.239 67.4108 213.347 67.877 213.303C68.25 213.268 68.8687 213.177 69.1314 213.137C69.4985 213.039 70.2943 212.602 70.5412 211.638C70.6762 211.475 71.0489 211.37 71.2184 211.338C71.4789 211.439 72.1775 211.529 72.8879 211.085C73.0233 211.025 73.3031 210.998 73.4563 211.125C73.5414 211.195 73.7995 211.271 74.1512 211.012C74.5029 210.752 74.8572 210.85 74.9904 210.932C75.1406 211.027 75.5375 211.143 75.9229 210.843C76.0312 210.795 76.341 210.788 76.4824 210.79L77.0418 210.736C77.2409 211.015 77.7798 211.569 78.3429 211.553C78.9059 211.537 79.3057 211.289 79.4352 211.167C79.6691 210.988 80.1394 210.46 80.1501 209.782C80.1838 209.741 80.2825 209.691 80.3277 209.671C80.4695 209.598 80.732 209.397 80.7053 209.157C80.6582 208.943 80.3924 208.808 80.2498 208.764C80.2019 208.752 80.0959 208.72 80.0555 208.686C79.9257 208.02 79.3698 207.583 79.1081 207.448C78.9592 207.35 78.522 207.176 77.9649 207.259C77.4078 207.343 76.9747 207.983 76.8278 208.292L76.2677 208.338C76.1289 208.365 75.8226 208.412 75.7075 208.384C75.2753 208.156 74.9051 208.34 74.774 208.461C74.6571 208.564 74.3255 208.723 73.9338 208.529C73.542 208.336 73.3012 208.456 73.2298 208.54C73.1012 208.692 72.8211 208.715 72.6773 208.679C71.8998 208.367 71.228 208.579 70.9892 208.724C70.8168 208.722 70.4315 208.685 70.2699 208.548C69.8573 207.642 68.9971 207.352 68.6186 207.32C68.3528 207.326 67.7279 207.346 67.3545 207.377C66.8877 207.415 66.5724 207.582 66.4316 208.157C64.015 209.06 52.1558 209.421 49.7714 209.57C47.8638 209.688 44.0771 210.616 42.4222 211.065Z" fill="url(#paint27_linear_4_576)"/>
<g filter="url(#filter5_ddd_4_576)">
<path d="M61.8552 227.554L60.9337 232.94C60.8738 233.126 60.7188 233.393 60.5785 232.969L58.8609 227.782C58.4339 226.121 57.5565 222.323 57.463 220.414C57.3461 218.028 57.1419 206.165 56.271 203.736C55.6974 203.588 55.5348 203.27 55.5027 202.803C55.4771 202.429 55.4654 201.804 55.4628 201.538C55.4995 201.16 55.8006 200.304 56.712 199.903C56.8512 199.744 56.8936 199.359 56.8975 199.187C56.7557 198.946 56.5529 198.271 56.8754 197.498C56.9125 197.355 56.8933 197.074 56.7435 196.944C56.6602 196.871 56.5435 196.629 56.7421 196.24C56.9407 195.85 56.7863 195.517 56.6843 195.399C56.5657 195.266 56.3867 194.893 56.6202 194.464C56.6498 194.349 56.6069 194.043 56.5817 193.903L56.5432 193.343C56.2355 193.192 55.6011 192.75 55.5252 192.192C55.4494 191.634 55.6292 191.199 55.7286 191.051C55.8672 190.792 56.3114 190.242 56.9791 190.121C57.0139 190.081 57.0474 189.975 57.0598 189.927C57.1087 189.775 57.2637 189.484 57.5051 189.471C57.7244 189.483 57.9007 189.723 57.9673 189.856C57.9866 189.902 58.0355 190.001 58.0759 190.036C58.7542 190.055 59.2758 190.532 59.4517 190.769C59.5721 190.9 59.8151 191.303 59.8236 191.866C59.8322 192.429 59.2711 192.961 58.9895 193.156L59.0354 193.716C59.0313 193.858 59.0348 194.167 59.0813 194.276C59.3764 194.666 59.2552 195.061 59.1578 195.21C59.0746 195.342 58.972 195.695 59.2267 196.05C59.4813 196.405 59.4021 196.662 59.3307 196.746C59.2021 196.898 59.2251 197.178 59.2832 197.314C59.7179 198.031 59.6184 198.728 59.5143 198.987C59.5439 199.157 59.6435 199.531 59.8051 199.668C60.7662 199.928 61.1921 200.729 61.285 201.098C61.3222 201.361 61.4043 201.981 61.4349 202.354C61.4732 202.821 61.3599 203.159 60.8151 203.392C60.3176 205.923 61.8921 217.683 62.1339 220.06C62.3273 221.961 62.0287 225.848 61.8552 227.554Z" fill="url(#paint28_linear_4_576)"/>
</g>
</g>
<g filter="url(#filter6_dd_4_576)">
<path d="M220.803 223.413C218.055 228.977 213.661 232.602 211.818 233.72C209.974 232.602 204.379 228.332 201.949 223.413C199.519 218.493 199.371 213.357 200.022 210.927C201.223 210.173 203.522 208.581 203.522 206.402C203.522 204.223 202.097 203.301 200.589 203.134L200.673 200.117C202.405 198.525 207.077 195.073 211.837 194C216.597 195.073 221.25 198.525 222.982 200.117L223.066 203.134C221.557 203.301 220.133 204.223 220.133 206.402C220.133 208.581 222.032 210.173 223.233 210.927C223.568 212.771 223.552 217.849 220.803 223.413Z" fill="url(#paint29_linear_4_576)"/>
</g>
<g filter="url(#filter7_dd_4_576)">
<path d="M70.1124 65.4126C67.3639 70.9767 62.9705 74.6022 61.1269 75.7195C59.2834 74.6022 53.6884 70.3321 51.2583 65.4126C48.8282 60.4932 48.6799 55.357 49.331 52.927C50.532 52.1729 52.8311 50.5806 52.8311 48.4019C52.8311 46.2232 51.4066 45.3015 49.8983 45.1339L49.9821 42.1172C51.7139 40.5251 56.3866 37.0727 61.1462 36.0001C65.9058 37.0727 70.5593 40.5251 72.2911 42.1172L72.3749 45.1339C70.8666 45.3015 69.442 46.2232 69.442 48.4019C69.442 50.5806 71.3414 52.1729 72.5425 52.927C72.8777 54.7705 72.8609 59.8486 70.1124 65.4126Z" fill="url(#paint30_linear_4_576)"/>
</g>
<g filter="url(#filter8_ddd_4_576)">
<path d="M135.453 29.2559L133.604 40.0001L129.642 35.9071C129.906 35.3955 130.064 33.349 128.585 29.2559C127.106 25.1629 128.321 21.0699 129.113 19.535L128.585 18.5118L129.113 17.2327C128.409 16.5505 127 14.4187 127 11.349C127 7.51175 130.962 7.00012 132.019 7.00012C129.642 9.30245 130.434 10.0699 130.434 11.349C130.434 12.3722 131.667 13.6513 132.283 14.1629L133.34 13.3955L134.397 14.1629L138.623 12.3722L142.85 14.1629L143.906 13.3955L144.699 14.1629C144.875 13.8218 145.755 13.1397 146.284 11.349C146.752 9.76249 145.932 7.85284 145.227 7.00012C146.724 7.25594 149.771 8.48384 149.982 11.349C150.193 14.2141 148.485 16.4652 147.605 17.2327L148.661 18.5118L148.133 19.535C148.661 21.4962 149.507 26.0327 148.661 28.4885C147.816 30.9443 147.605 34.4575 147.605 35.9071L143.642 40.0001L141.793 29.2559L145.227 27.4652L145.755 24.9071L139.68 26.9536L140.472 33.0931L138.359 34.8838L136.51 33.0931L137.302 26.9536L131.227 24.9071L132.019 27.4652L135.453 29.2559Z" fill="url(#paint31_linear_4_576)"/>
</g>
<g filter="url(#filter9_ddd_4_576)">
<path d="M23.8207 139.605L21.8912 151L17.7565 146.659C18.0321 146.116 18.1975 143.946 16.6539 139.605C15.1103 135.264 16.3782 130.923 17.2052 129.295L16.6539 128.209L17.2052 126.853C16.4701 126.129 15 123.868 15 120.613C15 116.543 19.1347 116 20.2373 116C17.7565 118.442 18.5834 119.256 18.5834 120.613C18.5834 121.698 19.8698 123.054 20.5129 123.597L21.6155 122.783L22.7181 123.597L27.1285 121.698L31.5388 123.597L32.6414 122.783L33.4683 123.597C33.6521 123.235 34.5709 122.512 35.1222 120.613C35.6106 118.93 34.7547 116.905 34.0196 116C35.5816 116.271 38.7608 117.574 38.9813 120.613C39.2018 123.651 37.4193 126.039 36.5005 126.853L37.603 128.209L37.0518 129.295C37.603 131.375 38.4851 136.186 37.603 138.791C36.721 141.395 36.5005 145.122 36.5005 146.659L32.3658 151L30.4362 139.605L34.0196 137.706L34.5709 134.992L28.2311 137.163L29.058 143.675L26.8528 145.574L24.9233 143.675L25.7502 137.163L19.4104 134.992L20.2373 137.706L23.8207 139.605Z" fill="url(#paint32_linear_4_576)"/>
</g>
<g filter="url(#filter10_ddd_4_576)">
<path d="M239.821 139.605L237.891 151L233.756 146.659C234.032 146.116 234.198 143.946 232.654 139.605C231.11 135.264 232.378 130.923 233.205 129.295L232.654 128.209L233.205 126.853C232.47 126.129 231 123.868 231 120.613C231 116.543 235.135 116 236.237 116C233.756 118.442 234.583 119.256 234.583 120.613C234.583 121.698 235.87 123.054 236.513 123.597L237.616 122.783L238.718 123.597L243.128 121.698L247.539 123.597L248.641 122.783L249.468 123.597C249.652 123.235 250.571 122.512 251.122 120.613C251.611 118.93 250.755 116.905 250.02 116C251.582 116.271 254.761 117.574 254.981 120.613C255.202 123.651 253.419 126.039 252.5 126.853L253.603 128.209L253.052 129.295C253.603 131.375 254.485 136.186 253.603 138.791C252.721 141.395 252.5 145.122 252.5 146.659L248.366 151L246.436 139.605L250.02 137.706L250.571 134.992L244.231 137.163L245.058 143.675L242.853 145.574L240.923 143.675L241.75 137.163L235.41 134.992L236.237 137.706L239.821 139.605Z" fill="url(#paint33_linear_4_576)"/>
</g>
<g filter="url(#filter11_ddd_4_576)">
<path d="M131.821 250.605L129.891 262L125.756 257.659C126.032 257.116 126.198 254.946 124.654 250.605C123.11 246.264 124.378 241.923 125.205 240.295L124.654 239.209L125.205 237.853C124.47 237.129 123 234.868 123 231.613C123 227.543 127.135 227 128.237 227C125.756 229.442 126.583 230.256 126.583 231.613C126.583 232.698 127.87 234.054 128.513 234.597L129.616 233.783L130.718 234.597L135.128 232.698L139.539 234.597L140.641 233.783L141.468 234.597C141.652 234.235 142.571 233.512 143.122 231.613C143.611 229.93 142.755 227.905 142.02 227C143.582 227.271 146.761 228.574 146.981 231.613C147.202 234.651 145.419 237.039 144.5 237.853L145.603 239.209L145.052 240.295C145.603 242.375 146.485 247.186 145.603 249.791C144.721 252.395 144.5 256.122 144.5 257.659L140.366 262L138.436 250.605L142.02 248.706L142.571 245.992L136.231 248.163L137.058 254.675L134.853 256.574L132.923 254.675L133.75 248.163L127.41 245.992L128.237 248.706L131.821 250.605Z" fill="url(#paint34_linear_4_576)"/>
</g>
<g filter="url(#filter12_ddd_4_576)">
<path d="M170.496 88.382L138.764 119.589L145.795 125.833L177.527 94.6252L186.422 102.105L185.834 79L160.653 79.6415L170.496 88.382Z" fill="url(#paint35_linear_4_576)"/>
<circle cx="115.18" cy="151.005" r="38.1802" stroke="url(#paint36_linear_4_576)" stroke-width="8"/>
</g>
<path fill-rule="evenodd" clip-rule="evenodd" d="M153 152.185C153 173.172 136.211 190.185 115.5 190.185C94.7893 190.185 78 173.172 78 152.185C78 131.198 94.7893 114.185 115.5 114.185C121.505 114.185 127.18 115.615 132.212 118.158C137.244 120.7 145.06 127.092 147.626 132.572C151.037 138.298 153 145.009 153 152.185ZM115.5 185.282C137.103 185.282 147.626 169.346 149.332 152.185C151.037 135.024 135.065 118.158 115.5 118.158C95.9348 118.158 82.0329 135.024 81.6685 152.185C81.304 169.346 93.8967 185.282 115.5 185.282Z" fill="url(#paint37_linear_4_576)"/>
<path d="M147.5 124H140.5L174 90.5L186 79L186.5 102.5L177.5 94.5L147.5 124Z" fill="url(#paint38_linear_4_576)"/>
<defs>
<filter id="filter0_ii_4_576" x="0" y="0.00012207" width="271" height="275" filterUnits="userSpaceOnUse" color-interpolation-filters="sRGB">
<feFlood flood-opacity="0" result="BackgroundImageFix"/>
<feBlend mode="normal" in="SourceGraphic" in2="BackgroundImageFix" result="shape"/>
<feColorMatrix in="SourceAlpha" type="matrix" values="0 0 0 0 0 0 0 0 0 0 0 0 0 0 0 0 0 0 127 0" result="hardAlpha"/>
<feOffset dy="4"/>
<feGaussianBlur stdDeviation="2"/>
<feComposite in2="hardAlpha" operator="arithmetic" k2="-1" k3="1"/>
<feColorMatrix type="matrix" values="0 0 0 0 0 0 0 0 0 0 0 0 0 0 0 0 0 0 0.25 0"/>
<feBlend mode="normal" in2="shape" result="effect1_innerShadow_4_576"/>
<feColorMatrix in="SourceAlpha" type="matrix" values="0 0 0 0 0 0 0 0 0 0 0 0 0 0 0 0 0 0 127 0" result="hardAlpha"/>
<feOffset dy="4"/>
<feGaussianBlur stdDeviation="2"/>
<feComposite in2="hardAlpha" operator="arithmetic" k2="-1" k3="1"/>
<feColorMatrix type="matrix" values="0 0 0 0 0 0 0 0 0 0 0 0 0 0 0 0 0 0 0.25 0"/>
<feBlend mode="normal" in2="effect1_innerShadow_4_576" result="effect2_innerShadow_4_576"/>
</filter>
<filter id="filter1_dd_4_576" x="43" y="47.0001" width="184" height="184" filterUnits="userSpaceOnUse" color-interpolation-filters="sRGB">
<feFlood flood-opacity="0" result="BackgroundImageFix"/>
<feColorMatrix in="SourceAlpha" type="matrix" values="0 0 0 0 0 0 0 0 0 0 0 0 0 0 0 0 0 0 127 0" result="hardAlpha"/>
<feOffset dy="4"/>
<feGaussianBlur stdDeviation="2"/>
<feComposite in2="hardAlpha" operator="out"/>
<feColorMatrix type="matrix" values="0 0 0 0 0 0 0 0 0 0 0 0 0 0 0 0 0 0 0.25 0"/>
<feBlend mode="normal" in2="BackgroundImageFix" result="effect1_dropShadow_4_576"/>
<feColorMatrix in="SourceAlpha" type="matrix" values="0 0 0 0 0 0 0 0 0 0 0 0 0 0 0 0 0 0 127 0" result="hardAlpha"/>
<feOffset dy="4"/>
<feGaussianBlur stdDeviation="2"/>
<feComposite in2="hardAlpha" operator="out"/>
<feColorMatrix type="matrix" values="0 0 0 0 0 0 0 0 0 0 0 0 0 0 0 0 0 0 0.25 0"/>
<feBlend mode="normal" in2="effect1_dropShadow_4_576" result="effect2_dropShadow_4_576"/>
<feBlend mode="normal" in="SourceGraphic" in2="effect2_dropShadow_4_576" result="shape"/>
</filter>
<filter id="filter2_ddd_4_576" x="183.47" y="32.0355" width="51.6765" height="51.7247" filterUnits="userSpaceOnUse" color-interpolation-filters="sRGB">
<feFlood flood-opacity="0" result="BackgroundImageFix"/>
<feColorMatrix in="SourceAlpha" type="matrix" values="0 0 0 0 0 0 0 0 0 0 0 0 0 0 0 0 0 0 127 0" result="hardAlpha"/>
<feOffset dy="4"/>
<feGaussianBlur stdDeviation="2"/>
<feComposite in2="hardAlpha" operator="out"/>
<feColorMatrix type="matrix" values="0 0 0 0 0 0 0 0 0 0 0 0 0 0 0 0 0 0 0.25 0"/>
<feBlend mode="normal" in2="BackgroundImageFix" result="effect1_dropShadow_4_576"/>
<feColorMatrix in="SourceAlpha" type="matrix" values="0 0 0 0 0 0 0 0 0 0 0 0 0 0 0 0 0 0 127 0" result="hardAlpha"/>
<feOffset dy="4"/>
<feGaussianBlur stdDeviation="2"/>
<feComposite in2="hardAlpha" operator="out"/>
<feColorMatrix type="matrix" values="0 0 0 0 0 0 0 0 0 0 0 0 0 0 0 0 0 0 0.25 0"/>
<feBlend mode="normal" in2="effect1_dropShadow_4_576" result="effect2_dropShadow_4_576"/>
<feColorMatrix in="SourceAlpha" type="matrix" values="0 0 0 0 0 0 0 0 0 0 0 0 0 0 0 0 0 0 127 0" result="hardAlpha"/>
<feOffset dy="4"/>
<feGaussianBlur stdDeviation="2"/>
<feComposite in2="hardAlpha" operator="out"/>
<feColorMatrix type="matrix" values="0 0 0 0 0 0 0 0 0 0 0 0 0 0 0 0 0 0 0.25 0"/>
<feBlend mode="normal" in2="effect2_dropShadow_4_576" result="effect3_dropShadow_4_576"/>
<feBlend mode="normal" in="SourceGraphic" in2="effect3_dropShadow_4_576" result="shape"/>
</filter>
<filter id="filter3_ddd_4_576" x="201.986" y="32.0355" width="14.7339" height="51.7247" filterUnits="userSpaceOnUse" color-interpolation-filters="sRGB">
<feFlood flood-opacity="0" result="BackgroundImageFix"/>
<feColorMatrix in="SourceAlpha" type="matrix" values="0 0 0 0 0 0 0 0 0 0 0 0 0 0 0 0 0 0 127 0" result="hardAlpha"/>
<feOffset dy="4"/>
<feGaussianBlur stdDeviation="2"/>
<feComposite in2="hardAlpha" operator="out"/>
<feColorMatrix type="matrix" values="0 0 0 0 0 0 0 0 0 0 0 0 0 0 0 0 0 0 0.25 0"/>
<feBlend mode="normal" in2="BackgroundImageFix" result="effect1_dropShadow_4_576"/>
<feColorMatrix in="SourceAlpha" type="matrix" values="0 0 0 0 0 0 0 0 0 0 0 0 0 0 0 0 0 0 127 0" result="hardAlpha"/>
<feOffset dy="4"/>
<feGaussianBlur stdDeviation="2"/>
<feComposite in2="hardAlpha" operator="out"/>
<feColorMatrix type="matrix" values="0 0 0 0 0 0 0 0 0 0 0 0 0 0 0 0 0 0 0.25 0"/>
<feBlend mode="normal" in2="effect1_dropShadow_4_576" result="effect2_dropShadow_4_576"/>
<feColorMatrix in="SourceAlpha" type="matrix" values="0 0 0 0 0 0 0 0 0 0 0 0 0 0 0 0 0 0 127 0" result="hardAlpha"/>
<feOffset dy="4"/>
<feGaussianBlur stdDeviation="2"/>
<feComposite in2="hardAlpha" operator="out"/>
<feColorMatrix type="matrix" values="0 0 0 0 0 0 0 0 0 0 0 0 0 0 0 0 0 0 0.25 0"/>
<feBlend mode="normal" in2="effect2_dropShadow_4_576" result="effect3_dropShadow_4_576"/>
<feBlend mode="normal" in="SourceGraphic" in2="effect3_dropShadow_4_576" result="shape"/>
</filter>
<filter id="filter4_ddd_4_576" x="33.036" y="189.471" width="51.6766" height="51.7247" filterUnits="userSpaceOnUse" color-interpolation-filters="sRGB">
<feFlood flood-opacity="0" result="BackgroundImageFix"/>
<feColorMatrix in="SourceAlpha" type="matrix" values="0 0 0 0 0 0 0 0 0 0 0 0 0 0 0 0 0 0 127 0" result="hardAlpha"/>
<feOffset dy="4"/>
<feGaussianBlur stdDeviation="2"/>
<feComposite in2="hardAlpha" operator="out"/>
<feColorMatrix type="matrix" values="0 0 0 0 0 0 0 0 0 0 0 0 0 0 0 0 0 0 0.25 0"/>
<feBlend mode="normal" in2="BackgroundImageFix" result="effect1_dropShadow_4_576"/>
<feColorMatrix in="SourceAlpha" type="matrix" values="0 0 0 0 0 0 0 0 0 0 0 0 0 0 0 0 0 0 127 0" result="hardAlpha"/>
<feOffset dy="4"/>
<feGaussianBlur stdDeviation="2"/>
<feComposite in2="hardAlpha" operator="out"/>
<feColorMatrix type="matrix" values="0 0 0 0 0 0 0 0 0 0 0 0 0 0 0 0 0 0 0.25 0"/>
<feBlend mode="normal" in2="effect1_dropShadow_4_576" result="effect2_dropShadow_4_576"/>
<feColorMatrix in="SourceAlpha" type="matrix" values="0 0 0 0 0 0 0 0 0 0 0 0 0 0 0 0 0 0 127 0" result="hardAlpha"/>
<feOffset dy="4"/>
<feGaussianBlur stdDeviation="2"/>
<feComposite in2="hardAlpha" operator="out"/>
<feColorMatrix type="matrix" values="0 0 0 0 0 0 0 0 0 0 0 0 0 0 0 0 0 0 0.25 0"/>
<feBlend mode="normal" in2="effect2_dropShadow_4_576" result="effect3_dropShadow_4_576"/>
<feBlend mode="normal" in="SourceGraphic" in2="effect3_dropShadow_4_576" result="shape"/>
</filter>
<filter id="filter5_ddd_4_576" x="51.4628" y="189.471" width="14.734" height="51.7247" filterUnits="userSpaceOnUse" color-interpolation-filters="sRGB">
<feFlood flood-opacity="0" result="BackgroundImageFix"/>
<feColorMatrix in="SourceAlpha" type="matrix" values="0 0 0 0 0 0 0 0 0 0 0 0 0 0 0 0 0 0 127 0" result="hardAlpha"/>
<feOffset dy="4"/>
<feGaussianBlur stdDeviation="2"/>
<feComposite in2="hardAlpha" operator="out"/>
<feColorMatrix type="matrix" values="0 0 0 0 0 0 0 0 0 0 0 0 0 0 0 0 0 0 0.25 0"/>
<feBlend mode="normal" in2="BackgroundImageFix" result="effect1_dropShadow_4_576"/>
<feColorMatrix in="SourceAlpha" type="matrix" values="0 0 0 0 0 0 0 0 0 0 0 0 0 0 0 0 0 0 127 0" result="hardAlpha"/>
<feOffset dy="4"/>
<feGaussianBlur stdDeviation="2"/>
<feComposite in2="hardAlpha" operator="out"/>
<feColorMatrix type="matrix" values="0 0 0 0 0 0 0 0 0 0 0 0 0 0 0 0 0 0 0.25 0"/>
<feBlend mode="normal" in2="effect1_dropShadow_4_576" result="effect2_dropShadow_4_576"/>
<feColorMatrix in="SourceAlpha" type="matrix" values="0 0 0 0 0 0 0 0 0 0 0 0 0 0 0 0 0 0 127 0" result="hardAlpha"/>
<feOffset dy="4"/>
<feGaussianBlur stdDeviation="2"/>
<feComposite in2="hardAlpha" operator="out"/>
<feColorMatrix type="matrix" values="0 0 0 0 0 0 0 0 0 0 0 0 0 0 0 0 0 0 0.25 0"/>
<feBlend mode="normal" in2="effect2_dropShadow_4_576" result="effect3_dropShadow_4_576"/>
<feBlend mode="normal" in="SourceGraphic" in2="effect3_dropShadow_4_576" result="shape"/>
</filter>
<filter id="filter6_dd_4_576" x="195.691" y="194" width="31.6908" height="47.7194" filterUnits="userSpaceOnUse" color-interpolation-filters="sRGB">
<feFlood flood-opacity="0" result="BackgroundImageFix"/>
<feColorMatrix in="SourceAlpha" type="matrix" values="0 0 0 0 0 0 0 0 0 0 0 0 0 0 0 0 0 0 127 0" result="hardAlpha"/>
<feOffset dy="4"/>
<feGaussianBlur stdDeviation="2"/>
<feComposite in2="hardAlpha" operator="out"/>
<feColorMatrix type="matrix" values="0 0 0 0 0 0 0 0 0 0 0 0 0 0 0 0 0 0 0.25 0"/>
<feBlend mode="normal" in2="BackgroundImageFix" result="effect1_dropShadow_4_576"/>
<feColorMatrix in="SourceAlpha" type="matrix" values="0 0 0 0 0 0 0 0 0 0 0 0 0 0 0 0 0 0 127 0" result="hardAlpha"/>
<feOffset dy="4"/>
<feGaussianBlur stdDeviation="2"/>
<feComposite in2="hardAlpha" operator="out"/>
<feColorMatrix type="matrix" values="0 0 0 0 0 0 0 0 0 0 0 0 0 0 0 0 0 0 0.25 0"/>
<feBlend mode="normal" in2="effect1_dropShadow_4_576" result="effect2_dropShadow_4_576"/>
<feBlend mode="normal" in="SourceGraphic" in2="effect2_dropShadow_4_576" result="shape"/>
</filter>
<filter id="filter7_dd_4_576" x="45" y="36.0001" width="31.6908" height="47.7194" filterUnits="userSpaceOnUse" color-interpolation-filters="sRGB">
<feFlood flood-opacity="0" result="BackgroundImageFix"/>
<feColorMatrix in="SourceAlpha" type="matrix" values="0 0 0 0 0 0 0 0 0 0 0 0 0 0 0 0 0 0 127 0" result="hardAlpha"/>
<feOffset dy="4"/>
<feGaussianBlur stdDeviation="2"/>
<feComposite in2="hardAlpha" operator="out"/>
<feColorMatrix type="matrix" values="0 0 0 0 0 0 0 0 0 0 0 0 0 0 0 0 0 0 0.25 0"/>
<feBlend mode="normal" in2="BackgroundImageFix" result="effect1_dropShadow_4_576"/>
<feColorMatrix in="SourceAlpha" type="matrix" values="0 0 0 0 0 0 0 0 0 0 0 0 0 0 0 0 0 0 127 0" result="hardAlpha"/>
<feOffset dy="4"/>
<feGaussianBlur stdDeviation="2"/>
<feComposite in2="hardAlpha" operator="out"/>
<feColorMatrix type="matrix" values="0 0 0 0 0 0 0 0 0 0 0 0 0 0 0 0 0 0 0.25 0"/>
<feBlend mode="normal" in2="effect1_dropShadow_4_576" result="effect2_dropShadow_4_576"/>
<feBlend mode="normal" in="SourceGraphic" in2="effect2_dropShadow_4_576" result="shape"/>
</filter>
<filter id="filter8_ddd_4_576" x="123" y="7.00012" width="31" height="41" filterUnits="userSpaceOnUse" color-interpolation-filters="sRGB">
<feFlood flood-opacity="0" result="BackgroundImageFix"/>
<feColorMatrix in="SourceAlpha" type="matrix" values="0 0 0 0 0 0 0 0 0 0 0 0 0 0 0 0 0 0 127 0" result="hardAlpha"/>
<feOffset dy="4"/>
<feGaussianBlur stdDeviation="2"/>
<feComposite in2="hardAlpha" operator="out"/>
<feColorMatrix type="matrix" values="0 0 0 0 0 0 0 0 0 0 0 0 0 0 0 0 0 0 0.25 0"/>
<feBlend mode="normal" in2="BackgroundImageFix" result="effect1_dropShadow_4_576"/>
<feColorMatrix in="SourceAlpha" type="matrix" values="0 0 0 0 0 0 0 0 0 0 0 0 0 0 0 0 0 0 127 0" result="hardAlpha"/>
<feOffset dy="4"/>
<feGaussianBlur stdDeviation="2"/>
<feComposite in2="hardAlpha" operator="out"/>
<feColorMatrix type="matrix" values="0 0 0 0 0 0 0 0 0 0 0 0 0 0 0 0 0 0 0.25 0"/>
<feBlend mode="normal" in2="effect1_dropShadow_4_576" result="effect2_dropShadow_4_576"/>
<feColorMatrix in="SourceAlpha" type="matrix" values="0 0 0 0 0 0 0 0 0 0 0 0 0 0 0 0 0 0 127 0" result="hardAlpha"/>
<feOffset dy="4"/>
<feGaussianBlur stdDeviation="2"/>
<feComposite in2="hardAlpha" operator="out"/>
<feColorMatrix type="matrix" values="0 0 0 0 0 0 0 0 0 0 0 0 0 0 0 0 0 0 0.25 0"/>
<feBlend mode="normal" in2="effect2_dropShadow_4_576" result="effect3_dropShadow_4_576"/>
<feBlend mode="normal" in="SourceGraphic" in2="effect3_dropShadow_4_576" result="shape"/>
</filter>
<filter id="filter9_ddd_4_576" x="11" y="116" width="32" height="43" filterUnits="userSpaceOnUse" color-interpolation-filters="sRGB">
<feFlood flood-opacity="0" result="BackgroundImageFix"/>
<feColorMatrix in="SourceAlpha" type="matrix" values="0 0 0 0 0 0 0 0 0 0 0 0 0 0 0 0 0 0 127 0" result="hardAlpha"/>
<feOffset dy="4"/>
<feGaussianBlur stdDeviation="2"/>
<feComposite in2="hardAlpha" operator="out"/>
<feColorMatrix type="matrix" values="0 0 0 0 0 0 0 0 0 0 0 0 0 0 0 0 0 0 0.25 0"/>
<feBlend mode="normal" in2="BackgroundImageFix" result="effect1_dropShadow_4_576"/>
<feColorMatrix in="SourceAlpha" type="matrix" values="0 0 0 0 0 0 0 0 0 0 0 0 0 0 0 0 0 0 127 0" result="hardAlpha"/>
<feOffset dy="4"/>
<feGaussianBlur stdDeviation="2"/>
<feComposite in2="hardAlpha" operator="out"/>
<feColorMatrix type="matrix" values="0 0 0 0 0 0 0 0 0 0 0 0 0 0 0 0 0 0 0.25 0"/>
<feBlend mode="normal" in2="effect1_dropShadow_4_576" result="effect2_dropShadow_4_576"/>
<feColorMatrix in="SourceAlpha" type="matrix" values="0 0 0 0 0 0 0 0 0 0 0 0 0 0 0 0 0 0 127 0" result="hardAlpha"/>
<feOffset dy="4"/>
<feGaussianBlur stdDeviation="2"/>
<feComposite in2="hardAlpha" operator="out"/>
<feColorMatrix type="matrix" values="0 0 0 0 0 0 0 0 0 0 0 0 0 0 0 0 0 0 0.25 0"/>
<feBlend mode="normal" in2="effect2_dropShadow_4_576" result="effect3_dropShadow_4_576"/>
<feBlend mode="normal" in="SourceGraphic" in2="effect3_dropShadow_4_576" result="shape"/>
</filter>
<filter id="filter10_ddd_4_576" x="227" y="116" width="32" height="43" filterUnits="userSpaceOnUse" color-interpolation-filters="sRGB">
<feFlood flood-opacity="0" result="BackgroundImageFix"/>
<feColorMatrix in="SourceAlpha" type="matrix" values="0 0 0 0 0 0 0 0 0 0 0 0 0 0 0 0 0 0 127 0" result="hardAlpha"/>
<feOffset dy="4"/>
<feGaussianBlur stdDeviation="2"/>
<feComposite in2="hardAlpha" operator="out"/>
<feColorMatrix type="matrix" values="0 0 0 0 0 0 0 0 0 0 0 0 0 0 0 0 0 0 0.25 0"/>
<feBlend mode="normal" in2="BackgroundImageFix" result="effect1_dropShadow_4_576"/>
<feColorMatrix in="SourceAlpha" type="matrix" values="0 0 0 0 0 0 0 0 0 0 0 0 0 0 0 0 0 0 127 0" result="hardAlpha"/>
<feOffset dy="4"/>
<feGaussianBlur stdDeviation="2"/>
<feComposite in2="hardAlpha" operator="out"/>
<feColorMatrix type="matrix" values="0 0 0 0 0 0 0 0 0 0 0 0 0 0 0 0 0 0 0.25 0"/>
<feBlend mode="normal" in2="effect1_dropShadow_4_576" result="effect2_dropShadow_4_576"/>
<feColorMatrix in="SourceAlpha" type="matrix" values="0 0 0 0 0 0 0 0 0 0 0 0 0 0 0 0 0 0 127 0" result="hardAlpha"/>
<feOffset dy="4"/>
<feGaussianBlur stdDeviation="2"/>
<feComposite in2="hardAlpha" operator="out"/>
<feColorMatrix type="matrix" values="0 0 0 0 0 0 0 0 0 0 0 0 0 0 0 0 0 0 0.25 0"/>
<feBlend mode="normal" in2="effect2_dropShadow_4_576" result="effect3_dropShadow_4_576"/>
<feBlend mode="normal" in="SourceGraphic" in2="effect3_dropShadow_4_576" result="shape"/>
</filter>
<filter id="filter11_ddd_4_576" x="119" y="227" width="32" height="43" filterUnits="userSpaceOnUse" color-interpolation-filters="sRGB">
<feFlood flood-opacity="0" result="BackgroundImageFix"/>
<feColorMatrix in="SourceAlpha" type="matrix" values="0 0 0 0 0 0 0 0 0 0 0 0 0 0 0 0 0 0 127 0" result="hardAlpha"/>
<feOffset dy="4"/>
<feGaussianBlur stdDeviation="2"/>
<feComposite in2="hardAlpha" operator="out"/>
<feColorMatrix type="matrix" values="0 0 0 0 0 0 0 0 0 0 0 0 0 0 0 0 0 0 0.25 0"/>
<feBlend mode="normal" in2="BackgroundImageFix" result="effect1_dropShadow_4_576"/>
<feColorMatrix in="SourceAlpha" type="matrix" values="0 0 0 0 0 0 0 0 0 0 0 0 0 0 0 0 0 0 127 0" result="hardAlpha"/>
<feOffset dy="4"/>
<feGaussianBlur stdDeviation="2"/>
<feComposite in2="hardAlpha" operator="out"/>
<feColorMatrix type="matrix" values="0 0 0 0 0 0 0 0 0 0 0 0 0 0 0 0 0 0 0.25 0"/>
<feBlend mode="normal" in2="effect1_dropShadow_4_576" result="effect2_dropShadow_4_576"/>
<feColorMatrix in="SourceAlpha" type="matrix" values="0 0 0 0 0 0 0 0 0 0 0 0 0 0 0 0 0 0 127 0" result="hardAlpha"/>
<feOffset dy="4"/>
<feGaussianBlur stdDeviation="2"/>
<feComposite in2="hardAlpha" operator="out"/>
<feColorMatrix type="matrix" values="0 0 0 0 0 0 0 0 0 0 0 0 0 0 0 0 0 0 0.25 0"/>
<feBlend mode="normal" in2="effect2_dropShadow_4_576" result="effect3_dropShadow_4_576"/>
<feBlend mode="normal" in="SourceGraphic" in2="effect3_dropShadow_4_576" result="shape"/>
</filter>
<filter id="filter12_ddd_4_576" x="69" y="79" width="121.422" height="122.185" filterUnits="userSpaceOnUse" color-interpolation-filters="sRGB">
<feFlood flood-opacity="0" result="BackgroundImageFix"/>
<feColorMatrix in="SourceAlpha" type="matrix" values="0 0 0 0 0 0 0 0 0 0 0 0 0 0 0 0 0 0 127 0" result="hardAlpha"/>
<feOffset dy="4"/>
<feGaussianBlur stdDeviation="2"/>
<feComposite in2="hardAlpha" operator="out"/>
<feColorMatrix type="matrix" values="0 0 0 0 0 0 0 0 0 0 0 0 0 0 0 0 0 0 0.25 0"/>
<feBlend mode="normal" in2="BackgroundImageFix" result="effect1_dropShadow_4_576"/>
<feColorMatrix in="SourceAlpha" type="matrix" values="0 0 0 0 0 0 0 0 0 0 0 0 0 0 0 0 0 0 127 0" result="hardAlpha"/>
<feOffset dy="4"/>
<feGaussianBlur stdDeviation="2"/>
<feComposite in2="hardAlpha" operator="out"/>
<feColorMatrix type="matrix" values="0 0 0 0 0 0 0 0 0 0 0 0 0 0 0 0 0 0 0.25 0"/>
<feBlend mode="normal" in2="effect1_dropShadow_4_576" result="effect2_dropShadow_4_576"/>
<feColorMatrix in="SourceAlpha" type="matrix" values="0 0 0 0 0 0 0 0 0 0 0 0 0 0 0 0 0 0 127 0" result="hardAlpha"/>
<feOffset dy="4"/>
<feGaussianBlur stdDeviation="2"/>
<feComposite in2="hardAlpha" operator="out"/>
<feColorMatrix type="matrix" values="0 0 0 0 0 0 0 0 0 0 0 0 0 0 0 0 0 0 0.25 0"/>
<feBlend mode="normal" in2="effect2_dropShadow_4_576" result="effect3_dropShadow_4_576"/>
<feBlend mode="normal" in="SourceGraphic" in2="effect3_dropShadow_4_576" result="shape"/>
</filter>
<linearGradient id="paint0_linear_4_576" x1="35.5243" y1="27.9121" x2="153.77" y2="273.538" gradientUnits="userSpaceOnUse">
<stop offset="0.157298" stop-color="#4B0000"/>
<stop offset="0.515625" stop-color="#9F0000"/>
<stop offset="0.834637" stop-color="#420202"/>
</linearGradient>
<linearGradient id="paint1_linear_4_576" x1="60.4621" y1="15.1157" x2="135.5" y2="271" gradientUnits="userSpaceOnUse">
<stop offset="0.236248" stop-color="#424242"/>
<stop offset="0.520833" stop-color="white"/>
<stop offset="0.833884" stop-color="#424242"/>
</linearGradient>
<linearGradient id="paint2_linear_4_576" x1="135" y1="47.0001" x2="135" y2="223" gradientUnits="userSpaceOnUse">
<stop/>
<stop offset="1" stop-color="#44005B"/>
</linearGradient>
<linearGradient id="paint3_linear_4_576" x1="107" y1="56.5001" x2="135" y2="223" gradientUnits="userSpaceOnUse">
<stop offset="0.178452" stop-color="#424242"/>
<stop offset="0.463542" stop-color="#B6B6B6"/>
<stop offset="0.855913" stop-color="#424242"/>
</linearGradient>
<radialGradient id="paint4_radial_4_576" cx="0" cy="0" r="1" gradientUnits="userSpaceOnUse" gradientTransform="translate(102.71 79.0279) rotate(90) scale(5.77654 6.30168)">
<stop stop-color="#D9D9D9"/>
<stop offset="0.71875" stop-color="#D9D9D9" stop-opacity="0"/>
</radialGradient>
<radialGradient id="paint5_radial_4_576" cx="0" cy="0" r="1" gradientUnits="userSpaceOnUse" gradientTransform="translate(146.296 72.2011) rotate(90) scale(4.20112 4.72626)">
<stop stop-color="#D9D9D9"/>
<stop offset="0.71875" stop-color="#D9D9D9" stop-opacity="0"/>
</radialGradient>
<radialGradient id="paint6_radial_4_576" cx="0" cy="0" r="1" gradientUnits="userSpaceOnUse" gradientTransform="translate(92.7319 112.637) rotate(90) scale(3.67598)">
<stop stop-color="#D9D9D9"/>
<stop offset="0.71875" stop-color="#D9D9D9" stop-opacity="0"/>
</radialGradient>
<radialGradient id="paint7_radial_4_576" cx="0" cy="0" r="1" gradientUnits="userSpaceOnUse" gradientTransform="translate(153.123 123.665) rotate(90) scale(7.35196)">
<stop stop-color="#D9D9D9"/>
<stop offset="0.71875" stop-color="#D9D9D9" stop-opacity="0"/>
</radialGradient>
<radialGradient id="paint8_radial_4_576" cx="0" cy="0" r="1" gradientUnits="userSpaceOnUse" gradientTransform="translate(163.626 87.4301) rotate(90) scale(2.6257 3.15084)">
<stop stop-color="#D9D9D9"/>
<stop offset="0.71875" stop-color="#D9D9D9" stop-opacity="0"/>
</radialGradient>
<radialGradient id="paint9_radial_4_576" cx="0" cy="0" r="1" gradientUnits="userSpaceOnUse" gradientTransform="translate(126.341 137.844) rotate(90) scale(3.67598)">
<stop stop-color="#D9D9D9"/>
<stop offset="0.71875" stop-color="#D9D9D9" stop-opacity="0"/>
</radialGradient>
<radialGradient id="paint10_radial_4_576" cx="0" cy="0" r="1" gradientUnits="userSpaceOnUse" gradientTransform="translate(124.24 99.5084) rotate(90) scale(2.10056 1.57542)">
<stop stop-color="#D9D9D9"/>
<stop offset="0.71875" stop-color="#D9D9D9" stop-opacity="0"/>
</radialGradient>
<radialGradient id="paint11_radial_4_576" cx="0" cy="0" r="1" gradientUnits="userSpaceOnUse" gradientTransform="translate(105.86 132.592) rotate(90) scale(1.57542 3.15084)">
<stop stop-color="#D9D9D9"/>
<stop offset="0.71875" stop-color="#D9D9D9" stop-opacity="0"/>
</radialGradient>
<radialGradient id="paint12_radial_4_576" cx="0" cy="0" r="1" gradientUnits="userSpaceOnUse" gradientTransform="translate(165.201 112.637) rotate(90) scale(3.67598 1.57542)">
<stop stop-color="#D9D9D9"/>
<stop offset="0.71875" stop-color="#D9D9D9" stop-opacity="0"/>
</radialGradient>
<radialGradient id="paint13_radial_4_576" cx="0" cy="0" r="1" gradientUnits="userSpaceOnUse" gradientTransform="translate(188.832 162.525) rotate(90) scale(3.15084)">
<stop stop-color="#D9D9D9"/>
<stop offset="0.71875" stop-color="#D9D9D9" stop-opacity="0"/>
</radialGradient>
<radialGradient id="paint14_radial_4_576" cx="0" cy="0" r="1" gradientUnits="userSpaceOnUse" gradientTransform="translate(204.061 134.693) rotate(90) scale(3.67598 2.6257)">
<stop stop-color="#D9D9D9"/>
<stop offset="0.71875" stop-color="#D9D9D9" stop-opacity="0"/>
</radialGradient>
<radialGradient id="paint15_radial_4_576" cx="0" cy="0" r="1" gradientUnits="userSpaceOnUse" gradientTransform="translate(191.458 103.184) rotate(90) scale(5.77654)">
<stop stop-color="#D9D9D9"/>
<stop offset="0.71875" stop-color="#D9D9D9" stop-opacity="0"/>
</radialGradient>
<radialGradient id="paint16_radial_4_576" cx="0" cy="0" r="1" gradientUnits="userSpaceOnUse" gradientTransform="translate(70.1508 145.196) rotate(90) scale(3.67598 3.15084)">
<stop stop-color="#D9D9D9"/>
<stop offset="0.71875" stop-color="#D9D9D9" stop-opacity="0"/>
</radialGradient>
<radialGradient id="paint17_radial_4_576" cx="0" cy="0" r="1" gradientUnits="userSpaceOnUse" gradientTransform="translate(90.6313 139.944) rotate(90) scale(1.57542)">
<stop stop-color="#D9D9D9"/>
<stop offset="0.71875" stop-color="#D9D9D9" stop-opacity="0"/>
</radialGradient>
<radialGradient id="paint18_radial_4_576" cx="0" cy="0" r="1" gradientUnits="userSpaceOnUse" gradientTransform="translate(94.3072 164.101) rotate(90) scale(1.57542 2.10056)">
<stop stop-color="#D9D9D9"/>
<stop offset="0.71875" stop-color="#D9D9D9" stop-opacity="0"/>
</radialGradient>
<radialGradient id="paint19_radial_4_576" cx="0" cy="0" r="1" gradientUnits="userSpaceOnUse" gradientTransform="translate(112.687 193.508) rotate(90) scale(11.0279 9.97765)">
<stop stop-color="#D9D9D9"/>
<stop offset="0.71875" stop-color="#D9D9D9" stop-opacity="0"/>
</radialGradient>
<radialGradient id="paint20_radial_4_576" cx="0" cy="0" r="1" gradientUnits="userSpaceOnUse" gradientTransform="translate(152.073 180.905) rotate(90) scale(9.97765 11.5531)">
<stop stop-color="#D9D9D9"/>
<stop offset="0.71875" stop-color="#D9D9D9" stop-opacity="0"/>
</radialGradient>
<radialGradient id="paint21_radial_4_576" cx="0" cy="0" r="1" gradientUnits="userSpaceOnUse" gradientTransform="translate(154.173 147.296) rotate(90) scale(1.57542 3.15084)">
<stop stop-color="#D9D9D9"/>
<stop offset="0.71875" stop-color="#D9D9D9" stop-opacity="0"/>
</radialGradient>
<radialGradient id="paint22_radial_4_576" cx="0" cy="0" r="1" gradientUnits="userSpaceOnUse" gradientTransform="translate(177.805 186.682) rotate(90) scale(4.20112 3.67598)">
<stop stop-color="#D9D9D9"/>
<stop offset="0.71875" stop-color="#D9D9D9" stop-opacity="0"/>
</radialGradient>
<radialGradient id="paint23_radial_4_576" cx="0" cy="0" r="1" gradientUnits="userSpaceOnUse" gradientTransform="translate(120.039 162) rotate(90) scale(2.6257)">
<stop stop-color="#D9D9D9"/>
<stop offset="0.71875" stop-color="#D9D9D9" stop-opacity="0"/>
</radialGradient>
<radialGradient id="paint24_radial_4_576" cx="0" cy="0" r="1" gradientUnits="userSpaceOnUse" gradientTransform="translate(143.145 201.385) rotate(90) scale(3.15084 2.6257)">
<stop stop-color="#D9D9D9"/>
<stop offset="0.71875" stop-color="#D9D9D9" stop-opacity="0"/>
</radialGradient>
<linearGradient id="paint25_linear_4_576" x1="128" y1="5.50012" x2="255.5" y2="188" gradientUnits="userSpaceOnUse">
<stop offset="0.304252" stop-color="#424242"/>
<stop offset="0.515625" stop-color="#D9D9D9"/>
<stop offset="0.729517" stop-color="#424242"/>
</linearGradient>
<linearGradient id="paint26_linear_4_576" x1="250.5" y1="197" x2="111" y2="5.00014" gradientUnits="userSpaceOnUse">
<stop offset="0.304252" stop-color="#424242"/>
<stop offset="0.515625" stop-color="#D9D9D9"/>
<stop offset="0.729517" stop-color="#424242"/>
</linearGradient>
<linearGradient id="paint27_linear_4_576" x1="109.5" y1="266" x2="7.99999" y2="98.9999" gradientUnits="userSpaceOnUse">
<stop offset="0.304252" stop-color="#424242"/>
<stop offset="0.515625" stop-color="#D9D9D9"/>
<stop offset="0.729517" stop-color="#424242"/>
</linearGradient>
<linearGradient id="paint28_linear_4_576" x1="9" y1="106" x2="87" y2="262" gradientUnits="userSpaceOnUse">
<stop offset="0.304252" stop-color="#424242"/>
<stop offset="0.515625" stop-color="#D9D9D9"/>
<stop offset="0.729517" stop-color="#424242"/>
</linearGradient>
<linearGradient id="paint29_linear_4_576" x1="241.191" y1="232" x2="340.191" y2="343.5" gradientUnits="userSpaceOnUse">
<stop stop-color="#424242"/>
<stop offset="0.5" stop-color="#D9D9D9"/>
<stop offset="1" stop-color="#424242"/>
</linearGradient>
<linearGradient id="paint30_linear_4_576" x1="90.5" y1="-70.4999" x2="176" y2="48.5001" gradientUnits="userSpaceOnUse">
<stop offset="0.149931" stop-color="#424242"/>
<stop offset="0.473835" stop-color="#D9D9D9"/>
<stop offset="0.591504" stop-color="#424242"/>
</linearGradient>
<linearGradient id="paint31_linear_4_576" x1="126.736" y1="14.1629" x2="150.054" y2="36.6542" gradientUnits="userSpaceOnUse">
<stop offset="0.0246111" stop-color="#424242"/>
<stop offset="0.510417" stop-color="#D9D9D9"/>
<stop offset="1" stop-color="#424242"/>
</linearGradient>
<linearGradient id="paint32_linear_4_576" x1="14.7244" y1="123.597" x2="39.4378" y2="147.049" gradientUnits="userSpaceOnUse">
<stop offset="0.0246111" stop-color="#424242"/>
<stop offset="0.510417" stop-color="#D9D9D9"/>
<stop offset="1" stop-color="#424242"/>
</linearGradient>
<linearGradient id="paint33_linear_4_576" x1="230.724" y1="123.597" x2="255.438" y2="147.049" gradientUnits="userSpaceOnUse">
<stop offset="0.0246111" stop-color="#424242"/>
<stop offset="0.510417" stop-color="#D9D9D9"/>
<stop offset="1" stop-color="#424242"/>
</linearGradient>
<linearGradient id="paint34_linear_4_576" x1="122.724" y1="234.597" x2="147.438" y2="258.049" gradientUnits="userSpaceOnUse">
<stop offset="0.0246111" stop-color="#424242"/>
<stop offset="0.510417" stop-color="#D9D9D9"/>
<stop offset="1" stop-color="#424242"/>
</linearGradient>
<linearGradient id="paint35_linear_4_576" x1="107.85" y1="110.957" x2="110.939" y2="200.793" gradientUnits="userSpaceOnUse">
<stop stop-color="#6B0000"/>
<stop offset="0.520833" stop-color="#FF0000"/>
<stop offset="0.953125" stop-color="#4A0000"/>
</linearGradient>
<linearGradient id="paint36_linear_4_576" x1="115.18" y1="108.824" x2="115.18" y2="193.185" gradientUnits="userSpaceOnUse">
<stop stop-color="#600000"/>
<stop offset="0.515625" stop-color="#FF0000"/>
<stop offset="1" stop-color="#790000"/>
</linearGradient>
<linearGradient id="paint37_linear_4_576" x1="115.5" y1="114.185" x2="115.647" y2="194.382" gradientUnits="userSpaceOnUse">
<stop offset="0.0625" stop-color="#560000"/>
<stop offset="1" stop-color="#CD0000"/>
</linearGradient>
<linearGradient id="paint38_linear_4_576" x1="163.5" y1="79" x2="163.5" y2="124" gradientUnits="userSpaceOnUse">
<stop stop-color="#CC0000"/>
<stop offset="1" stop-color="#470000"/>
</linearGradient>
</defs>
</svg>
