<svg width="314" height="314" viewBox="0 0 314 314" fill="none" xmlns="http://www.w3.org/2000/svg">
<g filter="url(#filter0_i_8_187)">
<circle cx="157" cy="157" r="157" fill="url(#paint0_linear_8_187)"/>
</g>
<circle cx="157" cy="157" r="155" stroke="url(#paint1_linear_8_187)" stroke-width="4"/>
<g filter="url(#filter1_d_8_187)">
<circle cx="157" cy="32" r="21" fill="url(#paint2_linear_8_187)"/>
</g>
<g filter="url(#filter2_d_8_187)">
<circle cx="157" cy="281" r="19" stroke="url(#paint3_linear_8_187)" stroke-width="4" shape-rendering="crispEdges"/>
</g>
<g filter="url(#filter3_dd_8_187)">
<path d="M83.4052 45.8464L107.315 61.5814L83.816 74.4664L83.4052 45.8464Z" fill="url(#paint4_linear_8_187)"/>
<path d="M91.6933 31.9651L124.246 52.6063L91.5936 70.5104L91.6933 31.9651Z" fill="url(#paint5_linear_8_187)"/>
<path d="M232.575 46.3028L208.352 61.5519L231.587 74.9087L232.575 46.3028Z" fill="url(#paint6_linear_8_187)"/>
<path d="M224.569 32.257L191.606 52.2368L223.89 70.7964L224.569 32.257Z" fill="url(#paint7_linear_8_187)"/>
</g>
<g filter="url(#filter4_dd_8_187)">
<path d="M83.4052 266.405L107.315 250.67L83.816 237.785L83.4052 266.405Z" fill="url(#paint8_linear_8_187)"/>
<path d="M91.6933 280.286L124.246 259.645L91.5936 241.741L91.6933 280.286Z" fill="url(#paint9_linear_8_187)"/>
<path d="M232.575 265.948L208.352 250.699L231.587 237.342L232.575 265.948Z" fill="url(#paint10_linear_8_187)"/>
<path d="M224.569 279.994L191.606 260.014L223.89 241.455L224.569 279.994Z" fill="url(#paint11_linear_8_187)"/>
</g>
<g filter="url(#filter5_dd_8_187)">
<path d="M268.718 225.8C270.976 230.738 271.011 235.004 270.746 236.52C273.148 234.716 274.915 232.433 276.344 228.363C277.772 224.294 276.495 219.655 275.734 217.549C273.75 212.769 269.492 209.413 265.875 207.789C262.259 206.166 259.01 206.119 253.642 208.493C245.266 212.778 244.173 219.429 244.071 221.19C248.659 217.64 255.186 217.418 257.876 217.75C260.549 218.377 266.46 220.863 268.718 225.8Z" fill="url(#paint12_linear_8_187)"/>
</g>
<g filter="url(#filter6_dd_8_187)">
<path d="M47.3176 225.8C45.0596 230.738 45.0244 235.004 45.289 236.52C42.8873 234.716 41.1204 232.433 39.6917 228.363C38.2629 224.294 39.5399 219.655 40.3012 217.549C42.2857 212.769 46.5437 209.413 50.1602 207.789C53.7766 206.166 57.0251 206.119 62.3931 208.493C70.7697 212.778 71.8623 219.429 71.9644 221.19C67.3764 217.64 60.8493 217.418 58.1592 217.75C55.4862 218.377 49.5757 220.863 47.3176 225.8Z" fill="url(#paint13_linear_8_187)"/>
</g>
<g filter="url(#filter7_dd_8_187)">
<path d="M268.718 83.317C270.976 78.3799 271.011 74.1136 270.746 72.5976C273.148 74.4019 274.915 76.6849 276.344 80.7543C277.772 84.8237 276.495 89.4625 275.734 91.5681C273.75 96.3481 269.492 99.7049 265.875 101.328C262.259 102.952 259.01 102.999 253.642 100.624C245.266 96.3394 244.173 89.6883 244.071 87.9273C248.659 91.4778 255.186 91.6999 257.876 91.3672C260.549 90.741 266.46 88.2542 268.718 83.317Z" fill="url(#paint14_linear_8_187)"/>
</g>
<g filter="url(#filter8_dd_8_187)">
<path d="M47.3176 83.317C45.0596 78.3799 45.0244 74.1136 45.289 72.5976C42.8873 74.4019 41.1204 76.6849 39.6917 80.7543C38.2629 84.8237 39.5399 89.4625 40.3012 91.5681C42.2857 96.3481 46.5437 99.7049 50.1602 101.328C53.7766 102.952 57.0251 102.999 62.3931 100.624C70.7697 96.3394 71.8623 89.6883 71.9644 87.9273C67.3764 91.4778 60.8493 91.6999 58.1592 91.3672C55.4862 90.741 49.5757 88.2542 47.3176 83.317Z" fill="url(#paint15_linear_8_187)"/>
</g>
<g filter="url(#filter9_dd_8_187)">
<path d="M279.73 162.16L281.478 162.411C281.894 162.579 282.677 163.165 282.477 164.169C282.277 165.173 281.728 165.424 281.478 165.424L280.729 165.424L281.478 165.926C281.811 166.178 282.227 166.856 282.227 167.684C282.227 168.688 282.185 168.913 281.978 169.19C281.728 169.525 281.029 170.044 280.23 169.442L280.979 170.697C281.229 171.032 281.528 172.003 280.729 173.208C279.93 174.413 279.564 174.882 279.481 174.965C279.231 175.3 278.582 175.769 277.983 174.965C278.182 175.367 278.399 175.97 278.482 176.221C278.565 176.556 278.532 177.376 277.733 177.978L275.735 179.485C275.319 179.736 274.387 180.037 273.988 179.234L273.988 179.987C273.988 180.322 273.788 181.041 272.989 181.242C272.19 181.443 271.158 181.828 270.742 181.996C270.242 182.247 269.243 182.247 268.994 181.242C268.744 180.238 268.494 179.736 268.494 179.736L268.245 182.247C268.245 182.498 267.945 183 266.747 183L265.498 183C265.165 183 264.499 182.799 264.499 181.996L264.499 166.178C264.499 165.759 264.649 164.922 265.248 164.922C265.848 164.922 266.33 165.257 266.497 165.424C267.246 166.01 268.494 166.931 268.994 167.182C269.493 167.433 271.99 167.684 273.239 166.931C274.487 166.178 276.984 164.169 276.984 162.16C275.785 162.16 271.657 161.658 269.743 161.407L266.996 161.407C266.58 161.407 265.748 161.256 265.748 160.654C265.348 160.855 264.749 161.407 264.499 161.658L264.499 159.901C264.499 159.315 264.749 158.143 265.748 158.143L267.995 158.143L267.995 156.888C267.995 156.469 268.345 155.632 269.743 155.632L271.99 155.632C272.489 155.632 273.638 155.532 274.237 155.13C274.837 154.728 275.985 154.628 276.485 154.628L275.985 153.624C275.652 153.038 274.237 151.364 272.989 150.862C271.74 150.359 268.744 150.359 267.246 151.364L265.748 152.619C265.415 152.87 264.749 152.921 264.749 151.113C264.749 149.305 264.25 139.479 264 134.792C264 134.458 264.2 133.838 264.999 134.039C265.798 134.24 266.83 134.458 267.246 134.541C267.579 134.625 268.195 135.094 267.995 136.299C268.245 135.797 268.494 135.044 269.743 135.295C270.742 135.495 271.657 135.713 271.99 135.797C272.323 135.88 272.939 136.299 272.739 137.303C272.989 137.052 273.488 136.55 274.986 137.303L276.734 138.559C277.067 138.81 277.583 139.563 276.984 140.567C276.784 140.969 276.568 141.237 276.485 141.321C276.901 140.986 277.833 140.417 278.232 140.818C278.632 141.22 279.398 142.492 279.73 143.078C280.063 143.58 280.48 144.785 279.481 145.589C279.98 145.589 280.729 145.338 281.229 146.844C281.728 148.351 280.729 149.857 280.729 149.857C280.729 149.857 281.478 150.108 281.728 150.611C281.978 151.113 282.227 152.669 281.229 152.87L279.73 153.624C279.73 153.624 282.477 153.372 284.225 153.372C285.973 153.372 288.57 153.824 289.968 154.628C290.967 153.824 297.209 150.778 300.205 149.355C300.621 149.188 301.454 149.355 301.953 150.108C302.452 150.862 302.452 151.029 302.452 151.113C302.596 151.33 302.678 151.772 302.053 152.017C302.491 151.938 303.048 152.002 303.201 152.619C303.401 153.423 303.451 153.791 303.451 153.875C303.451 154.126 303.301 154.628 302.702 154.628C303.201 154.879 303.95 154.879 303.95 155.883L303.95 157.641C303.95 157.892 303.751 158.344 302.952 158.143C303.451 158.394 304.2 158.645 303.95 159.398C303.95 160.152 303.701 161.156 302.452 160.905C302.952 161.156 302.952 161.909 302.702 162.662C302.502 163.265 302.286 163.75 302.203 163.918C302.119 164.169 301.653 164.52 300.455 163.918C299.056 163.315 292.881 161.323 289.968 160.403C289.302 160.989 286.222 161.909 284.225 161.909C282.227 161.909 279.897 162.16 279.73 162.16Z" fill="url(#paint16_linear_8_187)"/>
</g>
<g filter="url(#filter10_dd_8_187)">
<path d="M35.2695 162.16L33.5217 162.411C33.1055 162.579 32.3232 163.165 32.5229 164.169C32.7227 165.173 33.272 165.424 33.5217 165.424L34.2708 165.424L33.5217 165.926C33.1888 166.178 32.7726 166.856 32.7726 167.684C32.7726 168.688 32.8152 168.913 33.0223 169.19C33.272 169.525 33.9711 170.044 34.7701 169.442L34.0211 170.697C33.7714 171.032 33.4718 172.003 34.2708 173.208C35.0698 174.413 35.436 174.882 35.5192 174.965C35.7689 175.3 36.4181 175.769 37.0174 174.965C36.8176 175.367 36.6012 175.97 36.518 176.221C36.4347 176.556 36.468 177.376 37.267 177.978L39.2646 179.485C39.6807 179.736 40.6129 180.037 41.0124 179.234L41.0124 179.987C41.0124 180.322 41.2121 181.041 42.0112 181.242C42.8102 181.443 43.8422 181.828 44.2584 181.996C44.7577 182.247 45.7565 182.247 46.0062 181.242C46.2559 180.238 46.5056 179.736 46.5056 179.736L46.7553 182.247C46.7553 182.498 47.0549 183 48.2534 183L49.5019 183C49.8348 183 50.5006 182.799 50.5006 181.996L50.5006 166.178C50.5006 165.759 50.3508 164.922 49.7516 164.922C49.1523 164.922 48.6696 165.257 48.5031 165.424C47.754 166.01 46.5056 166.931 46.0062 167.182C45.5068 167.433 43.0099 167.684 41.7615 166.931C40.513 166.178 38.0161 164.169 38.0161 162.16C39.2146 162.16 43.3428 161.658 45.2571 161.407L48.0037 161.407C48.4199 161.407 49.2522 161.256 49.2522 160.654C49.6517 160.855 50.2509 161.407 50.5006 161.658L50.5006 159.901C50.5006 159.315 50.2509 158.143 49.2522 158.143L47.005 158.143L47.005 156.888C47.005 156.469 46.6554 155.632 45.2571 155.632L43.0099 155.632C42.5105 155.632 41.362 155.532 40.7627 155.13C40.1635 154.728 39.0149 154.628 38.5155 154.628L39.0149 153.624C39.3478 153.038 40.7627 151.364 42.0112 150.862C43.2596 150.359 46.2559 150.359 47.754 151.364L49.2522 152.619C49.5851 152.87 50.2509 152.921 50.2509 151.113C50.2509 149.305 50.7503 139.479 51 134.792C51 134.458 50.8003 133.838 50.0012 134.039C49.2022 134.24 48.1702 134.458 47.754 134.541C47.4211 134.625 46.8052 135.094 47.005 136.299C46.7553 135.797 46.5056 135.044 45.2571 135.295C44.2584 135.495 43.3428 135.713 43.0099 135.797C42.677 135.88 42.0611 136.299 42.2609 137.303C42.0112 137.052 41.5118 136.55 40.0136 137.303L38.2658 138.559C37.9329 138.81 37.4169 139.563 38.0161 140.567C38.2159 140.969 38.4323 141.237 38.5155 141.321C38.0993 140.986 37.1672 140.417 36.7677 140.818C36.3682 141.22 35.6024 142.492 35.2695 143.078C34.9366 143.58 34.5205 144.785 35.5192 145.589C35.0198 145.589 34.2708 145.338 33.7714 146.844C33.272 148.351 34.2708 149.857 34.2708 149.857C34.2708 149.857 33.5217 150.108 33.272 150.611C33.0223 151.113 32.7726 152.669 33.7714 152.87L35.2695 153.624C35.2695 153.624 32.5229 153.372 30.7751 153.372C29.0273 153.372 26.4305 153.824 25.0322 154.628C24.0335 153.824 17.7912 150.778 14.7949 149.355C14.3788 149.188 13.5465 149.355 13.0471 150.108C12.5477 150.862 12.5477 151.029 12.5477 151.113C12.4039 151.33 12.3222 151.772 12.9474 152.017C12.509 151.938 11.9522 152.002 11.7987 152.619C11.5989 153.423 11.549 153.791 11.549 153.875C11.549 154.126 11.6988 154.628 12.298 154.628C11.7987 154.879 11.0496 154.879 11.0496 155.883L11.0496 157.641C11.0496 157.892 11.2493 158.344 12.0484 158.143C11.549 158.394 10.7999 158.645 11.0496 159.398C11.0496 160.152 11.2993 161.156 12.5477 160.905C12.0484 161.156 12.0484 161.909 12.298 162.662C12.4978 163.265 12.7142 163.75 12.7974 163.918C12.8807 164.169 13.3467 164.52 14.5453 163.918C15.9435 163.315 22.1192 161.323 25.0322 160.403C25.6981 160.989 28.7776 161.909 30.7751 161.909C32.7726 161.909 35.1031 162.16 35.2695 162.16Z" fill="url(#paint17_linear_8_187)"/>
</g>
<g filter="url(#filter11_f_8_187)">
<g filter="url(#filter12_dd_8_187)">
<circle cx="157" cy="158" r="98" fill="white"/>
</g>
</g>
<g filter="url(#filter13_dd_8_187)">
<circle cx="157" cy="157" r="90" fill="url(#paint18_linear_8_187)"/>
</g>
<g style="mix-blend-mode:overlay">
<path d="M101.661 218.5C96.8607 212.9 85.994 207.167 81.1607 205L80.1607 205.5C65.3607 184.7 65.994 155.5 68.1607 143.5C68.1607 146.7 73.3274 148.667 75.6607 149L79.6607 158.5C82.6607 159.667 87.8607 161.1 84.6607 157.5C81.4607 153.9 83.3274 148.667 84.6607 146.5C83.494 145 81.1607 141.6 81.1607 140C81.1607 138.4 84.8274 135 86.6607 133.5C85.994 132.5 87.2607 127.8 97.6607 117C108.061 106.2 120.661 113.5 125.661 118.5L124.161 113C124.494 108.833 126.161 101 130.161 103C134.161 105 136.161 102.167 136.661 100.5C136.161 99.1667 135.861 96.3 138.661 95.5C147.161 101.5 144.661 98.5 158.661 103C169.861 106.6 169.661 102.833 168.161 100.5L161.661 95.5C165.494 95.1667 174.261 94.2 178.661 93C199.861 100.2 199.827 90 197.161 84H208.161C231.661 100.5 244.161 130.5 246.161 146.5C247.761 159.3 246.661 171 245.161 175.5L240.161 170.5C237.494 166.833 232.661 159.5 234.661 159.5C236.661 159.5 237.161 150.833 237.161 146.5C236.661 142.167 235.461 132.9 234.661 130.5C233.965 128.411 229.936 124.909 227.255 122.827C228.34 123.927 228.899 125.675 226.161 127.5C222.561 129.9 221.994 132.5 222.161 133.5C219.994 137.333 215.461 142.7 214.661 133.5C213.861 124.3 206.661 122 203.161 122C202.661 120.333 200.161 116.5 194.161 114.5C188.161 112.5 186.994 115.333 187.161 117C187.494 120.5 189.361 128.1 194.161 130.5C198.961 132.9 196.161 136.167 194.161 137.5C191.161 140.667 185.061 145.1 184.661 137.5C184.261 129.9 181.827 129.667 180.661 130.5C180.994 131.667 180.261 133.9 174.661 133.5C169.061 133.1 161.661 129.333 158.661 127.5C162.994 130.167 169.061 136.4 158.661 140C148.261 143.6 154.327 149.167 158.661 151.5C160.327 153.5 162.061 157.9 155.661 159.5C149.261 161.1 150.661 164.167 152.161 165.5C148.494 169.333 142.861 176.7 149.661 175.5C156.461 174.3 163.494 178.333 166.161 180.5L171.661 188C175.161 189.5 181.461 192.5 178.661 192.5C175.861 192.5 176.494 197.5 177.161 200C174.827 203 170.461 209.5 171.661 211.5C172.861 213.5 171.161 218.667 170.161 221H163.661C163.661 219.5 162.661 216.5 158.661 216.5C153.661 216.5 158.161 221 158.661 223C159.061 224.6 152.827 226.667 149.661 227.5L144.661 224.5L136.661 221C138.327 221 141.561 220.1 141.161 216.5C140.761 212.9 133.661 212.333 130.161 212.5C130.494 213.833 130.561 216.5 128.161 216.5C125.761 216.5 127.161 219.5 128.161 221C126.494 220.167 123.561 219.4 125.161 223C126.761 226.6 124.494 225.5 123.161 224.5C117.994 224.833 106.461 224.1 101.661 218.5Z" fill="#D2D1D1" fill-opacity="0.5"/>
</g>
<g style="mix-blend-mode:overlay">
<path d="M225.776 164.458C222.081 168.686 224.686 171.407 226.45 172.24C225.598 173.084 223.261 173.994 222.199 174.343C220.665 174.69 217.171 176.231 215.459 179.618C213.748 183.005 212.859 181.493 212.628 180.313L205.551 181.698L199.578 172.834L198.53 169.647C198.771 168.47 199.825 164.42 202.117 157.641C204.408 150.863 209.925 150.367 212.398 150.967C214.043 152.152 217.829 154.172 219.815 152.766C221.801 151.36 223.707 151.957 224.413 152.432C226.407 154.679 229.471 160.231 225.776 164.458Z" fill="#4E4646"/>
<path d="M203.322 207.144C207.571 205.748 210.031 209.176 210.731 211.065C210.726 212.196 208.829 214.828 207.881 216.002C207.522 217.297 206.522 219.886 205.39 219.881C204.259 219.876 200.668 221.747 199.014 222.683C199.961 221.744 200.722 220.144 196.192 221.257C191.662 222.369 190.537 220.761 190.541 219.819C189.959 218.048 189.22 214.51 190.917 214.517C192.614 214.524 193.518 212.642 193.757 211.7C193.878 211.112 194.401 209.935 195.532 209.94C196.947 209.946 198.012 208.89 203.322 207.144Z" fill="#4E4646"/>
</g>
<g style="mix-blend-mode:overlay">
<path d="M136 77.7886L137.511 72.0603C148.394 73.455 150.779 70.649 150.611 69.0716C152.29 70.0678 155.951 71.7116 157.16 70.3169C158.369 68.9222 162.702 68.9056 164.718 69.0716C163.878 69.6527 162.702 71.1637 164.718 72.5584C175.197 74.3516 172.107 76.7924 169.252 77.7886C168.244 78.1207 166.834 79.6317 169.252 83.0188C171.67 86.406 168.244 86.5887 166.229 86.2566C165.053 85.4264 162.601 83.9653 162.198 84.7622C161.795 85.5592 156.321 87.2528 153.634 88C154.977 87.5849 155.85 86.6551 148.595 86.2566C141.34 85.8581 137.176 80.4452 136 77.7886Z" fill="#2E2D2D"/>
</g>
<defs>
<filter id="filter0_i_8_187" x="0" y="0" width="314" height="318" filterUnits="userSpaceOnUse" color-interpolation-filters="sRGB">
<feFlood flood-opacity="0" result="BackgroundImageFix"/>
<feBlend mode="normal" in="SourceGraphic" in2="BackgroundImageFix" result="shape"/>
<feColorMatrix in="SourceAlpha" type="matrix" values="0 0 0 0 0 0 0 0 0 0 0 0 0 0 0 0 0 0 127 0" result="hardAlpha"/>
<feOffset dy="4"/>
<feGaussianBlur stdDeviation="2"/>
<feComposite in2="hardAlpha" operator="arithmetic" k2="-1" k3="1"/>
<feColorMatrix type="matrix" values="0 0 0 0 0 0 0 0 0 0 0 0 0 0 0 0 0 0 0.25 0"/>
<feBlend mode="normal" in2="shape" result="effect1_innerShadow_8_187"/>
</filter>
<filter id="filter1_d_8_187" x="132" y="11" width="50" height="50" filterUnits="userSpaceOnUse" color-interpolation-filters="sRGB">
<feFlood flood-opacity="0" result="BackgroundImageFix"/>
<feColorMatrix in="SourceAlpha" type="matrix" values="0 0 0 0 0 0 0 0 0 0 0 0 0 0 0 0 0 0 127 0" result="hardAlpha"/>
<feOffset dy="4"/>
<feGaussianBlur stdDeviation="2"/>
<feComposite in2="hardAlpha" operator="out"/>
<feColorMatrix type="matrix" values="0 0 0 0 0 0 0 0 0 0 0 0 0 0 0 0 0 0 0.25 0"/>
<feBlend mode="normal" in2="BackgroundImageFix" result="effect1_dropShadow_8_187"/>
<feBlend mode="normal" in="SourceGraphic" in2="effect1_dropShadow_8_187" result="shape"/>
</filter>
<filter id="filter2_d_8_187" x="132" y="260" width="50" height="50" filterUnits="userSpaceOnUse" color-interpolation-filters="sRGB">
<feFlood flood-opacity="0" result="BackgroundImageFix"/>
<feColorMatrix in="SourceAlpha" type="matrix" values="0 0 0 0 0 0 0 0 0 0 0 0 0 0 0 0 0 0 127 0" result="hardAlpha"/>
<feOffset dy="4"/>
<feGaussianBlur stdDeviation="2"/>
<feComposite in2="hardAlpha" operator="out"/>
<feColorMatrix type="matrix" values="0 0 0 0 0 0 0 0 0 0 0 0 0 0 0 0 0 0 0.25 0"/>
<feBlend mode="normal" in2="BackgroundImageFix" result="effect1_dropShadow_8_187"/>
<feBlend mode="normal" in="SourceGraphic" in2="effect1_dropShadow_8_187" result="shape"/>
</filter>
<filter id="filter3_dd_8_187" x="79.4052" y="31.9651" width="157.17" height="50.9436" filterUnits="userSpaceOnUse" color-interpolation-filters="sRGB">
<feFlood flood-opacity="0" result="BackgroundImageFix"/>
<feColorMatrix in="SourceAlpha" type="matrix" values="0 0 0 0 0 0 0 0 0 0 0 0 0 0 0 0 0 0 127 0" result="hardAlpha"/>
<feOffset dy="4"/>
<feGaussianBlur stdDeviation="2"/>
<feComposite in2="hardAlpha" operator="out"/>
<feColorMatrix type="matrix" values="0 0 0 0 0 0 0 0 0 0 0 0 0 0 0 0 0 0 0.25 0"/>
<feBlend mode="normal" in2="BackgroundImageFix" result="effect1_dropShadow_8_187"/>
<feColorMatrix in="SourceAlpha" type="matrix" values="0 0 0 0 0 0 0 0 0 0 0 0 0 0 0 0 0 0 127 0" result="hardAlpha"/>
<feOffset dy="4"/>
<feGaussianBlur stdDeviation="2"/>
<feComposite in2="hardAlpha" operator="out"/>
<feColorMatrix type="matrix" values="0 0 0 0 0 0 0 0 0 0 0 0 0 0 0 0 0 0 0.25 0"/>
<feBlend mode="normal" in2="effect1_dropShadow_8_187" result="effect2_dropShadow_8_187"/>
<feBlend mode="normal" in="SourceGraphic" in2="effect2_dropShadow_8_187" result="shape"/>
</filter>
<filter id="filter4_dd_8_187" x="79.4052" y="237.342" width="157.17" height="50.9436" filterUnits="userSpaceOnUse" color-interpolation-filters="sRGB">
<feFlood flood-opacity="0" result="BackgroundImageFix"/>
<feColorMatrix in="SourceAlpha" type="matrix" values="0 0 0 0 0 0 0 0 0 0 0 0 0 0 0 0 0 0 127 0" result="hardAlpha"/>
<feOffset dy="4"/>
<feGaussianBlur stdDeviation="2"/>
<feComposite in2="hardAlpha" operator="out"/>
<feColorMatrix type="matrix" values="0 0 0 0 0 0 0 0 0 0 0 0 0 0 0 0 0 0 0.25 0"/>
<feBlend mode="normal" in2="BackgroundImageFix" result="effect1_dropShadow_8_187"/>
<feColorMatrix in="SourceAlpha" type="matrix" values="0 0 0 0 0 0 0 0 0 0 0 0 0 0 0 0 0 0 127 0" result="hardAlpha"/>
<feOffset dy="4"/>
<feGaussianBlur stdDeviation="2"/>
<feComposite in2="hardAlpha" operator="out"/>
<feColorMatrix type="matrix" values="0 0 0 0 0 0 0 0 0 0 0 0 0 0 0 0 0 0 0.25 0"/>
<feBlend mode="normal" in2="effect1_dropShadow_8_187" result="effect2_dropShadow_8_187"/>
<feBlend mode="normal" in="SourceGraphic" in2="effect2_dropShadow_8_187" result="shape"/>
</filter>
<filter id="filter5_dd_8_187" x="240.071" y="206.632" width="40.919" height="37.8881" filterUnits="userSpaceOnUse" color-interpolation-filters="sRGB">
<feFlood flood-opacity="0" result="BackgroundImageFix"/>
<feColorMatrix in="SourceAlpha" type="matrix" values="0 0 0 0 0 0 0 0 0 0 0 0 0 0 0 0 0 0 127 0" result="hardAlpha"/>
<feOffset dy="4"/>
<feGaussianBlur stdDeviation="2"/>
<feComposite in2="hardAlpha" operator="out"/>
<feColorMatrix type="matrix" values="0 0 0 0 0 0 0 0 0 0 0 0 0 0 0 0 0 0 0.25 0"/>
<feBlend mode="normal" in2="BackgroundImageFix" result="effect1_dropShadow_8_187"/>
<feColorMatrix in="SourceAlpha" type="matrix" values="0 0 0 0 0 0 0 0 0 0 0 0 0 0 0 0 0 0 127 0" result="hardAlpha"/>
<feOffset dy="4"/>
<feGaussianBlur stdDeviation="2"/>
<feComposite in2="hardAlpha" operator="out"/>
<feColorMatrix type="matrix" values="0 0 0 0 0 0 0 0 0 0 0 0 0 0 0 0 0 0 0.25 0"/>
<feBlend mode="normal" in2="effect1_dropShadow_8_187" result="effect2_dropShadow_8_187"/>
<feBlend mode="normal" in="SourceGraphic" in2="effect2_dropShadow_8_187" result="shape"/>
</filter>
<filter id="filter6_dd_8_187" x="35.0454" y="206.632" width="40.919" height="37.8881" filterUnits="userSpaceOnUse" color-interpolation-filters="sRGB">
<feFlood flood-opacity="0" result="BackgroundImageFix"/>
<feColorMatrix in="SourceAlpha" type="matrix" values="0 0 0 0 0 0 0 0 0 0 0 0 0 0 0 0 0 0 127 0" result="hardAlpha"/>
<feOffset dy="4"/>
<feGaussianBlur stdDeviation="2"/>
<feComposite in2="hardAlpha" operator="out"/>
<feColorMatrix type="matrix" values="0 0 0 0 0 0 0 0 0 0 0 0 0 0 0 0 0 0 0.25 0"/>
<feBlend mode="normal" in2="BackgroundImageFix" result="effect1_dropShadow_8_187"/>
<feColorMatrix in="SourceAlpha" type="matrix" values="0 0 0 0 0 0 0 0 0 0 0 0 0 0 0 0 0 0 127 0" result="hardAlpha"/>
<feOffset dy="4"/>
<feGaussianBlur stdDeviation="2"/>
<feComposite in2="hardAlpha" operator="out"/>
<feColorMatrix type="matrix" values="0 0 0 0 0 0 0 0 0 0 0 0 0 0 0 0 0 0 0.25 0"/>
<feBlend mode="normal" in2="effect1_dropShadow_8_187" result="effect2_dropShadow_8_187"/>
<feBlend mode="normal" in="SourceGraphic" in2="effect2_dropShadow_8_187" result="shape"/>
</filter>
<filter id="filter7_dd_8_187" x="240.071" y="72.5976" width="40.919" height="37.8881" filterUnits="userSpaceOnUse" color-interpolation-filters="sRGB">
<feFlood flood-opacity="0" result="BackgroundImageFix"/>
<feColorMatrix in="SourceAlpha" type="matrix" values="0 0 0 0 0 0 0 0 0 0 0 0 0 0 0 0 0 0 127 0" result="hardAlpha"/>
<feOffset dy="4"/>
<feGaussianBlur stdDeviation="2"/>
<feComposite in2="hardAlpha" operator="out"/>
<feColorMatrix type="matrix" values="0 0 0 0 0 0 0 0 0 0 0 0 0 0 0 0 0 0 0.25 0"/>
<feBlend mode="normal" in2="BackgroundImageFix" result="effect1_dropShadow_8_187"/>
<feColorMatrix in="SourceAlpha" type="matrix" values="0 0 0 0 0 0 0 0 0 0 0 0 0 0 0 0 0 0 127 0" result="hardAlpha"/>
<feOffset dy="4"/>
<feGaussianBlur stdDeviation="2"/>
<feComposite in2="hardAlpha" operator="out"/>
<feColorMatrix type="matrix" values="0 0 0 0 0 0 0 0 0 0 0 0 0 0 0 0 0 0 0.25 0"/>
<feBlend mode="normal" in2="effect1_dropShadow_8_187" result="effect2_dropShadow_8_187"/>
<feBlend mode="normal" in="SourceGraphic" in2="effect2_dropShadow_8_187" result="shape"/>
</filter>
<filter id="filter8_dd_8_187" x="35.0454" y="72.5976" width="40.919" height="37.8881" filterUnits="userSpaceOnUse" color-interpolation-filters="sRGB">
<feFlood flood-opacity="0" result="BackgroundImageFix"/>
<feColorMatrix in="SourceAlpha" type="matrix" values="0 0 0 0 0 0 0 0 0 0 0 0 0 0 0 0 0 0 127 0" result="hardAlpha"/>
<feOffset dy="4"/>
<feGaussianBlur stdDeviation="2"/>
<feComposite in2="hardAlpha" operator="out"/>
<feColorMatrix type="matrix" values="0 0 0 0 0 0 0 0 0 0 0 0 0 0 0 0 0 0 0.25 0"/>
<feBlend mode="normal" in2="BackgroundImageFix" result="effect1_dropShadow_8_187"/>
<feColorMatrix in="SourceAlpha" type="matrix" values="0 0 0 0 0 0 0 0 0 0 0 0 0 0 0 0 0 0 127 0" result="hardAlpha"/>
<feOffset dy="4"/>
<feGaussianBlur stdDeviation="2"/>
<feComposite in2="hardAlpha" operator="out"/>
<feColorMatrix type="matrix" values="0 0 0 0 0 0 0 0 0 0 0 0 0 0 0 0 0 0 0.25 0"/>
<feBlend mode="normal" in2="effect1_dropShadow_8_187" result="effect2_dropShadow_8_187"/>
<feBlend mode="normal" in="SourceGraphic" in2="effect2_dropShadow_8_187" result="shape"/>
</filter>
<filter id="filter9_dd_8_187" x="260" y="134" width="48" height="57" filterUnits="userSpaceOnUse" color-interpolation-filters="sRGB">
<feFlood flood-opacity="0" result="BackgroundImageFix"/>
<feColorMatrix in="SourceAlpha" type="matrix" values="0 0 0 0 0 0 0 0 0 0 0 0 0 0 0 0 0 0 127 0" result="hardAlpha"/>
<feOffset dy="4"/>
<feGaussianBlur stdDeviation="2"/>
<feComposite in2="hardAlpha" operator="out"/>
<feColorMatrix type="matrix" values="0 0 0 0 0 0 0 0 0 0 0 0 0 0 0 0 0 0 0.25 0"/>
<feBlend mode="normal" in2="BackgroundImageFix" result="effect1_dropShadow_8_187"/>
<feColorMatrix in="SourceAlpha" type="matrix" values="0 0 0 0 0 0 0 0 0 0 0 0 0 0 0 0 0 0 127 0" result="hardAlpha"/>
<feOffset dy="4"/>
<feGaussianBlur stdDeviation="2"/>
<feComposite in2="hardAlpha" operator="out"/>
<feColorMatrix type="matrix" values="0 0 0 0 0 0 0 0 0 0 0 0 0 0 0 0 0 0 0.25 0"/>
<feBlend mode="normal" in2="effect1_dropShadow_8_187" result="effect2_dropShadow_8_187"/>
<feBlend mode="normal" in="SourceGraphic" in2="effect2_dropShadow_8_187" result="shape"/>
</filter>
<filter id="filter10_dd_8_187" x="6.99999" y="134" width="48" height="57" filterUnits="userSpaceOnUse" color-interpolation-filters="sRGB">
<feFlood flood-opacity="0" result="BackgroundImageFix"/>
<feColorMatrix in="SourceAlpha" type="matrix" values="0 0 0 0 0 0 0 0 0 0 0 0 0 0 0 0 0 0 127 0" result="hardAlpha"/>
<feOffset dy="4"/>
<feGaussianBlur stdDeviation="2"/>
<feComposite in2="hardAlpha" operator="out"/>
<feColorMatrix type="matrix" values="0 0 0 0 0 0 0 0 0 0 0 0 0 0 0 0 0 0 0.25 0"/>
<feBlend mode="normal" in2="BackgroundImageFix" result="effect1_dropShadow_8_187"/>
<feColorMatrix in="SourceAlpha" type="matrix" values="0 0 0 0 0 0 0 0 0 0 0 0 0 0 0 0 0 0 127 0" result="hardAlpha"/>
<feOffset dy="4"/>
<feGaussianBlur stdDeviation="2"/>
<feComposite in2="hardAlpha" operator="out"/>
<feColorMatrix type="matrix" values="0 0 0 0 0 0 0 0 0 0 0 0 0 0 0 0 0 0 0.25 0"/>
<feBlend mode="normal" in2="effect1_dropShadow_8_187" result="effect2_dropShadow_8_187"/>
<feBlend mode="normal" in="SourceGraphic" in2="effect2_dropShadow_8_187" result="shape"/>
</filter>
<filter id="filter11_f_8_187" x="55" y="56" width="204" height="204" filterUnits="userSpaceOnUse" color-interpolation-filters="sRGB">
<feFlood flood-opacity="0" result="BackgroundImageFix"/>
<feBlend mode="normal" in="SourceGraphic" in2="BackgroundImageFix" result="shape"/>
<feGaussianBlur stdDeviation="2" result="effect1_foregroundBlur_8_187"/>
</filter>
<filter id="filter12_dd_8_187" x="55" y="60" width="204" height="204" filterUnits="userSpaceOnUse" color-interpolation-filters="sRGB">
<feFlood flood-opacity="0" result="BackgroundImageFix"/>
<feColorMatrix in="SourceAlpha" type="matrix" values="0 0 0 0 0 0 0 0 0 0 0 0 0 0 0 0 0 0 127 0" result="hardAlpha"/>
<feOffset dy="4"/>
<feGaussianBlur stdDeviation="2"/>
<feComposite in2="hardAlpha" operator="out"/>
<feColorMatrix type="matrix" values="0 0 0 0 0 0 0 0 0 0 0 0 0 0 0 0 0 0 0.25 0"/>
<feBlend mode="normal" in2="BackgroundImageFix" result="effect1_dropShadow_8_187"/>
<feColorMatrix in="SourceAlpha" type="matrix" values="0 0 0 0 0 0 0 0 0 0 0 0 0 0 0 0 0 0 127 0" result="hardAlpha"/>
<feOffset dy="4"/>
<feGaussianBlur stdDeviation="2"/>
<feComposite in2="hardAlpha" operator="out"/>
<feColorMatrix type="matrix" values="0 0 0 0 0 0 0 0 0 0 0 0 0 0 0 0 0 0 0.25 0"/>
<feBlend mode="normal" in2="effect1_dropShadow_8_187" result="effect2_dropShadow_8_187"/>
<feBlend mode="normal" in="SourceGraphic" in2="effect2_dropShadow_8_187" result="shape"/>
</filter>
<filter id="filter13_dd_8_187" x="63" y="67" width="188" height="188" filterUnits="userSpaceOnUse" color-interpolation-filters="sRGB">
<feFlood flood-opacity="0" result="BackgroundImageFix"/>
<feColorMatrix in="SourceAlpha" type="matrix" values="0 0 0 0 0 0 0 0 0 0 0 0 0 0 0 0 0 0 127 0" result="hardAlpha"/>
<feOffset dy="4"/>
<feGaussianBlur stdDeviation="2"/>
<feComposite in2="hardAlpha" operator="out"/>
<feColorMatrix type="matrix" values="0 0 0 0 0 0 0 0 0 0 0 0 0 0 0 0 0 0 0.25 0"/>
<feBlend mode="normal" in2="BackgroundImageFix" result="effect1_dropShadow_8_187"/>
<feColorMatrix in="SourceAlpha" type="matrix" values="0 0 0 0 0 0 0 0 0 0 0 0 0 0 0 0 0 0 127 0" result="hardAlpha"/>
<feOffset dy="4"/>
<feGaussianBlur stdDeviation="2"/>
<feComposite in2="hardAlpha" operator="out"/>
<feColorMatrix type="matrix" values="0 0 0 0 0 0 0 0 0 0 0 0 0 0 0 0 0 0 0.25 0"/>
<feBlend mode="normal" in2="effect1_dropShadow_8_187" result="effect2_dropShadow_8_187"/>
<feBlend mode="normal" in="SourceGraphic" in2="effect2_dropShadow_8_187" result="shape"/>
</filter>
<linearGradient id="paint0_linear_8_187" x1="-41" y1="100.5" x2="157" y2="314" gradientUnits="userSpaceOnUse">
<stop offset="0.165513" stop-color="#36008E"/>
<stop offset="0.505208" stop-color="#724F94"/>
<stop offset="0.937638" stop-color="#210042"/>
</linearGradient>
<linearGradient id="paint1_linear_8_187" x1="157" y1="0" x2="157" y2="314" gradientUnits="userSpaceOnUse">
<stop stop-color="#585858"/>
<stop offset="0.4375" stop-color="white"/>
<stop offset="1" stop-color="#A7A7A7"/>
</linearGradient>
<linearGradient id="paint2_linear_8_187" x1="130.5" y1="32" x2="157" y2="53" gradientUnits="userSpaceOnUse">
<stop stop-color="#A3A3A3"/>
<stop offset="0.5" stop-color="#CACACA"/>
<stop offset="1" stop-color="#A3A3A3"/>
</linearGradient>
<linearGradient id="paint3_linear_8_187" x1="136" y1="276" x2="157" y2="302" gradientUnits="userSpaceOnUse">
<stop stop-color="#A3A3A3"/>
<stop offset="0.489583" stop-color="white"/>
<stop offset="1" stop-color="#A7A7A7"/>
</linearGradient>
<linearGradient id="paint4_linear_8_187" x1="83.4052" y1="45.8464" x2="99.619" y2="75.4164" gradientUnits="userSpaceOnUse">
<stop stop-color="#A3A3A3"/>
<stop offset="0.494792" stop-color="#D9D9D9"/>
<stop offset="0.9375" stop-color="#A7A7A7"/>
</linearGradient>
<linearGradient id="paint5_linear_8_187" x1="91.2549" y1="32.2055" x2="113.329" y2="71.4228" gradientUnits="userSpaceOnUse">
<stop stop-color="#A3A3A3"/>
<stop offset="0.494792" stop-color="#D9D9D9"/>
<stop offset="0.9375" stop-color="#A7A7A7"/>
</linearGradient>
<linearGradient id="paint6_linear_8_187" x1="232.575" y1="46.3028" x2="215.768" y2="75.5395" gradientUnits="userSpaceOnUse">
<stop stop-color="#A3A3A3"/>
<stop offset="0.494792" stop-color="#D9D9D9"/>
<stop offset="0.9375" stop-color="#A7A7A7"/>
</linearGradient>
<linearGradient id="paint7_linear_8_187" x1="225.002" y1="32.5062" x2="202.141" y2="71.2698" gradientUnits="userSpaceOnUse">
<stop stop-color="#A3A3A3"/>
<stop offset="0.494792" stop-color="#D9D9D9"/>
<stop offset="0.9375" stop-color="#A7A7A7"/>
</linearGradient>
<linearGradient id="paint8_linear_8_187" x1="83.4052" y1="266.405" x2="99.619" y2="236.835" gradientUnits="userSpaceOnUse">
<stop stop-color="#A3A3A3"/>
<stop offset="0.494792" stop-color="#D9D9D9"/>
<stop offset="0.9375" stop-color="#A7A7A7"/>
</linearGradient>
<linearGradient id="paint9_linear_8_187" x1="91.2549" y1="280.046" x2="113.329" y2="240.828" gradientUnits="userSpaceOnUse">
<stop stop-color="#A3A3A3"/>
<stop offset="0.494792" stop-color="#D9D9D9"/>
<stop offset="0.9375" stop-color="#A7A7A7"/>
</linearGradient>
<linearGradient id="paint10_linear_8_187" x1="232.575" y1="265.948" x2="215.768" y2="236.712" gradientUnits="userSpaceOnUse">
<stop stop-color="#A3A3A3"/>
<stop offset="0.494792" stop-color="#D9D9D9"/>
<stop offset="0.9375" stop-color="#A7A7A7"/>
</linearGradient>
<linearGradient id="paint11_linear_8_187" x1="225.002" y1="279.745" x2="202.141" y2="240.981" gradientUnits="userSpaceOnUse">
<stop stop-color="#A3A3A3"/>
<stop offset="0.494792" stop-color="#D9D9D9"/>
<stop offset="0.9375" stop-color="#A7A7A7"/>
</linearGradient>
<linearGradient id="paint12_linear_8_187" x1="273.159" y1="210.155" x2="243.882" y2="218.352" gradientUnits="userSpaceOnUse">
<stop stop-color="#A7A7A7"/>
<stop offset="0.489583" stop-color="white"/>
<stop offset="1" stop-color="#A3A3A3"/>
</linearGradient>
<linearGradient id="paint13_linear_8_187" x1="42.8762" y1="210.155" x2="72.1532" y2="218.352" gradientUnits="userSpaceOnUse">
<stop stop-color="#A7A7A7"/>
<stop offset="0.489583" stop-color="white"/>
<stop offset="1" stop-color="#A3A3A3"/>
</linearGradient>
<linearGradient id="paint14_linear_8_187" x1="273.159" y1="98.9621" x2="243.882" y2="90.7654" gradientUnits="userSpaceOnUse">
<stop stop-color="#A7A7A7"/>
<stop offset="0.489583" stop-color="white"/>
<stop offset="1" stop-color="#A3A3A3"/>
</linearGradient>
<linearGradient id="paint15_linear_8_187" x1="42.8762" y1="98.9621" x2="72.1532" y2="90.7654" gradientUnits="userSpaceOnUse">
<stop stop-color="#A7A7A7"/>
<stop offset="0.489583" stop-color="white"/>
<stop offset="1" stop-color="#A3A3A3"/>
</linearGradient>
<linearGradient id="paint16_linear_8_187" x1="266.247" y1="180.238" x2="282.384" y2="137.613" gradientUnits="userSpaceOnUse">
<stop offset="0.271905" stop-color="#A3A3A3"/>
<stop offset="0.427083" stop-color="#F0F0F0"/>
<stop offset="0.586866" stop-color="#CACACA"/>
</linearGradient>
<linearGradient id="paint17_linear_8_187" x1="48.7528" y1="180.238" x2="32.6165" y2="137.613" gradientUnits="userSpaceOnUse">
<stop offset="0.271905" stop-color="#A3A3A3"/>
<stop offset="0.427083" stop-color="#F0F0F0"/>
<stop offset="0.586866" stop-color="#CACACA"/>
</linearGradient>
<linearGradient id="paint18_linear_8_187" x1="-3.5" y1="52.5" x2="224.021" y2="224.5" gradientUnits="userSpaceOnUse">
<stop offset="0.494792" stop-color="#ADAD94"/>
<stop offset="1" stop-color="#FDFFAD"/>
</linearGradient>
</defs>
</svg>
